<svg xmlns="http://www.w3.org/2000/svg" xmlns:xlink="http://www.w3.org/1999/xlink" viewBox="0 0 200 200"><defs><style>.cls-1{fill:url(#linear-gradient);}.cls-2,.cls-4,.cls-5{fill:none;stroke:#fff;stroke-miterlimit:10;}.cls-2,.cls-5{stroke-width:3.06px;}.cls-3{font-size:17.84px;fill:#fff;font-family:TwCenMT-Regular, Tw Cen MT;}.cls-4{stroke-width:2.97px;}.cls-5{stroke-linecap:round;}</style><linearGradient id="linear-gradient" y1="100" x2="200" y2="100" gradientUnits="userSpaceOnUse"><stop offset="0" stop-color="#2957ae"/><stop offset="0.13" stop-color="#26509f"/><stop offset="0.38" stop-color="#1d3c78"/><stop offset="0.72" stop-color="#0f1e3a"/><stop offset="1" stop-color="#020202"/></linearGradient></defs><title>App Icon</title><g id="Layer_1" data-name="Layer 1"><rect class="cls-1" width="200" height="200" rx="58.6" ry="58.6"/><line class="cls-2" x1="91.26" y1="81.69" x2="107.81" y2="81.69"/><line class="cls-2" x1="99.53" y1="89.97" x2="99.53" y2="73.41"/><text class="cls-3" transform="translate(17.58 132.41)">W A T C H &amp; L E A R N</text><circle class="cls-4" cx="46.52" cy="84.44" r="10.62"/><circle class="cls-4" cx="46.52" cy="84.44" r="4.85"/><line class="cls-2" x1="21.99" y1="82.38" x2="16.92" y2="78.06"/><line class="cls-2" x1="24.23" y1="69.56" x2="28.48" y2="75.34"/><line class="cls-2" x1="33.9" y1="64.14" x2="36.61" y2="70.27"/><line class="cls-2" x1="46.49" y1="68.5" x2="46.49" y2="62.37"/><line class="cls-2" x1="56.19" y1="70.27" x2="58.79" y2="64.14"/><line class="cls-2" x1="64.21" y1="75.34" x2="68.58" y2="70.27"/><line class="cls-2" x1="71.76" y1="82.38" x2="76.13" y2="78.06"/><path class="cls-5" d="M20.45,84.31c28.43-35.39,52,.89,52,.89h0s-23.59,34.49-52-.89Z"/><rect class="cls-2" x="125.12" y="64.92" width="54.85" height="34.45"/><line class="cls-2" x1="152.54" y1="66.99" x2="152.54" y2="99.36"/><line class="cls-2" x1="132.14" y1="72.45" x2="144.88" y2="72.45"/><line class="cls-2" x1="132.14" y1="79.05" x2="144.88" y2="79.05"/><line class="cls-2" x1="132.14" y1="85.65" x2="144.88" y2="85.65"/><line class="cls-2" x1="132.14" y1="92.24" x2="144.88" y2="92.24"/><line class="cls-2" x1="159.82" y1="72.45" x2="172.56" y2="72.45"/><line class="cls-2" x1="159.82" y1="79.05" x2="172.56" y2="79.05"/><line class="cls-2" x1="159.82" y1="85.65" x2="172.56" y2="85.65"/><line class="cls-2" x1="159.82" y1="92.24" x2="172.56" y2="92.24"/><line class="cls-2" x1="147.47" y1="106.77" x2="147.47" y2="100.53"/></g></svg>