<?xml version="1.0" encoding="utf-8"?>
<!-- Generator: Adobe Illustrator 22.1.0, SVG Export Plug-In . SVG Version: 6.00 Build 0)  -->
<svg version="1.1" xmlns="http://www.w3.org/2000/svg" xmlns:xlink="http://www.w3.org/1999/xlink" x="0px" y="0px"
	 viewBox="0 0 1024 528.4" style="enable-background:new 0 0 1024 528.4;" xml:space="preserve">
<style type="text/css">
	.st0{fill:none;}
	.st1{fill:none;stroke:#231F20;stroke-width:3.8225;stroke-miterlimit:10;}
	.st2{fill:#FFFFFF;stroke:#000000;stroke-miterlimit:10;}
	.st3{fill:#00386A;}
	.st4{fill:#FFF748;}
	.st5{fill:#FFFFFF;stroke:#000000;stroke-width:0.6947;}
	.st6{fill:#FF3F3F;}
	.st7{fill:#00AC91;}
	.st8{fill:#9B7163;}
	.st9{fill:#2957AE;}
	.st10{fill:#FFB6C5;}
	.st11{fill:#880070;}
	.st12{stroke:#231F20;stroke-miterlimit:10;}
	.st13{fill:#1A1A1A;}
	.st14{fill:#FFFFFF;}
	.st15{fill:#231F20;}
	.st16{font-family:'TwCenMT-Regular';}
	.st17{font-size:16.1393px;}
	.st18{fill:none;stroke:#231F20;stroke-width:8.5552;stroke-miterlimit:10;}
	.st19{fill:none;stroke:#231F20;stroke-width:0.4177;stroke-miterlimit:10;}
	.st20{fill:none;stroke:#231F20;stroke-width:0.3725;stroke-miterlimit:10;}
	.st21{fill:#FFFFFF;stroke:#00A14B;stroke-width:0.7419;stroke-linecap:round;stroke-linejoin:round;stroke-miterlimit:10;}
	.st22{fill:none;stroke:#00A14B;stroke-width:0.7419;stroke-linecap:round;stroke-linejoin:round;stroke-miterlimit:10;}
	.st23{fill:#00A14B;}
	.st24{fill:#FFFFFF;stroke:#231F20;stroke-width:1.4837;stroke-linecap:round;stroke-linejoin:round;stroke-miterlimit:10;}
	.st25{fill:none;stroke:#231F20;stroke-width:1.4837;stroke-linecap:round;stroke-linejoin:round;stroke-miterlimit:10;}
	.st26{fill:none;stroke:#929497;stroke-width:1.4837;stroke-linecap:round;stroke-linejoin:round;stroke-miterlimit:10;}
	.st27{fill:none;stroke:#FFDD15;stroke-width:1.4837;stroke-linecap:round;stroke-linejoin:round;stroke-miterlimit:10;}
	.st28{fill:none;stroke:#EC1C24;stroke-width:1.4837;stroke-linecap:round;stroke-linejoin:round;stroke-miterlimit:10;}
	.st29{fill:#00A14B;stroke:#231F20;stroke-width:1.6366;stroke-linecap:round;stroke-linejoin:round;stroke-miterlimit:10;}
	.st30{fill:#FFDD15;stroke:#231F20;stroke-width:1.5605;stroke-linecap:round;stroke-linejoin:round;stroke-miterlimit:10;}
	.st31{fill:none;stroke:#231F20;stroke-width:1.5605;stroke-linecap:round;stroke-linejoin:round;stroke-miterlimit:10;}
	.st32{fill:none;stroke:#231F20;stroke-width:2.0246;stroke-linecap:round;stroke-linejoin:round;stroke-miterlimit:10;}
	.st33{fill:#FFFFFF;stroke:#231F20;stroke-width:1.8014;stroke-linecap:round;stroke-linejoin:round;stroke-miterlimit:10;}
	.st34{fill:none;stroke:#231F20;stroke-width:1.8014;stroke-linecap:round;stroke-linejoin:round;stroke-miterlimit:10;}
	.st35{fill:none;stroke:#929497;stroke-width:1.8014;stroke-linecap:round;stroke-linejoin:round;stroke-miterlimit:10;}
	.st36{fill:none;stroke:#00A14B;stroke-width:1.8014;stroke-linecap:round;stroke-linejoin:round;stroke-miterlimit:10;}
	.st37{fill:#EC1C24;}
	.st38{fill:none;stroke:#FFFFFF;stroke-width:4.5034;stroke-miterlimit:10;}
	
		.st39{opacity:0.5;fill:none;stroke:#00A14B;stroke-width:1.8014;stroke-linecap:round;stroke-linejoin:round;stroke-miterlimit:10;}
	
		.st40{opacity:0.5;fill:none;stroke:#00A14B;stroke-width:0.9007;stroke-linecap:round;stroke-linejoin:round;stroke-miterlimit:10;}
	.st41{fill:#D0D2D3;}
	.st42{fill:none;stroke:#D0D2D3;stroke-width:3.6027;stroke-miterlimit:10;}
	.st43{fill:none;stroke:#FFDD15;stroke-width:3.7869;stroke-linecap:round;stroke-linejoin:round;stroke-miterlimit:10;}
	.st44{opacity:0.5;}
	.st45{fill:none;stroke:#00A14B;stroke-width:8.2295;stroke-linecap:round;stroke-linejoin:round;stroke-miterlimit:10;}
	.st46{fill:#FFDD15;stroke:#231F20;stroke-width:3.6125;stroke-linecap:round;stroke-linejoin:round;stroke-miterlimit:10;}
	.st47{opacity:0.2;}
	.st48{fill:#FFFFFF;stroke:#00A14B;stroke-width:4.0555;stroke-linecap:round;stroke-linejoin:round;stroke-miterlimit:10;}
	.st49{fill:#00A14B;stroke:#231F20;stroke-width:4.0555;stroke-linecap:round;stroke-linejoin:round;stroke-miterlimit:10;}
	.st50{fill:none;stroke:#231F20;stroke-width:3.1756;stroke-linecap:round;stroke-linejoin:round;stroke-miterlimit:10;}
	.st51{fill:none;stroke:#231F20;stroke-width:1.2814;stroke-linecap:round;stroke-linejoin:round;stroke-miterlimit:10;}
	.st52{fill:none;stroke:#929497;stroke-width:1.2814;stroke-linecap:round;stroke-linejoin:round;stroke-miterlimit:10;}
	.st53{fill:#929497;}
	.st54{fill:none;stroke:#231F20;stroke-width:1.2206;stroke-linecap:round;stroke-linejoin:round;stroke-miterlimit:10;}
	.st55{fill:none;stroke:#231F20;stroke-width:2.7241;stroke-linecap:round;stroke-linejoin:round;stroke-miterlimit:10;}
	.st56{fill:#BBBDBF;}
	.st57{fill:none;stroke:#231F20;stroke-width:3.3189;stroke-linecap:round;stroke-linejoin:round;stroke-miterlimit:10;}
	.st58{fill:#00A14B;stroke:#231F20;stroke-width:3.3189;stroke-linecap:round;stroke-linejoin:round;stroke-miterlimit:10;}
	.st59{fill:none;stroke:#231F20;stroke-width:3.1874;stroke-linecap:round;stroke-linejoin:round;stroke-miterlimit:10;}
	.st60{fill:#00A14B;stroke:#231F20;stroke-width:1.725;stroke-linecap:round;stroke-linejoin:round;stroke-miterlimit:10;}
	.st61{fill:none;stroke:#231F20;stroke-width:1.725;stroke-linecap:round;stroke-linejoin:round;stroke-miterlimit:10;}
	.st62{fill:#FFDD15;}
	.st63{fill:#FFDD15;stroke:#231F20;stroke-width:1.4077;stroke-linecap:round;stroke-linejoin:round;stroke-miterlimit:10;}
	.st64{fill:#FFFFFF;stroke:#231F20;stroke-width:1.4077;stroke-miterlimit:10;}
	.st65{fill:none;stroke:#FFDD15;stroke-width:4.0947;stroke-linecap:round;stroke-linejoin:round;stroke-miterlimit:10;}
	.st66{fill:#FFFFFF;stroke:#00A14B;stroke-width:2.6225;stroke-linecap:round;stroke-linejoin:round;stroke-miterlimit:10;}
	.st67{fill:#00A14B;stroke:#231F20;stroke-width:2.6225;stroke-linecap:round;stroke-linejoin:round;stroke-miterlimit:10;}
	.st68{fill:#FFFFFF;stroke:#00A04A;stroke-width:2.4391;stroke-linecap:round;stroke-linejoin:round;stroke-miterlimit:10;}
	.st69{fill:#00A04A;stroke:#221F1F;stroke-width:2.4391;stroke-linecap:round;stroke-linejoin:round;stroke-miterlimit:10;}
	.st70{fill:#221F1F;}
	.st71{fill:none;stroke:#221F1F;stroke-width:2.5606;stroke-linecap:round;stroke-linejoin:round;stroke-miterlimit:10;}
	.st72{fill:none;stroke:#919395;stroke-width:2.5606;stroke-linecap:round;stroke-linejoin:round;stroke-miterlimit:10;}
	.st73{fill:#919395;}
	.st74{fill:none;stroke:#221F1F;stroke-width:2.4391;stroke-linecap:round;stroke-linejoin:round;stroke-miterlimit:10;}
	.st75{fill:#FFDD15;stroke:#231F20;stroke-width:4.4793;stroke-linecap:round;stroke-linejoin:round;stroke-miterlimit:10;}
	.st76{fill:none;stroke:#231F20;stroke-width:4.4793;stroke-linecap:round;stroke-linejoin:round;stroke-miterlimit:10;}
	.st77{fill:none;stroke:#404041;stroke-width:4.4793;stroke-linecap:round;stroke-linejoin:round;stroke-miterlimit:10;}
	.st78{fill:none;stroke:#231F20;stroke-width:6.1275;stroke-linecap:round;stroke-linejoin:round;stroke-miterlimit:10;}
	.st79{fill:none;stroke:#231F20;stroke-width:6.1275;stroke-linejoin:round;stroke-miterlimit:10;}
	.st80{fill:#00A14B;stroke:#00A14B;stroke-width:1.368;stroke-miterlimit:10;}
	.st81{fill:#FFFFFF;stroke:#000000;stroke-width:3.0447;stroke-miterlimit:10;}
	.st82{fill:#FEEA3F;}
	.st83{fill:none;stroke:#FEEA3F;stroke-width:7;stroke-miterlimit:10;}
	.st84{opacity:0.1;}
	.st85{fill:none;stroke:#231F20;stroke-width:10.5714;stroke-linecap:round;stroke-linejoin:round;stroke-miterlimit:10;}
	.st86{fill:none;stroke:#231F20;stroke-width:6.3591;stroke-linecap:round;stroke-linejoin:round;stroke-miterlimit:10;}
	.st87{fill:none;stroke:#929497;stroke-width:6.3591;stroke-linecap:round;stroke-linejoin:round;stroke-miterlimit:10;}
	.st88{fill:none;stroke:#231F20;stroke-width:6.0574;stroke-linecap:round;stroke-linejoin:round;stroke-miterlimit:10;}
	.st89{fill:none;stroke:#231F20;stroke-width:9.0684;stroke-linecap:round;stroke-linejoin:round;stroke-miterlimit:10;}
	.st90{opacity:0.1;fill:url(#SVGID_5_);}
	.st91{opacity:0.1;fill:url(#SVGID_6_);}
</style>
<pattern  x="79.5" y="1229.2" width="400" height="238.9" patternUnits="userSpaceOnUse" id="New_Pattern" viewBox="79.2 -333.5 400 238.9" style="overflow:visible;">
	<g>
		<rect x="79.2" y="-333.5" class="st0" width="400" height="238.9"/>
		<g>
			<polyline class="st1" points="423.1,-163.9 423.1,-187.3 556.5,-187.3 556.5,-14 534.1,-14 			"/>
			<line class="st1" x1="440.4" y1="-170.5" x2="528.1" y2="-170.5"/>
			<line class="st1" x1="446.8" y1="-157.5" x2="497.3" y2="-157.5"/>
			<path class="st1" d="M508.8-1.9h-94.9c-6.6,0-12-5.4-12-12v-122.5c0-6.6,5.4-12,12-12h94.9c6.6,0,12,5.4,12,12v122.5
				C520.8-7.3,515.4-1.9,508.8-1.9z"/>
			<path class="st1" d="M494.7-92.9H428c-6.6,0-12-5.4-12-12v-19.2c0-6.6,5.4-12,12-12h66.7c6.6,0,12,5.4,12,12v19.2
				C506.7-98.3,501.3-92.9,494.7-92.9z"/>
		</g>
		<g>
			<polyline class="st1" points="23.1,-163.9 23.1,-187.3 156.5,-187.3 156.5,-14 134.1,-14 			"/>
			<line class="st1" x1="40.4" y1="-170.5" x2="128.1" y2="-170.5"/>
			<line class="st1" x1="46.8" y1="-157.5" x2="97.3" y2="-157.5"/>
			<circle class="st1" cx="139.1" cy="-148.5" r="9.1"/>
			<circle class="st1" cx="139.1" cy="-118" r="9.1"/>
			<circle class="st1" cx="139.1" cy="-87.6" r="9.1"/>
			<path class="st1" d="M108.8-1.9H13.9c-6.6,0-12-5.4-12-12v-122.5c0-6.6,5.4-12,12-12h94.9c6.6,0,12,5.4,12,12v122.5
				C120.8-7.3,115.4-1.9,108.8-1.9z"/>
			<path class="st1" d="M94.7-92.9H28c-6.6,0-12-5.4-12-12v-19.2c0-6.6,5.4-12,12-12h66.7c6.6,0,12,5.4,12,12v19.2
				C106.7-98.3,101.3-92.9,94.7-92.9z"/>
		</g>
		<g>
			<polyline class="st1" points="423.1,-402.7 423.1,-426.2 556.5,-426.2 556.5,-252.8 534.1,-252.8 			"/>
			<path class="st1" d="M508.8-240.8h-94.9c-6.6,0-12-5.4-12-12v-122.5c0-6.6,5.4-12,12-12h94.9c6.6,0,12,5.4,12,12v122.5
				C520.8-246.2,515.4-240.8,508.8-240.8z"/>
			<path class="st1" d="M494.7-331.8H428c-6.6,0-12-5.4-12-12V-363c0-6.6,5.4-12,12-12h66.7c6.6,0,12,5.4,12,12v19.2
				C506.7-337.2,501.3-331.8,494.7-331.8z"/>
			<g>
				<rect x="416.4" y="-321.4" class="st1" width="24.1" height="9"/>
				<rect x="449.3" y="-321.4" class="st1" width="24.1" height="9"/>
				<rect x="416.4" y="-300.5" class="st1" width="24.1" height="9"/>
				<rect x="449.3" y="-300.5" class="st1" width="24.1" height="9"/>
				<rect x="416.4" y="-279.6" class="st1" width="24.1" height="9"/>
				<rect x="449.3" y="-279.6" class="st1" width="24.1" height="9"/>
				<rect x="416.4" y="-258.6" class="st1" width="24.1" height="9"/>
				<rect x="449.3" y="-258.6" class="st1" width="24.1" height="9"/>
			</g>
		</g>
		<g>
			<polyline class="st1" points="223.1,-283.3 223.1,-306.7 356.5,-306.7 356.5,-133.4 334.1,-133.4 			"/>
			<line class="st1" x1="240.4" y1="-290" x2="328.1" y2="-290"/>
			<line class="st1" x1="246.8" y1="-276.9" x2="297.3" y2="-276.9"/>
			<circle class="st1" cx="339.1" cy="-267.9" r="9.1"/>
			<circle class="st1" cx="339.1" cy="-237.5" r="9.1"/>
			<circle class="st1" cx="339.1" cy="-207" r="9.1"/>
			<circle class="st1" cx="339.1" cy="-176.6" r="9.1"/>
			<path class="st1" d="M308.8-121.4h-94.9c-6.6,0-12-5.4-12-12v-122.5c0-6.6,5.4-12,12-12h94.9c6.6,0,12,5.4,12,12v122.5
				C320.8-126.8,315.4-121.4,308.8-121.4z"/>
			<path class="st1" d="M294.7-212.4H228c-6.6,0-12-5.4-12-12v-19.2c0-6.6,5.4-12,12-12h66.7c6.6,0,12,5.4,12,12v19.2
				C306.7-217.8,301.3-212.4,294.7-212.4z"/>
			<g>
				<rect x="216.4" y="-202" class="st1" width="24.1" height="9"/>
				<rect x="249.3" y="-202" class="st1" width="24.1" height="9"/>
				<rect x="282.2" y="-202" class="st1" width="24.1" height="9"/>
				<rect x="216.4" y="-181.1" class="st1" width="24.1" height="9"/>
				<rect x="249.3" y="-181.1" class="st1" width="24.1" height="9"/>
				<rect x="282.2" y="-181.1" class="st1" width="24.1" height="9"/>
				<rect x="216.4" y="-160.1" class="st1" width="24.1" height="9"/>
				<rect x="249.3" y="-160.1" class="st1" width="24.1" height="9"/>
				<rect x="282.2" y="-160.1" class="st1" width="24.1" height="9"/>
				<rect x="216.4" y="-139.2" class="st1" width="24.1" height="9"/>
				<rect x="249.3" y="-139.2" class="st1" width="24.1" height="9"/>
				<rect x="282.2" y="-139.2" class="st1" width="24.1" height="9"/>
			</g>
		</g>
		<g>
			<polyline class="st1" points="23.1,-402.7 23.1,-426.2 156.5,-426.2 156.5,-252.8 134.1,-252.8 			"/>
			<circle class="st1" cx="139.1" cy="-326.5" r="9.1"/>
			<circle class="st1" cx="139.1" cy="-296" r="9.1"/>
			<path class="st1" d="M108.8-240.8H13.9c-6.6,0-12-5.4-12-12v-122.5c0-6.6,5.4-12,12-12h94.9c6.6,0,12,5.4,12,12v122.5
				C120.8-246.2,115.4-240.8,108.8-240.8z"/>
			<path class="st1" d="M94.7-331.8H28c-6.6,0-12-5.4-12-12V-363c0-6.6,5.4-12,12-12h66.7c6.6,0,12,5.4,12,12v19.2
				C106.7-337.2,101.3-331.8,94.7-331.8z"/>
			<g>
				<rect x="82.2" y="-321.4" class="st1" width="24.1" height="9"/>
				<rect x="82.2" y="-300.5" class="st1" width="24.1" height="9"/>
				<rect x="82.2" y="-279.6" class="st1" width="24.1" height="9"/>
				<rect x="82.2" y="-258.6" class="st1" width="24.1" height="9"/>
			</g>
		</g>
	</g>
</pattern>
<g id="Layer_1">
	<text transform="matrix(1 0 0 1 266.9294 7.976)" class="st14 st16 st17">CASE STUDIES</text>
</g>
<g id="Layer_2">
	<pattern  id="SVGID_2_" xlink:href="#New_Pattern" patternTransform="matrix(1 0 0 1 -1169.3085 0)">
	</pattern>
	<rect y="-0.4" style="opacity:0.1;fill:url(#SVGID_2_);" width="1026.1" height="528.8"/>
</g>
</svg>
