<svg xmlns="http://www.w3.org/2000/svg" viewBox="0 0 459.3 459.3"><defs><style>.cls-1{fill:none;stroke:#231f20;stroke-miterlimit:10;stroke-width:8.56px;}</style></defs><title>Artboard 13</title><g id="Layer_1" data-name="Layer 1"><polyline class="cls-1" points="109.46 65.28 109.46 12.81 408.07 12.81 408.07 400.76 357.9 400.76"/><line class="cls-1" x1="148.22" y1="50.31" x2="344.42" y2="50.31"/><line class="cls-1" x1="162.45" y1="79.51" x2="275.53" y2="79.51"/><circle class="cls-1" cx="369.04" cy="99.73" r="20.28"/><circle class="cls-1" cx="369.04" cy="167.87" r="20.28"/><circle class="cls-1" cx="369.04" cy="236.02" r="20.28"/><circle class="cls-1" cx="369.04" cy="304.16" r="20.28"/><rect class="cls-1" x="62.09" y="99.73" width="266.15" height="327.99" rx="12" ry="12"/><rect class="cls-1" x="93.7" y="127.38" width="202.94" height="96.65" rx="12" ry="12"/><rect class="cls-1" x="94.61" y="247.25" width="53.92" height="20.11"/><rect class="cls-1" x="168.21" y="247.25" width="53.92" height="20.11"/><rect class="cls-1" x="241.81" y="247.25" width="53.92" height="20.11"/><rect class="cls-1" x="94.61" y="294.11" width="53.92" height="20.11"/><rect class="cls-1" x="168.21" y="294.11" width="53.92" height="20.11"/><rect class="cls-1" x="241.81" y="294.11" width="53.92" height="20.11"/><rect class="cls-1" x="94.61" y="340.96" width="53.92" height="20.11"/><rect class="cls-1" x="168.21" y="340.96" width="53.92" height="20.11"/><rect class="cls-1" x="241.81" y="340.96" width="53.92" height="20.11"/><rect class="cls-1" x="94.61" y="387.81" width="53.92" height="20.11"/><rect class="cls-1" x="168.21" y="387.81" width="53.92" height="20.11"/><rect class="cls-1" x="241.81" y="387.81" width="53.92" height="20.11"/></g></svg>