<svg xmlns="http://www.w3.org/2000/svg" viewBox="0 0 1094.89 1094.89"><defs><style>.cls-1{opacity:0.1;}.cls-2,.cls-3,.cls-5,.cls-7,.cls-8{fill:none;stroke-linecap:round;stroke-linejoin:round;}.cls-2,.cls-3,.cls-7,.cls-8{stroke:#231f20;}.cls-2{stroke-width:10.57px;}.cls-3,.cls-5{stroke-width:6.36px;}.cls-4{fill:#fff;}.cls-5{stroke:#929497;}.cls-6{fill:#929497;}.cls-7{stroke-width:6.06px;}.cls-8{stroke-width:9.07px;}</style></defs><title>Artboard 7</title><g id="Layer_1" data-name="Layer 1"><g class="cls-1"><path d="M849,733.68c-.5,16.69-.11,33.39.6,50.06.68,16,.59,32.76,3.27,48.55.39,2.34,4.09,1.74,4.07-.55-.07-8.13-1.35-16.36-2-24.47s-1.2-16.34-1.71-24.51c-1-16.35-1.69-32.72-2.66-49.08a.79.79,0,0,0-1.58,0Z"/><path d="M851.64,736.78a73.55,73.55,0,0,0,18.8,2.4l-1.78-1.78c-.3,15.88,1,31.91,2,47.75s2.23,31.79,3.68,47.65c.27,2.89,4.81,2.91,4.53,0Q876.57,809,875,785.15c-1.06-15.89-1.33-31.89-2.74-47.75a1.8,1.8,0,0,0-1.78-1.78,149.77,149.77,0,0,1-18.59-.4c-.91-.05-1.05,1.32-.21,1.56Z"/><path d="M860.23,835.57A31,31,0,0,1,873,836.7c2.3.68,3.29-3.09,1-3.55a40.6,40.6,0,0,0-14.08-.29c-1.52.23-1.18,2.9.37,2.71Z"/><path d="M887.68,718.19c4,38.8,5.5,77.84,7.53,116.78.14,2.7,4.42,2.65,4.18,0l-.31-3.28a1.82,1.82,0,0,0-3.63,0l-.24,3.28h4.18c-1-39.12-5.46-78-10.27-116.78-.11-.91-1.54-.94-1.44,0Z"/><path d="M889,719.9c6-1.43,14.36-3.22,20.36-.79l-1.44-1.9c3.71,39.75,7.48,79.47,10,119.32.18,2.91,4.74,2.93,4.56,0-2.52-39.82-5.62-79.72-10.6-119.32a2,2,0,0,0-2.5-1.9c-3.87.64-8,0-11.92.53a50.53,50.53,0,0,0-9,2,1,1,0,0,0,.56,2Z"/><path d="M902.94,838.79c4.83,1.67,12.06,1.78,16-2a1.61,1.61,0,0,0-1.56-2.66c-2.13.45-4.06,1.49-6.22,1.9a20.61,20.61,0,0,1-7.47-.09,1.46,1.46,0,0,0-.77,2.81Z"/><path d="M933.9,699.39c3.33,22.73,5.76,45.62,7.38,68.54q1.17,16.56,1.6,33.16.23,8.29.27,16.6c0,5.8-.56,11.84.14,17.59.24,1.92,3.41,2.86,3.78.51,1.69-10.84.44-22.78.12-33.72q-.51-17.58-1.91-35.12a627.61,627.61,0,0,0-9.3-68.13c-.27-1.38-2.28-.77-2.08.57Z"/><path d="M938.09,706.89A80.85,80.85,0,0,1,958,705.06l-2.18-2.18c1.75,22,3.66,44,4.71,66.12s.71,44.2,1.65,66.27a2.31,2.31,0,0,0,4.61,0c.92-22-.47-44.32-1.57-66.27s-2.5-44.18-5-66.12a2.21,2.21,0,0,0-2.17-2.17,68.65,68.65,0,0,0-20.49,4.13,1.06,1.06,0,0,0,.56,2Z"/><path d="M950.24,841.38c4.42-.69,9.59-.39,13.74-2.18,1.95-.84.78-3.64-1-3.71-4.45-.19-9.24,2-13.55,3-1.93.42-1.07,3.21.81,2.92Z"/><path d="M871.74,737.91a37.11,37.11,0,0,0,2.8,4.14,38.5,38.5,0,0,0,2.86,3.86c.8.89,2.08-.24,1.58-1.22a18.81,18.81,0,0,0-6.75-7.27.36.36,0,0,0-.49.49Z"/><path d="M877.52,835.29a20.81,20.81,0,0,1,1.5,1.47c.43.5.68,1.14,1.1,1.67a14.82,14.82,0,0,0,3,3.07c1.48,1,2.91-1.14,1.82-2.36a13.69,13.69,0,0,0-3.11-2.26,14.82,14.82,0,0,0-1.55-.76,11.48,11.48,0,0,1-2.06-1.49c-.45-.36-1.09.23-.65.66Z"/><path d="M855,836.27a28.1,28.1,0,0,0,3.06,4.37c1.09,1.26,2.36,2.8,4,3.31a1.27,1.27,0,0,0,1.42-1.84c-.81-1.29-2.25-2.13-3.35-3.18a31.44,31.44,0,0,1-3.32-3.7c-.78-1-2.48-.14-1.79,1Z"/><path d="M864.93,845.2A159.13,159.13,0,0,0,882.24,844c1-.14.8-1.93-.24-1.82A154.39,154.39,0,0,0,864.9,845c-.1,0-.08.19,0,.19Z"/><path d="M911.17,717.94a32.12,32.12,0,0,1,2.46,3.12,14.27,14.27,0,0,0,2.24,3,1.1,1.1,0,0,0,1.82-1.06c-.73-2.52-3.35-4.63-5.3-6.25a.86.86,0,0,0-1.22,1.21Z"/><path d="M922.71,835.52a28.69,28.69,0,0,1,2.11,2.69,6.11,6.11,0,0,0,1.81,2.18c.49.27,1.29-.19,1-.8a6.49,6.49,0,0,0-2-2.23,28.38,28.38,0,0,1-2.38-2.4c-.34-.38-.88.18-.55.56Z"/><path d="M899.1,838.82c2.16,1.86,3.29,4.17,4.77,6.53.76,1.22,3,.45,2.42-1-1.08-2.94-3.59-5.15-6.1-6.92-.83-.59-1.86.75-1.09,1.41Z"/><path d="M908.57,846c5.28.37,11.37.1,16.15-2.41.83-.44.25-1.68-.62-1.47-5.26,1.23-10.06,3-15.53,3.44a.22.22,0,0,0,0,.44Z"/><path d="M959.25,702.28a81.45,81.45,0,0,0,5.35,9.28c1.33,1.84,4.34.2,3.11-1.82a84.28,84.28,0,0,0-6.73-8.8c-.81-1-2.31.28-1.73,1.34Z"/><path d="M948,841.67a8.32,8.32,0,0,1,2,2.29,16.78,16.78,0,0,0,1.18,2.68,1.14,1.14,0,0,0,2.07-.87,5.23,5.23,0,0,0-1.74-2.78c-.78-.83-1.48-1.7-2.34-2.46s-1.92.45-1.14,1.14Z"/><path d="M954,847.71a76.55,76.55,0,0,1,16.69-1.1c1.24,0,1.17-1.75,0-1.88a31.28,31.28,0,0,0-16.72,2.92s0,.07,0,.06Z"/><path d="M965.37,838a40.83,40.83,0,0,1,6.56,4.94c1.25,1,3-.63,1.81-1.82-2.2-2.2-4.94-3.4-7.77-4.54-.82-.33-1.37,1-.6,1.42Z"/><path d="M917.59,725.05c-.73,13.88-.34,29,2.79,42.61a1.21,1.21,0,0,0,2.36-.32c-.33-14-2.5-28.5-4.5-42.37-.06-.38-.63-.27-.65.08Z"/><path d="M876.9,745.75c-.31,12,2.35,24.36,3.2,36.33.87,12.16,1.71,24.36,2.39,36.54a.43.43,0,0,0,.85,0,266.66,266.66,0,0,0-.26-37.5c-.92-11.51-1.31-24.52-5.05-35.52a.58.58,0,0,0-1.13.15Z"/><path d="M965.91,710.66c0,8.51-.61,17-.36,25.52s.7,17,1.22,25.5,1.08,17,1.65,25.49c.54,7.94.39,16.33,2,24.14.36,1.75,2.88,1.22,3-.4.51-8.43-.93-17.28-1.51-25.7Q971,773,970.21,760.7c-.51-8.17-1-16.35-1.51-24.52-.53-8.5-1.7-17-2.09-25.52a.35.35,0,0,0-.7,0Z"/></g><g class="cls-1"><line class="cls-2" x1="1076.09" y1="496.54" x2="187.83" y2="490.7"/><line class="cls-2" x1="645.48" y1="462.38" x2="645.48" y2="520.3"/><line class="cls-2" x1="746.09" y1="462.38" x2="746.09" y2="520.3"/><line class="cls-2" x1="846.71" y1="462.38" x2="846.71" y2="520.3"/><line class="cls-2" x1="947.32" y1="462.38" x2="947.32" y2="520.3"/><line class="cls-2" x1="1047.93" y1="462.38" x2="1047.93" y2="520.3"/><line class="cls-2" x1="243.02" y1="462.38" x2="243.02" y2="520.3"/><line class="cls-2" x1="343.63" y1="462.38" x2="343.63" y2="520.3"/><line class="cls-2" x1="444.25" y1="462.38" x2="444.25" y2="520.3"/><line class="cls-2" x1="544.86" y1="462.38" x2="544.86" y2="520.3"/><path class="cls-3" d="M188,410.8c0,2.19-.07,4.37-.21,6.52"/><circle class="cls-4" cx="131.37" cy="411.55" r="109.37"/><path class="cls-5" d="M222.9,407.66a99.33,99.33,0,1,1-25.18-72.84"/><polygon class="cls-6" points="183.02 341.91 214.05 326.69 211.82 359.3 183.02 341.91"/><line class="cls-7" x1="110.74" y1="334.85" x2="107.48" y2="320.17"/><line class="cls-7" x1="185.74" y1="384.3" x2="202.59" y2="380.5"/><line class="cls-7" x1="141.17" y1="460.93" x2="145.52" y2="479.41"/><line class="cls-7" x1="61.28" y1="414.19" x2="43.35" y2="419.08"/><polyline class="cls-7" points="85.2 343 123.69 401.14 168.35 368.54"/><circle class="cls-6" cx="125.88" cy="399.6" r="11.96"/><path class="cls-8" d="M868.78,249.49,917.19,230C901.8,462.38,380.29,450,380.29,450"/><line class="cls-8" x1="955" y1="261.33" x2="917.19" y2="229.97"/></g><rect class="cls-4" x="887.47" y="569.48" width="134.19" height="81.59" transform="translate(-126.65 271.75) rotate(-15.21)"/><g class="cls-1"><path d="M920.05,667c17.85-7.1,36.67-11.81,55.41-15.94q13.65-3,27.52-5c10.17-1.42,20.4-1.83,30.58-3,4.44-.51,4.71-7.17,0-7.15-19.28.11-39.3,4.08-58,8.41-19.49,4.52-38,11.62-56.45,19.21-2.07.85-1.19,4.26.95,3.42Z"/></g><g class="cls-1"><path d="M889.91,591a1202.16,1202.16,0,0,1,124.34-33c5.81-1.19,3.36-10.52-2.47-8.95-41.39,11.15-82.68,22.91-123.49,36-3.72,1.19-2.13,7.08,1.62,5.88Z"/><path d="M882.32,593c-1.63,5.31.36,11.23,1.55,16.48,1.43,6.28,3.3,12.49,5.28,18.62q2.85,8.76,6.27,17.32c2.19,5.44,4.14,12,8.09,16.41,2.33,2.59,5.79-.25,5.32-3.1-1-5.81-4.74-11.56-7-17q-3.54-8.52-6.51-17.27c-1.87-5.53-3.5-11.13-5.14-16.74-1.51-5.18-2.24-11.06-5.77-15.29a1.26,1.26,0,0,0-2.09.55Z"/><path d="M1016.85,554c2.23,12.76,5.63,25.28,8.76,37.86l4.56,18.37c1.46,5.84,2.17,12.88,5.23,18.1a3.6,3.6,0,0,0,6.66-1.8c.12-6.07-2.71-12.56-4.3-18.39l-5-18.25c-3.41-12.5-6.56-25.08-10.85-37.29a2.64,2.64,0,0,0-5.08,1.4Z"/><path d="M886,596.26c13.62,3.45,27.29,7,40.62,11.49,6.84,2.29,13.63,4.77,20.28,7.57,6.25,2.63,12.2,6.27,18.53,8.65,5,1.87,9.05.44,12.07-3.86,4.4-6.27,8.07-13.19,12.06-19.74l11.29-18.5c4-6.6,9-13.22,12.09-20.31,1.25-2.85-2.31-6.53-4.75-3.67-4.17,4.91-7.31,10.85-10.76,16.28q-5.55,8.73-11.11,17.46t-11.14,17.45c-.88,1.39-1.75,2.79-2.65,4.16-1.29,2-1.43,2.9-3.87,3.16-2.92.31-6.64-2.21-9.34-3.34-23.3-9.72-47.76-17.2-73-19a1.13,1.13,0,0,0-.3,2.2Z"/></g><g class="cls-1"><path d="M660.16,823.3c7.39-6.46,13.83-14.14,20.5-21.33,6.48-7,12.88-14.06,19.31-21.11q19.6-21.51,39.18-43.06l-3.53-.46,14.48,21.44a2.33,2.33,0,0,0,3.6.47q46.5-44.12,92.87-88.37c2.19-2.08-1.13-5.39-3.31-3.31q-46.43,44.19-92.8,88.44l3.6.46L739.5,735.08a2.28,2.28,0,0,0-3.53-.45q-19.83,22-39.64,44c-6.6,7.34-13.21,14.67-19.75,22.07-6.14,6.95-12.72,13.73-18.11,21.3-.74,1,.82,2.06,1.69,1.31Z"/><path d="M657.45,828.23c3.93,4.15,8.13,8,12.34,11.83,3.83,3.48,7.5,7.52,11.86,10.31,2,1.26,3.71-1.45,2.36-3.06-3.58-4.27-8.59-7.7-12.86-11.3-4-3.36-8-6.67-12.18-9.74-1.18-.86-2.46,1-1.52,2Z"/><path d="M690.69,847.07c16.69-20.42,34-40.42,50.77-60.77l-3.7-.48a50.89,50.89,0,0,0,14.69,14.58,2.54,2.54,0,0,0,3-.39c36.82-36.51,71.45-75,104.66-114.84,2.22-2.66-1.65-6.52-3.83-3.82-32.6,40.27-67.74,78.49-104.38,115.1l3-.39a44.94,44.94,0,0,1-13.15-12.62c-.77-1.12-2.68-1.76-3.7-.48-16.51,20.69-32.58,41.78-49.18,62.36-1,1.23.74,3,1.74,1.75Z"/><path d="M847.11,667c-2.3-3.18-4.21-6.65-6.49-9.86-1.85-2.6-3.66-6.2-6.56-7.67a1.58,1.58,0,0,0-2.3,1.77c.74,3.15,3.79,5.8,5.87,8.21,2.58,3,5.49,5.67,8,8.66.66.79,2.05-.26,1.44-1.11Z"/><path d="M859.63,682.68c1.76,2.91,3.76,5.67,5.69,8.46a73.8,73.8,0,0,0,5.58,7.74c1.58,1.73,4.3-.49,3.19-2.46-1.66-2.93-4-5.57-6-8.26-1.91-2.52-3.77-5.07-5.83-7.48-1.23-1.43-3.54.42-2.59,2Z"/><path d="M838.93,649.2c12.37,2.27,24.62,3.49,35.7,10.12,2.39,1.43,4.25-2.5,1.53-3.62-11.55-4.72-24.27-9.63-37-8.06-.8.1-1.18,1.38-.21,1.56Z"/><path d="M876.69,657.94c-1,6.92-.58,14.06-1.18,21a198,198,0,0,1-3.71,23.58c-.59,2.81,3.7,4,4.33,1.19a168.24,168.24,0,0,0,3.32-22.9c.6-7.43,1.36-15.55-.26-22.9-.26-1.19-2.31-1.28-2.5,0Z"/></g><g class="cls-1"><path d="M42.71,711c-16.38,8.85-9.46,37.68,9.82,36.49,9.88-.6,18.32-9.34,19.82-18.89,1.89-12-8.17-20.87-18.39-24.83-3.65-1.41-7,4.24-3.89,6.7,5.18,4.15,14.07,8,13.75,15.8-.24,5.85-5.34,12-11.24,12.84C40.31,740.9,36.76,721.39,45.07,715c2.32-1.78.37-5.5-2.36-4Z"/><path d="M34.69,809.18c1.48-13.11,2.59-33.48,18.85-37,17.05-3.68,22.53,19,24.93,30.92l4.12-5.41-26.13-.08c-8.35,0-17.08-.79-25.35.37-5.29.73-3.17,7.92,1.15,8.49,8.14,1.07,17,.1,25.16,0l25.17-.25a4.34,4.34,0,0,0,4.12-5.42c-2.09-9.77-4.51-19.8-11.2-27.55-5.62-6.51-14.05-10.52-22.7-9C32.34,767.93,28.06,792,29.17,809.18a2.76,2.76,0,0,0,5.52,0Z"/><path d="M109.21,760.93c13.47-8.43,27.09-16.62,40.52-25.15,6.71-4.26,13.41-8.55,20.13-12.8,5.8-3.68,13.46-7,17.64-12.51,1.93-2.56-1.25-5.54-3.84-5-3.62.78-6.47,3.1-9.54,5.09l-10,6.52q-9.59,6.24-19.14,12.53c-13,8.62-25.76,17.6-38.61,26.44-3,2-.27,6.8,2.84,4.86Z"/><path d="M224.1,645.8c-12,11.05-1.43,43,16.16,30.26,6.5-4.72,13.68-13.73,13.43-22.14-.21-7-8.4-16.59-15.64-11-1.89,1.45-2.36,5.52.78,6,12.71,1.79,2.36,15.87-3.22,20.29-5.3,4.21-8.5-1.79-9.45-6.7s.82-9.45,2.07-14.23a2.49,2.49,0,0,0-4.13-2.4Z"/><path d="M223.27,719.37c3.43-7.64,9.47-25.58,21.26-20.81,4.83,2,8.56,8,11.22,12.26a65.87,65.87,0,0,1,7.2,15.9l4.39-5.76q-12.85-.66-25.7-1.54-5.92-.4-11.85-.86c-4.31-.33-8.67-1.22-12.75.5-2.63,1.11-3.48,4.52-.81,6.21,3.61,2.29,7.43,2.24,11.58,2.53s8.56.59,12.84.85q13.33.83,26.69,1.41a4.59,4.59,0,0,0,4.39-5.76,74.64,74.64,0,0,0-10.53-21.36c-4.14-5.71-9.15-12.1-16.49-13.48-16.33-3.09-25,14.39-27,27.56-.47,3.07,4,5.8,5.57,2.35Z"/><path d="M208.26,628.56c-8.46-6.8-16.66-13.91-25.19-20.63l-12.43-9.79c-3.85-3-7.49-6.59-12-8.49-2.76-1.16-5.82,2.83-4,5.22,2.78,3.68,6.78,6.14,10.43,8.93L178.38,614c8.64,6.59,17.56,12.76,26.25,19.26,2.7,2,6.28-2.57,3.63-4.7Z"/><path d="M95,597.72c7.07.08,14.15-.47,21.2-.87,4.61-.26,11.38.59,15.47-2,8.59-5.4-1.43-20.24-5.65-25.52-5.59-7-15.08-11.43-23.86-7.81-10.31,4.25-10,16-8.13,25.28,1,5,8.41,2.82,7.58-2.09-1-5.85-2.45-15.17,5.56-16.5,6.89-1.14,12.2,4.43,15.37,9.79,1.28,2.16,3.89,5.91,4.18,8.42.45,3.8-6.62,3-9.55,3.22-7.67.58-15.36,1-23,2.12-3.45.5-2.5,5.9.8,5.94Z"/><path d="M94.94,523.88c-1.77.72-3.14.28-4.78,1.75a14.81,14.81,0,0,0-3.5,5.41,17.76,17.76,0,0,0-.29,13.12c3.38,8.82,14.12,13.45,22.91,10.16S122.8,540.91,120.91,532c-2.08-9.82-12-17.66-22.06-16.19-3.77.55-3.08,6,0,6.95,5.68,1.8,11.79,3.83,13.74,10.17,1.59,5.16-.87,11.62-6,13.78-5.31,2.26-12.35-.69-14.09-6.3a11.87,11.87,0,0,1,1-8.89c.68-1.32,1.84-4.29,2.77-5.3s0-2.9-1.37-2.35Z"/><path d="M265.52,669.12c11.88-9.06,22.71-19.67,33.76-29.71,11.4-10.35,22.72-20.79,34.07-31.18,3.88-3.56-1.93-9.37-5.78-5.78q-16.5,15.42-33,30.85c-10.91,10.26-22.44,20.27-32.42,31.44-2,2.21.72,6.4,3.38,4.38Z"/><path d="M365.19,559.7c-5.78,8.9-12.21,19.39-5.65,29.74,6.34,10,17.41,7.14,25,.41,7.35-6.48,14.42-17.72,9.28-27.6-3.68-7.06-15.45-13.22-21.6-5.53-2.11,2.63-.26,8.23,3.82,6.56s8.76-.9,10.43,4c2.13,6.16-3.63,13-7.77,16.78-5,4.58-11.76,6.28-14.56-1.42-2.52-6.93,2-14.56,5.58-20.21,1.84-2.89-2.73-5.53-4.58-2.68Z"/><path d="M364.18,633c.24-1.76,1.64-3.76,2.17-5.5a68.07,68.07,0,0,1,2.32-6.8c1.84-4.31,5.59-12.79,11.23-8.64,3.82,2.82,4.67,7.63,5.94,11.9a31.3,31.3,0,0,0,5.45,11l2.83-6.82c-11.37,0-22.8-.23-34.16.2-5.34.2-5.38,8.24,0,8.32,11.37.19,22.79-.31,34.16-.53,3.69-.07,5-4.22,2.83-6.82-4.23-5.13-4.12-12.44-7.61-18-2.79-4.44-7.68-8.36-13.17-8.11-6.26.29-9.93,6.22-12.36,11.27a42.4,42.4,0,0,0-3.23,8.8,25.89,25.89,0,0,0-.68,4.2c-.09,1.88.79,3.25.74,5-.06,2,3.26,2.52,3.54.48Z"/></g><g class="cls-1"><path d="M565.5,676.1c-18.06-4-30.47,12-33.12,28.28-1.49,9.16-1.45,19,3.65,27.1a36.53,36.53,0,0,0,18.2,14.4c14.5,5.41,31.89,2.14,42.63-9.23s14.5-29.15,8.53-43.75c-6.86-16.79-25.2-27.73-43.23-25.9-3.65.37-3.76,6.08,0,5.81,13.14-.95,26.44,4.65,34.11,15.6,7.5,10.69,7.84,24.86,1.92,36.36A33.31,33.31,0,0,1,567,742.87c-15.08-.5-29.64-10.78-30.64-26.64-1-16.13,7.52-41.31,28.35-37.36,1.8.34,2.59-2.37.77-2.77Z"/><path d="M547.36,703.81c4.43-4.64,9.85-8.31,16.45-8.64,7.4-.37,12.54,3.73,17.54,8.61a2.21,2.21,0,0,0,3.45-2.66c-7.64-15.11-32.54-13.8-39.11,1.4-.45,1,.76,2.24,1.67,1.29Z"/><path d="M587.45,745c10.86,10.6,21.61,21.31,31.7,32.66,1.52,1.71,3.14,4.57,5.32,5.4,1.77.68,5.14-.31,6.76-1,4.12-1.61,8.21-5.25,8.9-9.79a1.92,1.92,0,0,0-3.49-1.47c-2.13,3.33-6.87,10.69-11.93,7.82-2.07-1.17-4.19-4.32-5.84-6q-2.94-3-5.94-5.88a334.2,334.2,0,0,0-25-22.23c-.3-.24-.72.15-.43.43Z"/><path d="M595.34,735.63c12,10.3,22.93,21.33,34.28,32.28,2.32,2.24,5.48-1.08,3.48-3.49-9.94-12-22.92-22.64-35.82-31.31-1.49-1-3.33,1.32-1.94,2.52Z"/></g><rect class="cls-4" x="930.16" y="579.92" width="134.19" height="81.59" transform="translate(-127.9 283.31) rotate(-15.21)"/><g class="cls-1"><path d="M962.73,677.45c17.85-7.09,36.67-11.8,55.41-15.93q13.67-3,27.52-4.95c10.17-1.42,20.4-1.83,30.58-3,4.44-.52,4.71-7.17,0-7.15-19.27.11-39.3,4.08-58,8.41-19.49,4.51-38,11.61-56.44,19.21-2.08.85-1.2,4.26.94,3.41Z"/></g><g class="cls-1"><path d="M932.59,601.47a1202.16,1202.16,0,0,1,124.34-33c5.81-1.19,3.36-10.52-2.46-9-41.4,11.15-82.69,22.91-123.5,36-3.72,1.19-2.13,7.08,1.62,5.88Z"/><path d="M925,603.45c-1.62,5.31.36,11.22,1.55,16.48,1.43,6.28,3.3,12.49,5.28,18.61q2.85,8.78,6.28,17.32c2.18,5.45,4.13,12,8.09,16.42,2.32,2.58,5.78-.25,5.31-3.1-1-5.81-4.74-11.56-7-17q-3.54-8.52-6.5-17.27c-1.88-5.53-3.51-11.14-5.15-16.74-1.51-5.18-2.24-11.06-5.77-15.29a1.26,1.26,0,0,0-2.09.55Z"/><path d="M1059.54,564.45c2.22,12.76,5.62,25.28,8.75,37.86l4.56,18.37c1.46,5.84,2.17,12.88,5.23,18.1a3.6,3.6,0,0,0,6.66-1.81c.12-6.07-2.71-12.55-4.3-18.38l-5-18.25c-3.41-12.5-6.56-25.08-10.85-37.29a2.63,2.63,0,0,0-5.07,1.4Z"/><path d="M928.65,606.7c13.63,3.45,27.29,7,40.62,11.49,6.85,2.29,13.63,4.76,20.28,7.57,6.25,2.63,12.2,6.27,18.53,8.65,5,1.87,9,.44,12.07-3.86,4.41-6.27,8.08-13.2,12.06-19.74l11.29-18.5c4-6.6,9-13.23,12.09-20.31,1.25-2.86-2.31-6.53-4.74-3.67-4.17,4.9-7.31,10.85-10.77,16.28q-5.55,8.73-11.11,17.46t-11.14,17.45c-.88,1.39-1.75,2.78-2.65,4.16-1.29,2-1.43,2.9-3.87,3.16-2.91.31-6.64-2.21-9.34-3.34-23.3-9.72-47.76-17.2-73-19a1.13,1.13,0,0,0-.3,2.2Z"/></g></g></svg>