<svg xmlns="http://www.w3.org/2000/svg" viewBox="0 0 200.27 200.27"><defs><style>.cls-1{fill:#231f20;}.cls-2{fill:#feea3f;}.cls-3{fill:#fff;}</style></defs><title>Artboard 10</title><g id="Layer_1" data-name="Layer 1"><rect class="cls-1" x="0.66" y="120.14" width="28.42" height="79.31"/><polygon class="cls-1" points="199.62 157.42 125.85 194.71 69.68 179.14 42.61 181.85 42.61 120.14 92.69 112.71 145.48 124.69 146.15 136.68 104.87 129.06 104.87 142.6 149.7 153.43 196.23 139.89 199.62 157.42"/><circle class="cls-2" cx="121.11" cy="51.43" r="51.43"/><path class="cls-3" d="M119.4,7.58H124v7.87q12.36,1.86,17.82,9.63l-7.32,5.76A13.86,13.86,0,0,0,124,24.92V43q12,5.12,15.78,11.2t3.73,11.51a18.92,18.92,0,0,1-5.12,13.08Q133.3,84.47,124,85.3v10H119.4v-10q-8.1-1.44-12.75-5.79a35.16,35.16,0,0,1-8-12.12L108,65a23,23,0,0,0,4.79,7.31,13.47,13.47,0,0,0,6.65,3.09V51.46Q102.72,45,102.72,32.24a15.05,15.05,0,0,1,4.45-10.73q4.45-4.67,12.23-6.06Zm0,33.4V25.18a10.46,10.46,0,0,0-5.49,2.65A6.17,6.17,0,0,0,112,32.34Q112,37.85,119.4,41ZM124,53.52V75.83a12,12,0,0,0,7.39-3.32,9.48,9.48,0,0,0,2.6-6.83Q134,58.11,124,53.52Z"/></g></svg>