<svg xmlns="http://www.w3.org/2000/svg" viewBox="0 0 228.31 228.31"><defs><style>.cls-1{fill:#231f20;}.cls-2{fill:#feea3f;}.cls-3{fill:none;stroke:#feea3f;stroke-miterlimit:10;stroke-width:7px;}</style></defs><title>Artboard 9</title><g id="Layer_1" data-name="Layer 1"><circle class="cls-1" cx="114.16" cy="62.77" r="34.85"/><path class="cls-1" d="M50.81,187.37H177.5V119.23s-54.95-27.82-126.69,0Z"/><g id="D8SUVq.tif"><path class="cls-2" d="M117.14,7.94c-.8,2.08,1.94,7-3,7s-3.23-4.88-3.51-8c-.08-.93,0-1.88,0-2.82,0-2.35.74-4.23,3.44-4.14,2.36.09,3,1.86,3.06,4C117.15,5.08,117.14,6.21,117.14,7.94Z"/><path class="cls-2" d="M69,39.67c-.31,2-1.3,3.93-3.55,2.92A44.31,44.31,0,0,1,56,36.87c-1.7-1.35-1.08-3.46,1-4.49C59.65,31.09,68.91,36.7,69,39.67Z"/><path class="cls-2" d="M78.94,12.63c-.11-1.78.07-3.48,2-4.18,2.11-.76,3.1.89,4,2.28a66.07,66.07,0,0,1,3.72,6.81A3.25,3.25,0,0,1,87.57,22c-1.89,1.24-3.47.18-4.17-1.36C82.11,17.84,78.66,16.25,78.94,12.63Z"/><path class="cls-2" d="M54.7,64.35c2.07,1,7-2.32,6.79,3.11-.2,4.43-4.65,3.12-7.62,3.3a19.65,19.65,0,0,1-3.33-.25c-2-.24-3.58-1.05-3.5-3.46.1-2.61,1.84-2.84,3.88-2.71C52,64.41,53.16,64.35,54.7,64.35Z"/><path class="cls-2" d="M147.84,13c-1,3.41-1.88,7.31-5.73,9.27-1,.5-3,.49-3.33-1.16-.95-4.39,2.32-7.19,4.41-10.38.7-1.07,1.79-2.42,3.14-2C148.05,9.32,147.7,11.19,147.84,13Z"/><path class="cls-2" d="M178.16,64.68c2.14-.24,3.22.84,3.1,2.86C181.18,69,180,69.75,178.63,70a23.19,23.19,0,0,1-9.95.16c-1.65-.37-2.87-1.24-2.79-2.94.08-2,1.28-3,3.4-2.58.18,1.45-2.55,4,1.12,4.08C173.46,68.78,178.15,70.84,178.16,64.68Z"/><path class="cls-2" d="M178.16,64.68c0,6.16-4.7,4.1-7.75,4.07-3.67,0-.94-2.63-1.12-4.08Z"/><path class="cls-2" d="M167.35,39.74a2.14,2.14,0,0,1-.37.42c-2,1.35-3.86,3.27-6.56,2.32a2.75,2.75,0,0,1-1.8-3.18c.83-2.8,3.19-4,5.91-4.49-.06,2.1-3.22,2.66-2.66,4.93Z"/><path class="cls-2" d="M167.35,39.74h-5.48c-.56-2.27,2.6-2.83,2.66-4.93v0c2.71-.31,6.16-1.91,5.68,3.29l-.17.1-2,1.18A.72.72,0,0,1,167.35,39.74Z"/><path class="cls-2" d="M170.21,38.14c.48-5.2-3-3.6-5.68-3.29,2-1.81,4.24-4.27,7-1.75C173.31,34.77,173.15,37.09,170.21,38.14Z"/><path class="cls-2" d="M168.07,39.42l2-1.18A1.78,1.78,0,0,1,168.07,39.42Z"/><path class="cls-2" d="M59.61,91.49l-.47-.26.48.25Z"/><path class="cls-2" d="M60.75,105l.46.26-.47-.25Z"/></g><polygon class="cls-3" points="102.63 120.5 125.69 120.5 125.69 142.15 137.22 198.58 113.87 219.24 91.09 198.58 103.2 142.28 102.63 120.5"/><line class="cls-3" x1="103.2" y1="142.28" x2="125.69" y2="142.15"/><polygon class="cls-2" points="127.82 158.15 99.02 177.3 99.02 165.42 127.82 146.28 127.82 158.15"/><polygon class="cls-2" points="131.78 183.23 96.83 206.46 94.27 196.29 131.78 171.36 131.78 183.23"/></g></svg>