<svg xmlns="http://www.w3.org/2000/svg" viewBox="0 0 156.21 156.21"><defs><style>.cls-1{fill:#fff;stroke:#000;stroke-miterlimit:10;stroke-width:3.04px;}</style></defs><title>Artboard 8</title><g id="Layer_1" data-name="Layer 1"><polygon class="cls-1" points="111.17 101.63 119.14 111.29 110.01 119.86 39.06 115.35 48.48 106.8 40.22 97.11 111.17 101.63"/><path class="cls-1" d="M85.53,141V27a6.14,6.14,0,0,0-12.28,0V141s-5.14,5.59-5.14,9.76H90.67C90.67,146.61,85.53,141,85.53,141Z"/><polygon class="cls-1" points="47.64 73.51 39.63 83.14 48.73 91.75 119.69 87.54 110.32 78.95 118.61 69.3 47.64 73.51"/><polygon class="cls-1" points="111.17 45.33 119.14 54.99 110.01 63.56 39.06 59.05 48.48 50.49 40.22 40.81 111.17 45.33"/></g></svg>