<svg id="Layer_1" data-name="Layer 1" xmlns="http://www.w3.org/2000/svg" viewBox="0 0 96.83 156.21"><defs><style>.cls-1{fill:#fff;stroke:#000;stroke-miterlimit:10;stroke-width:3.04px;}</style></defs><title>Homepage</title><polygon class="cls-1" points="81.48 101.63 89.45 111.29 80.33 119.86 9.38 115.35 18.79 106.8 10.54 97.11 81.48 101.63"/><path class="cls-1" d="M55.84,141V27a6.14,6.14,0,1,0-12.27,0V141s-5.14,5.59-5.14,9.76H61C61,146.61,55.84,141,55.84,141Z"/><polygon class="cls-1" points="17.95 73.51 9.95 83.14 19.04 91.75 90 87.54 80.63 78.95 88.92 69.3 17.95 73.51"/><polygon class="cls-1" points="81.48 45.33 89.45 54.99 80.33 63.56 9.38 59.05 18.79 50.49 10.54 40.81 81.48 45.33"/></svg>