<svg id="Layer_1" data-name="Layer 1" xmlns="http://www.w3.org/2000/svg" viewBox="0 0 1094.89 634.95"><defs><style>.cls-1{opacity:0.1;}.cls-2,.cls-3,.cls-5,.cls-7,.cls-8{fill:none;stroke-linecap:round;stroke-linejoin:round;}.cls-2,.cls-3,.cls-7,.cls-8{stroke:#231f20;}.cls-2{stroke-width:10.57px;}.cls-3,.cls-5{stroke-width:6.36px;}.cls-4{fill:#fff;}.cls-5{stroke:#929497;}.cls-6{fill:#929497;}.cls-7{stroke-width:6.06px;}.cls-8{stroke-width:9.07px;}</style></defs><title>Homepage</title><g class="cls-1"><path d="M849,503.71c-.5,16.69-.14,33.39.54,50.06.66,16,.59,32.78,3.26,48.57.41,2.41,4.23,1.8,4.21-.57-.08-8.13-1.35-16.36-2-24.47s-1.2-16.34-1.72-24.51c-1-16.35-1.75-32.72-2.72-49.08a.79.79,0,0,0-1.58,0Z"/><path d="M851.64,506.81a75.89,75.89,0,0,0,18.8,2.46l-1.84-1.84c-.37,15.87,1,31.92,2,47.75s2.23,31.79,3.69,47.66c.27,3,5,3,4.66,0Q876.64,579,875,555.18c-1.06-15.89-1.27-31.9-2.75-47.75a1.88,1.88,0,0,0-1.84-1.84,142.37,142.37,0,0,1-18.59-.33c-.91-.06-1.05,1.31-.21,1.55Z"/><path d="M860.23,605.6A29.65,29.65,0,0,1,873,606.8c2.37.75,3.41-3.25,1-3.69a43.05,43.05,0,0,0-14.1-.21c-1.52.22-1.18,2.89.37,2.7Z"/><path d="M887.68,488.22c4,38.8,5.43,77.84,7.46,116.78.15,2.79,4.57,2.74,4.31,0l-.3-3.28a1.89,1.89,0,0,0-3.77,0l-.24,3.28h4.31c-1-39.13-5.52-78-10.33-116.78-.11-.91-1.54-.93-1.44,0Z"/><path d="M889,489.93c5.57-1.32,14.32-3.43,19.86-.93l-1-1.76c3.71,39.75,7.48,79.47,10,119.32.19,3,4.89,3,4.7,0-2.52-39.82-5.63-79.72-10.61-119.32a2.07,2.07,0,0,0-2.57-2c-3.8.78-8,.09-11.91.59a51.42,51.42,0,0,0-9,2,1,1,0,0,0,.56,2Z"/><path d="M902.94,608.83c4.69,1.61,12.32,2,16-2a1.61,1.61,0,0,0-1.56-2.67c-2.15.32-4.09,1.43-6.24,1.84a20.28,20.28,0,0,1-7.45,0,1.46,1.46,0,0,0-.77,2.82Z"/><path d="M933.9,469.42c3.33,22.73,5.69,45.63,7.31,68.54q1.17,16.56,1.6,33.16c.16,5.54.24,11.07.27,16.61,0,5.8-.56,11.83.14,17.58.25,2,3.53,3,3.92.53,1.69-10.85.44-22.79.12-33.74q-.51-17.58-1.91-35.12A627.78,627.78,0,0,0,936,468.85c-.27-1.38-2.28-.77-2.08.57Z"/><path d="M938.09,476.92A80.81,80.81,0,0,1,958,475.16l-2.25-2.24c1.76,22,3.66,44,4.71,66.11s.71,44.2,1.65,66.28a2.38,2.38,0,0,0,4.75,0c.92-22-.47-44.32-1.58-66.28s-2.49-44.18-5-66.11a2.28,2.28,0,0,0-2.24-2.25,68.68,68.68,0,0,0-20.49,4.2,1.06,1.06,0,0,0,.56,2.05Z"/><path d="M950.24,611.41c4.46-.69,9.58-.31,13.78-2.12,2-.87.81-3.76-1-3.84-4.49-.18-9.21,2.1-13.55,3-1.93.42-1.07,3.21.81,2.92Z"/><path d="M871.74,507.94a37.11,37.11,0,0,0,2.8,4.14A37.52,37.52,0,0,0,877.4,516c.8.88,2.08-.24,1.58-1.23a18.81,18.81,0,0,0-6.75-7.27.36.36,0,0,0-.49.49Z"/><path d="M877.52,605.32a20.81,20.81,0,0,1,1.5,1.47c.43.5.68,1.14,1.1,1.67a14.58,14.58,0,0,0,3,3.07c1.48,1,2.91-1.14,1.82-2.36a14,14,0,0,0-3.11-2.26,14.82,14.82,0,0,0-1.55-.76,11.43,11.43,0,0,1-2.06-1.48c-.45-.36-1.09.23-.65.65Z"/><path d="M855,606.31a28.1,28.1,0,0,0,3.06,4.37c1.09,1.26,2.36,2.79,4,3.31a1.27,1.27,0,0,0,1.42-1.85c-.81-1.29-2.25-2.13-3.35-3.18a30.66,30.66,0,0,1-3.32-3.7c-.78-1-2.48-.14-1.79,1Z"/><path d="M864.93,615.23A159.13,159.13,0,0,0,882.24,614c1-.14.8-1.93-.24-1.82A156.77,156.77,0,0,0,864.9,615c-.1,0-.08.19,0,.19Z"/><path d="M911.17,488a33.37,33.37,0,0,1,2.46,3.12,14.27,14.27,0,0,0,2.24,3,1.1,1.1,0,0,0,1.82-1.06c-.73-2.52-3.35-4.63-5.3-6.25a.86.86,0,0,0-1.22,1.21Z"/><path d="M922.71,605.55a28.82,28.82,0,0,1,2.11,2.7,6,6,0,0,0,1.81,2.17c.49.27,1.29-.19,1-.8a6.49,6.49,0,0,0-2-2.23,27,27,0,0,1-2.38-2.4c-.34-.38-.88.18-.55.56Z"/><path d="M899.1,608.86c2.16,1.85,3.29,4.16,4.77,6.53.76,1.21,3,.44,2.42-1-1.08-2.94-3.59-5.16-6.1-6.93-.83-.58-1.86.75-1.09,1.42Z"/><path d="M908.57,616.05c5.28.37,11.37.11,16.15-2.41.83-.44.25-1.68-.62-1.47-5.26,1.23-10.06,3-15.53,3.44a.22.22,0,0,0,0,.44Z"/><path d="M959.25,472.31a79.23,79.23,0,0,0,5.29,9.32c1.38,1.9,4.51.2,3.23-1.89A84.79,84.79,0,0,0,961,471c-.81-1-2.31.28-1.73,1.34Z"/><path d="M948,611.7a8.32,8.32,0,0,1,2,2.29,16.4,16.4,0,0,0,1.18,2.68,1.14,1.14,0,0,0,2.07-.87,5.23,5.23,0,0,0-1.74-2.78c-.78-.82-1.48-1.7-2.34-2.45s-1.92.44-1.14,1.13Z"/><path d="M954,617.74a76.55,76.55,0,0,1,16.69-1.1c1.24,0,1.17-1.75,0-1.88a31.28,31.28,0,0,0-16.72,2.92s0,.07,0,.06Z"/><path d="M965.37,608.08a40.77,40.77,0,0,1,6.56,4.93c1.25,1,3-.62,1.81-1.81-2.2-2.21-4.94-3.41-7.77-4.55-.82-.33-1.37,1-.6,1.43Z"/><path d="M917.59,495.09c-.73,13.87-.34,29,2.79,42.61a1.21,1.21,0,0,0,2.36-.32c-.33-14-2.5-28.51-4.5-42.38-.06-.38-.63-.26-.65.09Z"/><path d="M876.9,515.78c-.31,12,2.35,24.36,3.2,36.33.87,12.16,1.71,24.36,2.39,36.54a.43.43,0,0,0,.85,0,266.66,266.66,0,0,0-.26-37.5c-.92-11.51-1.31-24.52-5.05-35.52a.58.58,0,0,0-1.13.15Z"/><path d="M965.91,480.69c0,8.52-.6,17-.36,25.52s.68,17,1.19,25.5,1.07,17,1.63,25.49c.53,7.87.18,16.47,2,24.14.42,1.77,2.82,1.21,3-.4.79-8.32-.88-17.36-1.46-25.7Q971,543,970.24,530.73t-1.54-24.52c-.53-8.5-1.7-17-2.09-25.52a.35.35,0,0,0-.7,0Z"/></g><g class="cls-1"><line class="cls-2" x1="1076.09" y1="266.57" x2="187.83" y2="260.73"/><line class="cls-2" x1="645.48" y1="232.41" x2="645.48" y2="290.33"/><line class="cls-2" x1="746.09" y1="232.41" x2="746.09" y2="290.33"/><line class="cls-2" x1="846.71" y1="232.41" x2="846.71" y2="290.33"/><line class="cls-2" x1="947.32" y1="232.41" x2="947.32" y2="290.33"/><line class="cls-2" x1="1047.93" y1="232.41" x2="1047.93" y2="290.33"/><line class="cls-2" x1="243.02" y1="232.41" x2="243.02" y2="290.33"/><line class="cls-2" x1="343.63" y1="232.41" x2="343.63" y2="290.33"/><line class="cls-2" x1="444.25" y1="232.41" x2="444.25" y2="290.33"/><line class="cls-2" x1="544.86" y1="232.41" x2="544.86" y2="290.33"/><path class="cls-3" d="M188,180.83c0,2.19-.07,4.37-.21,6.52"/><circle class="cls-4" cx="131.37" cy="181.59" r="109.37"/><path class="cls-5" d="M222.9,177.69a99.33,99.33,0,1,1-25.18-72.84"/><polygon class="cls-6" points="183.02 111.94 214.05 96.73 211.82 129.34 183.02 111.94"/><line class="cls-7" x1="110.74" y1="104.88" x2="107.48" y2="90.21"/><line class="cls-7" x1="185.74" y1="154.33" x2="202.59" y2="150.53"/><line class="cls-7" x1="141.17" y1="230.96" x2="145.52" y2="249.44"/><line class="cls-7" x1="61.28" y1="184.23" x2="43.35" y2="189.12"/><polyline class="cls-7" points="85.2 113.03 123.69 171.17 168.35 138.57"/><circle class="cls-6" cx="125.88" cy="169.63" r="11.96"/><path class="cls-8" d="M868.78,19.52,917.19,0c-15.39,232.41-536.9,220.08-536.9,220.08"/><line class="cls-8" x1="955" y1="31.37" x2="917.19"/></g><rect class="cls-4" x="887.47" y="339.51" width="134.19" height="81.59" transform="matrix(0.96, -0.26, 0.26, 0.96, -66.33, 263.7)"/><g class="cls-1"><path d="M920.05,437.05c17.84-7.09,36.67-11.84,55.41-15.93q13.66-3,27.54-4.89c10.16-1.38,20.39-1.77,30.56-2.94,4.6-.53,4.88-7.43,0-7.4-19.28.11-39.32,4.15-58,8.52-19.48,4.56-38,11.63-56.44,19.22-2.07.85-1.19,4.26.95,3.42Z"/></g><g class="cls-1"><path d="M889.91,361.06a1202.26,1202.26,0,0,1,124.38-32.84c6-1.23,3.44-10.81-2.54-9.2-41.39,11.15-82.65,23-123.46,36.16-3.72,1.2-2.13,7.08,1.62,5.88Z"/><path d="M882.32,363c-1.63,5.31.36,11.23,1.55,16.48,1.43,6.29,3.26,12.5,5.23,18.63q2.82,8.78,6.22,17.34c2.12,5.34,4,12.3,8.19,16.38,1.82,1.77,5.72.61,5.43-2.25-.55-5.42-3.79-10.42-5.94-15.37q-4-9.28-7.33-18.86c-2-5.82-3.76-11.71-5.49-17.61-1.52-5.19-2.23-11-5.77-15.29a1.26,1.26,0,0,0-2.09.55Z"/><path d="M1016.85,324c2.23,12.78,5.5,25.3,8.63,37.9l4.57,18.36c1.45,5.86,2.17,12.91,5.24,18.14a3.73,3.73,0,0,0,6.9-1.87c.12-6.09-2.71-12.58-4.31-18.43l-5-18.24c-3.41-12.52-6.67-25-11-37.26a2.64,2.64,0,0,0-5.08,1.4Z"/><path d="M886,366.29c13.62,3.45,27.31,7,40.62,11.49,6.83,2.32,13.6,4.85,20.23,7.68,6.24,2.66,12.21,6.3,18.54,8.67,5,1.89,9.17.43,12.23-3.92,4.4-6.27,8.07-13.2,12-19.74q5.64-9.25,11.25-18.53c4-6.62,8.94-13.25,12-20.35,1.24-2.85-2.31-6.52-4.75-3.66-4.17,4.9-7.34,10.83-10.81,16.24-3.72,5.81-7.46,11.62-11.17,17.43s-7.43,11.63-11.14,17.45c-.88,1.38-1.75,2.78-2.65,4.15-1.26,1.93-1.41,2.88-3.77,3.13-2.87.3-6.64-2.25-9.3-3.36-23.25-9.7-47.86-17.09-73.05-18.88a1.13,1.13,0,0,0-.3,2.2Z"/></g><g class="cls-1"><path d="M660.16,593.33c7.39-6.46,13.83-14.14,20.5-21.32,6.5-7,12.91-14,19.34-21.08q19.63-21.49,39.2-43l-3.64-.47L750,528.86a2.42,2.42,0,0,0,3.73.48q46.5-44.12,92.87-88.37c2.26-2.15-1.17-5.57-3.43-3.43q-46.43,44.2-92.8,88.44l3.73.48-14.57-21.39a2.35,2.35,0,0,0-3.64-.47q-19.83,22-39.62,44c-6.59,7.35-13.2,14.69-19.73,22.09-6.14,7-12.71,13.75-18.1,21.31-.74,1.05.82,2.07,1.69,1.31Z"/><path d="M657.45,598.27c3.93,4.14,8.13,8,12.33,11.83,3.78,3.47,7.43,7.72,11.87,10.3,2.05,1.2,3.63-1.41,2.36-3-3.37-4.36-8.62-7.77-12.85-11.32-4-3.34-8-6.66-12.19-9.73-1.18-.86-2.46,1-1.52,2Z"/><path d="M690.69,617.1c16.69-20.42,34-40.39,50.83-60.71l-3.83-.49a51.19,51.19,0,0,0,14.72,14.6,2.62,2.62,0,0,0,3.14-.4c36.81-36.51,71.44-75,104.65-114.84,2.3-2.74-1.69-6.71-3.93-3.94-32.6,40.27-67.75,78.5-104.39,115.11L755,566a44.86,44.86,0,0,1-13.12-12.59c-.79-1.15-2.78-1.82-3.83-.49-16.47,20.71-32.51,41.83-49.12,62.42-1,1.22.74,3,1.74,1.74Z"/><path d="M847.11,437.07c-2.3-3.18-4.22-6.65-6.47-9.87-1.81-2.57-3.63-6.38-6.58-7.66a1.59,1.59,0,0,0-2.3,1.77c.52,3.16,3.8,5.87,5.86,8.22,2.59,3,5.5,5.66,8,8.65.66.79,2.05-.26,1.44-1.11Z"/><path d="M859.63,452.71c1.76,2.91,3.74,5.68,5.66,8.48a64,64,0,0,0,5.57,7.76c1.65,1.78,4.41-.49,3.28-2.53-1.62-2.94-4-5.57-6.07-8.24-1.91-2.52-3.79-5.06-5.85-7.47-1.23-1.43-3.54.42-2.59,2Z"/><path d="M838.93,419.23c12.37,2.27,24.62,3.49,35.7,10.12,2.39,1.43,4.25-2.5,1.53-3.61-11.55-4.73-24.27-9.63-37-8.06-.8.09-1.18,1.37-.21,1.55Z"/><path d="M876.69,428c-1,6.92-.6,14.06-1.22,21a201.9,201.9,0,0,1-3.75,23.56c-.61,2.92,3.84,4.17,4.49,1.24a165.85,165.85,0,0,0,3.3-22.92c.56-7.44,1.3-15.57-.32-22.91-.26-1.19-2.31-1.28-2.5,0Z"/></g><g class="cls-1"><path d="M42.71,481c-16.49,8.91-9.6,37.81,9.82,36.63,9.94-.61,18.43-9.39,20-19,1.91-12.07-8.19-21-18.48-25-3.77-1.46-7.2,4.37-4,6.91,5.15,4.13,14,7.93,13.71,15.71-.24,5.79-5.29,11.88-11.14,12.72-12.1,1.73-15.67-17.69-7.47-24,2.32-1.78.37-5.5-2.36-4Z"/><path d="M34.69,579.21c1.47-13,2.8-33.39,18.89-36.86,17-3.65,22.37,19,24.76,30.82l4.25-5.57-26.13-.08c-8.36,0-17.11-.78-25.39.37-5.45.76-3.26,8.17,1.19,8.76,8.14,1.07,17,.1,25.16,0l25.17-.26a4.47,4.47,0,0,0,4.25-5.58C84.74,561,82.31,551,75.6,543.22c-5.65-6.55-14.13-10.57-22.82-9-20.64,3.67-24.73,27.77-23.61,45a2.76,2.76,0,0,0,5.52,0Z"/><path d="M109.21,531c13.47-8.43,27.15-16.51,40.58-25,6.72-4.26,13.42-8.55,20.13-12.81,5.75-3.64,13.66-7,17.64-12.57,1.93-2.71-1.24-5.61-3.92-5.11-3.65.68-6.51,3.06-9.59,5.06l-10,6.51c-6.38,4.17-12.78,8.33-19.14,12.54-13,8.62-25.68,17.71-38.54,26.56-3,2-.27,6.8,2.84,4.85Z"/><path d="M224.1,415.83c-12.45,11.45-1,43.68,16.67,30,6.56-5.06,14-14.35,12.95-23.16-.87-7.06-9.71-15.77-16.33-9.29a3.29,3.29,0,0,0,1.44,5.45c4.5,1.2,7.41,3.45,5.57,8.5-1.54,4.22-5.36,8.91-8.87,11.69-5.21,4.14-8.31-1.81-9.24-6.64-1-5,.7-9.44,1.94-14.19a2.49,2.49,0,0,0-4.13-2.4Z"/><path d="M223.27,489.4c3.55-7.47,9.53-25.41,21.21-20.68,4.8,1.94,8.52,8,11.15,12.2a66.16,66.16,0,0,1,7.2,15.86l4.51-5.92q-13.35-.69-26.69-1.61c-7.61-.53-17.35-3.15-24.46.12-2.55,1.17-2,4.68,0,6,3.56,2.4,7.47,2.3,11.62,2.6s8.56.58,12.84.85q13.33.82,26.69,1.4a4.71,4.71,0,0,0,4.51-5.92,74.06,74.06,0,0,0-10.54-21.39c-4.3-5.93-9.47-12.47-17.16-13.63-16.66-2.51-24.8,15.17-26.56,28.58-.39,3,4.44,4.17,5.68,1.54Z"/><path d="M208.26,398.59c-8.45-6.79-16.57-14-25.1-20.72l-12.42-9.79c-3.88-3.06-7.54-6.62-12.1-8.53-2.87-1.2-6,2.94-4.17,5.42,2.8,3.7,6.81,6.17,10.49,9l13.36,10.2C187,390.73,196,396.8,204.63,403.3c2.7,2,6.28-2.58,3.63-4.71Z"/><path d="M95,367.75c7.07.08,14.15-.34,21.2-.74,4.64-.26,11.42.59,15.54-2,8.7-5.47-1.34-20.35-5.62-25.72-5.6-7-15.19-11.49-24-7.85C91.77,335.73,92,347.58,94,356.89c1.06,5.16,8.69,2.92,7.82-2.16-1-5.78-2.45-15,5.48-16.34,6.83-1.12,12.08,4.42,15.22,9.73,1.26,2.14,3.89,5.91,4.17,8.41s-1.29,2.41-3.65,2.59l-5.78.44c-7.67.58-15.35,1.15-23,2.25-3.45.5-2.5,5.9.8,5.94Z"/><path d="M94.94,293.92c-1.77.71-3.14.28-4.78,1.74a15.07,15.07,0,0,0-3.55,5.39,17.68,17.68,0,0,0-.37,13.18c3.4,8.89,14.22,13.56,23.07,10.25S122.94,311,121,302c-2.11-9.89-12.14-17.75-22.23-16.28-3.9.57-3.19,6.21,0,7.21,5.63,1.78,11.71,3.78,13.65,10.07,1.57,5.1-.85,11.5-5.88,13.63-5.26,2.23-12.18-.69-13.91-6.21a11.89,11.89,0,0,1,.89-8.85c.66-1.31,1.83-4.3,2.75-5.3s0-2.91-1.37-2.35Z"/><path d="M265.52,439.15c11.89-9.07,22.79-19.57,33.86-29.61,11.4-10.35,22.71-20.79,34.06-31.19,4-3.66-2-9.67-6-6q-16.5,15.42-33,30.85c-10.92,10.27-22.34,20.35-32.33,31.53-2,2.21.72,6.4,3.38,4.38Z"/><path d="M365.19,329.74c-5.79,8.9-12.24,19.41-5.73,29.78,6.35,10.11,17.53,7.24,25.22.46,7.4-6.53,14.48-17.83,9.3-27.77-3.71-7.13-15.59-13.32-21.8-5.55-2.19,2.72-.27,8.51,3.94,6.78s8.63-.92,10.28,3.87c2.1,6.11-3.65,12.87-7.75,16.64-4.9,4.51-11.57,6.23-14.39-1.35-2.58-6.92,1.91-14.54,5.51-20.19,1.84-2.89-2.73-5.53-4.58-2.67Z"/><path d="M364.18,403.06c.24-1.75,1.64-3.78,2.19-5.49.74-2.28,1.44-4.57,2.39-6.77,1.81-4.21,5.53-12.64,11.05-8.57,3.8,2.79,4.64,7.59,5.91,11.83a31.38,31.38,0,0,0,5.48,11.07l2.92-7.05c-11.37,0-22.8-.24-34.16.19-5.51.21-5.55,8.51,0,8.6,11.37.19,22.79-.32,34.16-.53,3.81-.07,5.14-4.36,2.92-7-4.22-5.11-4.1-12.43-7.58-18-2.82-4.49-7.75-8.43-13.29-8.18-6.33.29-10,6.24-12.45,11.35a40.42,40.42,0,0,0-3.21,8.83,26,26,0,0,0-.61,4.22c-.08,1.86.79,3.27.74,5.05-.06,2,3.26,2.53,3.54.48Z"/></g><g class="cls-1"><path d="M565.5,446.14c-18-4-30.55,12-33.2,28.25-1.5,9.18-1.46,19.07,3.66,27.17A36.57,36.57,0,0,0,554.2,516c14.53,5.42,32,2.14,42.72-9.25s14.53-29.2,8.56-43.83c-6.88-16.82-25.25-27.79-43.32-26-3.76.38-3.87,6.26,0,6,13.11-.95,26.38,4.63,34,15.55,7.48,10.67,7.82,24.8,1.92,36.28A33.26,33.26,0,0,1,567,512.82c-15-.5-29.56-10.74-30.56-26.55-1-16.13,7.42-41.32,28.27-37.37,1.8.34,2.59-2.36.77-2.76Z"/><path d="M547.36,473.84c4.45-4.66,9.83-8.22,16.45-8.55,7.38-.37,12.49,3.72,17.48,8.58a2.29,2.29,0,0,0,3.58-2.76c-7.67-15.19-32.58-13.81-39.18,1.45-.45,1,.76,2.23,1.67,1.28Z"/><path d="M587.45,515c11.08,10.82,22,21.75,32.32,33.36,1.39,1.58,2.83,4.23,4.94,4.74s5.19-.38,7.15-1.24c4.12-1.81,7.92-5.4,8.34-10,.18-2.09-2.57-2.32-3.56-1-2.32,3.18-6.78,10.73-11.93,7.81-2.07-1.16-4.19-4.32-5.84-6q-2.94-3-5.94-5.88c-8-7.79-16.3-15.27-25-22.23-.3-.24-.72.15-.43.43Z"/><path d="M595.34,505.66c12,10.3,22.88,21.4,34.22,32.34,2.4,2.32,5.67-1.12,3.6-3.6-10-12-22.95-22.57-35.88-31.26-1.49-1-3.33,1.33-1.94,2.52Z"/></g><rect class="cls-4" x="930.16" y="349.95" width="134.19" height="81.59" transform="matrix(0.96, -0.26, 0.26, 0.96, -67.58, 275.26)"/><g class="cls-1"><path d="M962.73,447.49c17.85-7.09,36.67-11.84,55.42-15.93q13.65-3,27.53-4.89c10.16-1.38,20.39-1.77,30.56-2.94,4.6-.53,4.89-7.43,0-7.41-19.27.11-39.32,4.16-58,8.53-19.49,4.56-38,11.62-56.44,19.22-2.08.85-1.2,4.26.94,3.42Z"/></g><g class="cls-1"><path d="M932.59,371.5A1199.73,1199.73,0,0,1,1057,338.66c6-1.23,3.45-10.82-2.54-9.2-41.39,11.15-82.65,23-123.46,36.16-3.72,1.2-2.13,7.08,1.62,5.88Z"/><path d="M925,373.48c-1.62,5.31.36,11.22,1.55,16.48,1.43,6.29,3.26,12.5,5.23,18.63q2.82,8.78,6.22,17.34c2.12,5.34,4,12.3,8.2,16.38,1.81,1.77,5.72.61,5.43-2.25-.56-5.42-3.8-10.42-6-15.38q-4-9.27-7.33-18.86c-2-5.81-3.76-11.7-5.49-17.6-1.51-5.19-2.23-11.05-5.77-15.29a1.26,1.26,0,0,0-2.09.55Z"/><path d="M1059.54,334.48c2.23,12.78,5.49,25.3,8.62,37.9l4.57,18.36c1.45,5.86,2.18,12.91,5.24,18.13a3.73,3.73,0,0,0,6.9-1.86c.12-6.09-2.71-12.58-4.31-18.43l-5-18.25c-3.41-12.51-6.67-25-11-37.25a2.63,2.63,0,0,0-5.07,1.4Z"/><path d="M928.65,376.73c13.62,3.45,27.31,7,40.62,11.49,6.84,2.32,13.6,4.85,20.23,7.68,6.24,2.66,12.21,6.3,18.54,8.67,5,1.89,9.18.43,12.23-3.92,4.4-6.27,8.07-13.2,12-19.74q5.64-9.26,11.25-18.53c4-6.62,8.94-13.26,12-20.35,1.24-2.85-2.31-6.52-4.74-3.67-4.18,4.91-7.35,10.83-10.82,16.25q-5.58,8.72-11.17,17.43t-11.14,17.45c-.88,1.38-1.75,2.78-2.65,4.15-1.26,1.93-1.41,2.87-3.77,3.13-2.87.3-6.64-2.26-9.3-3.36-23.24-9.7-47.86-17.09-73-18.88a1.13,1.13,0,0,0-.3,2.2Z"/></g></svg>