<?xml version="1.0" encoding="utf-8"?>
<!-- Generator: Adobe Illustrator 22.1.0, SVG Export Plug-In . SVG Version: 6.00 Build 0)  -->
<svg version="1.1" xmlns="http://www.w3.org/2000/svg" xmlns:xlink="http://www.w3.org/1999/xlink" x="0px" y="0px"
	 viewBox="0 0 134.2 228.3" style="enable-background:new 0 0 134.2 228.3;" xml:space="preserve">
<style type="text/css">
	.st0{fill:#FFFFFF;stroke:#000000;stroke-miterlimit:10;}
	.st1{fill:#00386A;}
	.st2{fill:#FFF748;}
	.st3{fill:#FFFFFF;stroke:#000000;stroke-width:0.6947;}
	.st4{fill:#FF3F3F;}
	.st5{fill:#00AC91;}
	.st6{fill:#9B7163;}
	.st7{fill:#2957AE;}
	.st8{fill:#FFB6C5;}
	.st9{fill:#880070;}
	.st10{stroke:#231F20;stroke-miterlimit:10;}
	.st11{fill:#231F20;}
	.st12{fill:#1A1A1A;}
	.st13{fill:#FFFFFF;}
	.st14{fill:none;stroke:#231F20;stroke-width:8.5552;stroke-miterlimit:10;}
	.st15{fill:none;stroke:#231F20;stroke-width:0.4177;stroke-miterlimit:10;}
	.st16{fill:none;stroke:#231F20;stroke-width:0.3725;stroke-miterlimit:10;}
	.st17{fill:#FFFFFF;stroke:#00A14B;stroke-width:0.7419;stroke-linecap:round;stroke-linejoin:round;stroke-miterlimit:10;}
	.st18{fill:none;stroke:#00A14B;stroke-width:0.7419;stroke-linecap:round;stroke-linejoin:round;stroke-miterlimit:10;}
	.st19{fill:#00A14B;}
	.st20{fill:#FFFFFF;stroke:#231F20;stroke-width:1.4837;stroke-linecap:round;stroke-linejoin:round;stroke-miterlimit:10;}
	.st21{fill:none;stroke:#231F20;stroke-width:1.4837;stroke-linecap:round;stroke-linejoin:round;stroke-miterlimit:10;}
	.st22{fill:none;stroke:#929497;stroke-width:1.4837;stroke-linecap:round;stroke-linejoin:round;stroke-miterlimit:10;}
	.st23{fill:none;stroke:#FFDD15;stroke-width:1.4837;stroke-linecap:round;stroke-linejoin:round;stroke-miterlimit:10;}
	.st24{fill:none;stroke:#EC1C24;stroke-width:1.4837;stroke-linecap:round;stroke-linejoin:round;stroke-miterlimit:10;}
	.st25{fill:#00A14B;stroke:#231F20;stroke-width:1.6366;stroke-linecap:round;stroke-linejoin:round;stroke-miterlimit:10;}
	.st26{fill:#FFDD15;stroke:#231F20;stroke-width:1.5605;stroke-linecap:round;stroke-linejoin:round;stroke-miterlimit:10;}
	.st27{fill:none;stroke:#231F20;stroke-width:1.5605;stroke-linecap:round;stroke-linejoin:round;stroke-miterlimit:10;}
	.st28{fill:none;stroke:#231F20;stroke-width:2.0246;stroke-linecap:round;stroke-linejoin:round;stroke-miterlimit:10;}
	.st29{fill:#FFFFFF;stroke:#231F20;stroke-width:1.8014;stroke-linecap:round;stroke-linejoin:round;stroke-miterlimit:10;}
	.st30{fill:none;stroke:#231F20;stroke-width:1.8014;stroke-linecap:round;stroke-linejoin:round;stroke-miterlimit:10;}
	.st31{fill:none;stroke:#929497;stroke-width:1.8014;stroke-linecap:round;stroke-linejoin:round;stroke-miterlimit:10;}
	.st32{fill:none;stroke:#00A14B;stroke-width:1.8014;stroke-linecap:round;stroke-linejoin:round;stroke-miterlimit:10;}
	.st33{fill:#EC1C24;}
	.st34{fill:none;stroke:#FFFFFF;stroke-width:4.5034;stroke-miterlimit:10;}
	
		.st35{opacity:0.5;fill:none;stroke:#00A14B;stroke-width:1.8014;stroke-linecap:round;stroke-linejoin:round;stroke-miterlimit:10;}
	
		.st36{opacity:0.5;fill:none;stroke:#00A14B;stroke-width:0.9007;stroke-linecap:round;stroke-linejoin:round;stroke-miterlimit:10;}
	.st37{fill:#D0D2D3;}
	.st38{fill:none;stroke:#D0D2D3;stroke-width:3.6027;stroke-miterlimit:10;}
	.st39{fill:none;stroke:#FFDD15;stroke-width:3.7869;stroke-linecap:round;stroke-linejoin:round;stroke-miterlimit:10;}
	.st40{opacity:0.5;}
	.st41{fill:none;stroke:#00A14B;stroke-width:8.2295;stroke-linecap:round;stroke-linejoin:round;stroke-miterlimit:10;}
	.st42{fill:#FFDD15;stroke:#231F20;stroke-width:3.6125;stroke-linecap:round;stroke-linejoin:round;stroke-miterlimit:10;}
	.st43{opacity:0.2;}
	.st44{fill:#FFFFFF;stroke:#00A14B;stroke-width:4.0555;stroke-linecap:round;stroke-linejoin:round;stroke-miterlimit:10;}
	.st45{fill:#00A14B;stroke:#231F20;stroke-width:4.0555;stroke-linecap:round;stroke-linejoin:round;stroke-miterlimit:10;}
	.st46{fill:none;stroke:#231F20;stroke-width:3.1756;stroke-linecap:round;stroke-linejoin:round;stroke-miterlimit:10;}
	.st47{fill:none;stroke:#231F20;stroke-width:1.2814;stroke-linecap:round;stroke-linejoin:round;stroke-miterlimit:10;}
	.st48{fill:none;stroke:#929497;stroke-width:1.2814;stroke-linecap:round;stroke-linejoin:round;stroke-miterlimit:10;}
	.st49{fill:#929497;}
	.st50{fill:none;stroke:#231F20;stroke-width:1.2206;stroke-linecap:round;stroke-linejoin:round;stroke-miterlimit:10;}
	.st51{fill:none;stroke:#231F20;stroke-width:2.7241;stroke-linecap:round;stroke-linejoin:round;stroke-miterlimit:10;}
	.st52{fill:#BBBDBF;}
	.st53{fill:none;stroke:#231F20;stroke-width:3.3189;stroke-linecap:round;stroke-linejoin:round;stroke-miterlimit:10;}
	.st54{fill:#00A14B;stroke:#231F20;stroke-width:3.3189;stroke-linecap:round;stroke-linejoin:round;stroke-miterlimit:10;}
	.st55{fill:none;stroke:#231F20;stroke-width:3.1874;stroke-linecap:round;stroke-linejoin:round;stroke-miterlimit:10;}
	.st56{fill:#00A14B;stroke:#231F20;stroke-width:1.725;stroke-linecap:round;stroke-linejoin:round;stroke-miterlimit:10;}
	.st57{fill:none;stroke:#231F20;stroke-width:1.725;stroke-linecap:round;stroke-linejoin:round;stroke-miterlimit:10;}
	.st58{fill:#FFDD15;}
	.st59{fill:#FFDD15;stroke:#231F20;stroke-width:1.4077;stroke-linecap:round;stroke-linejoin:round;stroke-miterlimit:10;}
	.st60{fill:#FFFFFF;stroke:#231F20;stroke-width:1.4077;stroke-miterlimit:10;}
	.st61{fill:none;stroke:#FFDD15;stroke-width:4.0947;stroke-linecap:round;stroke-linejoin:round;stroke-miterlimit:10;}
	.st62{fill:#FFFFFF;stroke:#00A14B;stroke-width:2.6225;stroke-linecap:round;stroke-linejoin:round;stroke-miterlimit:10;}
	.st63{fill:#00A14B;stroke:#231F20;stroke-width:2.6225;stroke-linecap:round;stroke-linejoin:round;stroke-miterlimit:10;}
	.st64{fill:#FFFFFF;stroke:#00A04A;stroke-width:2.4391;stroke-linecap:round;stroke-linejoin:round;stroke-miterlimit:10;}
	.st65{fill:#00A04A;stroke:#221F1F;stroke-width:2.4391;stroke-linecap:round;stroke-linejoin:round;stroke-miterlimit:10;}
	.st66{fill:#221F1F;}
	.st67{fill:none;stroke:#221F1F;stroke-width:2.5606;stroke-linecap:round;stroke-linejoin:round;stroke-miterlimit:10;}
	.st68{fill:none;stroke:#919395;stroke-width:2.5606;stroke-linecap:round;stroke-linejoin:round;stroke-miterlimit:10;}
	.st69{fill:#919395;}
	.st70{fill:none;stroke:#221F1F;stroke-width:2.4391;stroke-linecap:round;stroke-linejoin:round;stroke-miterlimit:10;}
	.st71{fill:#FFDD15;stroke:#231F20;stroke-width:4.4793;stroke-linecap:round;stroke-linejoin:round;stroke-miterlimit:10;}
	.st72{fill:none;stroke:#231F20;stroke-width:4.4793;stroke-linecap:round;stroke-linejoin:round;stroke-miterlimit:10;}
	.st73{fill:none;stroke:#404041;stroke-width:4.4793;stroke-linecap:round;stroke-linejoin:round;stroke-miterlimit:10;}
	.st74{fill:none;stroke:#231F20;stroke-width:6.1275;stroke-linecap:round;stroke-linejoin:round;stroke-miterlimit:10;}
	.st75{fill:none;stroke:#231F20;stroke-width:6.1275;stroke-linejoin:round;stroke-miterlimit:10;}
	.st76{fill:#00A14B;stroke:#00A14B;stroke-width:1.368;stroke-miterlimit:10;}
	.st77{fill:#FFFFFF;stroke:#000000;stroke-width:3.0447;stroke-miterlimit:10;}
	.st78{fill:#FEEA3F;}
	.st79{fill:none;stroke:#FEEA3F;stroke-width:7;stroke-miterlimit:10;}
	.st80{opacity:0.1;}
	.st81{fill:none;stroke:#231F20;stroke-width:10.5714;stroke-linecap:round;stroke-linejoin:round;stroke-miterlimit:10;}
	.st82{fill:none;stroke:#231F20;stroke-width:6.3591;stroke-linecap:round;stroke-linejoin:round;stroke-miterlimit:10;}
	.st83{fill:none;stroke:#929497;stroke-width:6.3591;stroke-linecap:round;stroke-linejoin:round;stroke-miterlimit:10;}
	.st84{fill:none;stroke:#231F20;stroke-width:6.0574;stroke-linecap:round;stroke-linejoin:round;stroke-miterlimit:10;}
	.st85{fill:none;stroke:#231F20;stroke-width:9.0684;stroke-linecap:round;stroke-linejoin:round;stroke-miterlimit:10;}
	.st86{opacity:0.1;fill:url(#);}
</style>
<g id="Layer_1">
	<circle class="st11" cx="67.1" cy="62.8" r="34.9"/>
	<path class="st11" d="M3.8,187.4h126.7v-68.1c0,0-54.9-27.8-126.7,0V187.4z"/>
	<g id="D8SUVq.tif_1_">
		<g>
			<path class="st78" d="M70.1,7.9c-0.8,2.1,1.9,7-3,7c-5,0-3.2-4.9-3.5-8c-0.1-0.9,0-1.9,0-2.8c0-2.3,0.7-4.2,3.4-4.1
				c2.4,0.1,3,1.9,3.1,3.9C70.1,5.1,70.1,6.2,70.1,7.9z"/>
			<path class="st78" d="M21.9,39.7c-0.3,2-1.3,3.9-3.6,2.9c-3.3-1.5-6.6-3.4-9.5-5.7c-1.7-1.4-1.1-3.5,1-4.5
				C12.6,31.1,21.9,36.7,21.9,39.7z"/>
			<path class="st78" d="M31.9,12.6c-0.1-1.8,0.1-3.5,2-4.2c2.1-0.8,3.1,0.9,4,2.3c1.4,2.2,2.6,4.5,3.7,6.8c0.8,1.6,0.6,3.3-1.1,4.5
				c-1.9,1.2-3.5,0.2-4.2-1.4C35.1,17.8,31.6,16.2,31.9,12.6z"/>
			<path class="st78" d="M7.7,64.4c2.1,1,7-2.3,6.8,3.1c-0.2,4.4-4.6,3.1-7.6,3.3c-1.1,0.1-2.2-0.1-3.3-0.2c-2-0.2-3.6-1-3.5-3.5
				c0.1-2.6,1.8-2.8,3.9-2.7C5,64.4,6.1,64.4,7.7,64.4z"/>
			<path class="st78" d="M100.8,13c-1,3.4-1.9,7.3-5.7,9.3c-1,0.5-3,0.5-3.3-1.2c-0.9-4.4,2.3-7.2,4.4-10.4c0.7-1.1,1.8-2.4,3.1-2
				C101,9.3,100.7,11.2,100.8,13z"/>
			<path class="st78" d="M131.1,64.7c2.1-0.2,3.2,0.8,3.1,2.9c-0.1,1.5-1.2,2.2-2.6,2.5c-3.3,0.7-6.6,0.9-10,0.2
				c-1.7-0.4-2.9-1.2-2.8-2.9c0.1-2,1.3-3,3.4-2.6c0.2,1.4-2.6,4,1.1,4.1C126.4,68.8,131.1,70.8,131.1,64.7z"/>
			<path class="st78" d="M131.1,64.7c0,6.2-4.7,4.1-7.7,4.1c-3.7,0-0.9-2.6-1.1-4.1C125.2,64.7,128.2,64.7,131.1,64.7z"/>
			<path class="st78" d="M120.3,39.7c-0.1,0.1-0.2,0.3-0.4,0.4c-2,1.3-3.9,3.3-6.6,2.3c-1.3-0.5-2.2-1.9-1.8-3.2
				c0.8-2.8,3.2-4,5.9-4.5c-0.1,2.1-3.2,2.7-2.7,4.9C116.7,39.7,118.5,39.7,120.3,39.7z"/>
			<path class="st78" d="M120.3,39.7c-1.8,0-3.6,0-5.5,0c-0.6-2.3,2.6-2.8,2.7-4.9c0,0,0,0,0,0c2.7-0.3,6.2-1.9,5.7,3.3
				c0,0-0.2,0.1-0.2,0.1c-0.7,0.4-1.3,0.8-2,1.2C120.9,39.7,120.6,39.8,120.3,39.7z"/>
			<path class="st78" d="M123.2,38.1c0.5-5.2-3-3.6-5.7-3.3c2-1.8,4.2-4.3,7-1.8C126.3,34.8,126.1,37.1,123.2,38.1z"/>
			<path class="st78" d="M121,39.4c0.7-0.4,1.3-0.8,2-1.2C122.7,39.2,121.9,39.5,121,39.4z"/>
			<path class="st78" d="M12.6,91.5c-0.2-0.1-0.3-0.2-0.5-0.3C12.3,91.3,12.4,91.4,12.6,91.5C12.6,91.5,12.6,91.5,12.6,91.5z"/>
			<path class="st78" d="M13.7,105c0.2,0.1,0.3,0.2,0.5,0.3C14,105.2,13.9,105.1,13.7,105C13.7,105,13.7,105,13.7,105z"/>
		</g>
	</g>
	<g>
		<polygon class="st79" points="55.6,120.5 78.6,120.5 78.6,142.1 90.2,198.6 66.8,219.2 44.1,198.6 56.2,142.3 		"/>
		<line class="st79" x1="56.2" y1="142.3" x2="78.6" y2="142.1"/>
		<polygon class="st78" points="80.8,158.1 52,177.3 52,165.4 80.8,146.3 		"/>
		<polygon class="st78" points="84.7,183.2 49.8,206.5 47.2,196.3 84.7,171.4 		"/>
	</g>
</g>
<g id="Layer_2">
</g>
</svg>
