<svg id="Layer_1" data-name="Layer 1" xmlns="http://www.w3.org/2000/svg" viewBox="0 0 560.64 560.64"><defs><style>.cls-1{opacity:0.5;}.cls-2{fill:#880070;}.cls-3{fill:#ff1d25;}.cls-4{fill:#fff;}</style></defs><title>Artboard 6</title><g class="cls-1"><path d="M237.3,382a36,36,0,0,1-5.69.91C164.41,383,67.2,383,0,383c-.75,0-1.5-.12-3.91-.33C5,377,13.05,372.44,20.41,367c8.9-6.59,18.4-8.54,29.41-8.45,52.94.46,135.89.2,188.83.19,7.22,0,9.94,2,12.63,9.22Z"/><path d="M150.47,316.12v38.59h93.1v1.08H67.42V313.48H279.76l.24,1.15a34.78,34.78,0,0,1-6,1.07q-59.5.17-119,.18C153.67,315.88,152.33,316,150.47,316.12Zm-34.94,7.16c-6.55.11-12,5.65-11.79,12A12.36,12.36,0,0,0,116,346.93c6.32-.14,12-5.92,11.87-12.15S122,323.16,115.53,323.28Zm-28.56,0a11.83,11.83,0,0,0-12,11.66,12,12,0,0,0,11.82,12c6.19.05,12-5.81,11.88-12.08A12.09,12.09,0,0,0,87,323.28Z"/><path d="M264.56,382.6a55.18,55.18,0,0,1,2.18-34.42c2.36-6,7.09-10.18,13.57-10.76,9.07-.8,18.28-1.47,27.32-.76,11.26.89,17.88,7.9,19.21,20.09.92,8.41.18,17,.18,25.85Z"/><path d="M360.15,259c-.39-2.18-1.11-4.37-1.11-6.55-.06-19.5-.06-39,.11-58.49,0-3.68-.93-5.23-4.88-5.22q-65.24.17-130.45.13a30.63,30.63,0,0,0-3.24.43c0,9.26.07,18.53-.05,27.79a46.71,46.71,0,0,1-1,6.59L210.56,215c-.17-10.27-.73-20.57-.19-30.81.11-2.16,4-4.48,6.65-6,1.48-.87,3.82-.32,5.77-.32H356.88c11,0,12.88,1.88,12.88,12.92,0,17.77.05,35.53-.05,53.29,0,2.24-.82,4.48-1.26,6.73Z"/><path d="M355.56,359.78a23.94,23.94,0,0,1,4.86-1q43.31-.1,86.61,0c1.53,0,76.73-.17,77.91.55,12,7.44,24,15.05,35.7,23.62H479.42q-47.4,0-94.81,0a47.08,47.08,0,0,1-6.82-1Z"/><path d="M248.87,253.1c1.21-.37,2.43-1.07,3.64-1.07q51.15-.09,102.31,0c.76,0,1.51.19,3.43.45-.46,3.39-.9,6.67-1.34,10l-2.4,2c-.91-1.85-1.53-3.93-2.77-5.52a7.21,7.21,0,0,0-10.77-.55c-3.14,3.27-3.2,7.18-.29,10.42,1.47,1.65,4.23,2.14,6.41,3.15l-2.21,2.31-28.41,1.29c-6.85-6.91-11.85-12.76-17.76-17.45-1.89-1.5-7.3-1.16-9.23.5-5.16,4.43-9.15,10.2-14,15.06-1,1-3.63.43-5.5.59Z"/><path class="cls-2" d="M275.9,218.05c1.55-1.16,2.94-2.74,4.68-3.43,14.27-5.69,29.23-3.44,44-3.36,2,0,3.88,1.68,5.89,2.37,5.78,2,11.6,3.8,17.38,5.76,1.19.41,3.06,1,3.25,1.79,1.49,6.39,4.12,13.11-.35,19.11-1.72,2.31-5.24,3.28-8.52,5.2-2.07-7-4.72-12.58-12.24-11.81-7.14.72-9.35,6.11-9.93,13.13H276.11c-1.75,0-3.51-.1-5.26,0-3,.14-4.93-.24-5.39-4.17-.71-6-5-9.34-10.24-9.23s-8.64,3.27-9.9,9.65c-.44,2.23-.37,4.66-3.68,2.58l-7.26-7.36c-2.45-3.59.83-5.16,2.83-6.28A106.58,106.58,0,0,1,250,226.37c7.21-2.86,14.44-5.65,21.72-8.3,1.32-.48,2.94-.14,4.41-.18-3.67,2.45-8,4.28-10.83,7.48-4.42,5,2.57,8,3.35,12,1.55,8,6.66,8.3,12.94,7.54,2.69-.33,5.49.06,8.14-.41,1.45-.26,3.58-1.39,3.89-2.53,2.52-9.32,4.69-18.73,7.11-28.71C291.37,212,283.71,215.47,275.9,218.05Zm20.54,26c3.64,0,6.33-.12,9,0,6.81.36,13.18.39,15.54-8.16.52-1.88,3.37-3,4.89-4.76,1.21-1.37,3.23-3.64,2.82-4.53-2.09-4.46-3.9-10.36-7.64-12.39-4.28-2.31-10.47-1.21-15.84-1.25-.7,0-1.77,2-2.07,3.19C300.93,225,298.87,233.86,296.44,244.06Z"/><path d="M210.56,215l8.95,8.71a47.27,47.27,0,0,1,1,6.83c.09,15.56.05,31.12.05,47.55h54.57c-1.34,4.47-2.33,7.8-3.35,11.24-18,0-35.54,0-53.09,0-5.35,0-8.86-2.86-8.92-8.06-.22-21.83-.06-43.67,0-65.51C209.77,215.48,210.29,215.23,210.56,215Z"/><path d="M286.41,332.82a2,2,0,0,1-.53.25c-14,2.56-22.12,10.77-25.08,24.85-.53,2.53-5.16,5.92-7.84,5.87-4.24-.09-6.59-7.42-4.47-11.81,3.88-8.05,7.31-16.42,12.1-23.9,2.09-3.26,6.83-5.47,10.82-6.74,7.38-2.35,13.13-6,15.11-12.63l14.13-1.77-.21.19c1.47,2.51,2.95,5,4.42,7.51Z"/><path d="M286.41,332.82l18.45-18.18,14.37,7.68,11.38,11.62c3.33,5.24,6.74,10.44,10,15.74,1.8,2.94,4.11,5.83,1.58,9.63-2.78,4.16-5.94,7.29-11.86,5.74-.42-2.81-.83-5.86-1.32-8.89-2.33-14.33-10.32-21.43-24.91-22.22C298.18,333.62,292.29,333.2,286.41,332.82Z"/><path d="M277.15,281.49c-.63-9.92,6.47-18.38,16.62-19.8,7.51-1.05,17,7.6,18.22,16.65.47,3.36,1.05,6.7,1.73,11-8,3.29-16.76,5-26.1,2.49Z"/><path d="M113.12,299.25c-1,0-2.1.32-2.9-.06-4.2-2-12,4.65-12.9-4.55-1.57-16.95,2.75-24.2,13.91-25.67,8.5-1.12,15.43,4.1,17.18,12.94C131.56,297.81,130.29,299.25,113.12,299.25Z"/><path d="M355.56,359.78l22.23,22.16c-.65.33-1.3.94-2,.94-15.58.05-31.17,0-47.41,0,.54-5.1,1.05-9.83,1.6-15.06,6.25.25,10.4-2.58,14.42-7.21C346.18,358.65,351.74,360,355.56,359.78Z"/><path d="M266.8,320.8c-2.93.44-5.87,1.25-8.8,1.26q-46.89.13-93.78.06h-7.7c0,8.29-.19,16.05.25,23.77.06.94,3.53,2.41,5.43,2.42,25,.14,50,.07,75,.05h10.23c-3.18,3.29-75.71,4.77-93.17,2.43V319.61H266.55C266.63,320,266.72,320.41,266.8,320.8Z"/><path d="M248.87,253.1,270,274.26a16.24,16.24,0,0,1-3.71.92c-14.53.06-29.06,0-43.92,0V251.54Zm-6,3.19c-5.06.09-7.2,3-7.64,7.33s2.6,7.31,7.06,7.41c4.65.1,8.08-3,7.8-7.41C249.8,259.06,247.05,256.74,242.86,256.29Z"/><path d="M360.15,259l8.3-8.22c.44,1.17,1.24,2.35,1.26,3.53.1,8.56.15,17.13,0,25.69-.11,6.35-3,9.34-9.39,9.26-9.79-.13-19.59-.63-29.38-1l9.25-9.33,18.12-1.52Z"/><path d="M435,321.72H415.93c0-.58,0-1.16-.07-1.74h21.77c0,9.67,0,20.06,0,30.45H345.34c0-.58,0-1.17,0-1.75H435Z"/><path d="M441.32,354.88V315.2H416c0-.58,0-1.15,0-1.72h31.49v42.37H353.49l0-1Z"/><path d="M136.4,309.08h-46c-.06-4.54,2.17-6.32,6.13-6.32,11.11,0,22.22,0,33.33.06C133.73,302.84,136.78,304,136.4,309.08Z"/><path d="M407.1,322.16c-28.47-.79-57,1.11-85.43-.91l0-2.15q19.86,0,39.72,0l39.77,0c2.55,0,5.28-.45,5.71,3.22Z"/><path d="M237.3,382l14-14,8.75-1c.59,5.53,1.11,10.41,1.75,16.39Z"/><path d="M386.8,335.2a11.32,11.32,0,0,1-22.62.84,11.32,11.32,0,0,1,22.62-.84Zm-11.67-10.73a96.53,96.53,0,0,0-8.07,7.39c-.69.78,0,2.78,0,4.23l3.72-.2c2.83-.15,5.66-.34,8.5-.47,1.7-.07,3.41,0,5.12-.06-.43-1.81-.31-4.14-1.42-5.33C381.15,328,378.5,326.76,375.13,324.47Z"/><path d="M300.65,306.94c-.39,0-.78,0-1.17,0-13.1.06-13.1.06-18.43-12.43h27.12c-2.36,3.86-5.05,8.26-7.73,12.67Z"/><path d="M340.19,279l-9.25,9.33c-4,.33-8.31,1.76-11.9.72-4.61-1.34-4.64-6.11-4.21-11.4Z"/><path d="M406.9,322.35c.89-1.53,2.44-3,2.54-4.61.31-5.25,0-10.53.16-15.8,0-1.24,1-2.45,1.75-4.34,1,1.34,1.35,1.63,1.37,1.94.93,13.78,1.87,27.55,2.71,41.33.17,2.9.54,6-4.09,6.09-4.83.13-4.76-2.94-4.7-6.19.12-6.21.3-12.41.46-18.61Zm6.25,3.72-1.35-.65c-.87,1-2.41,1.89-2.5,2.94a69.42,69.42,0,0,0,0,10.4c.05.88,1.08,1.71,1.66,2.56.74-.89,2.07-1.76,2.12-2.69C413.28,334.45,413.15,330.26,413.15,326.07Z"/><path d="M406.06,315.1H310.31c0-.47,0-.93,0-1.39H406Z"/><path d="M202,335.27a7.37,7.37,0,0,1-7.82,7.52c-4.39-.4-7.24-2.91-7.22-7.51s2.7-7.14,7.21-7.45A7.24,7.24,0,0,1,202,335.27Z"/><path d="M161.89,334.88c.33-4.31,2.7-7,7.38-7s7.19,2.79,7.57,7.26c.34,4-3.64,7.73-7.88,7.75C165.1,342.92,161.83,339.34,161.89,334.88Z"/><path d="M404.68,286.39c1.68-1.05,4-3.51,6.63-3.89,3.76-.55,6.18,2.12,6.18,6.09s-2.32,6.36-6.12,6.42C407.25,295.08,405,292.53,404.68,286.39Z"/><path d="M337.25,339.37c-2-3.49-3.95-6.63-5.72-9.85-1.56-2.85-.13-5,2.59-4.83s6.69,1.31,7.65,3.24c1.11,2.23-.24,5.86-1,8.75C340.46,337.71,338.69,338.32,337.25,339.37Z"/><path d="M354.51,264.46l2.4-2c.5,4,1,8,1.67,13.17l-13.7-1.31,2.21-2.31Z"/><path d="M277.15,281.49l10.47,10.33L274.1,290C275.42,286.34,276.28,283.91,277.15,281.49Z"/><path class="cls-3" d="M234.38,238.27l7.26,7.36-8.49-.07Z"/><path d="M330.61,333.94l-11.38-11.62C326.75,322.55,329.05,327.88,330.61,333.94Z"/><path class="cls-4" d="M115.53,323.28c6.44-.12,12.27,5.3,12.37,11.5s-5.55,12-11.87,12.15a12.36,12.36,0,0,1-12.29-11.66C103.53,328.93,109,323.39,115.53,323.28Zm7.15,9c-2.66-5.74-7.25-4.69-11.92-3.39-4.17,4.1-4.67,7.76-1.37,11.46,3.14,3.52,7,4.22,10.89,1.55C123.59,339.57,126.05,336.49,122.68,332.25Z"/><path class="cls-4" d="M87,323.28a12.09,12.09,0,0,1,11.65,11.56c.08,6.27-5.69,12.13-11.88,12.08a12,12,0,0,1-11.82-12A11.83,11.83,0,0,1,87,323.28Zm4.93,6.5-8.15-1.71c-4.85.8-6,4.72-4.82,8.16.91,2.74,4,6.15,6.56,6.55s6.44-1.9,8.35-4.18C96.24,335.73,95.63,332.06,91.9,329.78Z"/><path class="cls-4" d="M354.51,264.46l-7.42,7.5c-2.18-1-4.94-1.5-6.41-3.15-2.91-3.24-2.85-7.15.29-10.42a7.21,7.21,0,0,1,10.77.55C353,260.53,353.6,262.61,354.51,264.46Z"/><path class="cls-4" d="M275.9,218.05c7.81-2.58,15.47-6.08,24.78-4.77-2.42,10-4.59,19.39-7.11,28.71-.31,1.14-2.44,2.27-3.89,2.53-2.65.47-5.45.08-8.14.41-6.28.76-11.39.46-12.94-7.54-.78-4.06-7.77-7-3.35-12,2.8-3.2,7.16-5,10.83-7.48Z"/><path class="cls-4" d="M296.44,244.06c2.43-10.2,4.49-19.06,6.7-27.88.3-1.21,1.37-3.19,2.07-3.19,5.37,0,11.56-1.06,15.84,1.25,3.74,2,5.55,7.93,7.64,12.39.41.89-1.61,3.16-2.82,4.53-1.52,1.72-4.37,2.88-4.89,4.76-2.36,8.55-8.73,8.52-15.54,8.16C302.77,243.94,300.08,244.06,296.44,244.06Z"/><path class="cls-4" d="M242.86,256.29c4.19.45,6.94,2.77,7.22,7.33.28,4.4-3.15,7.51-7.8,7.41-4.46-.1-7.5-3.12-7.06-7.41S237.8,256.38,242.86,256.29Z"/><path class="cls-4" d="M375.13,324.47c3.37,2.29,6,3.56,7.89,5.56,1.11,1.19,1,3.52,1.42,5.33-1.71,0-3.42,0-5.12.06-2.84.13-5.67.32-8.5.47l-3.72.2c-.05-1.45-.73-3.45,0-4.23A96.53,96.53,0,0,1,375.13,324.47Z"/><path class="cls-4" d="M413.15,326.07c0,4.19.13,8.38-.1,12.56-.05.93-1.38,1.8-2.12,2.69-.58-.85-1.61-1.68-1.66-2.56a69.42,69.42,0,0,1,0-10.4c.09-1.05,1.63-2,2.5-2.94Z"/><path d="M122.68,332.25c3.37,4.24.91,7.32-2.4,9.62-3.84,2.67-7.75,2-10.89-1.55-3.3-3.7-2.8-7.36,1.37-11.46l-2,6.76c4.36,0,7.73.27,11-.16C120.89,335.32,121.73,333.38,122.68,332.25Z"/><path class="cls-4" d="M122.68,332.25c-1,1.13-1.79,3.07-2.87,3.21-3.28.43-6.65.16-11,.16l2-6.76C115.43,327.56,120,326.51,122.68,332.25Z"/><path d="M91.9,329.78c3.73,2.28,4.34,6,1.94,8.82-1.91,2.28-5.77,4.58-8.35,4.18s-5.65-3.81-6.56-6.55c-1.15-3.44,0-7.36,4.82-8.16-1.68,2.33-5.53,4-3.27,7.14h13Z"/><path class="cls-4" d="M91.9,329.78l1.55,5.43h-13c-2.26-3.18,1.59-4.81,3.27-7.14Z"/></g></svg>