<svg id="Layer_1" data-name="Layer 1" xmlns="http://www.w3.org/2000/svg" viewBox="0 0 450.21 450.21"><defs><style>.cls-1{fill:#2957ae;}</style></defs><title>Artboard 14</title><path class="cls-1" d="M42.05,200.63a7,7,0,0,0,.85,11.1c3.16,2,7.7,1,10.13-1.71a8,8,0,0,0-.33-10.92c-2.73-2.86-8.91-4.88-11.27-.53a2.7,2.7,0,0,0,1,3.66,10.23,10.23,0,0,0,3.26.9,2.79,2.79,0,0,1,1.53.58c-.33-.24.4.35.47.44-.36-.43.43,1,.22.36.24.7-.11-.23.06.57q.09-.59-.06,0c.12-.3.13-.33,0-.11s-.11.19.07-.06a5.32,5.32,0,0,1-.48.47c.5-.42-.34.17-.39.2-.38.18-.41.2-.09,0a4.74,4.74,0,0,1-.65.16c.61-.1-.16,0-.37-.05.39.05.39,0,0,0l.23.1c-.33-.2-.36-.22-.11-.05.08.2,0,.09-.19-.32a2,2,0,0,1,.44-1.52c1.91-2.56-2.11-5.3-4.27-3.29Z"/><path class="cls-1" d="M59.81,199.68c-3.31,4.68-4.36,11.4-6.07,16.84-1.89,6-4.24,12.16-5.5,18.38a3.54,3.54,0,0,0,6.82,1.88c2.26-5.94,3.54-12.34,5.17-18.47,1.46-5.5,4.14-11.76,3.84-17.48a2.31,2.31,0,0,0-4.26-1.15Z"/><path class="cls-1" d="M67.77,223.11c-4.13,2.95-2.55,8.81,1.08,11.46a7.85,7.85,0,0,0,11.42-2.67,9.37,9.37,0,0,0-2.4-12.24C74.29,217,68,216.72,65,220.49a3.26,3.26,0,0,0-.49,3.78,3.15,3.15,0,0,0,3.53,1.44c1.54-.53,3.34-1.35,5-.72a2,2,0,0,1,1.35,2.69c-.83,2.85-3.21.8-2.69-1.57.46-2.05-1.88-4.44-3.9-3Z"/><path class="cls-1" d="M245.09,202.1c-3.69,2.27-5,7.43-1.84,10.78,2.51,2.68,6.79,2.87,9.89,1.14a7.86,7.86,0,0,0,3-10.45c-1.78-3.64-7.91-7.6-11.28-3.64a2.72,2.72,0,0,0,.54,4.2,11.91,11.91,0,0,0,2.88,1.32,2.92,2.92,0,0,1,1.27.94,1.5,1.5,0,0,1,.36,1.06l-.1.32q.21-.51-.09,0c.51-.41-.56.18.09-.15-.06,0-1,.47-.35.23a5.57,5.57,0,0,1-1,.27c.71-.11-.29,0-.39-.06.72.18-.21-.07-.34-.14.34.14.33.12,0-.07l.19.13c-.06.16-.12.23-.08-.16.08-.66,0-1,.56-1.48,2.3-2.07-.68-5.88-3.29-4.27Z"/><path class="cls-1" d="M262.65,204.62c-4.36,4.13-6.84,10.86-9.69,16.09-3.05,5.57-6.42,11.08-8.87,16.95-1.6,3.81,4.42,6,6.46,2.72,3.37-5.38,5.88-11.42,8.68-17.12,2.5-5.1,6.41-10.76,7.24-16.41.32-2.16-2-3.92-3.82-2.23Z"/><path class="cls-1" d="M265.32,229.48c-4.26,1.93-3.47,8-.95,11a7.85,7.85,0,0,0,11.88,0,9.38,9.38,0,0,0,0-12.72c-3.39-3.51-9.33-4.39-13.12-1.15-1.93,1.65-.47,5.7,2.21,5.34,1.64-.22,3.61-.68,5.12.21a2.08,2.08,0,0,1,.93,2.92c-1.36,2.69-3.29.08-2.43-1.89a2.68,2.68,0,0,0-3.63-3.63Z"/><path class="cls-1" d="M212.21,204.81c-5.65,8-10.07,18.38-4,27.47,5.16,7.67,16.34,8.26,23.09,2.37,15.6-13.6-2.16-41-20.77-31.55-4.44,2.24-.54,8.44,3.82,6.54,11-4.77,20.9,12.38,11.27,19.56-4.76,3.54-10.73,1.67-12.81-3.8-2.35-6.16.81-12.68,4.26-17.73,2.07-3-2.81-5.8-4.9-2.86Z"/><path class="cls-1" d="M371.75,235.59a49,49,0,0,1,9.26,6.24c1.4,1.14,3.38-.72,2-2a37.81,37.81,0,0,0-9.92-6.55c-1.55-.74-2.93,1.56-1.36,2.33Z"/><path class="cls-1" d="M382.3,232.81c-1.13,8.8-2.43,17.57-3.56,26.37-.24,1.88,2.75,1.88,3,0,1-8.79,1.87-17.59,2.89-26.37.17-1.48-2.11-1.44-2.3,0Z"/><path class="cls-1" d="M391.22,242.58a6.62,6.62,0,0,0,10.88-2.22c1.82-4.94-3.42-8.59-7.87-6.93-5.44,2-6.91,9.81-5.33,14.75s7.61,8.45,12.2,5.08a1.52,1.52,0,0,0-1.54-2.63c-6.73,3.58-9.22-5.88-7.41-10.65.89-2.33,5.07-6.27,7.09-2.67,1.16,2.05-.91,3.83-2.51,4.35a5.58,5.58,0,0,1-4.35-.59,1,1,0,0,0-1.16,1.51Z"/><path class="cls-1" d="M415.32,241.94a4.25,4.25,0,0,0-3.53-6.15c-4.44-.35-6.52,4.43-6.6,8.12-.06,2.88,1,7.58,4.8,7.11,4.48-.55,6.48-7.74,7-11.35l-2.72.35c1.89,4.26,2.7,8.78,4.38,13.06.54,1.38,2.87,1.35,2.78-.37-.27-4.83-2.58-9.86-4.59-14.19-.51-1.09-2.56-.9-2.72.36-.25,1.81-3.07,11.56-5.65,8.11-.85-1.14-.57-3.87-.29-5.1a5.24,5.24,0,0,1,1.26-2.52c1.36-1.32,5-.84,4,1.8a1,1,0,0,0,1.83.77Z"/><path class="cls-1" d="M422.83,241c.67,4.79,1.93,9.53,3,14.25.36,1.62,3.15,1.3,2.95-.4-.68-5.92-1.27-13,5.58-15.31,1.41-.47,1.29-2.9-.38-2.76-9,.74-9.05,11.91-8.15,18.47l2.9-.8c-1.14-4.68-2.07-9.49-3.56-14.08a1.19,1.19,0,0,0-2.3.63Z"/><path class="cls-1" d="M446.18,236.36c-3.7-3.29-9.2.27-8.43,5,.48,2.94,2.82,3.71,5,5.15s3.27,4.08,1.32,6.24c-1.81,2-4.61,1.28-6.33-.47-1.12-1.12-3.18.36-2.25,1.73,2.9,4.29,9.76,4.24,12-.68a7.43,7.43,0,0,0-.84-7.59,8.86,8.86,0,0,0-2.79-2.14c-1.08-.6-3.88-1.62-3.29-3.39l2.49-2.45a6.33,6.33,0,0,1,2,.42,1.09,1.09,0,0,0,1.05-1.82Z"/><path class="cls-1" d="M12.13,216.5c-1.58-3.62,4.58-8.61,7.73-7.07,3.61,1.76,4,6.59,3.64,10.11-.62,7-4.38,13.11-9.65,17.6-2.92,2.49-.34,6.76,2.89,7,6.59.47,13.38,1.48,20,1.26,4.39-.14,5.85-7.3,1.09-8-6.91-1.1-14.09-1-21.07-1.39l2.89,7c9.16-8.06,17.5-26.59,7.52-37.23-4-4.32-10.67-5.66-15.55-1.87s-7.19,10-4.3,15.49c1.71,3.26,6.22.4,4.83-2.82Z"/><path class="cls-1" d="M186.39,198.52c-5.17,6.5-10.56,12.83-15.82,19.27-2.52,3.08-.11,6.89,3.7,6.36a144.39,144.39,0,0,1,26.28-1.37c2.86.11,4.4-2.71,3.95-5.2l-.09-.53a4,4,0,0,0-2.83-2.82,4.47,4.47,0,0,0-3.88.46c-2.84,1.62-1.95,5.59.86,6.57l.49.17-2.29-1.75-.31-1,4.1-4.1a134.93,134.93,0,0,0-28.3,2.24l4.29,5.59c4.87-6.75,9.58-13.6,14.52-20.28,2-2.69-2.57-6.24-4.67-3.6Z"/><path class="cls-1" d="M184.61,201.27c.21,7.72.09,15.36.68,23.08.35,4.54-.77,13.29,3.79,16a3.89,3.89,0,0,0,4.61-.6c1.34-1.25,1.46-2.62,1.19-4.34s-2.07-2.6-3.56-2.72l-.29,0c-4.36-.35-4.59,5.85-1,7.18l.28.1-2.71-3.56,0,.44,1.85-3.24-.35.18,4.61.6c.85.89.05-.95,0-1.47-.18-1.58-.48-3.17-.7-4.75q-.67-4.78-1.24-9.57c-.67-5.78-1.69-11.53-2.12-17.32-.24-3.17-5.09-3.25-5,0Z"/><path class="cls-1" d="M409.56,184.52c-5.17,6.5-10.56,12.83-15.82,19.27-2.52,3.08-.11,6.89,3.7,6.36a144.39,144.39,0,0,1,26.28-1.37c2.86.11,4.4-2.71,3.95-5.2l-.1-.53a4,4,0,0,0-2.82-2.82,4.47,4.47,0,0,0-3.88.46c-2.84,1.62-2,5.59.86,6.57l.49.17-2.29-1.75-.31-1,4.1-4.1a134.88,134.88,0,0,0-28.3,2.24l4.29,5.59c4.86-6.75,9.58-13.6,14.52-20.28,2-2.69-2.57-6.24-4.67-3.6Z"/><path class="cls-1" d="M407.78,187.27c.21,7.72.08,15.36.68,23.08.35,4.54-.77,13.29,3.79,16a3.89,3.89,0,0,0,4.61-.6c1.34-1.25,1.46-2.62,1.19-4.34s-2.07-2.6-3.56-2.72l-.29,0c-4.36-.35-4.6,5.85-1,7.18l.28.1-2.71-3.56-.06.44,1.86-3.24-.35.18,4.61.6c.85.89.05-.95,0-1.47-.19-1.58-.48-3.17-.7-4.75q-.67-4.78-1.24-9.57c-.67-5.78-1.69-11.53-2.12-17.32-.24-3.17-5.09-3.25-5,0Z"/></svg>