<svg id="Layer_1" data-name="Layer 1" xmlns="http://www.w3.org/2000/svg" viewBox="0 0 775.33 775.33"><defs><style>.cls-1{opacity:0.5;}.cls-2{fill:#fff;}.cls-3{fill:#880070;}</style></defs><title>Artboard 13</title><g class="cls-1"><path d="M556.6,304.69c3.5-1.14,7-3.32,10.52-3.26,25.08.4,50.19.66,75.21,2.3,8.32.55,16.57,4.55,24.52,7.79,9.11,3.72,18.24,7.69,26.65,12.74,15.09,9.08,30.81,13.58,48.54,11.61,2.92-.33,7.8,2.93,9.29,5.82,17.4,33.7,25.18,69.17,19.18,107.22-1.15,7.26-4,11.11-11.08,12.7-8.43,1.89-16.77,4.31-25,7-6.14,2-10.36,1.56-10.6-8.31-9.08,37.23-30,53.54-57.78,46.65-16.64-4.13-40.52-27.38-33.09-54,4.24-15.2,13.46-25.67,28-31.38,14.17-5.55,27.86-2.56,42.68,4.59-9.5-12.4-31.68-13.57-44.31-8.41-20.78,8.49-30.2,25-32.28,46.65-.23,2.37-2.44,4.54-3.71,6.84-7.64-7.9-15.13-16-23-23.72q-44.7-44.06-89.57-88c2.46-3.7,5.12-7.3,7.33-11.15,1.74-3,2.94-6.38,4.38-9.58L543,318.22c.49,2.22,1.51,4.48,1.36,6.66-.64,9.33-1.62,18.64-2.52,28.33,5,0,8.58.29,12.09,0,21.92-2.13,43.82-4.43,65.74-6.57,4.55-.45,9.39-.24,9.38-6.73,0-5.82,3-12-5.26-16-15.68-7.57-32-10.78-49.21-10.9-8.45-.05-16.9-.84-25.34-1.3ZM669.73,467.45,652,447.61c-1.15,8.83-2,15.23-3.07,23.47Zm9.26,6.88-2.66-1.82-19.51,8.15-.45,3.1,18.23,6Q676.81,482,679,474.33Zm1.44-18.8,22.4,5.19,2.09-1.46-10.34-18.63Zm6.66,31.34,2,1.84,15.2-15.88-19.11-7.68C686,474,686.54,480.46,687.09,486.87ZM670.42,457.6c5-8,8.58-13.83,13.87-22.34L661,439.44C664.47,446.13,666.94,450.9,670.42,457.6Z"/><path d="M385.09,475.89c-7.88.77-15.76,1.92-23.65,1.94-1.47,0-3.75-4.42-4.28-7.07-1.78-9-1.49-18.63-4.63-27-7.43-19.9-28.73-31.47-49.62-28.58a47.21,47.21,0,0,0-40.53,41.51c-.36,3-1.27,5.89-1.32,8.85-.26,16.3-.29,15.06-16.73,15.05a380.64,380.64,0,0,1-40.22-2.17c-12.45-1.32-12.94-2.62-12-14.7.47-5.67,1.39-11.37,1.12-17-1.06-23,11.88-38,30.75-46.13,31.45-13.55,64.21-24,96.18-36.43,26.65-10.33,52.86-21.81,79.48-32.25,18.3-7.17,36.9-13.61,55.52-19.92,2.93-1,6.69.43,10.06.73l5.1,6.26c-2.58,1.19-5.09,2.57-7.75,3.53-19.59,7-39.29,13.73-58.78,21-12.16,4.54-15.61,16.69-23.56,27.11,4.54.28,7.16.81,9.69.54,34.34-3.7,68.66-7.55,103-11.19,2.28-.25,4.7.9,7,1.41-11.34,10.93-22.87,21.69-34,32.84Q425.42,434.9,385.09,475.89Z"/><path d="M385.09,475.89Q425.55,435,466,394.19c11.13-11.15,22.66-21.91,34-32.84l10.83-1.82q44.8,44,89.57,88c7.84,7.74,15.33,15.82,23,23.72l3.74,6.64c-5.14.27-8.64.63-12.13.63q-110.82,0-221.63-.12C390.61,478.35,387.85,476.75,385.09,475.89Z"/><path d="M44.66,276.55c7.18,6.77,1.43,13.92,0,20.64-.37,1.75-5.46,3.2-8.53,3.57-6.9.85-6.69,5-3.35,8.43,8.93,9.19,18.42,17.87,28.05,26.33,1.46,1.28,5,.81,7.39.31,5.16-1.06,10.22-2.66,15.37-4.06,2.52,14.36,2.22,14.44-9.93,18.73-9.39,3.31-18.17,5.07-26.47-2.6-2.06-1.9-5.18-2.65-8.34-4.18-.8,4.06-1.49,7.54-2.18,11l-2.78,0q-.45-6.94-.92-13.9c.25,5.72-6.3,12.74,2.8,17.05,1,.48.93,3.81.92,5.82q-.35,66.81-.94,133.62c0,2.69-2.06,5.35-3.87,9.78l24.93,7.41c-.2,1-.41,2.11-.61,3.17L8.28,522c-.69-10.42-1.7-19.8-1.84-29.19-.3-20.34-.12-40.68-.2-61a121.92,121.92,0,0,0-4.43-32.43C-1.47,387.42.74,374,.61,361.2c0-.86.18-2.31.67-2.5,14.87-5.89,4.75-18.94,9.65-27.64l-2.26-.58L5.44,355.36c-5.56-4.28-6.1-8.08-2.93-25.84,1.55-8.74,4.12-17.31,6.27-26.08l4.48-.73v-22l31.67-4.32Z"/><path d="M264.63,462.1c.51-24.39,21.18-44.37,45.13-43.62,24.63.76,44.78,21,44.42,44.66-.39,25.51-20.67,45.34-45.95,44.95C283.46,507.71,264.1,487.28,264.63,462.1Zm54.53,26.39c7.41-3.54,14.52-7.51,13.69-15.07-.37-3.31-8.73-5.74-15.28-9.67C318.2,473.66,318.64,480.51,319.16,488.49Zm8.16-47.4-14.66,11.54L315,456l23.42,5.49Zm-38.15,39.48-.62,2.39,19.68,9c.8-7.91,1.33-13.2,2-20.14Zm-2.28-30.34-2.77-.2c-.65,6.5-1.29,13-2.1,21.12l19.45-3.87ZM315,437.72c-7.14-3.32-14.8-2.2-18.66,2.91-1.88,2.5,3.08,10.16,4.94,15.49l2.78-.73C307.6,449.67,311.15,444,315,437.72Z"/><path d="M122.35,501.55h-17c-.19-3.33-.52-6.51-.52-9.68q0-60.6.05-121.19c0-26,3-36.75,17.48-60.83Z"/><path d="M470.37,318.94l-5.1-6.26c1.87-1.68,3.62-4.67,5.62-4.85,27.14-2.4,54.3-4.47,81.48-6.37,1.33-.09,2.82,2.09,4.23,3.22l-7.33,7L543,318.22,522.57,338.8c1-8.25,2.08-16.5,3.24-25.63Z"/><path d="M74.27,519.29c4.77-8.84,9.46-14.62,20.19-13.76,12.76,1,25.67.22,38.51.22s13.39.33,20.17,13.54Z"/><path d="M44.93,276.39,7.82,278.12C6.25,261.35,15.54,245.2,33,249.74c4.59,1.19,9.11,4.82,12.38,8.48,4,4.48,6.67,10.16,9.73,15l-10.45,3.29Z"/><path d="M264.16,525.61c-9.14,0-15.86-6.59-15.92-15.56a16.09,16.09,0,0,1,15.47-16.31A16.29,16.29,0,0,1,280.23,510,15.88,15.88,0,0,1,264.16,525.61Zm-.36-23.72c-2.45,3.52-5.28,5.82-5.14,7.91s3.89,5.62,5.14,5.27c2.42-.67,5.41-3.42,5.83-5.73C270,507.63,266.57,505.24,263.8,501.89Z"/><path d="M647.3,510.1c0,9.3-6.3,15.69-15.64,15.76-8.82.07-15.62-6.79-15.7-15.85a15.94,15.94,0,0,1,15.7-16.07C640.37,494,647.27,501.09,647.3,510.1ZM631.09,502c-2.5,3.73-5.61,6.45-5.11,8.09.71,2.37,4,4,6.24,5.89,1.61-2.16,4.44-4.3,4.48-6.49C636.73,507.46,633.78,505.39,631.09,502Z"/><path d="M722.61,494.81c8.93.16,15.36,7.17,15,16.38-.31,8.44-7.35,15.67-15.29,15.7-8.67,0-16.21-8-15.91-16.9C706.73,500.78,713.28,494.64,722.61,494.81Zm6,17.6,2.67-4.28c-2.69-1.07-5.43-3.06-8.06-2.93-2.27.11-4.43,2.63-6.64,4.09,1.67,2.43,2.88,5.9,5.18,6.94C723.22,516.87,726.31,513.81,728.65,512.41Z"/><path d="M361.82,498.57c9,1.18,8.9,8.21,8.35,14.42-.68,7.76-8.9,14.73-16.06,13.15-4.38-1-8.06-5.13-12.05-7.85l5.37-5.35,10.82,1.72c-.35-3.6-.71-7.21-1.06-10.82Z"/><path d="M92.85,353.58l31-70.08C127.6,292.81,104.22,346.23,92.85,353.58Z"/><path d="M347.43,512.94l-5.37,5.35c-5.2-6.46-4.52-14.69,1.67-20,6-5.22,13.42-5.08,18.09.33l-4.63,5.27C351,503.75,348.43,507.49,347.43,512.94Z"/><path d="M87.61,342.73c-1.16-13.57-1.14-13.59,13.69-16.12L90.23,344.43Z"/><path class="cls-2" d="M470.37,318.94l55.44-5.77c-1.16,9.13-2.2,17.38-3.24,25.63-1.44,3.2-2.64,6.55-4.38,9.58-2.21,3.85-4.87,7.45-7.33,11.15L500,361.35c-2.35-.51-4.77-1.66-7-1.41-34.35,3.64-68.67,7.49-103,11.19-2.53.27-5.15-.26-9.69-.54,8-10.42,11.4-22.57,23.56-27.11,19.49-7.28,39.19-14,58.78-21C465.28,321.51,467.79,320.13,470.37,318.94Z"/><path class="cls-2" d="M543,318.22l6.24-6.54c8.44.46,16.89,1.25,25.34,1.3,17.22.12,33.53,3.33,49.21,10.9,8.27,4,5.25,10.16,5.26,16,0,6.49-4.83,6.28-9.38,6.73-21.92,2.14-43.82,4.44-65.74,6.57-3.51.34-7.07,0-12.09,0,.9-9.69,1.88-19,2.52-28.33C544.54,322.7,543.52,320.44,543,318.22Z"/><path class="cls-2" d="M669.73,467.45,649,471.08c1.08-8.24,1.92-14.64,3.07-23.47Z"/><path class="cls-2" d="M679,474.33q-2.19,7.69-4.39,15.39l-18.23-6,.45-3.1,19.51-8.15Z"/><path class="cls-2" d="M680.43,455.53l14.15-14.9,10.34,18.63-2.09,1.46Z"/><path class="cls-2" d="M687.09,486.87c-.55-6.41-1.1-12.83-1.86-21.72l19.11,7.68-15.2,15.88Z"/><path class="cls-2" d="M670.42,457.6c-3.48-6.7-5.95-11.47-9.41-18.16l23.28-4.18C679,443.77,675.39,449.59,670.42,457.6Z"/><path class="cls-2" d="M319.16,488.49c-.52-8-1-14.83-1.59-24.74,6.55,3.93,14.91,6.36,15.28,9.67C333.68,481,326.57,485,319.16,488.49Z"/><path class="cls-2" d="M327.32,441.09l11.13,20.44L315,456l-2.37-3.41Z"/><path class="cls-2" d="M289.17,480.57l21.09-8.71c-.7,6.94-1.23,12.23-2,20.14l-19.68-9Z"/><path class="cls-2" d="M286.89,450.23l14.58,17L282,471.15c.81-8.11,1.45-14.62,2.1-21.12Z"/><path class="cls-2" d="M315,437.72c-3.85,6.23-7.4,11.95-10.94,17.67l-2.78.73c-1.86-5.33-6.82-13-4.94-15.49C300.2,435.52,307.86,434.4,315,437.72Z"/><path class="cls-2" d="M263.8,501.89c2.77,3.35,6.15,5.74,5.83,7.45-.42,2.31-3.41,5.06-5.83,5.73-1.25.35-5-3.27-5.14-5.27S261.35,505.41,263.8,501.89Z"/><path class="cls-2" d="M631.09,502c2.69,3.39,5.64,5.46,5.61,7.49,0,2.19-2.87,4.33-4.48,6.49-2.21-1.92-5.53-3.52-6.24-5.89C625.48,508.45,628.59,505.73,631.09,502Z"/><path class="cls-2" d="M728.65,512.41c-2.34,1.4-5.43,4.46-6.85,3.82-2.3-1-3.51-4.51-5.18-6.94,2.21-1.46,4.37-4,6.64-4.09,2.63-.13,5.37,1.86,8.06,2.93Z"/><path class="cls-2" d="M347.43,512.94c1-5.45,3.6-9.19,9.76-9.1.35,3.61.71,7.22,1.06,10.82Z"/><path class="cls-3" d="M755.43,341.45c-3.6-7.38-7.77-9.81-15.31-8.15a47.37,47.37,0,0,1-35.72-5.65,161.93,161.93,0,0,0-20.73-10.41c-13.11-5.42-26.21-13.81-39.74-14.7-38.62-2.54-77.45-2.3-116.2-2.46-27.24-.11-54.27,3.19-79.87,12.87-28.56,10.81-56.57,23.08-84.93,34.41-4.37,1.75-9.39,1.87-13.15,2.57-4,2.58-7.3,5.76-11.24,7.12-22,7.58-44.12,14.51-66,22.21-3.18,1.12-5.33,5.16-8,7.85h0c-3.26-.47-7.06-2.26-9.68-1.18-12.82,5.28-26.25,9.93-37.71,17.47-14.29,9.4-24.16,22.69-22.37,41.7a57.55,57.55,0,0,1-1.17,16.16c-1.74,8.93.54,14.44,10.42,15,15,.81,30.08,1.44,45.09,2.49,8.77.61,12.47-2.36,12.4-11.76-.13-20.14,7.13-36.89,24.9-48.16,1.47-.94,1.22-4.61,1.8-7,4.28.61,8.74,2.3,12.88,1.72,31.45-4.41,55.74,15.79,56.89,47.71.17,4.53.51,9.06.86,15h17.07c79.52.07,159,0,238.55.42,11.12.06,16.92-2.27,15.42-14.64-.5-4.06,1.06-8.42,2-12.58,4.92-22.47,25.91-37.83,49.92-36.6,22,1.12,41.22,19,44.11,40.86.65,4.85,1.74,9.64,2.77,15.24,12.72-3.56,24.42-6.18,35.54-10.33,3.75-1.39,8-6.34,8.68-10.26C779.59,410.77,772,375.44,755.43,341.45ZM519.34,350c-.65,2.29-3.89,5.19-6.21,5.46-41.89,4.87-83.81,9.38-125.73,13.9-1.4.15-2.89-.46-8-1.36,9-10,14.91-21.61,24.25-26.16,37.56-18.29,77.75-28,119.64-29.94,1.06-.05,2.16.68,5.19,1.7C525.39,326.18,522.72,338.18,519.34,350Zm112.94-14.12c-.44,7.75-5.4,7.92-11.15,8.49-25.28,2.52-50.54,5.32-78.23,8.28,1.78-13.8,2.88-24.91,4.91-35.84.44-2.34,4.24-5.71,6.58-5.8,24-.86,47.94-1.18,70.46,10C632,324.59,632.67,329.18,632.28,335.86Z"/></g></svg>