<svg id="Layer_1" data-name="Layer 1" xmlns="http://www.w3.org/2000/svg" viewBox="0 0 893.51 893.51"><defs><style>.cls-1{opacity:0.5;}.cls-2{fill:#880070;}.cls-3{fill:#fff;}</style></defs><title>Artboard 8</title><g class="cls-1"><path class="cls-2" d="M354.34,499.18c.67-1.12,1.09-2.92,2-3.25,16-5.7,32.27-10.86,48.18-16.87,18.52-7,37.17-13.87,55-22.32,39.14-18.48,79.85-28.68,123.33-27.13,22.91.82,45.85.88,68.76,1.79a42,42,0,0,1,15.26,4c12.73,5.8,25.43,11.78,37.64,18.57a60.32,60.32,0,0,0,33.44,7.9c17.63-.84,17.83-.3,20.93,16.92,2.35,13,5.12,26.06,5.8,39.19.31,5.91-4.57,11.91-6.12,18.11-4.91,19.63-23.17,17.59-36.78,22.6-5.06,1.87-5.19-4.08-5.51-7.81-1.5-17.1-12.19-29.55-28.67-33.3A36,36,0,0,0,645,543.11c-1.34,4.88-2.87,10.1-2.43,15,.61,6.74-2.27,7.6-7.77,7.6-43.1-.07-86.19.06-129.28.07-19.13,0-38.25,0-57.37-.24-12.49-.13-12.7-.28-13.11-13.2-.4-12.39-5.49-22.17-15.6-29.07-11.05-7.52-22.92-9.12-35.53-3.77-2.29,1-5.09.73-7.65,1ZM566.12,438.7c-12.1,1.28-22.5,1.77-32.67,3.55-30.59,5.33-58.93,16.51-85.85,32.18-11.72,6.82-16.63,15.77-16.75,28.32,0,2.39,1.12,5.65,2.88,7.05,12.06,9.5,18.51,22.09,21.08,36.85,1.34,7.71,5.46,10.63,13.19,10.34,21.11-.78,42.24-1.22,63.36-1.6,4.54-.09,6.65-1.63,7.76-6.32,5.2-22,10.89-43.87,16.31-65.82C558.94,469,562.28,454.72,566.12,438.7ZM552.06,555c4.62,0,7.61.06,10.59,0,19.1-.47,38.19-1.23,57.28-1.32,6.35,0,9.45-1.83,11.3-8.25,4.93-17.18,14.27-31.26,30.57-40.12,10.47-5.69,13.24-14.55,7.6-25.09s-12.2-20.53-18.4-30.74c-3.94-6.48-10.12-9.17-17.33-9.51-14.75-.71-29.52-.87-44.25-1.82-6.83-.44-9.88,1.8-11.44,8.62-6.44,28-13.44,55.85-20.2,83.77C555.94,538.12,554.22,545.74,552.06,555Z"/><path d="M49.37,553.25c-1.67-2.47-4.14-4.74-4.89-7.47-3.6-13.08-6.73-26.3-10-39.47l-2,0q-4.51,16.23-9,32.46c-.68,2.44-1.78,4.83-2.07,7.32-.64,5.5-3.22,7.91-9,7.49-3.72-.27-7.51.54-12.39,1,3.31-15.09,6.45-29.57,9.67-44,2.26-10.16,4.66-20.29,6.92-30.46,1.54-7,.82-13.43-.81-20.69-2.51-11.15-1.18-23.17-1.46-34.82,0-.48.18-1.34.43-1.4,11.13-2.84,5.26-12.35,7.17-18.71A29.87,29.87,0,0,0,22.34,390c-.95,7.91-1.76,15.84-2.95,23.72-.31,2-1.77,3.92-2.7,5.87-.71-1.92-2.21-3.93-2-5.73,1.67-13.49,3.68-26.94,5.58-40.34l12.25,1,3.54,1.21c5.73,5.33,12.07,10.16,17,16.11,8.17,9.77,18,14.39,30.69,13.36,2.21-.18,4.49.32,7.49.57.18,2.93.25,5.63.52,8.31.5,4.86-1.88,5.95-6.34,5.95-13.84,0-27.63.19-38.84-12.41-1,5.09-1.56,8-2.13,11l-2,.15-2-10.91c6.34,22.81,2.48,46.84,9.29,69.8s11.25,46.92,16.74,70.48l-10.74,5.23Z"/><path d="M241.35,512.26c-18.22.12-31.93-15.69-28-33.46,4.91-22.31,10.46-44.49,16.46-66.53,1.35-5,4.74-10.52,8.87-13.43,9-6.35,24.4,2.06,25.49,13.65,2.26,24,4.4,48,5.8,72.09C270.81,499.43,257,512.17,241.35,512.26Zm.05-41.74a13.3,13.3,0,0,0-13.06,13.2c0,6.83,6.5,13,13.49,12.91,8.44-.13,13.43-5.19,13.13-13.31A13.59,13.59,0,0,0,241.4,470.52Zm16.13-57.68a9.75,9.75,0,0,0-10.65-9.5c-5.95.52-9.26,4-9.52,9.91-.25,5.38,4.91,10.19,10.3,10.12S257.68,418.33,257.53,412.84Z"/><path class="cls-2" d="M354.34,499.18l21.87,21.35c-.76,1.93-1,4.35-2.35,5.69-8.16,8.22-11.81,18-12,29.54-.14,11-1.14,11.89-11.95,11.55-11.64-.36-23.26-1.34-34.88-2.25-4.47-.35-6.56-2.76-6.11-7.63.86-9.11.3-18.45,2.09-27.33,2.12-10.5,10.14-17.79,19-22.72C337.35,503.28,346.17,501.81,354.34,499.18Z"/><path d="M138.61,376.38V548.65H122.34v-8.2c0-39.19.13-78.39-.13-117.58-.06-9.33.87-18,5.63-26.31,3.74-6.54,6.38-13.7,9.51-20.58Z"/><path d="M829.18,403.47c-3-11-6.42-21.89-8.93-33-2-8.75,2.13-15.94,9.8-19.32s15.2-1.93,20.14,5.51c11.2,16.86,21.64,34.23,32.38,51.39l-10.68,10.75c-7.64-1.37-14.52-.2-19.89,6Zm17.36-36.31a9.76,9.76,0,0,0-10-10.16c-6.06.12-9.36,3.64-10,9.39-.62,5.25,4.37,10.57,9.65,10.81S846.42,372.73,846.54,367.16Z"/><path d="M819.29,392.51q-24.52,7.64-49,15.27c-6.3,2-12.53,4.21-18.93,5.72-6,1.42-11.13-.4-14.14-6.18-2.82-5.44-2.29-11.6,2.76-14.28,17.64-9.34,35.8-17.68,53.76-26.41Zm-62.76,9.61c-3.72-2.87-6.2-6.17-8-5.84-2.47.47-4.43,3.69-6.6,5.73,2,1.94,3.89,5.21,6.09,5.45S752.58,404.76,756.53,402.12Z"/><path d="M269.41,414.21c-3.42-6.64-6.85-13.28-10.22-19.83,9.44,1.34,20.34,3,31.25,4.42,13.54,1.82,27.1,3.43,40.62,5.3,2.37.33,4.62,1.47,6.93,2.24l-23.18,23.2-28.73,1.55Q277.76,422.65,269.41,414.21Z"/><path d="M166.62,565.08H96.51c2.16-9.14,6.4-12.89,14.23-12.91,12.45,0,25,.76,37.35-.25C158,551.11,162.29,556.25,166.62,565.08Z"/><path d="M60.63,347.93l-39.84,4.36c-3-11.25,1.32-21.8,10-25.12,9.06-3.45,17.54.79,23.41,11.45C55.88,341.63,58.12,344.33,60.63,347.93Z"/><path d="M871.89,418.81l10.68-10.75c12,12.34,14.41,28,5.84,39.85-1.8,2.49-4.83,4.08-7.29,6.09l-9.31-9.28C878,436.1,879.75,427.47,871.89,418.81Z"/><path d="M36.07,375.73l-3.54-1.21c-13.39-2.6-6.55-13-8.52-20.81l30.53-2.94c-1.19,6.94-2.08,12.81-3.27,18.61-.2,1-1.87,2.63-2.51,2.48C43.69,370.66,40.21,374.21,36.07,375.73Z"/><path d="M829.18,403.47,852,424.8l.08,13.69-9.45,9.43c-1.19-1.21-3.1-2.24-3.47-3.66C835.69,430.7,832.47,417.08,829.18,403.47Z"/><path d="M314.81,429.54,338,406.34c8.33-1.87,15.09,1.6,16.56,8.5,1.68,7.89-2.87,14.66-11.55,15.19C333.65,430.59,324.21,429.76,314.81,429.54Zm36.64-11.33c-4.08-3-6.48-6.09-8.35-5.8-2.45.38-4.48,3.45-6.69,5.36,1.86,2,3.61,5.51,5.62,5.66C344.39,423.61,347,420.88,351.45,418.21Z"/><path d="M842.63,447.92l9.45-9.43c5.34,6,12.43,6.44,19.73,6.23l9.31,9.28C870.8,465,849.48,461.6,842.63,447.92Z"/><path d="M819.29,392.51,793.7,366.63l27.11-15.38,1.62,1.23c-9.81,9.08-5.93,19.15-3.41,29.3C819.87,385.17,819.24,388.92,819.29,392.51Z"/><path d="M49.37,553.25l6.46.12c9.31-3.53,16.5,4.56,25.16,4.62-.07,2,0,5.77-.25,5.79-11,1-22,1.6-33,2.27l-.27-2.74,11.46-1.26-12.45-3.31Q47.93,556,49.37,553.25Z"/><path d="M140.26,350.12c2.5,11-19.24,59.23-28.68,64.94C121.22,393.22,130.37,372.52,140.26,350.12Z"/><path d="M17.14,564.26c-3.45-.52-7-.81-10.32-1.61A46.42,46.42,0,0,1,0,559.9c2.24-1.29,4.54-3.8,6.7-3.68,8.61.48,17.19,1.68,25.74,2.85,2.13.3,4.14,1.5,6.21,2.28l-2.83,4.53-15.61-1.53Z"/><path d="M269.41,414.21q8.34,8.44,16.67,16.88l-16.67,2Z"/><path d="M740.94,442.45,725.78,453.3V433.45l12.37,4.83Z"/><path d="M349.32,432.07l6.39-6c3.83,3.63,7.42,7.06,11,10.47l-6.36,7.75Z"/><path d="M731,428.1c2.38-5.22,4.42-9.68,6.68-14.65l8.49,3.57-6.29,14.56Z"/><path d="M378.71,459.71c-4.07-3.49-8.26-6.85-12.07-10.59-.54-.53.35-3.73,1.34-4.27,1.16-.63,3.91-.27,4.67.69,3,3.78,5.53,8,8.22,12Z"/><path d="M96.48,415.57c-1.36-11.33-1.22-11.51,11.67-14.27L98.81,417Z"/><path d="M17.14,564.26l3.1.09c-3.18,3.75-13.51,4.71-19.38-.09Z"/><path class="cls-3" d="M566.12,438.7c-3.84,16-7.18,30.31-10.69,44.55-5.42,21.95-11.11,43.83-16.31,65.82-1.11,4.69-3.22,6.23-7.76,6.32-21.12.38-42.25.82-63.36,1.6-7.73.29-11.85-2.63-13.19-10.34-2.57-14.76-9-27.35-21.08-36.85-1.76-1.4-2.91-4.66-2.88-7.05.12-12.55,5-21.5,16.75-28.32,26.92-15.67,55.26-26.85,85.85-32.18C543.62,440.47,554,440,566.12,438.7Z"/><path class="cls-3" d="M552.06,555c2.16-9.26,3.88-16.88,5.72-24.47,6.76-27.92,13.76-55.78,20.2-83.77,1.56-6.82,4.61-9.06,11.44-8.62,14.73.95,29.5,1.11,44.25,1.82,7.21.34,13.39,3,17.33,9.51,6.2,10.21,12.78,20.22,18.4,30.74s2.87,19.4-7.6,25.09c-16.3,8.86-25.64,22.94-30.57,40.12-1.85,6.42-5,8.22-11.3,8.25-19.09.09-38.18.85-57.28,1.32C559.67,555.06,556.68,555,552.06,555Z"/><path class="cls-3" d="M241.4,470.52A13.59,13.59,0,0,1,255,483.32c.3,8.12-4.69,13.18-13.13,13.31-7,.11-13.46-6.08-13.49-12.91A13.3,13.3,0,0,1,241.4,470.52Zm-1.56,21.36,3.62.06c2-2.85,5.38-5.51,5.84-8.6.64-4.33-2.6-8.44-7.24-7.39-3.05.69-7,4.35-7.52,7.22C234.1,485.69,237.91,489,239.84,491.88Z"/><path class="cls-3" d="M257.53,412.84c.15,5.49-4.51,10.47-9.87,10.53s-10.55-4.74-10.3-10.12c.26-5.87,3.57-9.39,9.52-9.91A9.75,9.75,0,0,1,257.53,412.84Zm-1.42.27c-4.11-2.81-6.48-5.69-8.55-5.49s-3.86,3.47-5.78,5.4c1.92,1.88,3.69,5.05,5.79,5.28S252,415.76,256.11,413.11Z"/><path class="cls-3" d="M871.81,444.72c-7.3.21-14.39-.23-19.73-6.23L852,424.8c5.37-6.19,12.25-7.36,19.89-6C879.75,427.47,878,436.1,871.81,444.72Zm.25-12.93c-3.47-3-5.81-6.41-7.53-6.12-2.29.38-5.23,3.42-5.72,5.78-.33,1.56,3,5.37,4.93,5.53C865.87,437.16,868.26,434.33,872.06,431.79Z"/><path class="cls-3" d="M846.54,367.16c-.12,5.57-5,10.3-10.37,10s-10.27-5.56-9.65-10.81c.68-5.75,4-9.27,10-9.39A9.76,9.76,0,0,1,846.54,367.16Zm-10-8.7c-2.68,3.77-5.52,6-5.43,8.12s3.13,4.1,4.87,6.14c2.14-2,5.44-3.7,6-6.09C842.45,364.93,839.27,362.31,836.53,358.46Z"/><path class="cls-3" d="M756.53,402.12c-3.95,2.64-6.4,5.56-8.51,5.34s-4.08-3.51-6.09-5.45c2.17-2,4.13-5.26,6.6-5.73C750.33,396,752.81,399.25,756.53,402.12Z"/><path class="cls-3" d="M351.45,418.21c-4.49,2.67-7.06,5.4-9.42,5.22-2-.15-3.76-3.65-5.62-5.66,2.21-1.91,4.24-5,6.69-5.36C345,412.12,347.37,415.22,351.45,418.21Z"/><path d="M239.84,491.88c-1.93-2.93-5.74-6.19-5.3-8.71.51-2.87,4.47-6.53,7.52-7.22,4.64-1.05,7.88,3.06,7.24,7.39-.46,3.09-3.79,5.75-5.84,8.6Zm8.75-8.14c-3.23-2.47-5.22-5.1-6.72-4.85-1.81.31-3.83,2.86-4.49,4.86-.28.86,2.58,3.86,4.11,3.93C243.3,487.76,245.22,485.74,248.59,483.74Z"/><path d="M256.11,413.11c-4.1,2.65-6.48,5.41-8.54,5.19s-3.87-3.4-5.79-5.28c1.92-1.93,3.7-5.2,5.78-5.4S252,410.3,256.11,413.11Z"/><path class="cls-3" d="M872.06,431.79c-3.8,2.54-6.19,5.37-8.32,5.19-1.92-.16-5.26-4-4.93-5.53.49-2.36,3.43-5.4,5.72-5.78C866.25,425.38,868.59,428.81,872.06,431.79Z"/><path d="M836.53,358.46c2.74,3.85,5.92,6.47,5.48,8.17-.6,2.39-3.9,4.09-6,6.09-1.74-2-4.78-4-4.87-6.14S833.85,362.23,836.53,358.46Z"/><path class="cls-3" d="M248.59,483.74c-3.37,2-5.29,4-7.1,3.94-1.53-.07-4.39-3.07-4.11-3.93.66-2,2.68-4.55,4.49-4.86C243.37,478.64,245.36,481.27,248.59,483.74Z"/></g></svg>