<svg id="Layer_1" data-name="Layer 1" xmlns="http://www.w3.org/2000/svg" viewBox="0 0 169.1 167.46"><defs><style>.cls-1,.cls-4{fill:#fff;}.cls-1,.cls-2{stroke:#231f20;}.cls-1,.cls-2,.cls-3,.cls-4,.cls-5{stroke-linecap:round;stroke-linejoin:round;}.cls-1,.cls-2,.cls-3{stroke-width:3.3px;}.cls-2,.cls-3,.cls-5{fill:none;}.cls-3{stroke:#929497;}.cls-4,.cls-5{stroke:#00a14b;stroke-width:2.7px;}.cls-6{fill:#00a14b;}</style></defs><title>Artboard 10</title><polygon class="cls-1" points="71.14 9.91 6.4 41.53 134.96 41.53 71.14 9.91"/><line class="cls-2" x1="5.55" y1="123.73" x2="135.81" y2="123.73"/><line class="cls-2" x1="17.93" y1="130.56" x2="123.42" y2="130.56"/><line class="cls-3" x1="6.11" y1="48.61" x2="27.36" y2="48.61"/><line class="cls-3" x1="6.11" y1="116.9" x2="27.36" y2="116.9"/><line class="cls-3" x1="8.9" y1="55.19" x2="23.82" y2="55.19"/><line class="cls-3" x1="8.9" y1="110.07" x2="23.82" y2="110.07"/><line class="cls-3" x1="12.94" y1="61.51" x2="12.94" y2="104.76"/><line class="cls-3" x1="20.03" y1="61.51" x2="20.03" y2="104.76"/><line class="cls-3" x1="42.08" y1="48.61" x2="63.32" y2="48.61"/><line class="cls-3" x1="42.08" y1="116.9" x2="63.32" y2="116.9"/><line class="cls-3" x1="44.86" y1="55.19" x2="59.78" y2="55.19"/><line class="cls-3" x1="44.86" y1="110.07" x2="59.78" y2="110.07"/><line class="cls-3" x1="48.9" y1="61.51" x2="48.9" y2="104.76"/><line class="cls-3" x1="55.99" y1="61.51" x2="55.99" y2="104.76"/><line class="cls-3" x1="78.04" y1="48.61" x2="99.28" y2="48.61"/><line class="cls-3" x1="78.04" y1="116.9" x2="99.28" y2="116.9"/><line class="cls-3" x1="80.82" y1="55.19" x2="95.74" y2="55.19"/><line class="cls-3" x1="80.82" y1="110.07" x2="95.74" y2="110.07"/><line class="cls-3" x1="84.87" y1="61.51" x2="84.87" y2="104.76"/><line class="cls-3" x1="91.95" y1="61.51" x2="91.95" y2="104.76"/><line class="cls-3" x1="114" y1="48.61" x2="135.24" y2="48.61"/><line class="cls-3" x1="114" y1="116.9" x2="135.24" y2="116.9"/><line class="cls-3" x1="116.78" y1="55.19" x2="131.7" y2="55.19"/><line class="cls-3" x1="116.78" y1="110.07" x2="131.7" y2="110.07"/><line class="cls-3" x1="120.83" y1="61.51" x2="120.83" y2="104.76"/><line class="cls-3" x1="127.91" y1="61.51" x2="127.91" y2="104.76"/><rect class="cls-4" x="65.64" y="106.78" width="98.99" height="44.36" transform="matrix(1, 0.09, -0.09, 1, 12.17, -9.91)"/><path class="cls-5" d="M86.66,104.1a18.87,18.87,0,0,1-20.51,17.08"/><path class="cls-5" d="M147.64,109.65a18.89,18.89,0,0,0,17.09,20.51"/><path class="cls-5" d="M82.69,147.68A18.89,18.89,0,0,0,65.6,127.17"/><path class="cls-5" d="M143.67,153.23a18.87,18.87,0,0,1,20.51-17.08"/><path class="cls-6" d="M93.44,136.82l.22-2.4A6.91,6.91,0,0,1,90.12,133l.71-1.54a6.42,6.42,0,0,0,3.33,1.34c1.68.15,2.91-.72,3-2.07s-.74-2.2-2.43-3.07c-2.34-1.17-3.73-2.4-3.54-4.47a3.91,3.91,0,0,1,3.93-3.5l.22-2.39,1.47.13-.21,2.3a6.34,6.34,0,0,1,3,1.12l-.73,1.51A5.82,5.82,0,0,0,96,121.32c-1.83-.17-2.62.86-2.71,1.81-.11,1.24.71,1.93,2.7,3,2.36,1.22,3.48,2.56,3.29,4.68a4.15,4.15,0,0,1-4.12,3.69L94.93,137Z"/><path class="cls-6" d="M107.11,121.84h0L104,123.16l-.29-1.79,3.89-1.64,2,.18-1.54,17-2.22-.21Z"/><path class="cls-6" d="M126.22,129.79c-.53,5.76-3,8.75-6.71,8.41-3.31-.31-5.27-3.61-4.81-9.22s3.25-8.59,6.7-8.28S126.71,124.39,126.22,129.79Zm-9.23-.58c-.4,4.41.73,7,2.81,7.22,2.35.22,3.72-2.42,4.11-6.75.38-4.17-.43-7-2.81-7.22C119.1,122.28,117.41,124.6,117,129.21Z"/><path class="cls-6" d="M139.6,131c-.52,5.76-2.95,8.75-6.7,8.4-3.32-.3-5.28-3.6-4.82-9.22s3.26-8.59,6.7-8.27S140.09,125.61,139.6,131Zm-9.23-.58c-.4,4.41.73,7,2.82,7.22,2.34.22,3.71-2.42,4.11-6.75.38-4.17-.44-7-2.81-7.22C132.48,123.5,130.79,125.81,130.37,130.43Z"/><rect class="cls-4" x="55.11" y="118.7" width="98.99" height="44.36" transform="matrix(1, 0.09, -0.09, 1, 13.21, -8.91)"/><path class="cls-5" d="M76.13,116A18.89,18.89,0,0,1,55.62,133.1"/><path class="cls-5" d="M137.11,121.57a18.89,18.89,0,0,0,17.09,20.51"/><path class="cls-5" d="M72.16,159.6a18.88,18.88,0,0,0-17.09-20.51"/><path class="cls-5" d="M133.14,165.15a18.89,18.89,0,0,1,20.51-17.09"/><path class="cls-6" d="M74.18,130.56l.6.06-.1,1a3.25,3.25,0,0,1,2.2,1.48l-1,.66a1.8,1.8,0,0,0-1.29-.91l-.24,2.37a4.36,4.36,0,0,1,1.92,1.67,2.81,2.81,0,0,1,.34,1.55,2.46,2.46,0,0,1-.84,1.65,2.83,2.83,0,0,1-2,.66l-.13,1.3-.6-.06.12-1.3a3.26,3.26,0,0,1-1.59-.92,4.64,4.64,0,0,1-.88-1.69l1.24-.2a3.18,3.18,0,0,0,.53,1,1.84,1.84,0,0,0,.83.49l.31-3.13c-1.4-.7-2-1.61-1.93-2.72a2,2,0,0,1,.72-1.35,2.81,2.81,0,0,1,1.68-.63Zm-.43,4.36.2-2.06a1.34,1.34,0,0,0-.75.27.8.8,0,0,0-.31.57C72.84,134.18,73.13,134.59,73.75,134.92Zm.44,1.7-.29,2.92a1.59,1.59,0,0,0,1-.34,1.26,1.26,0,0,0,.43-.86C75.4,137.68,75,137.11,74.19,136.62Z"/><path class="cls-6" d="M80.23,132.51l2.22.22-.84,8.55-1.16-.12.74-7.41-1.46-.14Z"/><path class="cls-6" d="M86.34,140l1.39.71L85.8,144l-1-.51Z"/><path class="cls-6" d="M92.54,133.41a2.7,2.7,0,0,1,2.18,1.49,5.78,5.78,0,0,1,.56,3.39A5.4,5.4,0,0,1,94,141.54a2.81,2.81,0,0,1-2.4,1,2.75,2.75,0,0,1-2.18-1.5,6.43,6.43,0,0,1,.68-6.65,2.84,2.84,0,0,1,2.39-1Zm1.51,4.74a4.48,4.48,0,0,0-.33-2.44,1.6,1.6,0,0,0-2.9-.3,4.63,4.63,0,0,0-.81,2.38,4.42,4.42,0,0,0,.34,2.47,1.7,1.7,0,0,0,1.39,1.06,1.65,1.65,0,0,0,1.52-.79A4.79,4.79,0,0,0,94.05,138.15Z"/><path class="cls-6" d="M100.15,134.16a2.69,2.69,0,0,1,2.17,1.5,5.65,5.65,0,0,1,.56,3.38,5.45,5.45,0,0,1-1.28,3.25,2.87,2.87,0,0,1-2.41,1A2.8,2.8,0,0,1,97,141.8a5.41,5.41,0,0,1-.6-3.33,5.52,5.52,0,0,1,1.28-3.32,2.85,2.85,0,0,1,2.39-1Zm1.51,4.74a4.57,4.57,0,0,0-.34-2.44,1.6,1.6,0,0,0-2.9-.3A5.43,5.43,0,0,0,98,141a1.7,1.7,0,0,0,1.39,1.06,1.65,1.65,0,0,0,1.52-.79A4.79,4.79,0,0,0,101.66,138.9Z"/><path class="cls-6" d="M107.75,134.91a2.68,2.68,0,0,1,2.17,1.5,5.65,5.65,0,0,1,.56,3.38A5.39,5.39,0,0,1,109.2,143a2.87,2.87,0,0,1-2.41,1,2.8,2.8,0,0,1-2.18-1.51,6.47,6.47,0,0,1,.69-6.65,2.82,2.82,0,0,1,2.38-1Zm1.51,4.74a4.57,4.57,0,0,0-.34-2.44,1.6,1.6,0,0,0-2.9-.3,4.72,4.72,0,0,0-.8,2.38,4.51,4.51,0,0,0,.33,2.47,1.71,1.71,0,0,0,1.39,1.06,1.65,1.65,0,0,0,1.52-.79A4.79,4.79,0,0,0,109.26,139.65Z"/><path class="cls-6" d="M112.17,142.58l1.39.71-1.93,3.29-1-.52Z"/><path class="cls-6" d="M118.37,136a2.7,2.7,0,0,1,2.18,1.49,5.78,5.78,0,0,1,.56,3.39,5.42,5.42,0,0,1-1.29,3.25,2.81,2.81,0,0,1-2.4,1,2.75,2.75,0,0,1-2.18-1.5,6.43,6.43,0,0,1,.68-6.65,2.84,2.84,0,0,1,2.39-1Zm1.51,4.74a4.48,4.48,0,0,0-.33-2.44,1.69,1.69,0,0,0-1.35-1.08,1.67,1.67,0,0,0-1.55.78,4.63,4.63,0,0,0-.81,2.38,4.42,4.42,0,0,0,.34,2.47,1.7,1.7,0,0,0,1.39,1.06,1.65,1.65,0,0,0,1.52-.79A4.79,4.79,0,0,0,119.88,140.7Z"/><path class="cls-6" d="M126,136.71a2.7,2.7,0,0,1,2.17,1.49,5.78,5.78,0,0,1,.56,3.39,5.45,5.45,0,0,1-1.28,3.25,2.83,2.83,0,0,1-2.41,1,2.75,2.75,0,0,1-2.18-1.5,5.41,5.41,0,0,1-.6-3.33,5.52,5.52,0,0,1,1.28-3.32,2.84,2.84,0,0,1,2.39-1Zm1.5,4.74a4.48,4.48,0,0,0-.33-2.44,1.6,1.6,0,0,0-2.9-.3,5.43,5.43,0,0,0-.47,4.85,1.7,1.7,0,0,0,1.39,1.06,1.65,1.65,0,0,0,1.52-.79A4.69,4.69,0,0,0,127.48,141.45Z"/><path class="cls-6" d="M133.58,137.46a2.68,2.68,0,0,1,2.17,1.5,5.65,5.65,0,0,1,.56,3.38,5.39,5.39,0,0,1-1.28,3.25,2.87,2.87,0,0,1-2.41,1,2.8,2.8,0,0,1-2.18-1.51,6.47,6.47,0,0,1,.69-6.65,2.82,2.82,0,0,1,2.38-1Zm1.51,4.74a4.57,4.57,0,0,0-.34-2.44,1.6,1.6,0,0,0-2.9-.3,4.72,4.72,0,0,0-.8,2.38,4.51,4.51,0,0,0,.33,2.47,1.71,1.71,0,0,0,1.39,1.06,1.65,1.65,0,0,0,1.52-.79A4.79,4.79,0,0,0,135.09,142.2Z"/></svg>