<svg id="Layer_1" data-name="Layer 1" xmlns="http://www.w3.org/2000/svg" viewBox="0 0 1048.98 1048.98"><defs><style>.cls-1{opacity:0.5;}.cls-2{fill:#fff;}.cls-3{fill:#880070;}</style></defs><title>Artboard 9</title><g class="cls-1"><path d="M190.84,588.69,235,572.4c24.39-9,49.23-16.93,73-27.3,23.19-10.11,46.33-19.93,71.05-25.49,6.53-1.47,13.25-2.85,19.89-2.88,36.77-.14,73.57-.53,110.3.76,9.06.31,18,6.27,26.81,10.19,7.83,3.5,15.4,7.62,22.93,11.74,7.83,4.29,15.54,8.2,25,7.5,2.66-.19,5.53,2.53,8.28,3.89l19.81,19c2,9.34,4.18,18.66,5.84,28.06.29,1.66-1.57,3.7-2.42,5.55L579.2,639.78l-7.52,3.31c-.78-4.52-1.29-7.9-1.95-11.25-3.53-18-18.86-31.11-36.09-30.83-17.84.3-33.6,14.67-36.17,33-.08.53-.07,1.07-.13,1.61-1.5,14.25-1.5,14.18-16.55,14.16-60.23-.08-120.47-.06-180.71-.29-3.39,0-6.78-1.93-10.92-3.18l-4.78,12.2H489.64l.54,2.09c-10.74,5.37-19,14.68-33,14.61q-115.77-.62-231.55-.07c-18.05.07-32.28-5.87-43.13-20.58-2.13-2.88-7-4.3-10.95-5.14-5.38-1.15-7.11-3.61-6.4-9,.66-5-.22-10.34.81-15.27,1.44-6.86,4.14-13.45,6.05-20.23a29.07,29.07,0,0,0,1.5-9.31m0,0q-3.35-57.15-7-114.28-2-31.77-4.12-63.54c-.35-5.35-.72-10.7-1.15-17H0V386.47H211.6c-4.78-10.52-6.43-20.13.79-28.84,6.94-8.39,16.07-10,26.65-7.18.38-4,.7-7.42,1.05-11.2,4.18-.56,8.56-3.07,10.08,3.82.24,1.06,2.81,1.82,4.42,2.32,4.19,1.32,8.45,2.41,14,4a5.65,5.65,0,0,0,1.14-2.56c2.45-12.94,8.81-18.43,21.8-18.46,17.48,0,35-.13,52.44,0,17.75.13,24.69,7.31,24.71,25.18,0,3.76.08,7.53-.06,11.29-.38,10.51-7.16,18.12-17.53,18.3-21.24.38-42.49.35-63.73.05C278.33,383,272,376.88,270.13,368c-.46-2.21-1-4.4-1.32-5.86l-15.69,6.64c-.92,4.22-2.19,10.09-3.74,17.21H1049V400.6h-9.08c-196.05,0-582.11,0-778.16.3a14.67,14.67,0,0,0-10,4.55c-21.83,25.86-43.33,52-64.81,78.17-1.59,1.94-3.35,4.67-3.23,6.93,1.79,32.2,3.9,64.39,6,96.58,0,.43.58.82,1.13,1.56Zm247-70.82c-4.66,0-7.58-.16-10.49,0-29.3,1.84-57,9.77-83.57,22a315.49,315.49,0,0,0-29,15.65c-10.43,6.22-15.81,26.07-8.55,32.05,11.83,9.74,18.51,22.1,21.19,36.81,1.38,7.62,5.83,10.14,13.07,9.92,20.42-.63,40.84-1.21,61.26-1.43,6.26-.06,8.92-2.66,10.28-8.58,4.37-19.09,9.22-38.06,13.86-57.09C412.47,558.13,416.36,542,420.52,524.82ZM407,637.59c1.5.68,2.21,1.28,2.9,1.27,22.29-.25,44.57-.61,66.86-.82,5.22,0,7.39-2.69,8.68-7.52,4.79-17.85,14.56-31.95,31.29-40.87,10.41-5.54,12.93-14.13,7.22-24.28s-11.87-19.79-17.85-29.65c-4.28-7-10.95-10.31-18.79-10.74-14.47-.8-29-.83-43.45-1.71-6.64-.41-9.52,2-11,8.45-4.56,20.09-9.66,40-14.58,60.06Q412.69,614.7,407,637.59ZM182.11,472.24l2.2.49,59-71.44H177.66C179.18,425.44,180.64,448.84,182.11,472.24ZM296.92,370.41c3.87.19,7.85.39,11.82.57l-12.3.66c0,.62,0,1.23.05,1.84h34.34v1.74H296.31c0,.51,0,1,.05,1.53H340.2c1.14-4.5,2.17-8.53,3.27-12.86H296.92ZM279.39,612.8c-10-10-21.84-14.51-35.66-9.93s-22.52,14.2-25.43,28.59c-1,4.71-.59,9.74-1.88,14.32-.66,2.35-3.39,4.42-5.67,5.88-1.48,1-3.82.58-5.78.81l-.3,2.5,21.68,5c-9.34-19.53-7.9-35.27,7-47.53S264,602.82,279.39,612.8ZM340,352.42H293.45l6.89,7.65-4.17.85.21,1.19h45.36c0-.51,0-1,0-1.55H313.23v-1.45h26.22C339.65,356.83,339.81,355.09,340,352.42Zm-43-11.14c-.79,2.55-1.38,4.43-1.89,6h45.73c-.54-2.35-1-4.14-1.39-6ZM340,330.19H296.57c.16,2.24.3,4.12.44,6h43.27C340.19,334.09,340.11,332.31,340,330.19ZM262.47,657.08l2.63,2.48c3.59-3.5,7.19-7,12.34-12L261.25,640C261.76,647.14,262.12,652.11,262.47,657.08Zm-22.42-5-.88,3c4.47,1.08,9.18,3.44,13.3,2.66,1.88-.35,2.59-6.91,3.83-10.66l-2.43-.92Zm34.38-14.87,1.89-1.71c-2.47-4.21-4.93-8.41-8.09-13.82l-10.4,12Zm-15.36-17.46-1-2.33-13.93,4.33,5.5,13.71Zm-9.88,22.44-13.53-14.69c-.68,6.81-1.15,11.59-1.75,17.68Zm47.73-263.85-.17,1.58H340.4c0-.52,0-1,0-1.58Zm-1.4-28.95-.55,1.31h46.48l0-1.31Zm45.35-10-.31-1.15H296.32c0,.39,0,.77,0,1.15Z"/><path d="M927.41,536.12c1.63.33,4.44.26,4.71,1,4.64,13.71,7.74,27.67,5.84,42.23l-2.75.54q-1.79-12.69-3.58-25.38l-.9.1c.4,7.69.75,15.38,1.26,23.06.08,1.19.89,3.3,1.46,3.33,7.82.46,5.55,6.47,5.73,10.66.49,11.48,1.53,22.92-3.67,34-1.89,4-.84,9.53-.87,14.37-.13,19.36-.13,38.72-.26,58.08,0,3.12-.47,6.25-.75,9.7H920.28c0,.23,0,.46,0,.69,3.14.33,6.37.36,9.4,1.13,1.43.37,2.51,2.15,3.75,3.3-1.34.93-2.59,2.45-4,2.67-2.88.42-5.86.12-8.84.89l13.24.83c-4.15,4.35-23.56,4.25-42.48.47,4.66-9.61,16.91-2.57,20.79-9-1.1-4-2.54-6.74-2.55-9.53-.12-29,.06-58.08,0-87.12,0-7.51-.68-15-1-22.54-.12-3.15-1.61-5.95,2.68-8.88,2.38-1.61,1.29-8.31.35-12.83l-1,11.47-1.62.31c-.65-3-1.31-6-2.09-9.54-2,.88-4.24,1.3-5.66,2.62-9.74,9-20.24,6-29.73.67-3.21-1.81-3.67-8.49-4.58-14.31,16.23,10.33,26,1.51,35.61-8.94,4.15-4.51,9.15-8.23,13.77-12.3Z"/><path d="M683.45,641.48c-.4,11.77-8.7,17.43-17.64,22.44-3,1.66-6.3,2.64-9.69,4,13.9.78,27,0,37.43-10.54,1-1,2.86-1,4.32-1.54L701.1,659l8.07,8,3.31,3.46c-5.44.45-10.88,1.42-16.3,1.25-9.48-.3-18.17,1.42-25.4,7.85-4.27,3.79-8.25,3.7-13,.79-5.63-3.44-11.65-6.25-19.28-10.27l7.65-2a3.2,3.2,0,0,0-.61-.74c-7.21-4.8-15.93-8.31-21.35-14.64-13.85-16.17-6.64-42.8,12.91-51.35,1.7-.74,3.91-.29,5.89-.4l9.78,9.8c1.39,5.82,2.78,11.65,4.27,17.93l8.69-4.23,4.69,3.25-13.7,10.11,12.7,6.73c1.73-5.08,3-8.92,4.36-12.76ZM651,626.34c-3-5.66-5-9.41-7.82-14.85l-12.08,13.27Zm12.65,25.17-15.53-13.33c-1,5.7-1.69,9.9-2.71,15.91Zm-34.15-17.79c2.8,5.61,4.92,9.85,7.84,15.68l7.58-18.1Z"/><path d="M835.85,540.55c4.89,10.59,9,19.29,12.92,28.11a20,20,0,0,1,1.79,7.71q.2,61.65.13,123.3a34.73,34.73,0,0,1-.58,4.29H835.85Z"/><path d="M694.26,650.9V613.71c7.93,5.72,15.53,10.44,24.25,3.43,5.14-4.14,7-9.6,5.31-15.84-2.05-7.72-8-10.94-16-12,10.5-1.44,19.11,5.73,17.75,15.7-.87,6.32,1.69,9.2,5.91,12.61s7.8,7.74,11.29,11.29l7.49-.8-.3,10-7.47-1.5c-3.6,3.66-7.52,8.35-12.17,12.13-3.66,3-5.73,5.7-4.83,10.73,1.13,6.34-1.77,11.16-7.77,15.38,2.46-5.12,5.72-9.13,6-13.35a18.94,18.94,0,0,0-4.11-12.28C713.94,642.24,707.79,643,694.26,650.9Z"/><path d="M640.36,593.67c7.3-3.75,14.52-7.69,22-11.11a6.63,6.63,0,0,1,5.85,1.07c11.47,10.72,25.52,9.7,39.56,9.33,9.86-.26,15.58,6.92,12.77,15.47A11.89,11.89,0,0,1,703,615.2a2.38,2.38,0,0,1-.68-.43c-15.6-18-36.45-19.55-58.12-18.56a15.69,15.69,0,0,1-3-.47C640.9,595.05,640.63,594.36,640.36,593.67ZM717.23,605c-3.81-2.75-6-5.61-8-5.43s-4,3.21-5.91,5c1.85,2,3.49,5.16,5.63,5.55C710.82,610.5,713.25,607.66,717.23,605Z"/><path d="M875.11,719.85h-64c1.07-8.53,4.87-12.16,12.51-12.18q18.9-.06,37.79,0C869.1,707.68,872.57,710.69,875.11,719.85Z"/><path d="M652.75,610.77,643,601c2.25-1.11,4.43-3,6.76-3.23,19.21-1.83,38.64,18.21,36.35,37.4-.26,2.18-1.72,4.23-2.63,6.34l-9.69-9.68-3.36-4.08-4.69-3.25c2.77-5.18.09-8.24-4.28-10.36C658.64,612.77,655.65,611.87,652.75,610.77Z"/><path d="M910.55,513.78,893,510.58c2.44-3.91,5.35-7.44,7-11.49,3.38-8.1,9.46-10.17,17.43-9.31,7.11.76,11.86,3.91,13.24,11.44.8,4.33,2.29,8.53,3.7,13.61l-24.18-1.23Z"/><path d="M927.41,536.12l-11.14,1.82c-3.77-1.21-7.94-1.79-11.15-3.85-2.21-1.41-3.6-4.73-4.44-7.48-1.12-3.64-1.33-7.55-2.07-12.17,4.78-.26,8.38-.45,11.95-.66l-.3-.18,19.64,3.6C929.06,523.6,928.23,529.86,927.41,536.12Z"/><path d="M579.2,639.78l36.33-36.33c1,1,3.06,2.4,2.88,2.78-4.42,9.33-7.19,20.58-14.27,27.17-5.84,5.43-16.84,5.31-25.55,7.65a2.12,2.12,0,0,1,.07-.68A3,3,0,0,1,579.2,639.78Z"/><path d="M834.43,519.2l25.94,58.88C850.9,572.56,831.53,527.48,834.43,519.2Z"/><path d="M612.11,569.84l-19.81-19c0-1-.58-2.47-.14-2.84,5.63-4.8,17.4-.76,18.59,6.49C611.58,559.53,611.68,564.71,612.11,569.84Z"/><path d="M712.48,670.5,709.17,667c3.88-2.65,8.18-5.64,3.85-10.66s-7.39-.64-10.39,2.4c-.29.3-1,.17-1.53.24l-3.23-3.16c2.43-7.12,8-9,14.47-7.48,5.74,1.32,8.84,5.86,8.62,11.85C720.76,665.58,719.17,670.28,712.48,670.5Z"/><path d="M863,570.65c-3.08-4.87-6.17-9.74-9.3-14.7,10.32-.2,12.21,2,11.52,13.27Z"/><path d="M788.69,483.43l-6.28-5.84c2-1.27,4.12-3.59,6.09-3.5,2.14.09,4.19,2.43,6.28,3.79Z"/><path d="M789,481.83l5.78,5.78c-2.15,1.24-4.27,3.37-6.46,3.45-1.92.06-3.92-2.19-5.88-3.41Z"/><path d="M769.82,624.59c.45,1.5,1.35,3,1.26,4.51a49.17,49.17,0,0,1-1.43,7.19c-1.78-1-5-1.9-5.06-3-.21-2.85.87-5.84,1.76-8.67.1-.31,2.35.06,3.61.11Z"/><path d="M788.69,513.65l-6.19-6c2-1.17,4.09-3.35,6-3.24,2.15.13,4.19,2.34,6.27,3.64Z"/><path d="M789.07,412.42l-6.63-5.87c2-1.29,4-3.65,5.88-3.57,2.2.08,4.32,2.32,6.47,3.63Z"/><path d="M788.92,561.94l5.87,5.66c-2.14,1.34-4.24,3.62-6.44,3.73-1.92.08-4-2.29-5.93-3.58Z"/><path d="M788.76,583.59l-6.33-6c2-1.26,4.11-3.6,6.06-3.5,2.19.11,4.25,2.45,6.37,3.81Z"/><path d="M789.08,533.43l-6.74-5.71c2-1.29,4-3.63,5.89-3.57,2.22.07,4.38,2.25,6.57,3.51Z"/><path d="M788.63,531.33c2.87,3.09,4.52,4.85,6.17,6.62-2,1.11-3.94,3.09-5.91,3.1s-4.26-1.82-6.38-2.85C784.13,536.38,785.75,534.55,788.63,531.33Z"/><path d="M788.81,512l6,5.61c-2.13,1.33-4.21,3.62-6.39,3.71-1.95.08-4-2.26-6-3.53Z"/><path d="M788.72,452.59l6,5.09c-1.84,1.31-3.74,3.76-5.5,3.65-2.3-.14-4.48-2.29-6.71-3.57Z"/><path d="M788.75,462l6,5.66c-2.13,1.32-4.21,3.56-6.4,3.67-1.94.1-4-2.17-6-3.39Z"/><path d="M789.23,442.88l-6.61-4.78c2.11-1.51,4.1-3.94,6.35-4.21,1.78-.22,3.87,2.25,5.82,3.52Z"/><path d="M784.39,602.6c3.29,2.34,5.6,4,7.9,5.63-1.53,1.38-3.35,4.14-4.53,3.88-2.77-.6-5.24-2.63-7.83-4.08Z"/><path d="M770,624.71c3.07-6.07,6.89-4.84,10.22-.56,1.05,1.35.35,4.07.46,6.16-2.24-.37-4.71-.28-6.63-1.26-1.71-.86-2.8-2.91-4.18-4.45Z"/><path d="M790.84,618.16c-3.13,2.64-5.53,5.21-5.94,4.92a75.52,75.52,0,0,1-7.86-6.93c1.3-1,2.91-3.06,3.83-2.78C783.83,614.25,786.54,616,790.84,618.16Z"/><path d="M788.11,604l-6.89-6.07c2.54-1.13,5-2.89,7.63-3.12,1.4-.12,3,2.43,4.54,3.77C791.88,600.09,790.36,601.64,788.11,604Z"/><path d="M789.46,432.64l-7-5.62c1.72-1.16,3.64-3.47,5.13-3.22,2.52.42,4.78,2.44,7.15,3.79C793.24,429,791.77,430.43,789.46,432.64Z"/><path d="M789.67,411.21l5.15,5.86c-2.23,1.13-4.46,3.11-6.69,3.11-1.87,0-3.74-2.31-5.62-3.59Z"/><path d="M760.7,638.56c-2.17-1.31-5.77-2.29-6.15-4-.52-2.34,1.4-5.22,2.28-7.87l6.41,8.92Z"/><path d="M788.27,453.7l-5.72-6.33c2.42-1.05,4.81-2.79,7.28-2.91,1.59-.08,3.31,2.2,5,3.43Z"/><path d="M789,562.69l-6.55-5c2.24-1.29,4.43-3.45,6.74-3.59,1.77-.12,3.7,2.31,5.56,3.61Z"/><path d="M788.31,593.36,782,588c2.19-1.3,4.34-3.53,6.57-3.61,1.87-.07,3.84,2.36,5.77,3.68Z"/><path d="M788.32,552.6l-5.73-5.3c2.16-1.06,4.34-3,6.47-2.93,1.93,0,3.82,2.24,5.73,3.48Z"/><path d="M789,492.53l5.75,5.13c-1.94,1.25-4,3.59-5.8,3.46-2.26-.16-4.38-2.39-6.57-3.72Z"/><path class="cls-2" d="M420.52,524.82c-4.16,17.19-8,33.31-12,49.41-4.64,19-9.49,38-13.86,57.09-1.36,5.92-4,8.52-10.28,8.58-20.42.22-40.84.8-61.26,1.43-7.24.22-11.69-2.3-13.07-9.92-2.68-14.71-9.36-27.07-21.19-36.81-7.26-6-1.88-25.83,8.55-32.05a315.49,315.49,0,0,1,29-15.65c26.52-12.28,54.27-20.21,83.57-22C412.94,524.66,415.86,524.82,420.52,524.82Z"/><path class="cls-2" d="M407,637.59q5.64-22.87,11.3-45.81c4.92-20,10-40,14.58-60.06,1.46-6.44,4.34-8.86,11-8.45,14.46.88,29,.91,43.45,1.71,7.84.43,14.51,3.7,18.79,10.74,6,9.86,12.2,19.59,17.85,29.65s3.19,18.74-7.22,24.28c-16.73,8.92-26.5,23-31.29,40.87-1.29,4.83-3.46,7.47-8.68,7.52-22.29.21-44.57.57-66.86.82C409.22,638.87,408.51,638.27,407,637.59Z"/><path class="cls-2" d="M182.11,472.24c-1.47-23.4-2.93-46.8-4.45-70.95h65.69l-59,71.44Z"/><path class="cls-2" d="M296.92,370.41v-6.52h46.55c-1.1,4.33-2.13,8.36-3.27,12.86H296.36c0-.51,0-1-.05-1.53h34.51v-1.74H296.49c0-.61,0-1.22-.05-1.84l12.3-.65Z"/><path class="cls-2" d="M279.39,612.8c-15.37-10-31-12.68-46-.34s-16.34,28-7,47.53l-21.68-5,.3-2.5c2-.23,4.3.14,5.78-.81,2.28-1.46,5-3.53,5.67-5.88,1.29-4.58.93-9.61,1.88-14.32,2.91-14.39,11.66-24,25.43-28.59S269.35,602.75,279.39,612.8Z"/><path class="cls-2" d="M340,352.42c-.23,2.67-.39,4.41-.59,6.69H313.23v1.45h28.53c0,.52,0,1,0,1.55H296.38l-.21-1.19,4.17-.85-6.89-7.65Z"/><path class="cls-2" d="M297.07,341.28h42.45c.43,1.89.85,3.68,1.39,6H295.18C295.69,345.71,296.28,343.83,297.07,341.28Z"/><path class="cls-2" d="M340,330.19c.09,2.12.17,3.9.26,6H297c-.14-1.87-.28-3.75-.44-6Z"/><path class="cls-2" d="M262.47,657.08c-.35-5-.71-9.94-1.22-17.09l16.19,7.58c-5.15,5-8.75,8.49-12.34,12Z"/><path class="cls-2" d="M240.05,652.12l13.82-5.92,2.43.92c-1.24,3.75-2,10.31-3.83,10.66-4.12.78-8.83-1.58-13.3-2.66Z"/><path class="cls-2" d="M274.43,637.25l-16.6-3.55,10.4-12c3.16,5.41,5.62,9.61,8.09,13.82Z"/><path class="cls-2" d="M259.07,619.79l-9.39,15.71-5.5-13.71,13.93-4.33Z"/><path class="cls-2" d="M249.19,642.23l-15.28,3c.6-6.09,1.07-10.87,1.75-17.68Z"/><path class="cls-2" d="M296.92,378.38h43.47c0,.53,0,1.06,0,1.58H296.75Z"/><path class="cls-2" d="M295.52,349.43h46l0,1.31H295Z"/><path class="cls-2" d="M340.87,339.39H296.33c0-.38,0-.76,0-1.15h44.24Z"/><path class="cls-2" d="M652.75,610.77c2.9,1.1,5.89,2,8.68,3.34,4.37,2.12,7.05,5.18,4.28,10.36L657,628.7C655.53,622.42,654.14,616.59,652.75,610.77Z"/><path class="cls-2" d="M651,626.34l-19.9-1.58,12.08-13.27C646,616.93,648,620.68,651,626.34Z"/><path class="cls-2" d="M663.6,651.51l-18.24,2.58c1-6,1.74-10.21,2.71-15.91Z"/><path class="cls-2" d="M629.45,633.72l15.42-2.42-7.58,18.1C634.37,643.57,632.25,639.33,629.45,633.72Z"/><path class="cls-2" d="M670.4,627.72l3.36,4.08c-1.32,3.84-2.63,7.68-4.36,12.76l-12.7-6.73Z"/><path class="cls-2" d="M701.1,659c.52-.07,1.24.06,1.53-.24,3-3,6.14-7.34,10.39-2.4s0,8-3.85,10.66Z"/><path class="cls-2" d="M717.23,605c-4,2.62-6.41,5.46-8.27,5.12-2.14-.39-3.78-3.58-5.63-5.55,2-1.79,3.81-4.81,5.91-5S713.42,602.29,717.23,605Z"/><path class="cls-3" d="M210.72,579.92c.65-1.11,1.07-2.89,2-3.23,15.94-5.66,32.08-10.79,47.9-16.77,18.41-7,36.95-13.79,54.73-22.19,38.91-18.38,79.38-28.51,122.61-27,22.78.81,45.59.87,68.36,1.78a41.93,41.93,0,0,1,15.17,4c12.66,5.77,25.28,11.72,37.42,18.47a60.08,60.08,0,0,0,33.25,7.86c17.52-.85,17.72-.3,20.81,16.81,2.33,12.93,5.08,25.91,5.76,39,.31,5.87-4.54,11.83-6.08,18-4.88,19.52-23,17.49-36.57,22.47-5,1.86-5.15-4.06-5.48-7.77-1.49-17-12.12-29.37-28.5-33.11a35.79,35.79,0,0,0-42.47,25.37c-1.34,4.85-2.85,10-2.41,14.9.6,6.7-2.27,7.56-7.73,7.55-42.85-.07-85.69.07-128.53.08-19,0-38,0-57-.24-12.41-.13-12.62-.28-13-13.12-.39-12.32-5.45-22-15.51-28.9-11-7.48-22.78-9.07-35.32-3.75-2.28,1-5.06.72-7.61,1ZM421.26,519.8c-12,1.26-22.37,1.76-32.48,3.52-30.42,5.31-58.59,16.42-85.35,32-11.65,6.78-16.53,15.68-16.66,28.16,0,2.37,1.12,5.62,2.87,7,12,9.44,18.4,22,21,36.64,1.33,7.66,5.43,10.56,13.11,10.28,21-.78,42-1.21,63-1.6,4.51-.08,6.62-1.61,7.72-6.27,5.17-21.87,10.82-43.62,16.21-65.44C414.12,549.93,417.44,535.72,421.26,519.8Zm-14,115.62c4.59,0,7.56.06,10.53,0,19-.47,38-1.22,56.94-1.31,6.31,0,9.41-1.82,11.24-8.2,4.9-17.09,14.19-31.09,30.39-39.89,10.41-5.66,13.17-14.47,7.56-24.94s-12.14-20.41-18.3-30.56c-3.91-6.45-10.05-9.12-17.22-9.47-14.66-.69-29.36-.86-44-1.8-6.79-.44-9.82,1.79-11.37,8.57-6.4,27.83-13.36,55.53-20.09,83.28C411.14,618.64,409.43,626.21,407.28,635.42Z"/><path class="cls-3" d="M210.72,579.92l21.73,21.23c-.75,1.91-1,4.32-2.33,5.66-8.12,8.17-11.75,17.88-11.9,29.36-.15,10.91-1.13,11.82-11.88,11.49-11.57-.36-23.13-1.34-34.68-2.24-4.44-.35-6.53-2.74-6.07-7.59.85-9.05.3-18.33,2.08-27.17,2.1-10.43,10.08-17.68,18.84-22.58C193.82,584,202.59,582.54,210.72,579.92Z"/></g></svg>