<svg id="Layer_1" data-name="Layer 1" xmlns="http://www.w3.org/2000/svg" viewBox="0 0 199.25 199.25"><defs><style>.cls-1{fill:#2957ae;}.cls-2{font-size:27.46px;font-family:TwCenMT-Regular, Tw Cen MT;}</style></defs><title>Artboard 1 copy</title><path class="cls-1" d="M16.54,58.21a39.33,39.33,0,0,0-2,6.88,127,127,0,0,0-3.33,27l5.35,1.81c-2.15,6.74-2.92,12.37-2.92,21.2,0,.35.07,1.25.21,2.78l-11.75.48c-.06-1.25-.06-1.25-.55-5.49A136.12,136.12,0,0,1,0,91.78C0,82,.63,75.86,2.78,63.7a42.6,42.6,0,0,0,.83-6.05v-.34ZM19,69.54a62.46,62.46,0,0,0,13,1.11c1.46,0,2.64,0,5-.07v-9a19.08,19.08,0,0,0-.35-3.89l12-.07a80.81,80.81,0,0,0-.56,12.17,65.42,65.42,0,0,0,11.05-2.16l.42,11a18.57,18.57,0,0,0-2.57.42c-2.16.48-5.28.9-8.76,1.32.07,5.42.14,6.81.63,14.8a56.12,56.12,0,0,1,11.18,6.33,10,10,0,0,0,1.33.83l-4.38,11.81c-1.6-1.94-4.31-4.1-8.27-6.6v.56c0,5.9-6,9.87-14.94,9.87-10.22,0-16.27-4.87-16.27-12.93a12.28,12.28,0,0,1,5.28-10.22C25.51,93,29.19,92,33.57,92a20.22,20.22,0,0,1,4,.42c-.07-1.94-.07-2.29-.21-5.56-.07-2.36-.07-3.33-.14-5.77-1.6.07-2.57.07-4,.07-2.09,0-6.12-.14-11.95-.34-.84-.07-1.39-.07-1.6-.07H18.9Zm18.77,33.08a11.1,11.1,0,0,0-4.24-.84c-3.2,0-5.15,1.25-5.15,3.2s1.81,3,4.59,3c3.34,0,4.87-1.25,4.87-4Z"/><path class="cls-1" d="M66.44,72.11h.63c2.22,0,8.89-.56,13.41-1.11,1.11-7.3,1.6-11.4,1.6-13.76V56.05l12.58,1.19a34.05,34.05,0,0,0-1.12,5.49c-.55,3.19-1,5.83-1.32,7.43,1.18-.07,2-.14,3-.14,4.31,0,7.51.91,9.87,2.78,3.54,2.85,4.93,7.09,4.93,15,0,10.84-1.59,19.87-4.37,24.67a11.3,11.3,0,0,1-4.45,4.17,13.38,13.38,0,0,1-5.42,1,39.69,39.69,0,0,1-11-1.88,30.74,30.74,0,0,0,.21-4,31.89,31.89,0,0,0-1.05-8.27c4,1.53,7.51,2.5,9.52,2.5,1.46,0,2.37-.9,3.13-3.12,1-3.06,1.88-10.15,1.88-15.43,0-3-.42-4.66-1.32-5.63s-1.74-1.18-4.17-1.18a25,25,0,0,0-2.78.14A136.82,136.82,0,0,1,85.2,98a149.75,149.75,0,0,1-7.36,17.93c-.56,1.18-.7,1.53-1.11,2.5l-11.47-6c4.45-5.91,10.28-19.74,13.06-30.72a86.68,86.68,0,0,0-10.84,2ZM118,64.67a72.3,72.3,0,0,1,14.17,29.68l-11.39,5.42c-2.3-12.72-6.61-22.8-13-30.37Z"/><path class="cls-1" d="M151.16,61.41A85.89,85.89,0,0,0,150.39,74c0,15.57,2.23,27.32,5.15,27.32.76,0,1.53-.91,2.22-2.71a70.43,70.43,0,0,0,3.61-12A44.11,44.11,0,0,0,171,95.32a58,58,0,0,1-5.28,13.41c-2.57,4.59-6.32,7.09-10.56,7.09-3.89,0-7.23-2-9.94-6-3.61-5.15-5.49-12.1-6.39-23.15-.35-4.86-.63-10.7-.77-20.36-.07-2.36-.07-3.06-.27-4.93Zm32,2.5c9,10.91,14.1,23.63,16.05,40.45l-12.44,4.58c-.76-15.57-5.56-29.26-14.18-40.17Z"/><text class="cls-2" transform="translate(0 142.43)"><tspan xml:space="preserve">HA    KKA      I</tspan></text></svg>