<svg id="Layer_1" data-name="Layer 1" xmlns="http://www.w3.org/2000/svg" viewBox="0 0 831.17 831.17"><defs><style>.cls-1{opacity:0.5;}.cls-2{fill:#880070;}.cls-3{fill:#fff;}</style></defs><title>Artboard 12</title><g class="cls-1"><path d="M88.06,601.81H18.2V354.33c30.46,16.41,41.75,17,69.86,3.19Z"/><path d="M55.61,361.22c-41.37.33-69.19-43.83-48.73-79.59,10.42-18.23,24.74-34.31,37.89-50.89C62,209,79.82,187.69,97.46,166.26c8.94-10.86,20.71-14.34,33.79-10.3s20.93,13.72,23.09,27.14a33.22,33.22,0,0,1-1.58,15.74q-22.86,64-46.45,127.72C98.47,347.7,78.42,361,55.61,361.22ZM31.08,305.41c-.21,13.47,11.54,25.41,25,25.39s25.36-11.58,25.53-25-11.37-25.06-25.12-25.2A25.2,25.2,0,0,0,31.08,305.41ZM122,169c-10.07.17-18.48,8.82-18.54,19.06-.05,10,8.8,19,18.72,19a19,19,0,0,0,19.38-19.17A19.18,19.18,0,0,0,122,169Z"/><path d="M472.49,634.05c2.51-.84,5-2.41,7.54-2.41q135.94-.2,271.9-.12c18.54,0,37.09-.24,55.63,0,15.64.23,24.63,9.75,23.52,24.12-.91,11.7-9.08,19.58-21.27,19.81-14.35.27-28.72.08-43.07.08q-121.61,0-243.2-.06c-3.49,0-7-.89-10.47-1.36Zm294.89,19.89a14.61,14.61,0,0,0-14.25-14.28c-7.53,0-14.22,6.9-14,14.46.17,7.19,6.64,13.67,13.78,13.8C760.48,668.06,767.32,661.48,767.38,653.94Zm-96.45-.57c-.29-7.78-7.1-14.16-14.62-13.7-7.15.44-13.41,7.11-13.32,14.19.09,7.77,6.66,14.33,14.22,14.18A14.34,14.34,0,0,0,670.93,653.37ZM561.18,668c7.13-.16,13.17-6.67,13.18-14.21s-6.8-14.41-14.25-14.09c-7.09.3-13.29,6.94-13.26,14.19C546.87,661.49,553.64,668.16,561.18,668Z"/><path d="M151,159.31c49,31.09,97.43,61.7,145.73,92.48,11.18,7.13,14.69,20.09,9.1,31.25A23.54,23.54,0,0,1,276,294.42c-43.59-17.8-86.95-36.17-131.09-54.62,4-10.89,7.46-21.64,11.93-32,6.72-15.52,6.89-30-4.24-43.64a16.12,16.12,0,0,1-1.73-3.1C150.79,160.9,150.92,160.56,151,159.31ZM285.66,260.76c-7.43-.05-12.79,5.05-12.94,11.17s6,12.5,12.1,11.9c6.85-.67,11-4.62,11-11.77S291.27,261.51,285.66,260.76Z"/><path d="M154.54,661.16h-17c-.33-3.8-.86-7.24-.89-10.69-.19-25.43-.27-50.86-.41-76.29,0-2.39.75-5.4-.38-7.08-9.8-14.52-3.76-30.25-3.6-45.46,0-2.56,3.13-5.08,4.78-7.64.86-1.32,2.28-2.64,2.39-4a153.22,153.22,0,0,0,.28-25.9q-1.8,14.12-3.61,28.23l-4.11-.14c-.23-8.19-1.63-16.57-.38-24.53a87.15,87.15,0,0,1,8.14-24.44c3.08-6.3,1.13-11.22-.75-16.81-.82-2.44-.52-5.27-.73-7.92l24.93-10.95c1.32.23,3.25,0,3.86.76a15.19,15.19,0,0,1-5.94,23.7c-.51,3.88-2.89,9.34-1.19,11.32,4.69,5.48,9.16,11.17,17.13,13.9,10.3,3.53,19.13,4.65,28.49-1.71,4.06-2.77,9-4.28,13.8-6.49,2.77,9.69.88,15.21-8.21,20.06-13,6.92-25.76,10.42-40.55,6.3-1,6.21-1.83,11.43-2.67,16.65l-2.36-.15q-.72-7-1.43-14.06c.3,6-6,13.42,3.23,17.75.88.41.82,3.29.81,5q-.45,66.83-1,133.65c0,1.18-.24,2.36-.43,4.07l-12.46,3.05Z"/><path d="M472.49,634.05l40.58,40.09c-2.52.47-5,1.35-7.55,1.36q-101.74.11-203.5.08c-9.48,0-16.92-3.3-20.93-12.34-3.76-8.47-2.39-20.32,4.74-25.5a33,33,0,0,1,17.93-6.06c53.19-.44,106.37-.28,159.56-.11C466.38,631.58,469.43,633.18,472.49,634.05Zm5.91,19.63c-.26-7.65-7.11-14.21-14.59-14a14.57,14.57,0,0,0-13.76,14.75c.35,7.56,7.31,13.77,15.05,13.4C472.29,667.5,478.64,660.74,478.4,653.68ZM368.62,667.9A14.14,14.14,0,0,0,382.1,654c0-7.6-6.66-14.36-14.15-14.29a14.25,14.25,0,0,0-13.82,14.47C354.47,662.35,360.5,668.07,368.62,667.9Z"/><path d="M109.44,675.13H-2.45c2.27-14.57,4.23-28.59,6.71-42.51,1.28-7.15,1.36-16.68,5.88-20.45C14.43,608.6,23.82,611,31,611c20-.06,40-.19,60,.17,2.77.05,7.52,2.36,7.91,4.3C102.76,635,105.93,654.71,109.44,675.13Z"/><path d="M329.78,462.48H298.12v2.93h39.76c3.4,7.95.57,12.85-6.28,14.37-5.24,1.17-11,.24-17.34.24,6.21,4.22,13.14,6.55,15.58,11.22,2.77,5.3,1.51,12.7,2.05,19.83-13.73,2-17.09,12.14-20.72,22.85-3.52,10.41-16.31,24.06-29.1,21.56-.29-.05-.64.07-.89,0-2.33-1-6.34-1.69-6.69-3.19-3.69-15.87-30.65-13.31-27.17-34.23,1.36-8.21,3.08-16.72,6.78-24,1.51-3,8.72-3,14.43-4.76-2.72-1.78-5.2-3.52-7.78-5.08-2.35-1.41-4.82-2.64-9-4.92l7.92-2.16c-3.48-.2-6.77,0-9.86-.7-2-.44-3.71-2.18-5.55-3.33,1.82-1.55,3.42-3.81,5.53-4.48,3-1,6.34-.74,9.6-2.32-3-.29-6.13-.17-9-1-2.23-.65-4.13-2.46-6.17-3.76C246,460,247.68,458,249.79,457s4.66-.7,7.92-1.09L253,454.18c1.47-1.3,2.47-2.9,3.79-3.24,13.79-3.55,27.48-8.54,41.51-9.93C322.09,438.64,317.75,437.47,329.78,462.48Zm-34.14,47.63c5.4-2.39,10.9-3.22,11.62-5.54,1-3.17-1.63-7.48-3.05-12.52,1.15-1.76,4.54-4.81,5.05-8.29.63-4.26.26-10.23-2.33-12.89-2-2.1-9.8-2.09-12.06.07a420.53,420.53,0,0,0-33.77,35.74c-6.58,8-2.35,20.4,6.92,25.09a17,17,0,0,0,23.71-9.11C293.62,518,294.76,513,295.64,510.11Z"/><path class="cls-2" d="M762.55,508.87c-2.78-5.7-6-7.57-11.81-6.29a36.5,36.5,0,0,1-27.55-4.36,124.39,124.39,0,0,0-16-8C697.09,486,687,479.54,676.54,478.85c-29.79-2-59.74-1.77-89.63-1.89-21-.09-41.87,2.45-61.61,9.92-22,8.34-43.64,17.81-65.52,26.55-3.37,1.34-7.24,1.44-10.14,2-3.07,2-5.63,4.45-8.67,5.5-16.93,5.84-34,11.2-50.92,17.14-2.46.86-4.12,4-6.14,6h0c-2.52-.36-5.45-1.74-7.47-.91-9.89,4.08-20.25,7.66-29.09,13.48-11,7.25-18.64,17.51-17.26,32.17a44.41,44.41,0,0,1-.9,12.47c-1.34,6.88.41,11.14,8,11.55,11.6.62,23.2,1.1,34.78,1.91,6.76.48,9.62-1.81,9.57-9.07-.11-15.53,5.49-28.46,19.2-37.15,1.14-.72.94-3.56,1.39-5.39,3.3.47,6.74,1.77,9.94,1.33,24.26-3.4,43,12.18,43.88,36.8.13,3.5.4,7,.66,11.56h13.17c61.34.06,122.68,0,184,.33,8.58.05,13-1.76,11.89-11.3-.38-3.13.83-6.49,1.53-9.7,3.79-17.34,20-29.18,38.5-28.24,17,.87,31.8,14.64,34,31.52.5,3.74,1.34,7.44,2.13,11.76,9.81-2.75,18.84-4.76,27.42-8,2.89-1.08,6.16-4.9,6.7-7.92C781.18,562.34,775.36,535.08,762.55,508.87Zm-182.11,6.58a7.12,7.12,0,0,1-4.8,4.21c-32.31,3.75-64.64,7.24-97,10.72-1.08.12-2.23-.35-6.18-1,6.94-7.73,11.5-16.67,18.71-20.18,29-14.1,60-21.59,92.29-23.09.81,0,1.66.52,4,1.31C585.1,497.09,583,506.35,580.44,515.45Zm87.12-10.89c-.35,6-4.17,6.11-8.61,6.55-19.5,1.94-39,4.1-60.34,6.38,1.38-10.64,2.22-19.21,3.79-27.64.34-1.81,3.26-4.41,5.08-4.48,18.53-.66,37-.91,54.34,7.73C667.37,495.86,667.85,499.4,667.56,504.56Z"/><path d="M312.8,338.14c3.39,6.52,2.3,12.31-2,18.22-5.59,7.67-10.37,15.93-15.8,23.73-6.35,9.12-15.36,9.13-21.82,0-5.31-7.52-9.87-15.58-15.33-23-4.47-6.05-6.08-12-2.65-18.95l3.82-1.48,50.81.39Z"/><path d="M163.19,427.5l-24.93,10.95-6.83,1.81c-7.43-16.7-2-28.27,12.5-32.3,4-1.11,9.57,1.09,13.72,3.17,5,2.52,9.34,6.54,13.82,9.81Z"/><path d="M270.42,412.77c3.6,2.38,5.54,4.71,7.44,4.68,4.23-.06,9.72.07,12.39-2.39,4.4-4,1-8.23-2.67-12.05-2.83-2.93-4.52-7-6.33-10.81-.31-.63,1.09-2.82,2.08-3.15s2.63.61,3.54,1.47c2.87,2.69,5.38,5.76,8.29,8.39,5.47,4.95,7.26,10.83,4.56,17.67-2.8,7.1-8.42,11.07-15.94,10.62C276.65,426.78,271.88,422.69,270.42,412.77Z"/><path d="M154.27,661.32c4.21.91,8.43,1.77,12.62,2.77,4,.93,7.87,2,12.26,3.16-2.66,7-7.76,7.07-13.17,6.51l-6.57-1.38c-4.61-.6-9.26-.93-13.79-1.89-2.72-.58-5.25-2.13-7.86-3.24,2.45-1.37,4.77-3.09,7.37-4,3-1.06,6.25-1.41,9.4-2.08Z"/><path d="M224.71,481.48c-3.8-14.64,2.81-21.37,15.74-18Z"/><path d="M259,336.65l-3.82,1.48c2.54-10.68,11.77-12.93,21.74-4.71Z"/><path d="M159.41,672.38l6.57,1.38c-9.23,2-18.46,4.78-27.7,1.71l-.06-3.09Z"/><path d="M312.8,338.14l-3-1.1-18.06-3.57-.74-2c4.3-.82,9-3.14,12.78-2C307.35,330.47,309.84,335.09,312.8,338.14Z"/><path class="cls-3" d="M587.48,487.37c-2.38,9.72-4.44,19-7,28.08a7.12,7.12,0,0,1-4.8,4.21c-32.3,3.75-64.64,7.24-97,10.72-1.08.12-2.23-.35-6.18-1,6.94-7.73,11.5-16.67,18.71-20.18,29-14.1,60-21.59,92.29-23.09C584.29,486,585.14,486.58,587.48,487.37Z"/><path class="cls-3" d="M598.61,517.49c1.38-10.64,2.22-19.21,3.79-27.64.34-1.81,3.26-4.41,5.08-4.48,18.53-.66,37-.91,54.34,7.73,5.55,2.76,6,6.3,5.74,11.46-.35,6-4.17,6.11-8.61,6.55C639.45,513.05,620,515.21,598.61,517.49Z"/><path class="cls-3" d="M31.08,305.41a25.2,25.2,0,0,1,25.38-24.82c13.75.14,25.3,11.72,25.12,25.2s-12,25-25.53,25S30.87,318.88,31.08,305.41Zm40.93.23a15.36,15.36,0,0,0-14.46-15.36c-8-.41-15.83,6.86-16.06,14.84s6.39,14.7,14.62,15C65,320.46,71.84,314.18,72,305.64Z"/><path class="cls-3" d="M122,169a19.18,19.18,0,0,1,19.56,18.92,19,19,0,0,1-19.38,19.17c-9.92,0-18.77-9-18.72-19C103.49,177.82,111.9,169.17,122,169Zm2.29,7.67c-8-.13-12.69,4.28-13,10.88s4.85,12.44,11.46,12c6.87-.5,11-4.46,11.09-11.48S129.65,177.39,124.26,176.67Z"/><path class="cls-3" d="M767.38,653.94c-.06,7.54-6.9,14.12-14.52,14-7.14-.13-13.61-6.61-13.78-13.8-.17-7.56,6.52-14.46,14-14.46A14.61,14.61,0,0,1,767.38,653.94Z"/><path class="cls-3" d="M670.93,653.37A14.34,14.34,0,0,1,657.21,668c-7.56.15-14.13-6.41-14.22-14.18-.09-7.08,6.17-13.75,13.32-14.19C663.83,639.21,670.64,645.59,670.93,653.37Z"/><path class="cls-3" d="M561.18,668c-7.54.18-14.31-6.49-14.33-14.11,0-7.25,6.17-13.89,13.26-14.19,7.45-.32,14.26,6.42,14.25,14.09S568.31,667.82,561.18,668Z"/><path class="cls-3" d="M285.66,260.76c5.61.75,10.07,4.07,10.13,11.3s-4.12,11.1-11,11.77c-6.12.6-12.24-5.74-12.1-11.9S278.23,260.71,285.66,260.76Z"/><path class="cls-3" d="M478.4,653.68c.24,7.06-6.11,13.82-13.3,14.16-7.74.37-14.7-5.84-15.05-13.4a14.57,14.57,0,0,1,13.76-14.75C471.29,639.47,478.14,646,478.4,653.68Z"/><path class="cls-3" d="M368.62,667.9c-8.12.17-14.15-5.55-14.49-13.75A14.25,14.25,0,0,1,368,639.68c7.49-.07,14.18,6.69,14.15,14.29A14.14,14.14,0,0,1,368.62,667.9Z"/><path class="cls-3" d="M295.64,510.11c-.88,2.89-2,7.87-3.91,12.55A17,17,0,0,1,268,531.77c-9.27-4.69-13.5-17.13-6.92-25.09a420.53,420.53,0,0,1,33.77-35.74c2.26-2.16,10-2.17,12.06-.07,2.59,2.66,3,8.63,2.33,12.89-.51,3.48-3.9,6.53-5.05,8.29,1.42,5,4,9.35,3.05,12.52C306.54,506.89,301,507.72,295.64,510.11Zm-20.58-14.32,17.61,10.68c2.46-4.93,5.15-10.35,7.43-14.94l-11.7-10.47Zm13.12,19.69c-.13-6.72-6.24-12.6-12.93-12-7.22.68-11.47,4.72-11.68,12.18a12,12,0,0,0,12.29,12.55A12.6,12.6,0,0,0,288.18,515.48Z"/><path d="M72,305.64c-.17,8.54-7.05,14.82-15.9,14.49-8.23-.31-14.85-7.1-14.62-15s8.09-15.25,16.06-14.84A15.36,15.36,0,0,1,72,305.64ZM59.32,295.29l-4.23-.18c-2.54,3.29-6.79,6.38-7.19,9.9-.52,4.63,2.31,8.88,8.64,9.05s9.5-3.72,9.28-8.44C65.66,302.09,61.63,298.73,59.32,295.29Z"/><path d="M124.26,176.67c5.39.72,9.63,4.23,9.54,11.36s-4.22,11-11.09,11.48c-6.61.48-11.79-5.21-11.46-12S116.25,176.54,124.26,176.67Zm9.87,11.87c-5.48-3.94-8.66-8-11.46-7.75-3,.26-5.56,4.63-8.31,7.21,2.51,2.49,4.86,6.75,7.57,7C124.94,195.25,128.27,191.85,134.13,188.54Z"/><path d="M275.06,495.79l13.34-14.73,11.7,10.47c-2.28,4.59-5,10-7.43,14.94Z"/><path d="M288.18,515.48a12.6,12.6,0,0,1-12.32,12.75,12,12,0,0,1-12.29-12.55c.21-7.46,4.46-11.5,11.68-12.18C281.94,502.88,288.05,508.76,288.18,515.48Zm-6.89,5c4.1-4.32,2.95-8.73-1.48-11.07-2.42-1.27-7.6-.65-9.42,1.2s-2.31,7.14-.92,9.4c2.45,4,6.87,5.81,11.11,1.19A6.9,6.9,0,0,1,281.29,520.51Z"/><path class="cls-3" d="M59.32,295.29c2.31,3.44,6.34,6.8,6.5,10.33.22,4.72-3,8.6-9.28,8.44s-9.16-4.42-8.64-9.05c.4-3.52,4.65-6.61,7.19-9.9Z"/><path class="cls-3" d="M134.13,188.54c-5.86,3.31-9.19,6.71-12.2,6.44-2.71-.23-5.06-4.49-7.57-7,2.75-2.58,5.35-6.95,8.31-7.21C125.47,180.54,128.65,184.6,134.13,188.54Z"/><path d="M281.29,520.51a6.9,6.9,0,0,0-.71.72,6.18,6.18,0,0,0-1.7-.34c-4,.32-8.29.6-7.93-5,.12-1.82,2.94-3.46,4.52-5.18,1.84,2.7,3.71,5.37,5.49,8.1A4.61,4.61,0,0,1,281.29,520.51Z"/><path class="cls-3" d="M281.29,520.51a4.61,4.61,0,0,0-.33-1.71c-1.78-2.73-3.65-5.4-5.49-8.1-1.58,1.72-4.4,3.36-4.52,5.18-.36,5.61,4,5.33,7.93,5a6.18,6.18,0,0,1,1.7.34c-4.24,4.62-8.66,2.8-11.11-1.19-1.39-2.26-.87-7.56.92-9.4s7-2.47,9.42-1.2C284.24,511.78,285.39,516.19,281.29,520.51Z"/></g></svg>