<svg id="Layer_1" data-name="Layer 1" xmlns="http://www.w3.org/2000/svg" viewBox="0 0 775.33 277.4"><defs><style>.cls-1{opacity:0.5;}.cls-2{fill:#fff;}.cls-3{fill:#880070;}</style></defs><title>Lean Management Case Study_Illustrations</title><g class="cls-1"><path d="M556.6,55.73c3.5-1.14,7-3.32,10.52-3.27,25.08.4,50.19.66,75.21,2.31,8.32.54,16.57,4.54,24.52,7.79,9.11,3.72,18.24,7.68,26.65,12.74,15.09,9.08,30.81,13.58,48.54,11.6,2.92-.32,7.8,2.94,9.29,5.83,17.4,33.7,25.18,69.17,19.18,107.21-1.15,7.26-4,11.11-11.08,12.71-8.43,1.89-16.77,4.3-25,7-6.14,2-10.36,1.55-10.6-8.32-9.08,37.23-30,53.55-57.78,46.66-16.64-4.13-40.52-27.38-33.09-54,4.24-15.21,13.46-25.67,28-31.38,14.17-5.55,27.86-2.56,42.68,4.58-9.5-12.39-31.68-13.56-44.31-8.4-20.78,8.48-30.2,25-32.28,46.64-.23,2.37-2.44,4.55-3.71,6.84-7.64-7.89-15.13-16-23-23.71q-44.7-44.07-89.57-88c2.46-3.71,5.12-7.3,7.33-11.15,1.74-3,2.94-6.38,4.38-9.59L543,69.25c.49,2.23,1.51,4.49,1.36,6.67-.64,9.33-1.62,18.64-2.52,28.32,5,0,8.58.3,12.09,0,21.92-2.13,43.82-4.44,65.74-6.58,4.55-.44,9.39-.23,9.38-6.72,0-5.83,3-12-5.26-16-15.68-7.56-32-10.77-49.21-10.89-8.45-.06-16.9-.84-25.34-1.3ZM669.73,218.48,652,198.65c-1.15,8.83-2,15.22-3.07,23.47Zm9.26,6.89-2.66-1.83-19.51,8.16-.45,3.1,18.23,6Q676.81,233.07,679,225.37Zm1.44-18.8,22.4,5.19,2.09-1.46-10.34-18.63Zm6.66,31.34,2,1.84,15.2-15.89-19.11-7.67C686,225.08,686.54,231.49,687.09,237.91Zm-16.67-29.28,13.87-22.33L661,190.47C664.47,197.16,666.94,201.93,670.42,208.63Z"/><path d="M385.09,226.93c-7.88.76-15.76,1.92-23.65,1.93-1.47,0-3.75-4.41-4.28-7.07-1.78-9-1.49-18.63-4.63-27-7.43-19.91-28.73-31.48-49.62-28.58a47.21,47.21,0,0,0-40.53,41.5c-.36,3-1.27,5.9-1.32,8.85-.26,16.31-.29,15.06-16.73,15.06a383.33,383.33,0,0,1-40.22-2.17c-12.45-1.33-12.94-2.62-12-14.71.47-5.66,1.39-11.36,1.12-17-1.06-23,11.88-38,30.75-46.12,31.45-13.55,64.21-24,96.18-36.43,26.65-10.33,52.86-21.81,79.48-32.25C418,75.74,436.59,69.3,455.21,63c2.93-1,6.69.42,10.06.73l5.1,6.26c-2.58,1.18-5.09,2.57-7.75,3.52-19.59,7-39.29,13.73-58.78,21-12.16,4.55-15.61,16.7-23.56,27.12,4.54.27,7.16.81,9.69.53,34.34-3.69,68.66-7.55,103-11.19,2.28-.24,4.7.91,7,1.41-11.34,10.94-22.87,21.7-34,32.85Q425.42,185.94,385.09,226.93Z"/><path d="M385.09,226.93q40.46-40.87,80.94-81.7c11.13-11.15,22.66-21.91,34-32.85l10.83-1.81q44.8,44,89.57,88c7.84,7.73,15.33,15.82,23,23.71l3.74,6.64c-5.14.28-8.64.63-12.13.63q-110.82,0-221.63-.11C390.61,229.38,387.85,227.79,385.09,226.93Z"/><path d="M44.66,27.59c7.18,6.76,1.43,13.92,0,20.63-.37,1.76-5.46,3.2-8.53,3.58-6.9.85-6.69,5-3.35,8.42,8.93,9.2,18.42,17.87,28.05,26.34,1.46,1.28,5,.8,7.39.31,5.16-1.06,10.22-2.67,15.37-4.06,2.52,14.35,2.22,14.44-9.93,18.72-9.39,3.31-18.17,5.07-26.47-2.59C45.15,97,42,96.29,38.87,94.76c-.8,4.06-1.49,7.54-2.18,11l-2.78,0q-.45-6.94-.92-13.9c.25,5.72-6.3,12.73,2.8,17,1,.48.93,3.82.92,5.82q-.35,66.82-.94,133.63c0,2.68-2.06,5.35-3.87,9.77l24.93,7.42c-.2,1.05-.41,2.11-.61,3.16L8.28,273c-.69-10.41-1.7-19.79-1.84-29.19-.3-20.33-.12-40.67-.2-61a121.86,121.86,0,0,0-4.43-32.43C-1.47,138.46.74,125,.61,112.23c0-.86.18-2.3.67-2.5C16.15,103.85,6,90.79,10.93,82.09l-2.26-.57L5.44,106.39c-5.56-4.27-6.1-8.08-2.93-25.83,1.55-8.75,4.12-17.31,6.27-26.08l4.48-.74v-22l31.67-4.33Z"/><path d="M264.63,213.13c.51-24.38,21.18-44.37,45.13-43.62,24.63.77,44.78,21,44.42,44.66-.39,25.51-20.67,45.35-45.95,45C283.46,258.74,264.1,238.32,264.63,213.13Zm54.53,26.4c7.41-3.54,14.52-7.51,13.69-15.07-.37-3.32-8.73-5.75-15.28-9.67C318.2,224.7,318.64,231.55,319.16,239.53Zm8.16-47.4-14.66,11.53,2.37,3.42,23.42,5.49Zm-38.15,39.48c-.21.79-.41,1.59-.62,2.38l19.68,9c.8-7.92,1.33-13.21,2-20.14Zm-2.28-30.35-2.77-.2c-.65,6.51-1.29,13-2.1,21.13l19.45-3.87ZM315,188.76c-7.14-3.32-14.8-2.2-18.66,2.91-1.88,2.5,3.08,10.16,4.94,15.48l2.78-.72C307.6,200.71,311.15,195,315,188.76Z"/><path d="M122.35,252.59h-17c-.19-3.33-.52-6.51-.52-9.69q0-60.59.05-121.19c0-26,3-36.74,17.48-60.83Z"/><path d="M470.37,70l-5.1-6.26c1.87-1.69,3.62-4.68,5.62-4.85,27.14-2.41,54.3-4.47,81.48-6.37,1.33-.1,2.82,2.09,4.23,3.22l-7.33,7L543,69.25,522.57,89.83c1-8.25,2.08-16.49,3.24-25.62Z"/><path d="M74.27,270.33c4.77-8.84,9.46-14.63,20.19-13.76,12.76,1,25.67.22,38.51.22s13.39.33,20.17,13.54Z"/><path d="M44.93,27.42,7.82,29.15C6.25,12.39,15.54-3.76,33,.78,37.61,2,42.13,5.6,45.4,9.25c4,4.48,6.67,10.17,9.73,15L44.68,27.58Z"/><path d="M264.16,276.65c-9.14,0-15.86-6.59-15.92-15.56a16.09,16.09,0,0,1,15.47-16.31,16.28,16.28,0,0,1,16.52,16.28A15.88,15.88,0,0,1,264.16,276.65Zm-.36-23.73c-2.45,3.53-5.28,5.83-5.14,7.92s3.89,5.61,5.14,5.27c2.42-.67,5.41-3.42,5.83-5.73C270,258.66,266.57,256.28,263.8,252.92Z"/><path d="M647.3,261.14c0,9.3-6.3,15.68-15.64,15.76-8.82.07-15.62-6.79-15.7-15.85A15.93,15.93,0,0,1,631.66,245C640.37,245,647.27,252.13,647.3,261.14ZM631.09,253c-2.5,3.73-5.61,6.46-5.11,8.09.71,2.38,4,4,6.24,5.9,1.61-2.16,4.44-4.3,4.48-6.49C636.73,258.5,633.78,256.42,631.09,253Z"/><path d="M722.61,245.84c8.93.17,15.36,7.17,15,16.38-.31,8.44-7.35,15.67-15.29,15.7-8.67,0-16.21-8-15.91-16.9C706.73,251.81,713.28,245.67,722.61,245.84Zm6,17.61,2.67-4.28c-2.69-1.07-5.43-3.06-8.06-2.93-2.27.11-4.43,2.63-6.64,4.08,1.67,2.44,2.88,5.91,5.18,6.94C723.22,267.9,726.31,264.85,728.65,263.45Z"/><path d="M361.82,249.6c9,1.18,8.9,8.22,8.35,14.43-.68,7.76-8.9,14.73-16.06,13.15-4.38-1-8.06-5.13-12.05-7.86l5.37-5.35,10.82,1.73c-.35-3.61-.71-7.21-1.06-10.82Z"/><path d="M92.85,104.62l31-70.08C127.6,43.85,104.22,97.27,92.85,104.62Z"/><path d="M347.43,264l-5.37,5.35c-5.2-6.45-4.52-14.68,1.67-20,6-5.21,13.42-5.07,18.09.33l-4.63,5.28C351,254.79,348.43,258.52,347.43,264Z"/><path d="M87.61,93.77C86.45,80.2,86.47,80.18,101.3,77.64L90.23,95.47C89.36,94.9,88.49,94.33,87.61,93.77Z"/><path class="cls-2" d="M470.37,70l55.44-5.77c-1.16,9.13-2.2,17.37-3.24,25.62-1.44,3.21-2.64,6.55-4.38,9.59-2.21,3.85-4.87,7.44-7.33,11.15L500,112.38c-2.35-.5-4.77-1.65-7-1.41-34.35,3.64-68.67,7.5-103,11.19-2.53.28-5.15-.26-9.69-.53,8-10.42,11.4-22.57,23.56-27.12,19.49-7.28,39.19-14,58.78-21C465.28,72.55,467.79,71.16,470.37,70Z"/><path class="cls-2" d="M543,69.25l6.24-6.53c8.44.46,16.89,1.24,25.34,1.3,17.22.12,33.53,3.33,49.21,10.89,8.27,4,5.25,10.16,5.26,16,0,6.49-4.83,6.28-9.38,6.72-21.92,2.14-43.82,4.45-65.74,6.58-3.51.34-7.07,0-12.09,0,.9-9.68,1.88-19,2.52-28.32C544.54,73.74,543.52,71.48,543,69.25Z"/><path class="cls-2" d="M669.73,218.48,649,222.12c1.08-8.25,1.92-14.64,3.07-23.47Z"/><path class="cls-2" d="M679,225.37q-2.19,7.69-4.39,15.39l-18.23-6,.45-3.1,19.51-8.16Z"/><path class="cls-2" d="M680.43,206.57l14.15-14.9,10.34,18.63-2.09,1.46Z"/><path class="cls-2" d="M687.09,237.91c-.55-6.42-1.1-12.83-1.86-21.72l19.11,7.67-15.2,15.89Z"/><path class="cls-2" d="M670.42,208.63c-3.48-6.7-5.95-11.47-9.41-18.16l23.28-4.17Z"/><path class="cls-2" d="M319.16,239.53c-.52-8-1-14.83-1.59-24.74,6.55,3.92,14.91,6.35,15.28,9.67C333.68,232,326.57,236,319.16,239.53Z"/><path class="cls-2" d="M327.32,192.13l11.13,20.44L315,207.08l-2.37-3.42Z"/><path class="cls-2" d="M289.17,231.61l21.09-8.71c-.7,6.93-1.23,12.22-2,20.14l-19.68-9C288.76,233.2,289,232.4,289.17,231.61Z"/><path class="cls-2" d="M286.89,201.26l14.58,17.06L282,222.19c.81-8.11,1.45-14.62,2.1-21.13Z"/><path class="cls-2" d="M315,188.76c-3.85,6.23-7.4,12-10.94,17.67l-2.78.72c-1.86-5.32-6.82-13-4.94-15.48C300.2,186.56,307.86,185.44,315,188.76Z"/><path class="cls-2" d="M263.8,252.92c2.77,3.36,6.15,5.74,5.83,7.46-.42,2.31-3.41,5.06-5.83,5.73-1.25.34-5-3.27-5.14-5.27S261.35,256.45,263.8,252.92Z"/><path class="cls-2" d="M631.09,253c2.69,3.39,5.64,5.47,5.61,7.5,0,2.19-2.87,4.33-4.48,6.49-2.21-1.93-5.53-3.52-6.24-5.9C625.48,259.49,628.59,256.76,631.09,253Z"/><path class="cls-2" d="M728.65,263.45c-2.34,1.4-5.43,4.45-6.85,3.81-2.3-1-3.51-4.5-5.18-6.94,2.21-1.45,4.37-4,6.64-4.08,2.63-.13,5.37,1.86,8.06,2.93Z"/><path class="cls-2" d="M347.43,264c1-5.45,3.6-9.18,9.76-9.09.35,3.61.71,7.21,1.06,10.82Z"/><path class="cls-3" d="M755.43,92.49c-3.6-7.38-7.77-9.81-15.31-8.16a47.37,47.37,0,0,1-35.72-5.64,160.64,160.64,0,0,0-20.73-10.41c-13.11-5.42-26.21-13.81-39.74-14.71-38.62-2.54-77.45-2.29-116.2-2.45C500.49,51,473.46,54.3,447.86,64c-28.56,10.8-56.57,23.08-84.93,34.41-4.37,1.74-9.39,1.87-13.15,2.56-4,2.58-7.3,5.76-11.24,7.13-22,7.57-44.12,14.51-66,22.21-3.18,1.12-5.33,5.16-8,7.84h0c-3.26-.47-7.06-2.26-9.68-1.18-12.82,5.29-26.25,9.93-37.71,17.47-14.29,9.4-24.16,22.7-22.37,41.7a57.59,57.59,0,0,1-1.17,16.17c-1.74,8.93.54,14.44,10.42,15,15,.81,30.08,1.44,45.09,2.49,8.77.61,12.47-2.36,12.4-11.76-.13-20.14,7.13-36.9,24.9-48.17,1.47-.93,1.22-4.61,1.8-7,4.28.61,8.74,2.29,12.88,1.71,31.45-4.4,55.74,15.8,56.89,47.71.17,4.54.51,9.06.86,15,6.38,0,11.73,0,17.07,0,79.52.06,159-.05,238.55.41,11.12.07,16.92-2.27,15.42-14.63-.5-4.06,1.06-8.42,2-12.58,4.92-22.48,25.91-37.83,49.92-36.61,22,1.13,41.22,19,44.11,40.86.65,4.85,1.74,9.64,2.77,15.25,12.72-3.57,24.42-6.18,35.54-10.33,3.75-1.4,8-6.35,8.68-10.26C779.59,161.81,772,126.47,755.43,92.49ZM519.34,101c-.65,2.29-3.89,5.19-6.21,5.46-41.89,4.86-83.81,9.38-125.73,13.9-1.4.15-2.89-.46-8-1.37,9-10,14.91-21.61,24.25-26.16,37.56-18.28,77.75-28,119.64-29.93,1.06-.05,2.16.67,5.19,1.7C525.39,77.21,522.72,89.22,519.34,101ZM632.28,86.9c-.44,7.75-5.4,7.92-11.15,8.49-25.28,2.51-50.54,5.32-78.23,8.28,1.78-13.8,2.88-24.91,4.91-35.84.44-2.35,4.24-5.72,6.58-5.8,24-.86,47.94-1.19,70.46,10C632,75.63,632.67,80.22,632.28,86.9Z"/></g></svg>