<svg id="ref" xmlns="http://www.w3.org/2000/svg" viewBox="0 0 434 434"><defs><style>.cls-1{opacity:0.69;}.cls-2{fill:#006837;}.cls-3{fill:#22b573;}.cls-4{fill:#ff0;}</style></defs><title>Artboard 7</title><g class="cls-1"><path class="cls-2" d="M129.29,166.24c6-4.92.47-16.65-2-22.26l-11.38,8.78c6.22,5.37,8.32,21.05,19.18,17.84,5.59-1.65,7.33-8.52,8-13.58.53-4.13.88-7.68,2.41-11.59,2.63-6.74-7.46-12.25-12.06-7-3.06,3.46-4.15,7.24-4.73,11.72-.39,3-.13,7-2,9.5l4.47-3.44-.92.24,7.26,1.92c-2-1.79-3.26-5.39-4.65-7.74a29.34,29.34,0,0,0-6.65-8.09c-6.38-5.1-15.07,1.08-11.38,8.78,2.38,5,5.86,22.08,14.49,15Z"/></g><g class="cls-1"><path class="cls-2" d="M115.26,196.93a87.75,87.75,0,0,0,11.34,1.22c1.84.11,3.69.26,5.53.3l3.7,0c2,.23,2.28.12.85-.36-1.84-3.83-.32,3.86-.44.88.06,1.4,1.28,3.15,1.89,4.41a37.27,37.27,0,0,0,6,8.62c2.26,2.51,5.69,5.81,8.88,7,1.14.41,1.49,1.24.65-.13.64,1.06.78,3.19,1,4.36.63,3.9,1.37,5.34-2.23,6.5a84.75,84.75,0,0,1-19.4,4c-4.79.32-12.4.67-16.11-3.11-2.38-2.43-4.32-9.9-3.54-13.28.59-2.62,4.22-5.51,6-7.24.66-.63,2.2-1.46,2.63-2.22.82-1.45.85.06-.74-.54l-5-2.89.81.72-2.89-5c1.79,4.3-1.2,12.66-1.28,17.68-.1,7,1.36,15.71,8,19.59,7.77,4.54,15.27.34,20.16-6l13.3-17.23L134,211.49c3.29,7.85,1.12,16.2,7.54,23.07,6.62,7.07,17.9,7.74,24.83.74,10.08-10.18-5.62-25.89-15.73-15.72q4-3,7.09-.23h.15a13.07,13.07,0,0,0-.19-2c-.5-4-.6-8-2.17-11.75-2.78-6.67-12.86-12.39-18.65-4.92l-7.88,10.16-3.64,4.69-1.82,2.35c-.91,1.06-1.06,1.25-.45.55l5.64-1.52.83.06,4.94,2.88c4.89,5.14.68,2,1,1.46a23.81,23.81,0,0,0-.12-3.48,68.76,68.76,0,0,1,.64-7c.7-5.56,1.77-11.2-.11-16.61-4.24-12.2-18.6-10.64-27.14-4.43s-17,15.52-17.78,26.66c-.7,9.51,2.57,21.68,9,28.85,14.25,15.88,41.12,11.3,59,5.43,10.27-3.38,17-10.79,17.78-21.79.67-8.83-1.73-21.07-9.24-26.48-3.53-2.55-7.46-3.89-10.14-7.54s-3.84-8.13-7.18-11.48c-4.39-4.42-10.24-5.06-16.13-4.6a98.53,98.53,0,0,0-18.72,2.88c-7.13,2-8,13.72,0,15.28Z"/></g><g class="cls-1"><path class="cls-3" d="M82.5,265.68c29.23,10,62.44,3.9,92.22-.24,7.58-1.05,6-11.86,0-13.85-8.44-2.79-16.74-3.52-23.77,2.79-4.76,4.27-.92,12.36,5.12,12.36a49.36,49.36,0,0,1,13.08,1.73v-14A166.87,166.87,0,0,1,152.86,260c-9.32,2.62-5.14,15.31,3.87,14.07a50.27,50.27,0,0,1,13.14.17l-1.94-14.35a117.64,117.64,0,0,1-14.3,3.8c-8.16,1.63-6.19,14.47,2,14.37a67.94,67.94,0,0,1,13.73,1.12l-1.75-13.39A38.22,38.22,0,0,1,156,269.62c-8.21,1.48-6.21,14.57,2,14.41l13.75-.27c9.44-.19,9.47-14.89,0-14.69l-13.75.29,1.95,14.41A51.39,51.39,0,0,0,175,278.39c5.31-2.83,4.47-12.2-1.75-13.39a88.45,88.45,0,0,0-17.63-1.62l1.94,14.37a118.92,118.92,0,0,0,14.29-3.82c8.22-2.76,6.05-13.35-1.94-14.35a63.75,63.75,0,0,0-17,.37L156.73,274a163.73,163.73,0,0,0,16.3-5.55c6.26-2.5,7.53-12,0-14a63.45,63.45,0,0,0-17-2.18l5.13,12.37c2.42-2.2,7.17,0,9.7.82V251.59c-14.49,2.12-29,4.21-43.64,5s-28.93,0-43.37-1.18c-6.15-.5-6.67,8.44-1.39,10.25Z"/></g><g class="cls-1"><path class="cls-4" d="M120.46,180.83c4.83.41,12.34,1.32,16.45-1.72,3.46-2.55,3.29-8-1.22-9.37-2.69-.81-5.44-.13-8.16.27-2.35.35-4.69.58-7.07.7-6.57.32-6.45,9.58,0,10.12Z"/></g><g class="cls-1"><path class="cls-4" d="M137.51,208c-2.21-8.59-20.88,0-18.79,8.42,1.26,5.08,8.79,4.24,12.68,5.5,1.81.58,4.49,1.49,5.75,3,5.59,6.51-3.48,8.3-6.66,8.6-1.58.14-11.56-1.53-11.73-1,.58-1.83-2.11-2.92-3.07-1.29l-.24.41a1.8,1.8,0,0,0,.27,2.1c3.27,3.84,12.36,3.78,16.88,3s10-3.29,9.81-8.63c-.13-5.16-5.85-8-10.14-9.3-2.77-.83-10.43-.49-10.38-4.58.06-4.89,11.07-8.67,14.15-5.32a.89.89,0,0,0,1.47-.86Z"/></g><g class="cls-1"><path class="cls-4" d="M123.73,198.65c.22,5.85,1.16,11.7,1.9,17.51.33,2.6.67,5.19,1,7.79l.63,4.86c.36,2.79.23,2.34,2.47,4.51a1.47,1.47,0,0,0-2.44,1.42l.08.38a1.61,1.61,0,0,0,1.52,1.16h.47a1.65,1.65,0,0,0,1.59-1.21c.81-5.09-1.24-11.32-2-16.39-1-6.76-1.75-13.64-3.35-20.29a1,1,0,0,0-1.88.26Z"/></g><path d="M120.36,167.37A37.17,37.17,0,0,0,118,157.11c-.84-2.43-4.72-8.51-2.15-10.44,2.06-1.55,4.8-.73,6.79-2.95a5.05,5.05,0,0,0,1.22-4.9l-2.34,1.36a21.41,21.41,0,0,1,5.44,9.86c.44,1.77,3.18,1,2.73-.75a24.11,24.11,0,0,0-6.19-11.09,1.41,1.41,0,0,0-2.34,1.36c1,5.42-10.45,3-10,8.36.24,2.65,3.1,6.7,4,9.06,1.36,3.49,2.24,7.15,3.69,10.59.3.7,1.51.72,1.46-.2Z"/><path d="M128.9,149.23q3.47-.79,6.91-1.64a.92.92,0,0,0,.64-1.13,9.51,9.51,0,0,1-.77-3.86c.06-.81,1.41-5.65,3.18-4.77a27.76,27.76,0,0,0,.89,4.16c1.67,2.6,4,1.89,6.44,3.1a4.64,4.64,0,0,1,2.43,4.3c-.14.94-1.88,2.22-2.51,3a23.37,23.37,0,0,0-2.74,4.09,16.72,16.72,0,0,0-1.8,9.87c.19,1.3,2,.79,2.11-.29.67-5.24,1.91-8.81,5.19-12.91,1.38-1.71,3-3.44,2.86-5.81a4.66,4.66,0,0,0-2.48-3.84,11.55,11.55,0,0,0-3-.88c-3.74-1-3.35-.34-5.26-4.78-1.13-2.65-2.16-4.16-4.9-1.06a9.73,9.73,0,0,0-2.27,5.83c0,.42.41,2.87.34,3-.67,1.37-4.33,1.69-5.69,2.08a.79.79,0,0,0,.42,1.52Z"/><path d="M117.71,169.38c7.72.19,15.51,1.58,23.19,1.51a.79.79,0,0,0,.21-1.54c-7.41-2-15.85-1.37-23.4-.72a.38.38,0,0,0,0,.75Z"/><path d="M117.21,169.29a2.88,2.88,0,0,0-1.62,4.15c1.55,3.23,6.7,2.65,9.56,2.74,3.26.09,23.85,2.74,19.34-6-.49-1-2.28-.57-2.14.58.57,4.36-10.7,2.94-12.58,2.93s-3.7,0-5.55,0l-2.77,0q-3,.51-3.65-3.42c.45-.38,0-1.24-.59-1Z"/><path d="M114.58,173.11c-1.43,1.56-3.48,4.61-2.23,6.71,2.07,3.45,11.21,2.22,14.15,2.1,3.34-.13,6.68-.26,10-.44,2.58-.14,6.29.39,8.68-.55,3.36-1.33,3.05-4.35,1.44-7.17-.74-1.29-2.64-.15-2,1.16l-.86,3.84-2.73.17-3.64.22c-3,.19-6.07.41-9.11.65-2.48.19-5,.45-7.45.5a23.39,23.39,0,0,1-2.9-.05c-2.37.4-3.34-.54-2.91-2.84-.9-1.5-.68-2.55.66-3.17.8-.64-.42-1.91-1.14-1.13Z"/><path d="M111.39,180.38C107.22,193.48,95,201.63,89.55,214c-6.3,14.24,1.58,28.58,13.42,36.95,6.51,4.6,14.24,8.38,22.31,8.78,8.53.43,17.32-2.4,25.16-5.51,13.53-5.38,27.54-16.56,26.91-32.63-.34-8.58-5.35-16.7-10.77-23.07C160.77,191.69,152.34,187,148,179c-.55-1-2.1-.11-1.55.91,3.26,6,8.71,10,13.64,14.43,5.82,5.28,10.93,11.86,13.76,19.24,6.06,15.84-5.35,30-19,36.74A75.42,75.42,0,0,1,131,257.78c-8.56,1-16.39-1.65-23.67-6-6.65-4-12.69-9.37-16-16.5a24.8,24.8,0,0,1,0-21.38c5.63-11.93,17.63-20.1,20.9-33.28a.43.43,0,0,0-.82-.23Z"/><path d="M140.59,208.23a10.23,10.23,0,0,0-11.11-6.63c-4.62.53-11.21,4.74-11.39,9.94-.21,5.82,9.09,6.46,12.93,8.33s11,6.14,3,9.31c-2.45,1-14,2.51-13.6-2.58.13-1.55-2.24-2.63-3.24-1.34-4,5.07,1.45,9.08,6.39,9.77,6.23.87,15.8.16,18.65-6.62,3-7-4.13-10.76-9.49-13.21-1.76-.8-3.56-1.54-5.39-2.18-2.25-.79-4.84-.47-3.37-3,3.09-5.43,10.6-4.51,14.1-.29a1.51,1.51,0,0,0,2.5-1.46Z"/><path d="M124.79,197.5c-.14,6.84,1,13.8,1.69,20.59.65,6.3.64,13.12,2.32,19.23a2.27,2.27,0,0,0,4.44-.6c.25-6.73-1.47-13.91-2.34-20.59-.82-6.33-1.3-12.88-2.89-19.07a1.65,1.65,0,0,0-3.22.44Z"/><path d="M90.84,243.93a4.75,4.75,0,0,0,3.62.41c1.24-.3,1-2.41-.31-2.28a12.83,12.83,0,0,1-2.77-.11c-1.09-.13-1.39,1.49-.54,2Z"/><path d="M75.23,262.21c5.06-6.21,11.1-11.8,15.75-18.33.59-.83-.66-1.67-1.35-1-5.87,5.34-10.41,12.25-15.33,18.45-.52.65.39,1.58.93.92Z"/><path d="M76.05,262.69c16.71,1.93,34.25.83,51.06.81,17,0,34.09.45,51.06-.07a1.4,1.4,0,0,0,0-2.8c-17-.52-34.08-.05-51.06-.07-16.81,0-34.35-1.12-51.06.8a.67.67,0,0,0,0,1.33Z"/><path d="M166.1,243.36a240.56,240.56,0,0,0,17.34,17.5,1.24,1.24,0,0,0,1.75-1.76c-5.63-5.92-11.28-12-17.5-17.33a1.12,1.12,0,0,0-1.59,1.59Z"/><path d="M73.29,264.76c0,.91,0,1.82,0,2.73a1,1,0,0,0,2.06,0c0-.91,0-1.82,0-2.73a1.06,1.06,0,0,0-2.11,0Z"/><path d="M183,262c-.36,6.26-1.21,13.56.07,19.72a1,1,0,0,0,1.87,0c1.28-6.17.43-13.46.06-19.72a1,1,0,0,0-2,0Z"/><path d="M104.4,269.29c12.91,0,25.82.22,38.73.3q9.44.06,18.87.07c6,0,12.28.61,18.18-.36a1.17,1.17,0,0,0,0-2.25c-5.91-1-12.2-.37-18.18-.36q-9.44,0-18.87.07c-12.91.08-25.82.26-38.73.3a1.12,1.12,0,0,0,0,2.23Z"/><path d="M147.43,277.41c6.06.28,12.14.2,18.2.23,5.44,0,11.18.6,16.54-.38a.93.93,0,0,0,0-1.78c-5.36-1-11.1-.4-16.54-.37-6.06,0-12.14-.06-18.2.22a1,1,0,0,0,0,2.08Z"/><path d="M151.87,283.67c5.69.06,11.38.48,17.08.22a1,1,0,0,0,0-2.05c-5.7-.26-11.39.15-17.08.21a.81.81,0,0,0,0,1.62Z"/><path d="M18.33,270.75a78.76,78.76,0,0,1,16.26,3.66c4.81,1.6,9.22,4.08,14,5.79,1,.37,1.45-1.09.69-1.64-8.58-6.3-20.59-8.35-30.91-9.6-1.14-.14-1.14,1.67,0,1.79Z"/><path d="M17.63,312.47c7.38,0,14.65-.53,22-.08s14.76,1.23,22.13,2c14.82,1.51,29.66,3.22,44.51,4.41,14.42,1.16,27.52-4.55,41.05-8.75,14.45-4.49,29-8.61,43.5-12.94a1.36,1.36,0,0,0-.72-2.63q-21.84,6.16-43.51,12.93c-6.84,2.13-13.61,4.5-20.47,6.56a57.38,57.38,0,0,1-22.57,2c-14.58-1.35-29.15-2.78-43.74-4.12-13.67-1.25-28.8-3.58-42.33-.22a.46.46,0,0,0,.12.89Z"/><path d="M49.45,280.11c7.33-3.43,14.26-8.49,22.14-10.65S87,270.71,94.85,271.6c1.37.16,1.55-2,.31-2.33-7.11-2.15-16-4.52-23.41-2.51-8.09,2.21-16.39,7.06-23.1,12a.79.79,0,0,0,.8,1.37Z"/><path d="M87.67,291.52a302,302,0,0,0,36.72.79c5.65-.19,11.84,0,17.39-1.1,3.14-.64,5.36-2.2,6.31-5.37.83-2.78.88-6.94-.85-9.43-2-2.84-6.15-3.37-9.27-3.78-11.72-1.54-23.33,1.1-35.09-1a1.16,1.16,0,0,0-.62,2.23c7.41,2.63,15.43,1.72,23.13,1.27a88.93,88.93,0,0,1,12.43-.17c3.83.3,8.05.16,8.47,6.14.22,3.28-1.11,5.85-4.18,6.86-4.37,1.45-9.26,1.27-13.86,1.5s-9,.39-13.53.47c-9,.14-18-.12-27-.39-1.31,0-1.26,1.89,0,2Z"/><path d="M142.31,277.76a17.4,17.4,0,0,0-6.7.49c-1.48.41-3.28.91-4.14,2.31-1.77,2.85.54,7.46,3.26,8.78.67.33,1.45-.52.84-1.08-2.07-1.89-5.55-6.21-1.51-8.19,2.44-1.19,5.58-1.51,8.25-1.71a.3.3,0,0,0,0-.6Z"/><path d="M135,279.11c-.19,2.84-.18,5.7-.34,8.55-.06,1.06,1.71,1.33,1.89.25a26.53,26.53,0,0,0,.09-9c-.18-1-1.58-.67-1.64.22Z"/><path d="M186.31,283.8a19.14,19.14,0,0,1,9,4.24c2.64,2.34,3.89,5.21,5.22,8.38.28.68,1.49.7,1.42-.2-.5-7.36-8.53-13.2-15.56-12.82-.22,0-.29.35-.05.4Z"/><path d="M188.77,298.83c2-.6,3.83-1.64,5.88-2.15s4.16-.45,6.22-.83c.58-.1.53-1,0-1.11-3.8-1-9.75.56-12.54,3.34a.45.45,0,0,0,.44.75Z"/><path d="M185.36,301.15a27.13,27.13,0,0,0,11.82-2.87c.56-.27.07-1.07-.48-.82a41.6,41.6,0,0,1-11.41,3.19c-.3,0-.22.51.07.5Z"/><path d="M201,293.76a25.68,25.68,0,0,0,5.64-1.08c.59-.22.57-1.29-.16-1.2a25.71,25.71,0,0,0-5.57,1.6c-.33.12-.32.73.09.68Z"/><path d="M185.22,278.06a12.74,12.74,0,0,1,6.23-1.15c2.25.21,3.9,1.38,5.92,2.19.42.17.9-.43.61-.8-2.84-3.71-9.57-3.6-13.19-1.25-.49.32-.18,1.27.43,1Z"/><path d="M188.37,282.35c2.89-1.27,7.55-2.36,10.72-1.57,3.87,1,5.17,7.36,6.32,10.57a.9.9,0,0,0,1.73-.47c-.62-3.41-2.7-10.73-6.57-11.88s-9.6.35-12.87,2.21c-.76.43-.09,1.48.67,1.14Z"/><path d="M164.5,288.75a15.39,15.39,0,0,0,.23,7c.29,1.16,1.9.63,1.74-.49a32.62,32.62,0,0,1-.18-6.25.91.91,0,0,0-1.79-.24Z"/><path d="M219.92,191.89c-4.06-3.52-9.51-3.1-13.33.61-3,2.87-6.54,9.3-2.54,12.68,5.28,4.46,16.1,1.72,20.24,8.14,3.62,5.6-6.62,4.89-9.13,4.86A20.68,20.68,0,0,1,203,214.53c-1.87-1.3-3.76,1.48-2.34,3,4.47,4.89,11.14,5.49,17.42,5.14,4.39-.23,12.11-.45,12.23-6.46.11-5.84-7.12-9.34-11.77-10.87-3-1-7.95-1-10.5-2.74-5.54-3.76,4.78-13,10.41-8.9,1.09.79,2.45-1,1.44-1.85Z"/><path d="M209.67,182c.42,7.86,1.46,15.7,2.34,23.52.8,7.09.64,15.32,2.93,22.09a2,2,0,0,0,3.93-.53c.63-7.54-1.66-16-2.64-23.52-.95-7.34-1.79-14.74-3.18-22-.36-1.91-3.49-1.48-3.38.45Z"/><path d="M233.32,188.44q0,9.72.23,19.44c.15,5.85-.33,12.31,1.13,18,.58,2.29,3.56,1.51,3.82-.52.75-5.93-.47-12.48-.79-18.45-.33-6.15-.57-12.31-.76-18.47-.07-2.33-3.64-2.34-3.63,0Z"/><path d="M246.42,191.37c-.6,4.93-.68,9.92-1,14.87-.13,2.17,2.48,2.73,3.88,1.61,1.55-1.24,3.26-2.81,5.21-3.41q4.35-1.68,4.94,3.74c-.45,1.09-.93,2.18-1.45,3.24-1.68,3.54-3.89,6.84-5.45,10.43-.87,2,1.64,4.59,3.33,2.57,3.16-3.8,5.38-8.57,7.32-13.08,1.25-2.92,2-6-.05-8.72-4.71-6.29-12.58-1.86-17.06,2l3.88,1.6c-.08-5,.07-9.93-.31-14.87a1.63,1.63,0,0,0-3.26,0Z"/><path d="M250.78,194.28a49.75,49.75,0,0,0,13.43-5.85,1.85,1.85,0,0,0-1.87-3.2,99.43,99.43,0,0,1-12.55,5.43c-2.28.75-1.34,4.31,1,3.62Z"/><path d="M269.19,219.46a15.94,15.94,0,0,0-1.29,5.88,1.74,1.74,0,0,0,3.21.87,16.62,16.62,0,0,0,2.06-5.65,2.07,2.07,0,0,0-4-1.1Z"/><path d="M282.35,191.19a18.83,18.83,0,0,0-2.77,21.16c3.21,6,11.84,9.06,16.82,3.29s2.49-17-.44-23c-2.33-4.84-10.58-9.6-13.73-2.67a1.9,1.9,0,0,0,3,2.29c4.9-4.2,7.52,4.82,8.19,7.92.85,3.94,2.18,11.3-2.33,13.24-5.37,2.32-8.56-4-9.09-8.38A16.35,16.35,0,0,1,285,193.26c1.14-1.57-1.39-3.5-2.68-2.07Z"/><path d="M306.29,188.55c-3,6.16-4.41,16.57-.33,22.65,3.62,5.4,10.47,4.51,13-1.21,3-6.78.92-16.77-3.42-22.58-2.83-3.78-9.21-5.74-11.39-.38-.57,1.41,1.2,2.18,2.26,1.73,7.4-3.12,11.69,14.74,8.28,19.17-5.12,6.62-6.74-4.82-6.8-7.57-.08-3.72.73-7.38,1.22-11.05.2-1.49-2.17-2-2.8-.76Z"/><path d="M329.35,187.59c-7.7.24-8.32,14.68-6.38,19.91,2.42,6.56,10.49,10.09,16,4.82,6.31-6,5.47-17.36,2.32-24.7-2.73-6.35-10.63-11.84-15.9-4.84-1.51,2,1.7,4.31,3.4,2.63,5.53-5.43,9.14,6.21,9.68,9.68.58,3.75.62,8.4-1.43,11.79-2.89,4.78-8.46,3.25-10-1.92-.56-1.91-.7-13.15,2.3-13.48,2.43-.27,2.56-4,0-3.89Z"/><path d="M353.15,210.75c-.84,2.13-1.71,4.24-2.37,6.43s2.9,3.93,4,1.67,1.88-4.58,2.75-6.9a2.25,2.25,0,0,0-4.34-1.2Z"/><path d="M372.18,189.6c-8.61-.34-10.24,11-9.35,17.56.93,6.88,7.69,12.29,14.27,8.17,6.34-4,7.13-14.43,4.33-20.76-2.7-6.1-11.06-9.74-16.18-4.2-2.06,2.22,1,5,3.25,3.24,8.38-6.65,11.6,11.72,7.06,16.54s-8.1-1.75-8.21-5.91c-.08-3.49.17-11.19,4.83-11.24a1.7,1.7,0,0,0,0-3.4Z"/><path d="M385.37,191.4c-2.35,6.55-1.47,14.38,3.31,19.69s11.78,2.84,14.67-3.11c3.17-6.53.45-14.91-5-19.44-4.21-3.52-12.68-3.73-13.69,3a1.79,1.79,0,0,0,3.26,1.38c5.73-8.44,16.87,8.27,9.83,15-4.21,4-7.8-2.05-8.87-5.66a16.49,16.49,0,0,1,.25-9.83c.77-2.44-2.95-3.4-3.8-1Z"/><path d="M410.32,190.12c-2.5,6.47-3.4,16.11,2.05,21.44,5.28,5.16,12.3,2.27,14.82-4s1.29-14.48-4-19.1a13.68,13.68,0,0,0-17.54-.52c-2,1.58.54,4.58,2.62,3.4,8.56-4.85,16.86,3.14,15,12.13-.38,1.8-1.26,4.52-3.05,5.46-3.44,1.81-5.78-2.12-6.53-4.61-1.3-4.28-.7-8.95.56-13.16.75-2.53-3-3.44-3.89-1.07Z"/></svg>