<svg id="ref" xmlns="http://www.w3.org/2000/svg" viewBox="0 0 228.87 221.44"><defs><style>.cls-1,.cls-2,.cls-3,.cls-4{fill:none;stroke:#000;stroke-miterlimit:10;}.cls-1{stroke-width:2.07px;}.cls-2{stroke-width:2.58px;}.cls-3{stroke-width:1.81px;}.cls-4{stroke-width:2px;}</style></defs><title>Artboard 13</title><path d="M25.48,201.33c.33,1.7.67,3.38.85,5.1.15,1.45,0,3,.48,4.38a1.1,1.1,0,0,0,2.1,0c.5-1.5.1-3.18-.15-4.71a24.89,24.89,0,0,0-1.48-5.27.93.93,0,0,0-1.8.5Z"/><path d="M206.62,201.39a92.57,92.57,0,0,0-1,9.8,1.33,1.33,0,0,0,2.6.35,31.73,31.73,0,0,0,.64-10.15,1.15,1.15,0,0,0-2.29,0Z"/><path d="M206,210.5c-23.2-.95-46.48-.51-69.69-.56s-46.14,0-69.2,0q-19.67,0-39.33.06a1.58,1.58,0,0,0,0,3.16c46.3.19,92.6,0,138.89,0,13.12,0,26.22,0,39.33-.5a1,1,0,0,0,0-2.08Z"/><path d="M27.14,201.46c23.18,1.1,46.51.42,69.7.45s46.13,0,69.2,0h39.32a1.57,1.57,0,0,0,0-3.14q-69.44,0-138.89.07c-13.1,0-26.23-.21-39.33.42a1.08,1.08,0,0,0,0,2.16Z"/><path d="M40.92,189.45c-1.2,1.74-2.25,3.58-3.47,5.32s-2.64,3.3-3.83,5c-.75,1.1.86,2.2,1.77,1.37a29.53,29.53,0,0,0,7.2-11c.38-1-1.12-1.51-1.67-.7Z"/><path d="M191.15,190.33c.15,1.91,1.51,3.59,2.46,5.21s1.91,4,3.46,5.33a1.12,1.12,0,0,0,1.85-1.08c-.43-2-2-3.85-3-5.57s-1.81-3.61-3.42-4.64a.87.87,0,0,0-1.3.75Z"/><path d="M42.38,189c19.5,1.41,39.08,1.76,58.63,1.29,9.81-.23,19.63-.58,29.44-.43,9.53.15,19,.9,28.56,1.28,10.57.43,21.15.31,31.6-1.48,1.92-.32,1.11-3.25-.81-2.92-18.84,3.23-37.94.62-56.89.17-19.22-.46-38.43.92-57.65.68-11-.14-21.92-.57-32.88-.64a1,1,0,0,0,0,2.05Z"/><path d="M63.12,143.76c-5.47,13.22-11,26.59-14.86,40.4a1.34,1.34,0,0,0,2.59.71c4.36-13.65,8.33-27.39,13.51-40.76.31-.79-.93-1.1-1.24-.35Z"/><path d="M64.34,144.91c3.67,0,7.33.11,11,.17,3.39.06,6.94.44,10.3,0a1.21,1.21,0,0,0,0-2.32c-3.36-.45-6.91-.08-10.3,0q-5.49.1-11,.18a1,1,0,0,0,0,2Z"/><path d="M85.39,145.79c4,6.81,6.5,14.13,8.88,21.6,2.23,7,4.09,14.49,7.47,21,.67,1.28,2.87.39,2.37-1-2.67-7.3-5.42-14.58-8.06-21.9A115.08,115.08,0,0,0,86.81,145a.82.82,0,0,0-1.42.83Z"/><path d="M123,178.74c-.11,2.51-.43,5.57.59,7.93a1,1,0,0,0,1.71-.23c.42-2.45-.36-5.24-.62-7.7a.84.84,0,0,0-1.68,0Z"/><path d="M192.37,179.16c-1.19.57-.94,2.29-1,3.41-.08,2-.21,4-.1,6a1.24,1.24,0,0,0,2.47,0,53.36,53.36,0,0,0-.18-7.37c0-.46-.2-2.49-1.2-2Z"/><path d="M118.66,172.31c-.06,1.69-.21,3.38-.16,5.07a1,1,0,0,0,1.94,0c0-1.69-.11-3.38-.17-5.07a.81.81,0,0,0-1.61,0Z"/><path d="M195.68,172.74c-.36,2-.93,5,.42,6.71.5.64,1.4.16,1.63-.44a6.36,6.36,0,0,0,0-2.91c-.1-1-.15-2.07-.16-3.11s-1.68-1.35-1.88-.25Z"/><path d="M119.81,179.47c12.95.32,25.92.38,38.88.41l18.94.05,10,0c3.07,0,6.28.35,9.26-.51a1.09,1.09,0,0,0,0-2.09c-3-.86-6.19-.5-9.26-.5l-9.47,0-19.44,0c-13,0-25.93.1-38.88.41a1.08,1.08,0,0,0,0,2.15Z"/><path d="M119.47,173.33q19.6.15,39.21.15H188c3,0,6.28.4,9.2-.25a1,1,0,0,0,0-1.86c-2.93-.65-6.21-.25-9.2-.25H158.68q-19.6,0-39.21.14a1,1,0,0,0,0,2Z"/><path d="M127.38,139.51c-.22,8.94-.91,18.13-.15,27.05a1,1,0,0,0,2.06,0c.76-8.92.07-18.11-.15-27.05a.88.88,0,0,0-1.76,0Z"/><path d="M192.07,148.3c0,3.94-.44,7.88-.56,11.82-.11,3.58-.66,7.57.12,11.08a.92.92,0,0,0,1.76,0c.79-3.52.23-7.49.12-11.08-.12-3.94-.5-7.88-.55-11.82a.45.45,0,0,0-.89,0Z"/><path d="M180.23,139.31c1.89,1.71,3.76,3.43,5.54,5.25,1.6,1.64,3,4,4.93,5.2a.92.92,0,0,0,1.33-1c-.79-2.2-3.11-4.08-4.81-5.63a34.79,34.79,0,0,0-6.36-4.62c-.5-.29-1.09.41-.63.82Z"/><path d="M127.75,140.48c3.64,1.3,8.21.71,12,.75,4.45.06,8.9,0,13.35,0H166c4.42,0,9,.29,13.34-.2a1.23,1.23,0,0,0,0-2.45,117.12,117.12,0,0,0-12.85-.2H153.13c-4.28,0-8.57,0-12.85,0-4,.05-8.76-.58-12.53.76a.66.66,0,0,0,0,1.27Z"/><path d="M131.3,144.62c4.5,0,9,.48,13.53.55s9,.21,13.53.18a1.45,1.45,0,0,0,0-2.89c-4.51,0-9,.1-13.53.17s-9,.58-13.53.56a.72.72,0,0,0,0,1.43Z"/><path d="M134.69,150.69c7.27.21,14.72.66,22,.13a1.17,1.17,0,0,0,0-2.33c-7.26-.53-14.71-.08-22,.13a1,1,0,0,0,0,2.07Z"/><path d="M133,154.77q6.42.31,12.84.37l5.93.06c2,0,4.2.29,6.13-.4a.79.79,0,0,0,0-1.51c-1.8-.63-3.76-.41-5.64-.39l-6.42.06q-6.42.06-12.84.37a.72.72,0,0,0,0,1.44Z"/><path d="M133.33,159.37c7.79.06,15.94.89,23.67-.08a.85.85,0,0,0,0-1.69c-7.73-1-15.88-.14-23.67-.08a.93.93,0,0,0,0,1.85Z"/><path d="M132.66,161.45c4.16,0,8.32.21,12.48.31,3.83.09,8,.53,11.77-.07a.92.92,0,0,0,0-1.75c-3.8-.6-7.93-.17-11.77-.08-4.16.11-8.32.33-12.48.32a.64.64,0,0,0,0,1.27Z"/><path d="M48.77,132.41c-.19,7.31-.94,14.65-.52,22a1.22,1.22,0,0,0,2.43,0c.41-7.33-.33-14.67-.52-22a.7.7,0,0,0-1.39,0Z"/><path d="M99.21,132.07c-.11,3.66-.23,7.32-.28,11,0,3.37-.43,6.95.18,10.28a1.13,1.13,0,0,0,2.16,0c.61-3.33.22-6.9.18-10.28,0-3.66-.17-7.32-.27-11a1,1,0,0,0-2,0Z"/><path d="M48.89,154.28c1.43.19,2.86.36,4.3.5a11.37,11.37,0,0,0,4.31,0c.7-.22,1-1.38.23-1.73a10.15,10.15,0,0,0-3.92-.52c-1.56,0-3.12,0-4.69,0-.94,0-1.25,1.59-.23,1.73Z"/><path d="M89.42,153.39c2.37.47,5.24,1.09,7.52.09.77-.34.48-1.49-.22-1.7a12.35,12.35,0,0,0-3.38-.24q-1.83,0-3.63-.24c-1.19-.14-1.46,1.86-.29,2.09Z"/><path d="M51.49,132.43c7.86.51,15.8.33,23.66.35l11.83,0c3.67,0,7.53.38,11.14-.33a1.13,1.13,0,0,0,0-2.16c-3.61-.7-7.47-.34-11.14-.33l-11.83,0c-7.86,0-15.8-.17-23.66.35a1,1,0,0,0,0,2.07Z"/><path d="M85.62,78.78a12.34,12.34,0,0,0-1.08,2.5c-.34.93-.77,1.83-1.05,2.77a1.09,1.09,0,0,0,2,.84,10.14,10.14,0,0,0,1.31-6c-.09-.59-.89-.57-1.17-.15Z"/><path d="M86.56,76.19a31.43,31.43,0,0,0,3.37-5c.25-.49-.4-1.09-.79-.62a31.18,31.18,0,0,0-3.24,5.1c-.22.4.36.9.66.51Z"/><path d="M85.8,76.5a25.22,25.22,0,0,0,3.38,2,1,1,0,0,0,1-1.79,25.76,25.76,0,0,0-3.46-1.9,1,1,0,0,0-1,1.66Z"/><path d="M89.85,77.7c.68-1,1.37-1.94,2-2.93A10.55,10.55,0,0,0,93.49,72a.37.37,0,0,0-.62-.36,11.32,11.32,0,0,0-1.8,2.66c-.6,1-1.17,2.06-1.75,3.09a.31.31,0,0,0,.53.31Z"/><path d="M86.34,67.36a39.18,39.18,0,0,1,4.84,2.86c1.5,1.1,2.68,2.64,4.28,3.57.46.27,1.18-.18,1-.74-1.35-3.43-6.18-6-9.6-6.81-.66-.15-1.11.78-.48,1.12Z"/><path d="M87.07,67.15a9.26,9.26,0,0,0,3.56-4.49c.36-1-1.19-1.63-1.73-.73a21.22,21.22,0,0,1-2.8,4c-.6.63.2,1.8,1,1.25Z"/><path d="M98.09,73.57A22.14,22.14,0,0,0,100.35,69c.13-.5-.55-1-.92-.54A22,22,0,0,0,97,72.91c-.37.75.72,1.41,1.13.66Z"/><path d="M88,59c4,2.89,7.78,6.17,11.86,9,.62.43,1.37-.55.81-1.06-3.72-3.35-8.13-5.84-12.5-8.23-.19-.11-.34.16-.17.29Z"/><path d="M89,58.14c3.27-4.63,7.13-9.49,9.45-14.68a.53.53,0,0,0-.91-.53c-1.73,2.31-3,5-4.58,7.43s-3.14,4.9-4.77,7.31c-.34.5.47,1,.81.47Z"/><path d="M102.66,67.54c3.29-4.4,7.18-8.85,9.8-13.68.25-.46-.39-1-.76-.58-3.57,4.2-6.33,9.46-9.25,14.14-.08.13.12.24.21.12Z"/><path d="M124.66,31.06c3.24.79,6.88.5,10.2.54,3.5,0,7,0,10.49.07,7.06,0,14.43.65,21.46-.07a1.33,1.33,0,0,0,0-2.65c-7-.72-14.4-.11-21.46-.07-3.5,0-7,0-10.49.07-3.31,0-7-.25-10.2.55a.82.82,0,0,0,0,1.56Z"/><path d="M124.54,44.56c6.57.87,13.33.62,19.94.64,6.18,0,13.05.87,19.06-.65a.43.43,0,0,0,0-.82c-6-1.52-12.88-.67-19.06-.65-6.61,0-13.37-.22-19.94.64a.42.42,0,0,0,0,.84Z"/><path d="M150.3,79.71a156.94,156.94,0,0,0,10.27-12.44c1.6-2.11,3.18-4.25,4.73-6.4s3.51-4.33,4.47-6.8c.28-.71-.71-1.12-1.19-.69-1.74,1.58-3,3.88-4.32,5.8q-2.44,3.42-5,6.8c-3.27,4.36-6.65,8.65-9.86,13-.37.52.45,1.13.88.68Z"/><path d="M163.66,86.69c3.94-4.16,7.54-8.64,11.06-13.15,1.56-2,3.13-4,4.67-6,1.73-2.28,4-4.59,5.17-7.2a.77.77,0,0,0-1.2-.93c-1.89,1.62-3.25,4-4.74,6-1.77,2.36-3.52,4.74-5.29,7.12-3.41,4.59-6.8,9.23-9.83,14.09a.1.1,0,0,0,.16.13Z"/><path d="M133.49,134.77c.18-6.66.39-13.31.41-20,0-3.39-.09-6.76-.16-10.15-.06-3,.39-6.15-.05-9.13-.12-.8-1.52-.81-1.63,0-.44,3,0,6.12,0,9.13-.06,3.39-.12,6.76-.08,10.15.08,6.66.35,13.31.54,20a.5.5,0,0,0,1,0Z"/><path d="M163.71,136.13c.25-14,.19-28,.2-41.94a1.16,1.16,0,0,0-2.31,0c0,14-.06,28,.19,41.94a1,1,0,0,0,1.92,0Z"/><circle class="cls-1" cx="148.38" cy="97.82" r="7.24"/><circle class="cls-1" cx="188.17" cy="38.39" r="7.24"/><circle class="cls-2" cx="188.17" cy="38.39" r="20.67"/><circle class="cls-1" cx="112.72" cy="37.35" r="7.24"/><circle class="cls-3" cx="112.72" cy="37.35" r="14.47"/><path class="cls-4" d="M132.87,95.49a15,15,0,1,1,30,0"/></svg>