<svg id="ref" xmlns="http://www.w3.org/2000/svg" viewBox="0 0 413 413"><defs><style>.cls-1{opacity:0.69;}.cls-2{fill:#006837;}.cls-3{fill:none;stroke:#000;stroke-miterlimit:10;stroke-width:3px;}</style></defs><title>Artboard 8</title><g class="cls-1"><path class="cls-2" d="M79.93,201.67c5.91,3.33,13,8,14.3,15.25,1.2,6.54-3.94,12.69-9.66,15.17-13.76,6-26.57-8.62-29.68-20.67-1.88-7.27-1-15.27,4.93-20.42,5.62-4.87,13.52-6.59,20.79-6.51a40,40,0,0,1,36.22,24.08c5.86,13.65,4,30.28-9.13,38.81s-30.42,12.16-45.76,9.16c-14.33-2.8-27.2-11.13-34.35-24.05s-6-29.13.34-42.28c7.17-15,20-28.14,36.17-32.89,15.35-4.5,31.81-.09,41.84,12.55,6.16,7.75,19.94-2.73,13.84-10.68C106.62,142,85,134.77,63.87,139s-39.5,19.95-49.62,38.56c-10.38,19.08-12.95,42.15-3,61.93,9.62,19.12,29.41,31.67,50.28,34.59,21.48,3,48.25-2.69,63.54-19.12,15.13-16.27,14.16-41.92,2.6-59.93a55.94,55.94,0,0,0-57.1-24.61c-10.26,1.9-20.4,7.36-26.1,16.34-5.9,9.27-5.86,21.38-2.2,31.47,7.2,19.85,30.72,36.75,51,23.33,8.6-5.68,14.3-15.74,11.83-26.18-2.53-10.73-12.32-17.5-22.13-21-4.3-1.53-7,5.09-3.07,7.28Z"/></g><path d="M85.58,196.6c-5-1.87-11.59-2.29-16.1,1.13-2.93,2.22-5.24,6.47-3.28,10.06,2.23,4.1,9.22,3.82,13.13,5.11,1.83.6,4.36,1.12,5.82,2.34,4.34,3.61,2.65,6.63-1.28,7.68-4.34,1.16-11.5.77-13.92-3.78a1.42,1.42,0,0,0-2.59,1.1c2.44,8.87,24.32,9.35,24.63-.8.18-5.88-7.43-8.13-11.83-9.56a54.1,54.1,0,0,0-5.72-1.51c-3.08-.65-6.74-1.41-5-5.37,2.84-6.57,10.21-4.49,15.92-4.46a1,1,0,0,0,.26-1.94Z"/><path d="M76.82,190.45c-1.46.26-1.9,1.15-1.33,2.65l.05,3c0,2,.07,3.93.11,5.89.11,4.26.25,8.52.37,12.78.11,3.93.18,7.86.34,11.79.07,1.83-.23,3,1.25,4.1a1.54,1.54,0,0,0,2.1-.55l.15-.29a1.42,1.42,0,0,0-.49-1.88l-.19-.14c-.94-.7-2.18.45-1.9,1.45l.07.24,1-1.69-.33.06,1.73.7c-.68-1.43-.23-4.26-.32-5.93-.09-2-.19-3.93-.29-5.9l-.6-11.79c-.2-3.93-.38-7.87-.69-11.79-.1-1.32.06-2.67-1-3.61a1,1,0,0,0-1.52.2l-.2.33a.88.88,0,0,0,.52,1.28l.23.08c.52.17,1.15-.4.94-.93Z"/><circle class="cls-3" cx="76.58" cy="210.83" r="35.5"/><path d="M23,156.3a19.48,19.48,0,0,1,3.78,4.7,1.5,1.5,0,0,0,2.59-1.51,22.48,22.48,0,0,0-4.24-5.31c-1.42-1.31-3.55.8-2.13,2.12Z"/><path d="M37.08,171q3.38,3.42,6.42,7.14c1.22,1.49,3.33-.64,2.12-2.12q-3-3.72-6.42-7.14A1.5,1.5,0,0,0,37.08,171Z"/><path d="M27.4,153.84l14.55.51c1.93.07,1.93-2.93,0-3l-14.55-.51c-1.93-.07-1.93,2.93,0,3Z"/><path d="M43.32,155.34,47,176.42c.34,1.89,3.23,1.09,2.9-.8l-3.68-21.07c-.33-1.9-3.23-1.1-2.9.79Z"/><path d="M105.41,249.9A117.71,117.71,0,0,1,104,269.21c-.29,1.89,2.6,2.71,2.9.8a123.09,123.09,0,0,0,1.47-20.11,1.5,1.5,0,0,0-3,0Z"/><path d="M105.62,270.08a192.15,192.15,0,0,0,19.35.16c1.92-.08,1.93-3.08,0-3a192.15,192.15,0,0,1-19.35-.16c-1.92-.11-1.92,2.89,0,3Z"/><path d="M121.71,264.25a20.38,20.38,0,0,1,3.37,2,1.51,1.51,0,0,0,2-.54,1.53,1.53,0,0,0-.54-2.05,20,20,0,0,0-3.37-2,1.54,1.54,0,0,0-2,.54,1.51,1.51,0,0,0,.54,2.05Z"/><path d="M108.54,250.77a24.43,24.43,0,0,1,3.4,3.57,1.55,1.55,0,0,0,2,.54,1.52,1.52,0,0,0,.54-2,29.47,29.47,0,0,0-3.86-4.19c-1.45-1.27-3.58.85-2.13,2.13Z"/><path d="M23.22,233a2,2,0,1,0-1.95-2,2,2,0,0,0,1.95,2Z"/><path d="M62.5,150a1.7,1.7,0,0,0,0-3.4,1.7,1.7,0,0,0,0,3.4Z"/><path d="M69.64,139.56a2.17,2.17,0,0,0-1.31,0,1.81,1.81,0,0,0,0,3.46,2.17,2.17,0,0,0,1.31,0,1.82,1.82,0,0,0,0-3.48Z"/><path d="M70.46,155.88l0-.17a2.11,2.11,0,1,0-4.07,0l0,.17a2.07,2.07,0,0,0,2,1.52,2.11,2.11,0,0,0,2-1.52Z"/><path d="M131.43,190.8l-.15-.06,1.3,1-.05-.07a2.4,2.4,0,0,0-2.63-1.07l-.16.05a2.29,2.29,0,0,0-1.67,2.19,2.33,2.33,0,0,0,1.67,2.2l.16.05a2.4,2.4,0,0,0,2.63-1.07l.05-.08-1.3,1,.15-.06a2.17,2.17,0,0,0,1.56-2,2.2,2.2,0,0,0-1.56-2Z"/><path d="M82.83,270.59c3,0,3-4.71,0-4.71s-3,4.71,0,4.71Z"/><path d="M83.18,281.77c2.54,0,2.54-3.94,0-3.94s-2.53,3.94,0,3.94Z"/><path d="M89.85,276.82c2.47,0,2.47-3.85,0-3.85a1.93,1.93,0,0,0,0,3.85Z"/><path d="M28.08,239.9c7.65,15.86,23.66,24.46,40.27,28.12,1.88.41,2.69-2.48.8-2.9-15.92-3.5-31.14-11.51-38.48-26.74-.83-1.74-3.42-.22-2.59,1.52Z"/><path d="M20.78,210.38c1.41-14.27,6-28.32,15.56-39.25,1.27-1.45-.85-3.58-2.12-2.12-10.11,11.58-14.95,26.25-16.44,41.37-.19,1.92,2.81,1.91,3,0Z"/><path d="M115.7,253.38a46.22,46.22,0,0,0,17.55-35.56c0-1.93-3-1.93-3,0a43.39,43.39,0,0,1-16.67,33.44c-1.52,1.19.62,3.3,2.12,2.12Z"/><path d="M83,156.91c16.83.71,32.18,11.41,37.66,27.51.62,1.81,3.52,1,2.9-.8-5.93-17.4-22.34-28.94-40.56-29.71-1.93-.09-1.93,2.91,0,3Z"/><path d="M72.62,278.62c-13.48-2.84-27.68-5.75-38.91-14.22-10.24-7.72-17.89-19.19-21.85-31.32-7.63-23.4-2.85-55.42,17.76-71,1.52-1.15,0-3.75-1.51-2.59-21.3,16.09-27,48.27-19.63,72.82a68.57,68.57,0,0,0,22,33.4c11.78,9.48,26.84,12.75,41.3,15.79,1.89.39,2.69-2.5.8-2.89Z"/><path d="M81.89,142.09c26.31,1.74,49.43,19.51,58.91,44a66.36,66.36,0,0,1,3,37.84c-3,14.42-8.75,28.84-20.26,38.56-1.48,1.25.65,3.36,2.12,2.12,11.88-10,17.89-25,21-39.88A69.5,69.5,0,0,0,143.2,184c-10.25-25.21-34.06-43.15-61.31-44.95-1.93-.13-1.92,2.87,0,3Z"/><path d="M212.64,187.8c-4.07-3.51-9.51-3.11-13.34.61-3,2.87-6.54,9.31-2.53,12.7,5.28,4.45,16.1,1.71,20.24,8.13,3.6,5.59-6.62,4.88-9.13,4.85a20.65,20.65,0,0,1-12.12-3.65c-1.89-1.31-3.79,1.49-2.36,3.05,4.47,4.9,11.15,5.49,17.43,5.15,4.4-.24,12.13-.46,12.24-6.47.11-5.85-7.12-9.35-11.78-10.89-3-1-7.94-1-10.49-2.74-5.53-3.74,4.79-12.94,10.4-8.88,1.09.78,2.45-1,1.44-1.86Z"/><path d="M202.38,178c.42,7.86,1.46,15.7,2.34,23.52.8,7.09.64,15.32,2.93,22.09a2,2,0,0,0,4-.54c.62-7.53-1.67-16-2.64-23.51-1-7.34-1.8-14.75-3.19-22-.36-1.92-3.51-1.49-3.4.46Z"/><path d="M264.06,191.1a18.85,18.85,0,0,0-2.77,21.17c3.22,6,11.85,9.07,16.84,3.3s2.49-17-.44-23c-2.33-4.84-10.6-9.6-13.75-2.67a1.91,1.91,0,0,0,3,2.3c4.89-4.18,7.51,4.83,8.17,7.92.85,3.94,2.18,11.29-2.32,13.23-5.37,2.32-8.54-4.05-9.07-8.38a16.24,16.24,0,0,1,3.06-11.74c1.15-1.59-1.4-3.53-2.7-2.09Z"/><path d="M288,188.47c-3.07,6.13-4.41,16.58-.34,22.65,3.63,5.41,10.49,4.52,13-1.21,3-6.79.92-16.77-3.43-22.59-2.83-3.79-9.22-5.75-11.41-.38-.58,1.43,1.21,2.2,2.27,1.75,7.4-3.12,11.68,14.74,8.27,19.15-5.11,6.59-6.71-4.82-6.77-7.56-.09-3.73.73-7.38,1.2-11.06.19-1.48-2.16-2-2.8-.75Z"/><path d="M311.07,187.49c-7.71.24-8.33,14.69-6.39,19.93,2.43,6.57,10.5,10.1,16,4.83,6.32-6.05,5.47-17.37,2.32-24.72-2.73-6.36-10.64-11.85-15.92-4.84-1.52,2,1.71,4.33,3.42,2.64,5.52-5.42,9.12,6.22,9.66,9.68.58,3.75.62,8.4-1.43,11.78-2.88,4.77-8.44,3.25-10-1.92-.55-1.9-.7-13.13,2.29-13.46,2.44-.28,2.58-4,0-3.92Z"/><path d="M334.86,210.67c-.84,2.12-1.71,4.23-2.37,6.42s2.92,3.95,4,1.68,1.88-4.57,2.75-6.9a2.28,2.28,0,0,0-1.58-2.78,2.31,2.31,0,0,0-2.78,1.58Z"/><path d="M254.4,210.67c-.84,2.12-1.71,4.23-2.37,6.42s2.92,3.95,4,1.68,1.89-4.57,2.75-6.9a2.27,2.27,0,0,0-1.58-2.78,2.31,2.31,0,0,0-2.78,1.58Z"/><path d="M353.9,189.51c-8.61-.35-10.25,11-9.36,17.57.93,6.89,7.7,12.3,14.29,8.17,6.34-4,7.13-14.43,4.33-20.77-2.7-6.11-11.07-9.75-16.2-4.21-2.06,2.24,1,5.08,3.27,3.27,8.36-6.64,11.57,11.7,7,16.52s-8.09-1.76-8.19-5.9c-.09-3.49.16-11.18,4.81-11.23a1.71,1.71,0,0,0,0-3.42Z"/><path d="M367.08,191.31c-2.36,6.59-1.45,14.35,3.32,19.7s11.81,2.81,14.68-3.11c3.18-6.53.46-14.92-5-19.46-4.21-3.52-12.7-3.72-13.71,3a1.8,1.8,0,0,0,3.28,1.38c5.72-8.43,16.84,8.27,9.81,15-4.2,4-7.78-2.06-8.85-5.66a16.45,16.45,0,0,1,.25-9.82c.77-2.46-3-3.42-3.82-1.05Z"/><path d="M392,190c-2.5,6.46-3.4,16.11,2.06,21.45,5.28,5.16,12.31,2.27,14.83-4s1.3-14.48-4-19.11a13.68,13.68,0,0,0-17.56-.52c-2,1.59.55,4.61,2.64,3.42,8.55-4.85,16.84,3.14,15,12.11-.38,1.8-1.25,4.51-3,5.46-3.44,1.8-5.76-2.12-6.52-4.6-1.3-4.29-.69-9,.56-13.16.76-2.55-3-3.46-3.91-1.07Z"/><path d="M226,196.32c-.15-4.35,2.91-8.36,7.58-7.87s6.24,4.69,6.57,8.78c.68,8.29-3.84,12.36-10.39,16.4-2.16,1.34-1,4.12,1.2,4.42a54.38,54.38,0,0,0,17.13,0c2.54-.48,1.91-4.47-.6-4.44-5.57.07-11,.34-16.53-.34l1.19,4.41c5.2-3.28,10.61-7.05,12.15-13.38,1.16-4.79.7-11.62-2.36-15.68-6.59-8.77-19.92-2.88-18.85,7.66.19,1.82,3,1.9,2.91,0Z"/></svg>