<svg xmlns="http://www.w3.org/2000/svg" xmlns:xlink="http://www.w3.org/1999/xlink" viewBox="0 0 718 718"><defs><style>.cls-1,.cls-5{fill:none;}.cls-2{fill:#2957ae;}.cls-3{fill:#fff;}.cls-4{font-size:18.7px;font-family:TwCenMT-Regular, Tw Cen MT;letter-spacing:0.02em;}.cls-5{stroke:#000;stroke-linecap:round;stroke-miterlimit:10;stroke-width:3.61px;}.cls-6{clip-path:url(#clip-path);}.cls-7{fill:#d4145a;}.cls-8{opacity:0.61;}.cls-9{opacity:0.36;}.cls-10{fill:#880070;}</style><clipPath id="clip-path"><circle class="cls-1" cx="113.1" cy="361.1" r="99.4"/></clipPath></defs><title>Artboard 1</title><g id="doodles"><rect class="cls-2" x="534.07" y="197.17" width="164.08" height="42.95" rx="12" ry="12"/><path class="cls-3" d="M547.82,210.74l2.06,8.92.45,2.48.45-2.43,1.75-9H556l1.85,8.92.47,2.48.48-2.39,2.08-9h3.31l-4.38,15.57h-3.12l-1.88-9.1-.54-3-.55,3-1.88,9.1h-3l-4.41-15.57Z"/><path class="cls-3" d="M573,215a4.73,4.73,0,0,1,2,1.71,5.61,5.61,0,0,1,.91,2.38,14.16,14.16,0,0,1,.1,2.28h-8.38a2.73,2.73,0,0,0,1.2,2.43,3,3,0,0,0,1.66.43,2.55,2.55,0,0,0,1.67-.52,2.61,2.61,0,0,0,.62-.8h3.07a3.72,3.72,0,0,1-1.11,2.08,5.6,5.6,0,0,1-4.33,1.69,6.3,6.3,0,0,1-4.06-1.42c-1.17-.95-1.76-2.48-1.76-4.61a6.21,6.21,0,0,1,1.59-4.59,5.54,5.54,0,0,1,4.12-1.6A6.59,6.59,0,0,1,573,215Zm-4.51,2.6a3.2,3.2,0,0,0-.8,1.79h5.19a2.53,2.53,0,0,0-.81-1.82,2.59,2.59,0,0,0-1.78-.62A2.4,2.4,0,0,0,568.5,217.63Z"/><path class="cls-3" d="M580.61,226.31h-3V210.74h3Z"/><path class="cls-3" d="M586.62,226.31h-3V210.74h3Z"/><path class="cls-3" d="M598.84,215.46a3.79,3.79,0,0,1,1.13,3.1v7.75h-3.08v-7a3.18,3.18,0,0,0-.24-1.39A1.7,1.7,0,0,0,595,217a2.08,2.08,0,0,0-2.09,1.3,4.6,4.6,0,0,0-.29,1.75v6.23h-3V214.82h2.91v1.68a5.1,5.1,0,0,1,1.1-1.28,3.8,3.8,0,0,1,2.34-.7A4.42,4.42,0,0,1,598.84,215.46Z"/><path class="cls-3" d="M610.28,215a4.73,4.73,0,0,1,2,1.71,5.61,5.61,0,0,1,.91,2.38,14.16,14.16,0,0,1,.1,2.28H604.9a2.73,2.73,0,0,0,1.2,2.43,3,3,0,0,0,1.66.43,2.55,2.55,0,0,0,1.67-.52,2.47,2.47,0,0,0,.62-.8h3.08A3.81,3.81,0,0,1,612,225a5.6,5.6,0,0,1-4.33,1.69,6.3,6.3,0,0,1-4.06-1.42c-1.17-.95-1.76-2.48-1.76-4.61a6.21,6.21,0,0,1,1.59-4.59,5.54,5.54,0,0,1,4.12-1.6A6.59,6.59,0,0,1,610.28,215Zm-4.51,2.6a3.2,3.2,0,0,0-.8,1.79h5.19a2.53,2.53,0,0,0-.81-1.82,2.59,2.59,0,0,0-1.78-.62A2.4,2.4,0,0,0,605.77,217.63Z"/><path class="cls-3" d="M617.14,222.64a2,2,0,0,0,.41,1.14,2.82,2.82,0,0,0,2.08.6,3.27,3.27,0,0,0,1.42-.26.89.89,0,0,0,.1-1.57,17.68,17.68,0,0,0-3.15-.91,6.44,6.44,0,0,1-2.76-1.21,2.62,2.62,0,0,1-.8-2.07,3.57,3.57,0,0,1,1.25-2.74,5,5,0,0,1,3.53-1.15,6.53,6.53,0,0,1,3.52.86,3.69,3.69,0,0,1,1.56,3h-3a1.71,1.71,0,0,0-.33-.92,2.05,2.05,0,0,0-1.69-.62,2.49,2.49,0,0,0-1.41.31.9.9,0,0,0-.41.72.79.79,0,0,0,.44.75,19.57,19.57,0,0,0,3.14.83,5.87,5.87,0,0,1,2.7,1.28,2.92,2.92,0,0,1,.89,2.17,3.49,3.49,0,0,1-1.28,2.79,7.63,7.63,0,0,1-8-.06,3.75,3.75,0,0,1-1.29-2.92Z"/><path class="cls-3" d="M629.17,222.64a2,2,0,0,0,.42,1.14,2.79,2.79,0,0,0,2.08.6,3.26,3.26,0,0,0,1.41-.26.86.86,0,0,0,.53-.8.87.87,0,0,0-.42-.77,18.31,18.31,0,0,0-3.15-.91,6.49,6.49,0,0,1-2.77-1.21,2.65,2.65,0,0,1-.8-2.07,3.6,3.6,0,0,1,1.25-2.74,5,5,0,0,1,3.53-1.15,6.51,6.51,0,0,1,3.52.86,3.69,3.69,0,0,1,1.56,3h-3a1.79,1.79,0,0,0-.32-.92,2.09,2.09,0,0,0-1.7-.62,2.45,2.45,0,0,0-1.4.31.88.88,0,0,0-.42.72.8.8,0,0,0,.44.75,19.5,19.5,0,0,0,3.15.83,5.78,5.78,0,0,1,2.69,1.28,2.88,2.88,0,0,1,.89,2.17,3.48,3.48,0,0,1-1.27,2.79,6,6,0,0,1-4,1.09,5.94,5.94,0,0,1-4-1.15,3.72,3.72,0,0,1-1.3-2.92Z"/><path class="cls-3" d="M648.78,223h-1.73v3.29H644.1V223H638v-2.63l5.63-9.3h3.38v9.57h1.73Zm-4.68-2.36v-6.6l-3.82,6.6Z"/><path class="cls-3" d="M651.15,210.74h3.25v12.77h7.77v2.8h-11Z"/><path class="cls-3" d="M667.21,213.43h-3.05v-2.78h3.05Zm-3.05,1.37h3.05v11.51h-3.05Z"/><path class="cls-3" d="M674.89,210.6l.64.05v2.45c-.17,0-.45,0-.85,0a1,1,0,0,0-.83.26,1,1,0,0,0-.22.62v1h2V217h-2v9.28h-3V217H669V214.9h1.64v-.73a3.85,3.85,0,0,1,.63-2.55c.43-.69,1.49-1,3.16-1Z"/><path class="cls-3" d="M684.84,215a4.73,4.73,0,0,1,2,1.71,5.62,5.62,0,0,1,.92,2.38,14.39,14.39,0,0,1,.09,2.28h-8.38a2.75,2.75,0,0,0,1.2,2.43,3,3,0,0,0,1.66.43,2.55,2.55,0,0,0,1.67-.52,2.47,2.47,0,0,0,.62-.8h3.08a3.74,3.74,0,0,1-1.12,2.08,5.59,5.59,0,0,1-4.33,1.69,6.32,6.32,0,0,1-4.06-1.42c-1.17-.95-1.75-2.48-1.75-4.61a6.21,6.21,0,0,1,1.58-4.59,5.54,5.54,0,0,1,4.12-1.6A6.59,6.59,0,0,1,684.84,215Zm-4.51,2.6a3.2,3.2,0,0,0-.8,1.79h5.19a2.52,2.52,0,0,0-.8-1.82,2.62,2.62,0,0,0-1.79-.62A2.4,2.4,0,0,0,680.33,217.63Z"/><text class="cls-4" transform="translate(348.5 524.5) rotate(-1)">E<tspan x="8.52" y="0.17">a</tspan><tspan x="19.16" y="0.32">s</tspan><tspan x="25.71" y="0.46">y</tspan><tspan x="35.39" y="0.62">T</tspan><tspan x="43.9" y="0.78">e</tspan><tspan x="53.58" y="0.93">c</tspan><tspan x="61.1" y="1.07">h</tspan></text><path d="M423.5,514.23a3.84,3.84,0,0,1-2.44,1,2.5,2.5,0,0,1-2.12-.9,2.68,2.68,0,0,1-.49-2.29,4,4,0,0,1,1.47-2.38,3.86,3.86,0,0,1,2.4-.92,2.5,2.5,0,0,1,2.1.91,2.64,2.64,0,0,1,.5,2.28A4,4,0,0,1,423.5,514.23Zm-3.35-4.13A3.39,3.39,0,0,0,419,512a2.22,2.22,0,0,0,.42,1.9,2.06,2.06,0,0,0,1.73.76,3.17,3.17,0,0,0,2-.83,3.39,3.39,0,0,0,1.15-1.92,2.21,2.21,0,0,0-.41-1.87,2.05,2.05,0,0,0-1.73-.78A3.21,3.21,0,0,0,420.15,510.1Zm1.24,3.77a1.4,1.4,0,0,1-1.17-.51A1.58,1.58,0,0,1,420,512a2.59,2.59,0,0,1,.73-1.37,1.94,1.94,0,0,1,1.38-.59,1.57,1.57,0,0,1,.85.2,1.24,1.24,0,0,1,.53,1.19h-.82a.57.57,0,0,0-.22-.53.69.69,0,0,0-.41-.12.93.93,0,0,0-.66.31,1.87,1.87,0,0,0-.41.92,1.12,1.12,0,0,0,.09.87.62.62,0,0,0,.56.26.81.81,0,0,0,.54-.19,1.19,1.19,0,0,0,.3-.45l.8,0a2,2,0,0,1-.8,1.08A2.11,2.11,0,0,1,421.39,513.87Z"/><circle class="cls-5" cx="113.1" cy="361.1" r="99.4"/><g class="cls-6"><path class="cls-7" d="M83.46,276.6c2.85-3.1,6.42-3.59,9.16-1.06a13.56,13.56,0,0,1,2,2.91l-4.68,4.87a30.32,30.32,0,0,1-4.35-.31,3.21,3.21,0,0,1-1.74-1.58,15,15,0,0,1-.94-2.86Z"/><path class="cls-7" d="M81.67,283.08l1-.93,1.18,1.49L81,285.34Z"/><path class="cls-7" d="M128.53,278.46l3.81.35.77,4.22c-3.1,1.69-5.92-.39-6-4.72-4.11,1.11-8,2.55-11,5.61a2.86,2.86,0,0,0-.75,1.74,6.18,6.18,0,0,1-4.61,6.16c-.69-.92-1.39-1.84-2-2.78a1.23,1.23,0,0,1-.21-.79,8.71,8.71,0,0,0-2.78-7.36,5.77,5.77,0,0,1,6.63-.4,3.61,3.61,0,0,0,2.54.42,13.77,13.77,0,0,0,4.65-2.3,46.75,46.75,0,0,0,6.42-6.7c1.73-2.24,6.81-2.68,9.23-1.59.21.1.34.44.42.69.41,1.27.78,2.55,1.28,4.24a24.61,24.61,0,0,1-3.78,1.93,29.24,29.24,0,0,1-4.52.79Z"/><path class="cls-7" d="M97.4,295c4.5.63,8.19-.6,10.59-4.84,1.72,1.87,1.87,4.21,2.72,6.36a9.9,9.9,0,0,0,.21-2.21c-.13-1,.24-1.38,1.11-1.68a14.32,14.32,0,0,0,2-1.09c1.07,2.63.06,4.6-3.35,6.41,1.41,5.38,5.45,8.42,10.08,11-2.12,1.86-4.29,3.54-3.16,6.66l-4,2a14.2,14.2,0,0,1-.68-2.84,20.64,20.64,0,0,0-3.38-11.29,11.67,11.67,0,0,0-2-2.11,3.35,3.35,0,0,0-3.17-.9A5.9,5.9,0,0,1,97.4,295Z"/><path class="cls-7" d="M97,293.62a21.32,21.32,0,0,1-2.6-1.36c-3.05-2.11-4.18-5.91-2.71-8.83a7.79,7.79,0,0,1,9.67-3.5,11.59,11.59,0,0,1,4.33,3,6,6,0,0,1,.79,7.2c-1.57,2.88-4.2,3.87-7.33,3.79A19.43,19.43,0,0,1,97,293.62Z"/><path class="cls-7" d="M129.83,315.92a20.44,20.44,0,0,1,3.23,2.49c2,2.27,1.52,5-1,6.76-3.37,2.33-7.51,1.81-9.39-1.18a5,5,0,0,1,3.29-7.88A25.28,25.28,0,0,1,129.83,315.92Z"/><path class="cls-7" d="M92.34,292.24A5.52,5.52,0,0,1,87,294.56a5.8,5.8,0,0,1-5.17-3.91A4.42,4.42,0,0,1,83,285.72a6,6,0,0,1,6.12-1.11c.3.14.69.53.68.77A9.22,9.22,0,0,0,92.34,292.24Z"/><path class="cls-7" d="M138.48,266l-2.67,3c-1.52-.17-3.05-.31-4.57-.54-1.69-.24-4.67-3.29-5-5a2.92,2.92,0,0,1,2.28-3.26,6.87,6.87,0,0,1,7.31,2A27.12,27.12,0,0,1,138.48,266Z"/><path class="cls-7" d="M122.77,326.22c-2.6,1.19-5.11,2.14-7.88.95-3.12-1.34-3.91-4.93-1.48-7.26a33.82,33.82,0,0,1,4.33-3.07c1,1.1,1.74,1.86,2.43,2.66a1.16,1.16,0,0,1,.33.74C120.2,322.57,121.33,324.36,122.77,326.22Z"/><path class="cls-7" d="M146.33,267.4a6.51,6.51,0,0,1,8.56,0c2.57,2.39,1.93,5.83-1.33,7.09a8.62,8.62,0,0,1-1.25.38,3.83,3.83,0,0,1-4.62-3.46A21.8,21.8,0,0,0,146.33,267.4Z"/><path class="cls-7" d="M135.68,323.79c2.13-.27,4,.74,5,3.13.65,1.49.88,3-.19,4.41a4,4,0,0,1-4.34,1.35,7.74,7.74,0,0,1-5.76-4.87Z"/><path class="cls-7" d="M139.6,265.79c-1.11-4,2-8.22,5.61-7.78a5.2,5.2,0,0,1,4.26,6c-.07.3-.4.56-.64.81-.09.09-.29.06-.42.13-2.07,1.17-4.16,1.93-6.57.82C141.26,265.46,140.42,265.75,139.6,265.79Z"/><path class="cls-7" d="M140.42,275.38c-2.48-.7-4.06-3.09-3.49-5.28a4.66,4.66,0,0,1,5.83-3c2.55.7,4.23,3.25,3.62,5.5S143,276.12,140.42,275.38Z"/><path class="cls-7" d="M108.86,278c-1.47.61-2.71,1.14-4,1.62a1.35,1.35,0,0,1-.91,0c-4.12-1.66-4.16-1.67-8.1-1.19a3.59,3.59,0,0,1,.94-4c2.2-2.3,4.9-2.06,7.6-1.18C106.78,274.07,108.49,275.51,108.86,278Z"/><path class="cls-7" d="M133.49,316.45c1.8-3.07,7.56-2.39,9.4,1a3.45,3.45,0,0,1-2.71,5.21,10.6,10.6,0,0,1-1.6.07c-2.64-.08-2.55-.11-3.3-2.61A24.24,24.24,0,0,0,133.49,316.45Z"/><path class="cls-7" d="M119.28,329c1.52-.65,2.85-1.22,4.18-1.77a1.36,1.36,0,0,1,.68-.11c1.47.22,2.93.45,4.39.72a1.31,1.31,0,0,1,.73.5,7.17,7.17,0,0,1,.51,1c1,1.74.88,2.37-.77,3.5a6.58,6.58,0,0,1-6.89.8A5.08,5.08,0,0,1,119.28,329Z"/><path class="cls-7" d="M140.75,276.79a6.51,6.51,0,0,0,6.52-2.83c2.31,1.9,3.09,4.78,1.95,6.93a3.88,3.88,0,0,1-4.58,1.91A5.86,5.86,0,0,1,140.75,276.79Z"/><path class="cls-7" d="M120.76,318.24c-1.7-1.31-2.63-3.81-1.85-5.4,1-2.09,3.87-3.24,6.56-2.63,2.37.53,3.77,2.12,3.79,4.23a19.67,19.67,0,0,0-4.63.84C123.24,315.89,122.14,317.15,120.76,318.24Z"/><path class="cls-7" d="M98,300c-3.83,2-8.25,0-9-4.07a19.42,19.42,0,0,0,2.35-1.11,18.39,18.39,0,0,0,1.89-1.56c1.63.59,2.85,1.41,3.09,3.45C96.54,297.78,97.44,298.8,98,300Z"/><path class="cls-7" d="M138.41,275.48a21,21,0,0,1,.93,1.94c.41,1.13.77,2.28,1.12,3.43.11.37.28.9.11,1.13a4.07,4.07,0,0,1-3.8,2,3.56,3.56,0,0,1-2.86-2.94c-.47-1.91-.19-2.45,1.51-3.43C136.34,277.07,137.16,276.38,138.41,275.48Z"/><path class="cls-7" d="M132,315.75c-1-.19-1.41-.8-1.53-2.11-.1-1.15-.94-2.23-1.47-3.36,3-1.65,6.82-.12,7,2.82Z"/><path class="cls-7" d="M150.72,276.5c1.29-.35,2.44-.7,3.62-.95a1.39,1.39,0,0,1,1.1.3c1.75,1.76,1.23,4.07-1.15,4.76a21.7,21.7,0,0,1-3.55.43,22.56,22.56,0,0,0,.22-2.38A19.82,19.82,0,0,0,150.72,276.5Z"/><path class="cls-7" d="M133.25,258.7a3.9,3.9,0,0,1,6.26-.18,1.18,1.18,0,0,1,.09,1c-.45,1.05-1,2.06-1.42,2.93Z"/><path class="cls-7" d="M139,285.05l2.7-2.22,4.12,1.7a4.14,4.14,0,0,1-3.35,2.4A3.43,3.43,0,0,1,139,285.05Z"/><path class="cls-7" d="M83.13,294.57a21,21,0,0,0,2.25,1,16,16,0,0,0,2.15.4l1.73,3.72A5.51,5.51,0,0,1,83.13,294.57Z"/><path class="cls-7" d="M129.84,334l1.71-1.92,5.11,2.26C135.64,336.65,132.41,336.6,129.84,334Z"/><path class="cls-7" d="M137.49,313.16l-1-3c2.54-1.08,6.26,1.39,5.52,4.28-.75-.28-1.48-.61-2.24-.83S138.25,313.31,137.49,313.16Z"/><path class="cls-7" d="M130.85,308.36a19.06,19.06,0,0,1-3.91.93,18,18,0,0,1-3.9-.72,4.66,4.66,0,0,1,3.83-2.25A4,4,0,0,1,130.85,308.36Z"/><path class="cls-7" d="M90.09,272.57c1.67-1.54,4.43-1.58,6.73,0l-2.17,2.79Z"/><path class="cls-7" d="M114.07,328.45l3.84.68c.26,1,.55,2,.83,3.08C116.32,332.93,114.64,331.59,114.07,328.45Z"/><path class="cls-7" d="M103.68,301.91a5.66,5.66,0,0,1-6.79.15C99,299.72,101.19,302.07,103.68,301.91Z"/><path class="cls-7" d="M128.42,268.3l-3.72,1.95a1.9,1.9,0,0,1,.52-2.47C126.38,266.68,126.71,266.76,128.42,268.3Z"/><path class="cls-7" d="M144.18,321.92a5,5,0,0,1-2.46,4.06l-1.3-1.7Z"/><path class="cls-7" d="M161.24,385.05c-1.25-4,.13-7.35,3.69-8.45a13.51,13.51,0,0,1,3.53-.26l1.85,6.49a30.19,30.19,0,0,1-2.46,3.61,3.17,3.17,0,0,1-2.24.7,15.41,15.41,0,0,1-2.94-.62Z"/><path class="cls-7" d="M165.94,389.86l-.28-1.38,1.88-.27,0,3.32Z"/><path class="cls-7" d="M185.53,347l2.21-3.12,4,1.46c-.1,3.53-3.32,4.92-7.1,2.82-1.11,4.1-1.82,8.18-.7,12.36a2.79,2.79,0,0,0,1.12,1.53,6.16,6.16,0,0,1,3,7.08c-1.15.13-2.29.28-3.44.37a1.28,1.28,0,0,1-.78-.21,8.75,8.75,0,0,0-7.76-1.31,5.75,5.75,0,0,1,3-5.93,3.61,3.61,0,0,0,1.63-2,13.78,13.78,0,0,0,.36-5.17,46.78,46.78,0,0,0-2.57-8.93c-1.06-2.62,1.12-7.23,3.28-8.77a1.15,1.15,0,0,1,.8,0c1.3.29,2.6.62,4.31,1a25.33,25.33,0,0,1-.23,4.23,29.78,29.78,0,0,1-1.59,4.31Z"/><path class="cls-7" d="M184.19,382.28c2.81-3.57,3.6-7.37,1.15-11.58,2.48-.55,4.57.5,6.86.85a9.47,9.47,0,0,0-1.8-1.29,1.35,1.35,0,0,1-.89-1.81,13.66,13.66,0,0,0,.07-2.31c2.83.39,4,2.26,3.86,6.11,5.36,1.49,10-.46,14.61-3.15.54,2.76.9,5.49,4.17,6.08-.1,1.47-.19,2.82-.3,4.47a14.08,14.08,0,0,1-2.79-.84,20.68,20.68,0,0,0-11.46-2.76,11.75,11.75,0,0,0-2.83.66,3.33,3.33,0,0,0-2.37,2.28A5.89,5.89,0,0,1,184.19,382.28Z"/><path class="cls-7" d="M182.76,381.92a22.5,22.5,0,0,1-2.48,1.56c-3.36,1.57-7.22.64-9-2.11a7.77,7.77,0,0,1,1.84-10.11,11.54,11.54,0,0,1,4.78-2.23,6,6,0,0,1,6.62,2.94c1.7,2.81,1.23,5.58-.42,8.25A20.47,20.47,0,0,1,182.76,381.92Z"/><path class="cls-7" d="M218.55,364.77a20.39,20.39,0,0,1,3.78-1.54c3-.58,5.12,1.22,5.35,4.23.32,4.08-2.21,7.4-5.74,7.52a5,5,0,0,1-5.15-6.8A24.23,24.23,0,0,1,218.55,364.77Z"/><path class="cls-7" d="M179.22,385.25a5.51,5.51,0,0,1-.7,5.82,5.79,5.79,0,0,1-6,2.49A4.4,4.4,0,0,1,168.9,390a5.93,5.93,0,0,1,2.12-5.85c.27-.18.8-.33,1-.2A9.18,9.18,0,0,0,179.22,385.25Z"/><path class="cls-7" d="M179.78,332.18,181,336c-.92,1.22-1.81,2.48-2.77,3.68s-5.19,2.38-6.79,1.77a2.93,2.93,0,0,1-1.67-3.62,6.84,6.84,0,0,1,5.41-5.3A26.66,26.66,0,0,1,179.78,332.18Z"/><path class="cls-7" d="M223.91,376.05c-.29,2.85-.73,5.49-3.16,7.29-2.72,2-6.22.9-7-2.38a34.09,34.09,0,0,1-.48-5.28c1.46-.32,2.49-.57,3.53-.77a1.13,1.13,0,0,1,.8.1C219.45,376.43,221.57,376.36,223.91,376.05Z"/><path class="cls-7" d="M184.93,326.09a6.52,6.52,0,0,1,4.28-7.42c3.36-1,6,1.27,5.46,4.73a8.07,8.07,0,0,1-.3,1.27,3.83,3.83,0,0,1-5.32,2.25A21.62,21.62,0,0,0,184.93,326.09Z"/><path class="cls-7" d="M228.29,363.67a4.64,4.64,0,0,1,5.23-2.76c1.62.19,3,.76,3.72,2.39a4,4,0,0,1-1,4.42,7.74,7.74,0,0,1-7.11,2.53C228.84,368.05,228.59,366,228.29,363.67Z"/><path class="cls-7" d="M180.15,331.09c-4-1-6.11-5.84-3.9-8.76a5.21,5.21,0,0,1,7.29-.68,2.11,2.11,0,0,1,.38,1c0,.12-.09.27-.1.42,0,2.38-.42,4.57-2.59,6.09C180.7,329.5,180.53,330.37,180.15,331.09Z"/><path class="cls-7" d="M188.85,335.22c-1.85,1.79-4.71,1.95-6.32.36a4.68,4.68,0,0,1,.36-6.55c1.88-1.84,4.93-2,6.58-.36S190.79,333.34,188.85,335.22Z"/><path class="cls-7" d="M175.25,363.82c-.22,1.58-.38,2.91-.6,4.24a1.37,1.37,0,0,1-.45.8c-3.5,2.72-3.53,2.75-5.1,6.4a3.61,3.61,0,0,1-3-2.82c-.88-3.06.69-5.27,2.81-7.16C170.79,363.62,172.9,362.87,175.25,363.82Z"/><path class="cls-7" d="M220.85,361.87c-1.75-3.1,1.74-7.73,5.61-7.61a3.46,3.46,0,0,1,3.15,5,11.34,11.34,0,0,1-.75,1.42c-1.39,2.25-1.38,2.16-3.92,1.54A24.31,24.31,0,0,0,220.85,361.87Z"/><path class="cls-7" d="M224.54,380.46c.2-1.63.38-3.07.57-4.5a1.32,1.32,0,0,1,.25-.65c.93-1.15,1.86-2.3,2.83-3.43a1.36,1.36,0,0,1,.8-.37,9.14,9.14,0,0,1,1.16.07c2,.05,2.49.44,2.63,2.44a6.57,6.57,0,0,1-2.77,6.35A5.08,5.08,0,0,1,224.54,380.46Z"/><path class="cls-7" d="M190.23,335.64a6.51,6.51,0,0,0,.84-7.06c2.8-1,5.68-.26,7,1.8a3.9,3.9,0,0,1-.65,4.92A5.86,5.86,0,0,1,190.23,335.64Z"/><path class="cls-7" d="M216,373.78c-2,.8-4.61.35-5.6-1.12-1.29-1.93-.84-5,1-7,1.66-1.78,3.74-2.19,5.57-1.14a19.65,19.65,0,0,0-1.61,4.42C215.21,370.45,215.74,372,216,373.78Z"/><path class="cls-7" d="M188.76,384.2c-.18,4.33-4.12,7.15-8,5.7a20.41,20.41,0,0,0,.22-2.58,17.29,17.29,0,0,0-.39-2.43c1.33-1.1,2.65-1.75,4.53-.93C186.12,384.41,187.46,384.14,188.76,384.2Z"/><path class="cls-7" d="M187.92,337c.79.06,1.48.05,2.15.17,1.18.21,2.36.48,3.53.76.37.09.91.21,1,.47a4.09,4.09,0,0,1-.19,4.29,3.57,3.57,0,0,1-4,1c-1.89-.56-2.22-1.07-2.21-3C188.26,339.59,188.07,338.54,187.92,337Z"/><path class="cls-7" d="M219.49,362.81c-.65.75-1.4.82-2.59.26-1-.48-2.4-.3-3.64-.42.11-3.47,3.32-5.95,6-4.63C219.31,359.58,219.39,361.05,219.49,362.81Z"/><path class="cls-7" d="M195,326.87c.35-1.28.62-2.46,1-3.6a1.37,1.37,0,0,1,.8-.8c2.41-.63,4.14,1,3.54,3.39a21.41,21.41,0,0,1-1.42,3.28c-.79-.57-1.33-1-1.94-1.39S195.67,327.16,195,326.87Z"/><path class="cls-7" d="M170.83,333a3.89,3.89,0,0,1,3-5.49,1.2,1.2,0,0,1,.91.42c.68.92,1.28,1.89,1.81,2.7Z"/><path class="cls-7" d="M196.51,341.28l-.56-3.45,3.54-2.7a4.13,4.13,0,0,1,.39,4.1A3.44,3.44,0,0,1,196.51,341.28Z"/><path class="cls-7" d="M176.61,394.38c.67-.49,1.38-.91,2-1.45a16.82,16.82,0,0,0,1.42-1.66l4.09.38A5.51,5.51,0,0,1,176.61,394.38Z"/><path class="cls-7" d="M234.16,373.85l-.8-2.45,4.52-3.28C239.39,370.18,237.72,373,234.16,373.85Z"/><path class="cls-7" d="M220,356.76l-3.09-.62c.35-2.74,4.36-4.71,6.48-2.61-.62.5-1.27,1-1.84,1.51S220.53,356.18,220,356.76Z"/><path class="cls-7" d="M212.54,360.08a19.7,19.7,0,0,1-1.17,3.85,18.55,18.55,0,0,1-2.59,3,4.68,4.68,0,0,1,0-4.45A4,4,0,0,1,212.54,360.08Z"/><path class="cls-7" d="M161.1,377.29c-.49-2.21.86-4.62,3.36-5.83l1.31,3.28Z"/><path class="cls-7" d="M221.45,384.69l2.52-3,3.08.84C226.45,385,224.45,385.78,221.45,384.69Z"/><path class="cls-7" d="M193.29,380.31a5.68,5.68,0,0,1-3.29,5.95C189,383.25,192.17,382.55,193.29,380.31Z"/><path class="cls-7" d="M176.69,342l-.19,4.2c-.7.09-1.57-.47-1.86-1.7C174.26,343,174.5,342.72,176.69,342Z"/><path class="cls-7" d="M231,355.39a5,5,0,0,1,2.28,4.17l-2.13.27C231.05,358.35,231,356.91,231,355.39Z"/><path class="cls-7" d="M60.43,459.43c-2.74-3.2-2.79-6.8,0-9.23a14.14,14.14,0,0,1,3.14-1.63l4.27,5.22a30.87,30.87,0,0,1-.83,4.29,3.19,3.19,0,0,1-1.78,1.54,15,15,0,0,1-2.95.59Z"/><path class="cls-7" d="M66.65,462l-.8-1.15,1.62-1,1.34,3Z"/><path class="cls-7" d="M67.67,414.9c.27-1.26.54-2.53.8-3.73l4.29-.27c1.31,3.28-1.1,5.84-5.4,5.41.6,4.2,1.56,8.23,4.25,11.63a2.85,2.85,0,0,0,1.63,1,6.17,6.17,0,0,1,5.57,5.31c-1,.57-2,1.16-3,1.7a1.23,1.23,0,0,1-.8.11,8.76,8.76,0,0,0-7.65,1.88,5.77,5.77,0,0,1,.41-6.63,3.57,3.57,0,0,0,.71-2.47,13.58,13.58,0,0,0-1.72-4.89,46.7,46.7,0,0,0-5.89-7.18c-2-2-1.84-7.08-.46-9.36.11-.19.47-.28.73-.33,1.31-.25,2.62-.46,4.36-.76a25,25,0,0,1,1.46,4,30.28,30.28,0,0,1,.25,4.59Z"/><path class="cls-7" d="M80.4,447.79c1.17-4.38.39-8.2-3.53-11.09,2.06-1.48,4.4-1.35,6.64-1.93a10.08,10.08,0,0,0-2.17-.48c-1,0-1.34-.4-1.53-1.3a13.64,13.64,0,0,0-.85-2.16c2.75-.75,4.58.49,6,4.09,5.51-.76,9-4.4,12.16-8.68,1.59,2.32,3,4.68,6.24,3.93.49,1.39.94,2.66,1.5,4.22a14,14,0,0,1-2.9.34,20.61,20.61,0,0,0-11.62,2A11.79,11.79,0,0,0,88,438.45a3.34,3.34,0,0,0-1.27,3A5.89,5.89,0,0,1,80.4,447.79Z"/><path class="cls-7" d="M79,448a20.66,20.66,0,0,1-1.66,2.41c-2.46,2.78-6.37,3.44-9.09,1.63a7.78,7.78,0,0,1-2.32-10,11.47,11.47,0,0,1,3.51-3.94,6,6,0,0,1,7.24.07c2.67,1.91,3.34,4.64,2.88,7.74A20,20,0,0,1,79,448Z"/><path class="cls-7" d="M105,418.1a20.1,20.1,0,0,1,2.85-2.91c2.5-1.71,5.19-.91,6.6,1.76,1.91,3.63.9,7.67-2.29,9.18a5,5,0,0,1-7.43-4.2A25.57,25.57,0,0,1,105,418.1Z"/><path class="cls-7" d="M77,452.49a5.51,5.51,0,0,1,1.66,5.62,5.76,5.76,0,0,1-4.5,4.65,4.4,4.4,0,0,1-4.75-1.8,5.93,5.93,0,0,1-.36-6.21c.17-.27.6-.62.84-.57A9.26,9.26,0,0,0,77,452.49Z"/><path class="cls-7" d="M56.51,403.54l2.62,3c-.35,1.48-.68,3-1.08,4.47-.45,1.65-3.82,4.24-5.53,4.31a2.91,2.91,0,0,1-3-2.66,6.84,6.84,0,0,1,2.86-7A26.6,26.6,0,0,1,56.51,403.54Z"/><path class="cls-7" d="M114.4,426.34c.87,2.72,1.51,5.33,0,7.94-1.71,2.93-5.36,3.29-7.38.6a33.76,33.76,0,0,1-2.54-4.67c1.21-.87,2.06-1.5,2.94-2.1a1.14,1.14,0,0,1,.77-.23C110.46,428.45,112.38,427.55,114.4,426.34Z"/><path class="cls-7" d="M58.82,395.91a6.53,6.53,0,0,1,1-8.51c2.68-2.26,6-1.22,6.88,2.17a9.42,9.42,0,0,1,.23,1.29,3.84,3.84,0,0,1-4,4.18A22.23,22.23,0,0,0,58.82,395.91Z"/><path class="cls-7" d="M113.53,413.23c0-2.15,1.21-3.86,3.71-4.61,1.56-.46,3.1-.51,4.35.72a4,4,0,0,1,.83,4.47,7.76,7.76,0,0,1-5.53,5.14Z"/><path class="cls-7" d="M56.42,402.39c-4.1.63-7.93-2.93-7.06-6.5a5.21,5.21,0,0,1,6.43-3.51c.3.11.51.47.73.74.08.1,0,.29.08.42.91,2.2,1.42,4.37,0,6.62C56.29,400.71,56.48,401.58,56.42,402.39Z"/><path class="cls-7" d="M66,402.74a4.6,4.6,0,0,1-5.66,2.83,4.67,4.67,0,0,1-2.26-6.15c1-2.44,3.73-3.81,5.89-2.94S67.08,400.24,66,402.74Z"/><path class="cls-7" d="M64.89,434.39c.42,1.53.8,2.82,1.12,4.13a1.38,1.38,0,0,1-.09.9c-2.14,3.89-2.16,3.93-2.15,7.9a3.59,3.59,0,0,1-3.84-1.41c-2-2.45-1.46-5.11-.26-7.69C60.71,436,62.35,434.45,64.89,434.39Z"/><path class="cls-7" d="M106,414.53c-2.83-2.15-1.47-7.79,2.14-9.21a3.45,3.45,0,0,1,4.85,3.31,9.39,9.39,0,0,1-.13,1.59c-.38,2.62-.4,2.53-3,3A24.61,24.61,0,0,0,106,414.53Z"/><path class="cls-7" d="M116.73,430.14c-.46-1.59-.87-3-1.26-4.37a1.35,1.35,0,0,1,0-.69c.39-1.43.79-2.85,1.24-4.27a1.33,1.33,0,0,1,.58-.66,9.52,9.52,0,0,1,1.1-.39c1.84-.74,2.45-.59,3.38,1.19a6.56,6.56,0,0,1,0,6.93A5.07,5.07,0,0,1,116.73,430.14Z"/><path class="cls-7" d="M67.47,402.57a6.48,6.48,0,0,0-2-6.81c2.16-2.06,5.11-2.49,7.11-1.11a3.9,3.9,0,0,1,1.35,4.78A5.87,5.87,0,0,1,67.47,402.57Z"/><path class="cls-7" d="M106.24,427.38c-1.51,1.53-4.1,2.15-5.59,1.19-2-1.25-2.75-4.23-1.83-6.83.82-2.29,2.56-3.49,4.66-3.25a19.69,19.69,0,0,0,.28,4.7C104.2,424.64,105.32,425.88,106.24,427.38Z"/><path class="cls-7" d="M85.36,447.74c1.55,4.05-1,8.2-5.1,8.41a22,22,0,0,0-.82-2.45,16.9,16.9,0,0,0-1.33-2.07c.79-1.55,1.75-2.66,3.79-2.66C83,449,84.15,448.2,85.36,447.74Z"/><path class="cls-7" d="M65.89,404.74a20.49,20.49,0,0,1,2-.69c1.17-.28,2.36-.5,3.54-.7.38-.07.93-.17,1.14,0a4.09,4.09,0,0,1,1.52,4,3.57,3.57,0,0,1-3.26,2.49c-2,.24-2.46-.11-3.23-1.91C67.23,407,66.64,406.09,65.89,404.74Z"/><path class="cls-7" d="M105.11,415.93c-.31.94-1,1.31-2.28,1.27-1.15,0-2.33.67-3.51,1.05C98,415,100,411.47,103,411.64Z"/><path class="cls-7" d="M68.38,392.63c-.19-1.31-.4-2.5-.5-3.7a1.39,1.39,0,0,1,.42-1.05c2-1.53,4.19-.74,4.59,1.7a21.36,21.36,0,0,1,0,3.58,22.94,22.94,0,0,0-2.34-.5C69.84,392.58,69.11,392.64,68.38,392.63Z"/><path class="cls-7" d="M48.62,407.85a3.89,3.89,0,0,1,.57-6.23,1.17,1.17,0,0,1,1,0c1,.57,1.92,1.23,2.74,1.76Z"/><path class="cls-7" d="M75.47,405.27l-1.88-2.95,2.18-3.88a4.1,4.1,0,0,1,2,3.61A3.43,3.43,0,0,1,75.47,405.27Z"/><path class="cls-7" d="M78.24,461.91a22,22,0,0,0,1.24-2.12,15.9,15.9,0,0,0,.65-2.09l3.9-1.27A5.5,5.5,0,0,1,78.24,461.91Z"/><path class="cls-7" d="M122.94,420.25l-1.7-1.93,2.85-4.8C126.29,414.81,125.86,418,122.94,420.25Z"/><path class="cls-7" d="M103.19,410.16l-3.08.66c-.76-2.65,2.14-6.05,4.91-5-.36.7-.77,1.39-1.08,2.11S103.44,409.43,103.19,410.16Z"/><path class="cls-7" d="M97.64,416.18a18.85,18.85,0,0,1,.45,4A18.25,18.25,0,0,1,96.91,424a4.67,4.67,0,0,1-1.78-4.08A4,4,0,0,1,97.64,416.18Z"/><path class="cls-7" d="M57.23,452.36c-1.33-1.83-1-4.58.77-6.69l2.51,2.5Z"/><path class="cls-7" d="M115.58,435.25c.38-1.28.74-2.47,1.13-3.74l3.16-.46C120.28,433.54,118.76,435.05,115.58,435.25Z"/><path class="cls-7" d="M88,442.38a5.68,5.68,0,0,1-.66,6.77C85.24,446.76,87.84,444.88,88,442.38Z"/><path class="cls-7" d="M57.57,413.8l1.49,3.93a1.9,1.9,0,0,1-2.38-.82C55.72,415.63,55.83,415.31,57.57,413.8Z"/><path class="cls-7" d="M112.69,404.57a5,5,0,0,1,3.74,2.93l-1.85,1.09Z"/></g><path d="M153.53,270.76c-.06.14-.12.28-.17.43a.6.6,0,0,0,.73.73l.43-.17a.81.81,0,1,0-1-1Z"/><path d="M371.36,441.63c-14.81-11.13-31-20.54-46.16-31.27q-23-16.26-44.93-33.85a955.55,955.55,0,0,1-82-74c-1.43-1.45-3.67.79-2.23,2.24a952.07,952.07,0,0,0,83.65,74.92q21.25,16.89,43.45,32.54c15.23,10.74,30.81,22.37,47.47,30.81a.8.8,0,0,0,.8-1.38Z"/><path d="M133.65,459.88c16.16,3.26,33.35-1.29,49.3-3.87q28.08-4.53,56.44-6.92A745.29,745.29,0,0,1,349,448c2.13.13,2.12-3.18,0-3.32a733.54,733.54,0,0,0-108.63,1.15q-26.33,2.26-52.43,6.43c-18.12,2.9-35.59,6.57-54,5.86-1,0-1.22,1.54-.24,1.73Z"/><g class="cls-8"><path class="cls-2" d="M462.11,340.3c-2.9,14.1,13.65,27.46,24.85,33.14,7,3.56,13.23-1.87,18.2-6.52a52.12,52.12,0,0,0,12.31-17.73c3.44-8.13.82-13.45-6.24-18.16-5.62-3.74-14.4-8.27-21.06-4.91-3.06,1.54-5.75,4.05-8.42,6.18-2.89,2.31-7,4.86-8,8.71-1.68,6.27,4.9,14.16,9.73,17.4a13.84,13.84,0,0,0,19.17-3.7c4.34-6.69,1.52-14.89-4.67-19.13-4-2.77-9.22.94-9.32,5.34-.15,6.14,1.55,12.88,8.18,14.84,5.87,1.73,12.35-2.15,12.31-8.63,0-6.2-5.49-10.59-11.44-10.71s-14.38,6.55-19.81,3.26c-5.9-3.57-13,5.07-7.53,9.76L481,358.56c1.64,1.42,3.34,2.8,4.94,4.26,2.09,1.9,2.12,1.49.62,3.74s-.81,5.57,1,7.54c4.09,4.53,10.37,3.11,14.62-.38,5.14-4.22,7.87-9.85,10.06-16,4.26-11.93,16.58-20.69,12.26-34.77-2.19-7.16-13.24-4.18-11.25,3.1s-5.92,14.15-9.36,19.92c-2.08,3.5-3,7.3-4.57,11a19.31,19.31,0,0,1-2.68,4.69,23.34,23.34,0,0,1-2.11,2.22c-1.65.94-1,1.41,1.83,1.39l1,7.54c3.94-5.92,4-12.08-1-17.37s-11.48-10-17.12-14.82l-7.53,9.76c4.78,2.89,10.18,3,15.48,1.58,2.76-.76,5.35-2.07,8.12-2.74a7.47,7.47,0,0,1,2.48-.42l-.89-1.12,4.23-3.84c-.05-1-.05-2,0-2.95l-9.32,5.35a1.29,1.29,0,0,1,.41,1.86c-.85,1.15-2.3-.39-2.86-.92s-3.17-4.66-3.44-4.63l-.32,2.58,1.4-1.2a23.54,23.54,0,0,0,2.84-2.36c1.4-1.13,3.81-3.88,5.59-4.25,1.49-.32,4.09,1.22,5.38,1.84,1.69.82,4.43,1.95,5.65,3.41l.64-.42-.5,1.57a19.56,19.56,0,0,1-1.58,3.49,40.92,40.92,0,0,1-7.19,10.07,38.69,38.69,0,0,1-4.64,4.13c-.29.22-2.78,1.6-1.34,1.39,1.19-.18-.94-.82-1.59-1.2-7.12-4.18-18-10.9-18.67-20.06-.37-5-8.24-6.88-9.39-1.27Z"/></g><g class="cls-8"><path class="cls-2" d="M590,309.73c-7.6,1-15.56,8.24-21.69,12.48-7.24,5-14.59,9.91-21.63,15.18-4.15,3.1-5.92,8.33-2.45,12.82,3,3.9,9.51,4.84,13,.88a11.12,11.12,0,0,0,3.09-5.38,7.64,7.64,0,0,0-5.17-9.11c-2.21-.81-4.16-.49-6.41-.09l6.73,15.95c7.06-5.4,13.85-11.17,20.73-16.79,3.28-2.68,6.48-5.44,9.7-8.19s6-6,9.15-9c4.15-4-.34-9.36-5.07-8.71Z"/></g><g class="cls-8"><path class="cls-2" d="M541.42,456.73a194.17,194.17,0,0,1,13.45,18.33c4.14,6.49,6.86,13.74,10.92,20.21,5.14,8.19,18.68,3,15.91-6.71-2.45-8.64-8.36-16.53-13.88-23.49a82.83,82.83,0,0,0-19.27-17.57c-6-3.95-11.06,4.4-7.13,9.23Z"/></g><g class="cls-8"><path class="cls-2" d="M557.9,443.5c3.42,3.72,7.47,6.88,11,10.5s6.4,8.09,10.49,11c5,3.61,10.43-3.22,7.94-7.94s-7.84-8.35-12-11.56-8.74-6.38-13.81-8.21c-3.69-1.33-5.93,3.67-3.61,6.2Z"/></g><g class="cls-8"><path class="cls-2" d="M639.22,386.36c-2.05,3.44-2,7.32-2.54,11.24-.51,3.74-.86,7.51-1.31,11.26-.94,8-2.11,15.95-3.41,23.88-2.58,15.89-7.12,31.27-10.13,47h16.48l-.29-1.44c-1.45-7.23-10.86-7-14.43-1.89l-.9,1.29c-6.81,9.71,11.78,19.12,15.62,6.58,4.83-15.78,6.57-33.22,8.42-49.57.93-8.29,1.53-16.58,1.87-24.92.29-7.21,1.77-16.85-1.55-23.46-1.56-3.12-6.18-2.78-7.83,0Z"/></g><g class="cls-8"><path class="cls-2" d="M441.15,462.23c1.26,11.57,4.19,22.88,7.16,34.11,2.41,9.08,13.88,7.5,16.92,0,4.1-10.17,5.19-21.35,6.46-32.15l-17.84,2.42L462.27,496c3,10.34,17.82,7.94,18.35-2.49.2-4,.49-8,1-11.94.29-2.36.66-7.83,1.4-9L479.59,476l.89-.42-14-5.69,7.15,21.84c3.17,9.68,19.59,8.72,18.72-2.54-.62-8.09-1.43-16.44-.09-24.5H473.87l9.09,30c3.11,10.27,18.64,8.41,18.79-2.54q.19-14.5-.95-28.93L482,465.75c1.75,6,3.28,12,4.49,18.08,1.27,6.31.88,13.5,7,17.19a9.64,9.64,0,0,0,9.7,0l.71-.42a9.81,9.81,0,0,0,4.41-10.85l-.22-.79a9.58,9.58,0,0,0-6.71-6.71l-.8-.18c-12.05-2.72-17.19,15.82-5.11,18.53l.8.18-6.71-6.71.22.79L494.17,484l-.71.42h9.7l-.7-.42,4.41,5.74a214.3,214.3,0,0,0-6.42-29.1c-2.93-10-19.74-8.6-18.83,2.55q1.17,14.44,1,28.93l18.79-2.55-9.13-30c-2.53-8.31-16.79-9.84-18.41,0s-1.35,19.58-.56,29.58L492,486.63l-7.18-21.83c-2-6.16-8.28-8.44-14-5.69-5.93,2.87-6.48,9.63-7.28,15.4a183.64,183.64,0,0,0-1.65,19l18.35-2.48-8.93-29.28c-3.12-10.25-16.84-7.51-17.83,2.41-.94,9.41-2.28,18.46-5.22,27.48h16.92c-3.68-10.36-6.64-21-10.57-31.27-1.23-3.23-3.94-5.41-7.54-4.93-3.08.42-6.34,3.35-6,6.76Z"/></g><path d="M443.25,323.52c10.73-2.51,20.9-8.62,30.4-14,4.84-2.73,9.63-5.53,14.48-8.24,2.54-1.43,5.1-2.83,7.69-4.18,2.37-1.23,7-4.46,9.68-4.26,1.9.14,2.09-2.64.43-3.19-3.84-1.26-9.39,3.13-12.64,4.85-5.68,3-11.24,6.24-16.79,9.47-11.16,6.47-22.57,11.78-34.18,17.33-1.27.6-.35,2.5.93,2.2Z"/><path d="M441.69,323.5c5.61,5.31,9.55,13.69,17.67,15.46,8.57,1.87,19.56-2.22,27.14-6a23.46,23.46,0,0,0,9.38-7.94c2.59-4,2.52-7.64,2.43-12.23-.14-7.5,5.5-9,9.47-14,2.29-2.9,3.48-6.26,2.1-9.81-.83-2.13-4.25-1.29-3.5,1,1.94,5.85-4.43,8.92-7.8,12.35a12.39,12.39,0,0,0-3.86,7.34c-.55,4.4,1,8.08-1.17,12.31s-6.5,7-10.84,8.91c-7.25,3.15-19,7.9-26.48,3.51-5.4-3.15-7.62-10.18-13.71-12.29a.86.86,0,0,0-.83,1.42Z"/><path d="M459.89,340.25c-1.64,11.27,7.27,19.65,14.69,26.78,4.05,3.9,8.51,10.07,13.66,12.53,4.7,2.25,9.19-1.2,13-3.63,4.43-2.79,10.12-5.5,13.24-9.9a19.54,19.54,0,0,0,2.7-6.83,74.7,74.7,0,0,1,3.82-11c4.33-9.93,9.47-21.19,3-31.44-1.26-2-4.47-.16-3.2,1.87,5.63,9,.76,19.08-3,27.7a75.91,75.91,0,0,0-4.1,11.92c-1.62,6.33-5.09,8.84-10.33,12.26-2,1.33-4.09,2.67-6.15,4-3.4,2.18-6,3.16-9.84.65S480,368.24,476.59,365c-7-6.6-15.24-14-14.52-24.47.08-1.23-2-1.54-2.18-.3Z"/><path d="M496.44,324c4,2.4,8.34,4.33,12.54,6.4,2.44,1.2,5.14,3.12,7.88,3.44,6.53.77,4.52-6.21,5.07-10.12.28-2-2.67-3-3.2-.88-.4,1.62,0,3-.17,4.62s-.15,2.94-2.48,2.9c-1.37,0-3.57-1.59-4.8-2.16-4.62-2.13-9.21-4.45-14-6.21-1.19-.44-1.89,1.39-.85,2Z"/><path d="M457.08,313.17c-1.68-13.62-4.93-30.79,6.84-41.05,6.59-5.74,15.4-9.72,23.08-13.79s17.16-10.66,25.76-6.1c6.29,3.33,11.23,10.39,15.24,16.09a36.4,36.4,0,0,1,5.58,10.76c1.19,4.21.42,7.86.54,12.1.2,7.19,5.58,10.51,10.75,14.62l21.5,17.09c2,1.61,4.9-1.25,2.86-2.86L550,304.82c-2.84-2.25-5.82-4.4-8.53-6.8-4-3.52-3.23-7.76-3.15-12.5.2-11.9-8.67-22.75-16.52-30.91-3.67-3.81-8.12-7.13-13.54-7.72-6.49-.72-12.6,2.78-18.18,5.63q-10.36,5.32-20.34,11.35c-5.15,3.12-10.11,6.47-13.26,11.74-6.63,11.09-4.77,25.94-1.85,37.89.33,1.34,2.63,1.09,2.46-.33Z"/><path d="M513.21,290.81c5.63-1.86,11.85-1.73,16.17,2.91,2.29,2.46,3.69,6,2.8,9.39-.8,3-3.17,4.14-5.11,6.22a1.23,1.23,0,0,0,.86,2.08c3.43.07,6-3.32,7.11-6.31a12.81,12.81,0,0,0-1.58-11.28c-4.41-6.77-14.14-9.26-21.13-5.09-1.07.65-.38,2.49.88,2.08Z"/><path d="M514.29,311.76c4.78-2.11,1.85-7.65-1.69-9.18-.49-.21-2-.51-2.25-.84-.5-.64,0-1.72.32-2.3a7.24,7.24,0,0,1,5.51-3.18c4.64-.3,6.35,3.58,7.43,7.26.39,1.36,2.75,1.6,3,0,1.1-7.31-7.6-12.32-13.87-9.61-2.7,1.17-6.2,4.3-5.93,7.6a3.67,3.67,0,0,0,2,2.85c2.1,1.25,8.21,2.51,4.51,6.16-.68.67.18,1.58,1,1.24Z"/><path d="M452.55,297.62c4.62,5.19,10.92,1.12,15-2.47,3.76-3.27,7.32-6.78,11.12-10,3.47-2.93,7.46-3.64,10.93-.18a68.56,68.56,0,0,0,6.17,5.89c1.28,1,3.74-.35,2.52-1.94-4.26-5.58-10.68-13.65-18.28-9.31-3.79,2.16-6.9,5.75-10.1,8.66-3.88,3.53-10.12,11.48-15.81,7.28-1.25-.93-2.53,1-1.59,2.06Z"/><path d="M517.83,361.14c1.1-1.68,1.71-3.5,3.6-4.51a5.89,5.89,0,0,1,6.72,1c1.65,1.47,4.1-1,2.42-2.42a9.27,9.27,0,0,0-10-1.67c-2.73,1.26-5.28,4.24-4.67,7.39.17.93,1.43.93,1.88.25Z"/><path d="M528.22,358.84c11-8.65,21.21-18.31,32-27.17q16.77-13.74,34.22-26.62l-2.54-.67q2.1,4.38,4.16,8.77c1,2.2,4.37.28,3.29-1.93-1.42-2.9-2.85-5.8-4.25-8.71a1.86,1.86,0,0,0-2.53-.66q-17,12.64-33.45,26.1c-11.19,9.22-22.83,18.46-32.85,29-1.23,1.3.58,3,1.92,1.92Z"/><path d="M529.84,355.83c19.11-7.73,37.53-17.48,56.06-26.47l14.33-6.95c5.08-2.46,13-8.11,18-3.76,3.61,3.14,6.49,7.83,9.22,11.72s5.38,8.05,7.82,12.23c9.53,16.34,16.71,33.9,23.57,51.48,7.29,18.72,14,37.72,18.63,57.29a207,207,0,0,1,4.32,68.56c-.21,2.14,3.37,2.64,3.78.51,4-20.55,1.71-42.53-2.49-62.86-4.44-21.53-11.71-42.37-19.68-62.82-7.3-18.73-14.87-37.56-25.22-54.85a155.72,155.72,0,0,0-16.8-23.2c-2.2-2.5-4.27-5.11-7.91-4.42-4.45.85-9.23,4.22-13.26,6.21-23.71,11.63-48.26,22.35-71.14,35.56-.92.53-.3,2.19.74,1.77Z"/><path d="M526.15,359.79c1,12.62,3.8,25.24,5.57,37.79,1.91,13.63,3.52,27.3,5.19,41a1.81,1.81,0,1,0,3.57-.48,15.88,15.88,0,0,0-.84-3.73,1.39,1.39,0,0,0-2.72.37,15.91,15.91,0,0,0,0,3.84h3.63c-1.48-13-3.34-26-5.32-38.93-2-13.28-3.48-27.12-7-40.1-.3-1.12-2.17-.94-2.07.28Z"/><path d="M503.3,450.31c6.58-.89,13.13-2,19.69-3,5-.8,11.34-.79,15.58-3.88,3.86-2.81,5.47-8.16,7.39-12.31q4.18-9,8.32-18.08c11-23.93,21.27-48.39,33.42-71.76,1.27-2.45,2.56-5.24,4.59-7.17,3.38-3.2,7.49-1.49,11.1.24A102.52,102.52,0,0,1,618,343c4.7,3.33,9.61,7,13.22,11.57,4.4,5.54,4.95,12.21,5.27,19a242.79,242.79,0,0,1-8,74.06c-3.43,12.76-7.37,27-14.06,38.43-4,6.87-11.5,7.6-18.6,9.19L573,500.4c-2.61.59-1.51,4.59,1.1,4L595,499.69c6-1.35,13.27-2.05,18.3-5.92,3.76-2.89,5.66-7.35,7.49-11.58q4.11-9.53,7.4-19.37a245.48,245.48,0,0,0,12.62-79.13c-.07-11.4.39-24-7.66-33-7.76-8.7-18.87-15.61-29.37-20.45-3.8-1.75-7.79-3-11.71-.83-4.31,2.35-6.49,7.48-8.6,11.64-6.85,13.47-12.89,27.36-19.19,41.09Q554.13,404.31,544,426.47c-1.65,3.61-3.05,7.5-5.06,10.92-2.53,4.3-6.46,4.76-10.95,5.54-8.49,1.49-17,2.84-25.45,4.52-1.91.38-1.05,3.1.79,2.86Z"/><path d="M495.09,451.19c3.33,6.61,4.34,14.09,5.78,21.28,1.33,6.66,1.89,14.26,4.59,20.49.59,1.36,2.69.6,2.68-.73-.05-7.38-3-15.35-4.58-22.54-1.52-6.81-2.77-13.67-6.17-19.85-.84-1.5-3.07-.17-2.3,1.35Z"/><path d="M415.64,492.61c-3.94-3.43-7.25-6.89-7.63-12.44-.26-3.72,1.16-7.31,0-11-.86-2.73-3.17-4-.11-7.51,1.5-1.71,4.48-2.81,6.43-3.88l11.55-6.3c2-1.09,4.68-3.21,6.93-3.62,3.28-.59,4.89,2.63,6,4.81a56.51,56.51,0,0,1,4.4,14.33c1.71,9,1.8,18.14,2,27.24.06,2.51,3.94,2.52,3.9,0-.21-12.77-.61-26.05-5-38.2-1.43-4-3.21-9.25-7.31-11.25-4.47-2.18-9,1.51-12.74,3.59-5.63,3.11-12,5.83-17.19,9.66-3,2.25-4.92,5.2-3.61,9a25.23,25.23,0,0,1,1.44,10.71,18.32,18.32,0,0,0,1,7.2,15.92,15.92,0,0,0,8.78,9.63c1.11.43,2-1.23,1.16-2Z"/><path d="M440.32,455.52c1.1-.88,8.68,4,10.46,4.35,3.44.7,7,.21,10.42-.21,9.5-1.14,19.46-1.65,28.79-3.78a1.76,1.76,0,0,0-.47-3.45c-10.79.31-21.53,3-32.29,4a22.93,22.93,0,0,1-7-.11c-2.23-.51-3.68-1.9-5.62-2.91-2.23-1.15-4.06-1.19-5.78.69a1,1,0,0,0,1.46,1.45Z"/><path d="M444,335.84c1.88,1.24,3.77,2.44,5.58,3.8s3.39,3,5.25,4.22,3.39-1.34,2.14-2.78c-2.86-3.29-7.56-6-11.47-7.8a1.48,1.48,0,0,0-1.5,2.56Z"/><path d="M440.16,347.26c1.8-2.55,3.56-5.12,5.39-7.64l-2.31.6a70,70,0,0,1,9.44,7c1.4,1.15,4-.39,2.74-2.11a26,26,0,0,0-10.48-7.86,1.74,1.74,0,0,0-2.31.61c-1.64,2.64-3.34,5.24-5,7.86-1,1.62,1.46,3,2.54,1.49Z"/><path d="M439.32,347.69c1.54,1.37,3.19,2.6,4.81,3.87.91.72,1.9,1.79,3.06,2.09s2.2-.31,3.2-.95a15.84,15.84,0,0,0,4.12-3.17c.92-1.14.12-3.31-1.59-2.73-2.24.77-3.81,2.62-5.92,3.64l1.38-.18c-1.18-.24-2.52-1.56-3.49-2.22-1.27-.87-2.53-1.77-3.86-2.57s-2.92,1.14-1.71,2.22Z"/><path d="M423.29,347.82c7.83,4.65,13.63,10.62,20.06,16.9,1.32,1.29,3.81-.44,2.65-2-5.28-7.3-13.46-13-21.25-17.36a1.45,1.45,0,0,0-1.46,2.5Z"/><path d="M426.2,346.18c.58-4.2,7.53,1.7,8.24,2.22,1.83,1.35,3.64,2.72,5.45,4.1q6.38,4.85,12.66,9.83l-.3-2.35a22,22,0,0,1-4.61,5.34c-1.91,1.63.82,4.24,2.72,2.72a22,22,0,0,0,5.23-6.1,2,2,0,0,0-.3-2.35c-7.18-5.62-14.37-11.85-22.21-16.53-3.19-1.9-10.07-3.3-9.41,2.78.14,1.3,2.31,1.91,2.53.34Z"/><path d="M387.5,402.05c14.4-15.43,27.53-31.8,43.12-46.15l-2,.26a140.6,140.6,0,0,1,13.91,9.7,1.83,1.83,0,1,0,2.23-2.89,123.93,123.93,0,0,0-14.46-9.68,1.69,1.69,0,0,0-2,.26c-14.93,14.73-30.67,29.72-42.78,47-.83,1.19,1,2.59,2,1.54Z"/><path d="M384.34,402.5a100.67,100.67,0,0,0,9,6.6c2.3,1.59,5.9,5.38,8.87,5.67,4.17.4,8.92-6.16,10.86-9.1,1.35-2-1.8-3.73-3.2-1.87a32.5,32.5,0,0,1-5.14,5.6c-3,2.47-3.58.75-6.39-1a134.36,134.36,0,0,0-12.62-7.68c-1.11-.54-2.46.91-1.4,1.83Z"/><path d="M431.85,382.28c2.74-1.48,4.94-4.41,6.93-6.75s4.33-4.71,5.28-7.51c.53-1.58-1.49-2.38-2.57-1.49-2.3,1.91-3.88,5-5.81,7.28s-4.24,4.18-5.66,6.64a1.35,1.35,0,0,0,1.83,1.83Z"/><path d="M420.82,379c-7.65,1.62-11.19,9.8-10.19,16.89,1.07,7.69,8.16,11,15.2,8.13,6.45-2.64,12.37-9,9-16.19-3.2-6.86-12.67-9.87-18.86-5.1a1.83,1.83,0,0,0,1.85,3.15c4.73-2.1,10.59-2.05,13.29,3.23,3,5.75-3.87,11.11-8.95,12-6.82,1.22-9.53-6-7.91-11.58,1.18-4.09,4.55-6.18,7.6-8.76.87-.74-.09-2-1-1.78Z"/><path d="M378.22,407.87c2.3-.66,2.23-.83,4.43.63s4.38,3.42,6.55,5.1q7.73,6,15.49,11.91v-3.46c-2.77,1.88-4.32,1.81-7.11-.14a78.06,78.06,0,0,1-6.6-5.73c-4.14-3.63-8.22-7.32-12.28-11-1.89-1.73-4.72,1.08-2.82,2.83q8.94,8.2,18.13,16.13c1.56,1.35,3.81,4.11,6.08,4.41s4.93-1.85,6.63-3a2,2,0,0,0,0-3.46q-10.49-8-21-15.9c-3.6-2.7-6.88-5.4-8.8.4a1.08,1.08,0,0,0,1.32,1.32Z"/><path d="M372.25,425.74a16.26,16.26,0,0,0,4.33-3.77c.8-1,1.54-3.47,2.56-4h-1.86c2.87,1.44,5.54,4.38,8,6.39.75.6,4.07,2.54,4.22,3.4.25,1.44-1.18,2.21-2.1,3.14-.6.61-1.92,2.42-2.89,2.61-.77.14-2.74-1.39-3.5-1.83a46.51,46.51,0,0,1-8-6.05c-1.87-1.71-4.61,1-2.79,2.8a42.66,42.66,0,0,0,7.62,6c1.77,1.1,5.05,3.59,7.27,3.38s3.78-2.82,5.08-4.15c1.5-1.54,4-3.39,3.8-5.85-.23-2.63-3.55-4.31-5.36-5.75-2.77-2.21-5.51-4.84-8.52-6.7-1.35-.84-2.44-1.18-3.76,0-.89.78-1.24,2.35-1.85,3.33a27.5,27.5,0,0,1-4.05,4.76,1.46,1.46,0,0,0,1.76,2.28Z"/><path d="M371,432.41c1.2.92,2.51,1.71,3.79,2.52a15.67,15.67,0,0,0,3.88,2.14,1.72,1.72,0,0,0,1.66-2.86,15.74,15.74,0,0,0-3.73-2.37c-1.32-.74-2.65-1.51-4-2.13a1.56,1.56,0,0,0-1.57,2.7Z"/><path d="M333.3,447.27c.27,1.28.48,2.57.7,3.86s.1,2.59.81,3.62a1.29,1.29,0,0,0,2.33-.31c.39-1.32-.22-2.73-.62-4a32.2,32.2,0,0,0-1.55-3.87c-.46-1-1.88-.25-1.67.71Z"/><path d="M397.27,446.35c-.21,1.18-.21,2.39-.31,3.58a12.5,12.5,0,0,0-.11,3.66c.27,1.23,2.36,1.65,2.9.37a8.47,8.47,0,0,0,.42-3.78,15.38,15.38,0,0,0-.46-3.83c-.33-1.12-2.21-1.3-2.44,0Z"/><path d="M334.26,447.46c10.22,1.24,21.18-.32,31.48-.36q15.76-.08,31.51.64c2.75.12,2.74-4.15,0-4.27-10.83-.48-21.66-.67-32.49-.51-10,.15-21.1-.5-30.85,1.94-1.54.38-1,2.39.35,2.56Z"/><path d="M336.82,456.07c10.32,1.12,21.27-.28,31.64-.63q15.84-.54,31.67-.84c2.23,0,2.24-3.53,0-3.47q-16.33.42-32.66,1c-10.13.38-21,0-30.91,2.05-1.14.24-.74,1.78.26,1.88Z"/><path d="M348.39,456.5c-2.57,4.51,3,7.72,6.05,9.95,4.59,3.33,9.61,7.86,15.69,7,1.24-.17,1.15-2.18,0-2.43a26.76,26.76,0,0,1-10.24-4c-2.77-1.87-11.3-5.92-10.25-10a.69.69,0,0,0-1.25-.53Z"/><path d="M376.43,456.48c.49.57,1.36,1.27,1.49,2s-.29.74-.79,1.16c-1.07.93-.12,2.44,1.05,2.55,1.81.16,2.94-2,2.89-3.53-.06-1.91-1.5-3.37-3-4.36s-2.6,1-1.65,2.13Z"/><path d="M378.87,460c13.64,5.84,30.38-2.11,38.94-13,4.92-6.25,7.42-13.57,8.52-21.39,1-6.95,2-14.71-1.55-21.07a1.5,1.5,0,0,0-2.59,1.51c3.35,5.91,2.05,14,1,20.46a39.65,39.65,0,0,1-7.74,18.68,35.61,35.61,0,0,1-16.33,11.47c-6.62,2.24-13,1.82-19.85,1.83-.74,0-1.18,1.18-.41,1.51Z"/><path d="M433,400.14c7.72,14.49,9,30.55,1.89,45.56-.86,1.81,1.79,3.42,2.73,1.59,7.64-14.94,7.12-34.42-2.76-48.24a1.08,1.08,0,0,0-1.86,1.09Z"/><path d="M357.89,484.88c2.17-2.38,4.54-4.58,6.76-6.92,2-2.09,4.37-4.11,5.9-6.58.43-.69-.48-1.73-1.19-1.19-2.31,1.76-4.11,4.28-6,6.46-2.12,2.44-4.1,5-6.28,7.4-.51.56.32,1.39.83.83Z"/><path d="M355.23,484.52c.18,2.05.49,4.08.8,6.12.34,2.22.43,4.67,1.22,6.78a1.26,1.26,0,0,0,2.46-.34c.14-4.06-1.52-9-2.88-12.78-.29-.8-1.69-.76-1.6.22Z"/><path d="M357.51,486.51c14.66.84,29.55-.23,44.24-.22a1.51,1.51,0,0,0,0-3c-14.61-.39-30-.55-44.36,2.37-.51.1-.36.84.12.87Z"/><path d="M358.11,493.89c18.9-1.48,37.35.72,56.19,1.51,1.76.07,1.67-2.49,0-2.68-9.61-1.12-19.44-1.4-29.11-1.75-9.13-.34-18.28-.38-27.3,1.32a.82.82,0,0,0,.22,1.6Z"/><g class="cls-9"><path class="cls-2" d="M473.94,315.16a17.11,17.11,0,0,1,3.51.32c1.5.43,1.17,1.47,1.25,2.85a27.88,27.88,0,0,0,1,7.11,1.06,1.06,0,0,0,2.07-.28,22.15,22.15,0,0,0-.26-5.63c-.15-1.24-.11-3.12-.74-4.24a2.11,2.11,0,0,0-1.93-1.11c-.59,0-1.34.34-1.92.37-1,0-2-.12-2.94-.17-.5,0-.5.75,0,.78Z"/></g><path d="M319,500.94c-.41,4.93,1.09,10.16,2,15,1,5.49,1.55,11.24,3.3,16.54.35,1.07,2.11.95,2.06-.28-.25-5.36-1.65-10.71-2.67-16s-1.45-10.82-3.7-15.54c-.24-.49-.91-.19-.94.26Z"/><path d="M568.13,496.15c0,6,.66,12,1.12,18,.41,5.35.22,11.21,1.81,16.36a1.11,1.11,0,0,0,2.16-.29c.77-5.79-.55-12.16-1.06-18-.48-5.46-.79-11-1.72-16.38-.23-1.34-2.31-1-2.31.31Z"/><path d="M319,499.11c10.49,1.16,21.34.5,31.88.51h29.89l61.77,0c41.18,0,82.36-.14,123.53.12a1.6,1.6,0,0,0,0-3.19c-41.17.26-82.35.1-123.53.12l-61.77,0H350.83c-10.54,0-21.39-.65-31.88.51a.93.93,0,0,0,0,1.85Z"/><path class="cls-10" d="M443.32,444.91c4-5.7,8.7-10.92,13.22-16.26l14.16-16.74h-1.09l2.81,2.6v-1.15a338.15,338.15,0,0,0-29.14,40.24c-.55.92.84,1.71,1.43.83,9.16-13.7,18.48-27.1,28.86-39.92a.82.82,0,0,0,0-1.15l-2.87-2.54a.79.79,0,0,0-1.09,0l-15.42,18.29q-3.85,4.58-7.7,9.16c-1.53,1.83-3.83,3.9-3.88,6.45a.38.38,0,0,0,.71.19Z"/></g></svg>