<svg id="ref" xmlns="http://www.w3.org/2000/svg" viewBox="0 0 305 305"><title>Artboard 2</title><path d="M28.7,81.12c.53,11.48,3.44,23.2,5.42,34.51,1.71,9.71,3.65,19.89,9.43,28.12,4.59,6.52,12,11.63,20.17,8.69,7.39-2.64,11.86-10.56,13.21-17.89a3.2,3.2,0,0,0-5.82-2.45c-2.81,4-6,11.62-11.4,12.56-7.54,1.31-12.38-10.48-14.15-15.88C40.41,113,40.21,96,35.11,80.25c-1.09-3.36-6.59-3-6.41.87Z"/><path d="M21.78,124.12c6.72.74,14.57-3.08,20.22-6.43a50,50,0,0,0,15.72-14.63c2.22-3.19-2.9-7.2-5.43-4.19a61.69,61.69,0,0,1-14.56,13c-5.46,3.37-11.65,4.59-17.22,7.52-2.42,1.28-1,4.45,1.27,4.7Z"/><path d="M29.21,89.79C39,86.85,51,83.35,58.66,76.23c2-1.87-.12-4.92-2.55-4.38-4.77,1.07-9,3.4-13.43,5.41-5,2.27-10.07,4.38-15.16,6.39-3.71,1.47-2.33,7.35,1.69,6.14Z"/><path d="M102.85,79.93c-6.19-7-18.22-3.33-23.65,2.69C72,90.54,71.4,103.16,73,113.2c1.29,8.42,9.49,18.94,19,13.31,4.14-2.44,5.53-7.24,6.44-11.63,1.59-7.68,3-15.41,4.47-23.11l-5.84,1.54c7.1,7.58,13.9,15.75,21.59,22.73,3.26,3,7.42-1.43,4.75-4.75-6.52-8.09-14.25-15.37-21.4-22.92-1.71-1.8-5.35-1.05-5.84,1.54-1.53,8.16-2.77,16.44-4.61,24.53-.92,4-3.17,8.73-7.9,5.68-3.55-2.3-4.19-7.17-4.49-11-.54-7-.32-15.18,4-21.07s10.86-6.77,17.32-4.13c2.4,1,3.73-2.39,2.32-4Z"/><path d="M133.44,66c-6.15,1.87-12.22,6.19-13.08,13-.73,5.85,2.86,10.59,7.72,13.44C133.69,95.72,140.55,96,146,99.5c3.48,2.23,5.87,5.85,2.24,9.32s-9.37,2.28-13.81,2.44c-3.68.14-4.68,5.65-.89,6.6,7.29,1.84,16.13,1.13,21.18-5.11,4.21-5.2,3.39-12.2-1.32-16.75-5-4.82-11.67-5.7-17.89-8-3.34-1.22-8-3.25-8.26-7.33-.29-4.58,4.94-7.59,8.48-9.29,3.07-1.46.91-6.44-2.3-5.46Z"/><path d="M154.3,72c6.67,2.51,13.4,4.83,20.13,7.18s13.37,5.22,20.25,6.77c3.65.83,6.47-4.67,2.69-6.39-6.42-2.91-13.44-4.71-20.14-6.87-7.08-2.29-14.14-4.6-21.27-6.72-3.92-1.16-5.36,4.64-1.66,6Z"/><path d="M188.94,56.18c-.44,11.33-.25,22.69.35,34q.44,8.25,1.14,16.48c.46,5.3.25,11.44,2.21,16.4,1.51,3.82,6.44,3.06,6.94-.94.67-5.25-.91-11.16-1.46-16.43q-.84-8.22-1.43-16.48c-.77-11-1.18-22-1.54-33-.13-4-6.05-4-6.21,0Z"/><path d="M63.84,189.5a90.23,90.23,0,0,0,20.93-4.95c6.2-2.33,13.7-4.91,18.54-9.54,2.51-2.4-.06-7.07-3.46-5.94-6.19,2.05-11.76,6.14-17.87,8.6a156.89,156.89,0,0,1-18.9,6.19c-3,.79-2.52,6,.76,5.64Z"/><path d="M76.77,185.51a182.19,182.19,0,0,0,7.7,26.7Q86.6,217.85,89,223.4c1.73,4,3.15,9.19,6.64,12,1.87,1.52,5.29.72,5.16-2.14-.16-3.82-2.23-6.84-3.87-10.22q-3.24-6.69-6.07-13.55c-3.39-8.3-6.56-16.79-9.44-25.27a2.4,2.4,0,0,0-4.63,1.28Z"/><path d="M109.71,192.32c7.8,7.29,25.66,7.7,28.59-5,2.58-11.18-10.39-19.31-20-15-12.29,5.5-13,20.48-7.56,31.13,5.11,9.92,18.17,20.36,29.35,13,4-2.6.52-8.44-3.71-6.34-13.11,6.51-26.66-17.09-19.33-27.36,3.44-4.82,12.45-6.67,14,1,.73,3.64-2.34,5.72-5.47,6.57-4.49,1.21-8.73-.19-12.74-2.15-2.52-1.24-5.42,1.95-3.15,4.08Z"/><path d="M173,165.15c-5.07-5.36-13.09-4-18.37.4-6,5.07-8.23,13.54-7,21.11,2.56,16.45,22.06,24.83,35.95,15.84,3.89-2.52.45-8.51-3.64-6.24-8.86,4.89-21.14,2-24.59-8.23a18,18,0,0,1,.94-13.66c2.41-4.72,8.65-8.77,13.51-5,2.47,1.92,5.25-2.08,3.24-4.2Z"/><path d="M171.24,153.73c6.13,14.45,13.41,28.46,20.53,42.45a4,4,0,0,0,6.8,0c2.28-4.43,2.72-8.9,2.71-13.82,0-3.84-.57-10.12,2.86-12.91,4.61-3.76,9.57,2.76,11.61,6.29,2.45,4.26,4.22,8.83,8.28,11.81,3.18,2.33,6.58-2.06,5-5-4.76-9.1-12.71-25.77-25.79-21.69-5,1.57-8.06,6.35-9.26,11.23-1.6,6.56.78,14-2.24,20.14h6.8c-7.41-13.82-14.33-27.92-21.93-41.63-2-3.62-6.92-.43-5.4,3.16Z"/><path d="M253.89,117.51c-3.5,21.56-7.32,43.06-10.7,64.63l-4.92,31.41-2.61,16.69-1.23,7.85c-.22,1.42-.44,5-.88,5.68l3.84-3-.43.08,5.95,1.58,1,1.75-2.56,6.3.33-.21c4.22-2.62,2.92-8.16-1.28-9.83l-.38-.15a5.4,5.4,0,0,0-5.43,1.43c-2,2.44-2.93,5.6-1,8.48,1.21,1.8,3.24,3.34,5.55,3.18,5.19-.38,7.65-3.66,8.35-8.56.84-5.9,1.45-11.84,2.18-17.75l4.48-36.48c2.95-24,5.46-48,8.28-72,.56-4.8-7.72-6-8.5-1.15Z"/><path d="M224.38,154.38c8.71,5.14,17.45,10.15,25.76,15.92s15.84,12.51,24.22,18.08c5.46,3.62,10.81-4.23,6.73-8.73-6.79-7.51-15.79-13.55-24.21-19.11a188.71,188.71,0,0,0-27.14-15.33c-6.1-2.71-11.38,5.61-5.36,9.17Z"/></svg>