<svg xmlns="http://www.w3.org/2000/svg" viewBox="0 0 197 327"><defs><style>.a{opacity:0.61;}.b{fill:#2957ae;}.c{opacity:0.36;}</style></defs><title>Design Thinking Case Study</title><g class="a"><path class="b" d="M127.47,67.17c5.12,7.73,1.31,18.7-1.67,26.6-.29.76-1.47,2.62-1.37,3.39-.61.75-.51,1,.28.74,1.21-.11.84-.1-1.08,0a51,51,0,0,1-6.88-.29A42.43,42.43,0,0,1,102,92.84a19.52,19.52,0,0,1-3-1.75c-1.2-1-.18-.32-.12.29-.2-2.11,1.84-5.45,2.83-7.31.64-1.19,1.86-4.28,3.06-5s5.13,0,6.61.08,3.24.11,4.85.19,4.2,1.14,1.51-.91c-2.38-1.81-1.08-.9-1.3.61-.18,1.24.13,2.57,0,3.83-.11,1-.11,3.2-1.52,3.25-1.64,0-1.28-1.57-.93-2.6l-10.87,2.87c2,2.56,1.74,5,7.35,3.69a35.09,35.09,0,0,0,3.22-1.45c3.09-1.09,6.26-1.82,9.25-3.18a19.47,19.47,0,0,0,10.55-11.13l-12.59-3.47c-1.79,8.14-4.44,16.55-5.25,24.85-.77,7.82,4,12.32,11,14.72l-4.8-6.31q4.25-3.78,1.41-3.19a11.54,11.54,0,0,1-3-.41,20.07,20.07,0,0,1-5.88-2.33c-3.73-2.17-6.93-4.75-11-6.42-5.89-2.44-17.52-3.33-20.18-10.26-2.78-7.23-14.44-4.28-11.82,3.26,2.12,6.09,6.35,10.4,12,13.42,6.15,3.3,13.33,4.07,19.23,7.84,6.08,3.87,11.64,7.33,19.06,7.87,6.76.49,12.61-2.61,13.27-9.78.28-3-2.24-5.42-4.8-6.3-2.32-.8-1.41-.28-1.21-2.44a61.92,61.92,0,0,1,1.47-6.69l3.16-14.36c1.83-8.34-9.58-11.2-12.59-3.47-1.07,2.77-5.74,3.65-8.1,4.4-3.12,1-6.36,1.93-9.14,3.73-5.39,3.5-8.25,10.66-4.45,16.42,3.93,6,12.32,5.61,16.31-.06,4.45-6.31,1-12.88-3.2-18.15-3.26-4.13-9.47-1.26-10.87,2.87-5.07,15,15.28,26.25,24.8,13.22,3.79-5.2,4.72-15.35,1.91-21.24-3.55-7.45-14.77-6-21.61-5.89-8.14.07-12.29,4.41-16,11.36C87.26,83.83,83.16,93,88.79,99.17c5.07,5.52,14,8.6,21.18,10.09,6.29,1.32,17,3.32,22.34-1.41,3.09-2.75,4.36-7.84,5.55-11.66a74.93,74.93,0,0,0,2.8-12.71c1-7.75,1.11-16.88-5.3-22.4-4.07-3.49-11.24,1-7.89,6.09Z"/></g><path d="M139.33,32.27c-13.72,2.76-27.12,5.51-41.06,7.16-6.26.74-12.51,1.5-18.73,2.49-4,.63-11,.43-13.52,4-1.17,1.67,1.29,3.27,2.67,2.06,1.73-1.51,6.06-1.57,8.2-1.95,3-.54,6-1,9.07-1.44,6.83-1,13.69-1.73,20.53-2.63,11.25-1.49,23.34-2.8,33.82-7.4,1.38-.61.35-2.58-1-2.32Z"/><path d="M139.78,33.1c-4.75,7.37,0,17.18-7.23,23.66-6.16,5.51-17.47,9-25.55,9.81-4.68.45-9.88-.37-13.41-3.73C91,60.33,89.85,56.65,87,54.34c-5.57-4.49-18.54-.07-21-7.87a1.91,1.91,0,0,0-3.68,1c2.74,11.14,16.83,4.46,23,10.44,3.13,3,4.33,7.13,8.22,9.57a21.22,21.22,0,0,0,12.64,2.83c8.88-.61,20.38-4.4,27.47-10,8.59-6.76,6.11-17,7.8-26.56a.89.89,0,0,0-1.63-.68Z"/><path d="M135.17,61c6.91,7.92,5,18.93,3.33,28.42-.94,5.42-1.73,10.91-2.87,16.3-1.51,7.1-10.56,6-16.2,6.37-6.57.43-11.33.55-16.72-3.86A73.32,73.32,0,0,0,92.09,101c-8.52-4.78-19.36-10.21-20.24-21.24-.2-2.48-4.1-2.5-3.9,0,1,12.34,11.65,18.73,21.44,24.2a70,70,0,0,1,9.5,6c2.06,1.64,3.94,3.53,6.34,4.69,5.91,2.85,13.73,1.13,20,.61,4.53-.38,9.9-.44,12.4-4.92,1.34-2.41,1.46-5.74,1.89-8.38q.95-5.88,1.9-11.74c1.67-10.31,3.68-22.76-4.56-30.87-1.08-1.06-2.62.53-1.65,1.65Z"/><path d="M93.66,67.55c-3.38,5.2-6.07,10.87-9.06,16.31-.91,1.67-.85,2.39-3,2.54s-1.68,0-2.58-1.46a11.4,11.4,0,0,0-3-3.41c-1.61-1.19-3.5,1.38-2.11,2.74C76.77,87,79.19,94.1,84.27,90.2c2.51-1.93,3.66-5.78,5-8.5,2.22-4.38,4.6-8.72,6.46-13.26.52-1.26-1.43-1.94-2.11-.89Z"/><path d="M60.31,49A17,17,0,0,0,45.59,66.25c.28,6.66,8.34,16.86,15.65,11.73.78-.55.89-2.17-.3-2.33-2.47-.35-4.94,0-7.22-1.27-3.41-1.92-4.93-5.9-4.8-9.65.23-6.87,5.69-11.35,11.7-13.38,1.2-.4,1.1-2.5-.31-2.34Z"/><path d="M73,67.94c-5.16-.64-1.09-5.73-.07-7.83a3.79,3.79,0,0,0-.16-4c-1.88-2.66-6.32-3.16-9.23-2.58a10.41,10.41,0,0,0-7.63,6.27c-1.29,3.2-1.31,8.08,1.49,10.52,1.14,1,3.28.07,2.73-1.59C59,65.32,57.53,62,60.4,58.84a7.42,7.42,0,0,1,5.07-2.28c1.72-.07,5.09.23,4.27,2.64-.48,1.44-1.76,2.46-2.12,4a5.79,5.79,0,0,0,.27,3.63,4.46,4.46,0,0,0,5.28,2.69c1-.26.65-1.52-.22-1.62Z"/><g class="c"><path class="b" d="M108.55,46.38c-.71.6-1.39,1.27-2.14,1.8a21.41,21.41,0,0,0-2.12,1.14,2.23,2.23,0,0,0-.81,2.09c.16,1.41,1.39,2.91,2.06,4.08a24.49,24.49,0,0,0,3.4,4.94,1.12,1.12,0,0,0,1.86-1.07,28,28,0,0,0-3.38-6.16c-.58-.9-1.8-2-1.5-3.15s2.37-2.38,3.21-3.09c.4-.34-.18-.91-.58-.58Z"/></g><path d="M97.76,112.61c-1.52,3-2.19,6.36-3,9.6s-1.76,6.6-1.81,10c0,1.8,2.44,2,3,.41,1.15-3.24,1.52-6.79,2.28-10.13.69-3,1.7-6,2-9.17a1.34,1.34,0,0,0-2.47-.67Z"/><path d="M114.17,120.68c5,7.59,9.18,15.19,11.24,24.12,1.24,5.39,1.74,11.77,7.7,13.87L131.87,157c-.08,5.31-.4,10.79.26,16.06a1.6,1.6,0,0,0,3.19,0c.38-5.31-.06-10.73-.08-16.06a1.72,1.72,0,0,0-1.24-1.63c-4.07-1.31-4.47-6.34-5.23-9.83a63,63,0,0,0-3.12-10.24,51.21,51.21,0,0,0-9.88-15.9,1,1,0,0,0-1.6,1.24Z"/><path d="M126.26,119.39c1.15,1.34,2.29,2.68,3.4,4a1.56,1.56,0,0,0,2.44-.31,124.35,124.35,0,0,1,8.17-14.95,24.2,24.2,0,0,1,2.76-4c.81-.8,3.4-2.61,4.5-2.13,1.8.78,1.43,3.79,2.84,5,.91.81,1.71.66,2.72,1,1.62.47,1.67-.26,2.73,1.38.29.45.14,1.26.53,1.74a3.45,3.45,0,0,0,2.19,1.43c2.24.41,3.33,0,5.51,1.38,1.16.71,2.42,1.2,3.55,1.83,3.7,2,3,4.79,2.29,8.42a137.16,137.16,0,0,1-4.54,16.66c-2.55,7.46-9.85,17.79-3.07,24.93,1.63,1.71,4.2-.87,2.59-2.6-4.89-5.24,2.58-16.62,4.45-22.18a109.55,109.55,0,0,0,4.87-19.38c.45-3.21.48-7.29-2.94-8.89-2.16-1-3.88-1.18-5.95-2.59a8.34,8.34,0,0,0-4.05-1.6c-1.43-.25-1,.5-1.76-.4-.38-.46-.1-1.49-.44-2.09a3.81,3.81,0,0,0-3.15-1.7c-2-.22-1.86.76-3.61-1.27-.51-.59-.52-1.83-1.08-2.54a5.36,5.36,0,0,0-3.32-1.86c-3.6-.65-6.27,1.76-8.26,4.46a97.5,97.5,0,0,0-10.21,18.36l2.44-.32c-1.3-1.19-2.56-2.41-3.82-3.63s-2.83.56-1.78,1.78Z"/><path d="M127.78,176.38c4.28,3.73,10.91.9,15.79-.17,8-1.74,16.53-2.85,24.23-5.53,1.67-.58,1.56-3.53-.44-3.31-5.82.65-11.57,2.44-17.26,3.78l-8.37,2c-3.65.86-8.91,3.09-12.45,1.32-1.18-.59-2.62,1-1.5,1.94Z"/><path d="M39.06,110c13.6,6.15,28.24,10.14,42,16.06q10.15,4.37,20.06,9.25c6.35,3.12,12.63,7.43,19.31,9.72,1.51.52,2.93-1.75,1.62-2.79-5.5-4.36-12.72-7.15-19-10.19q-9.75-4.68-19.75-8.85c-13.8-5.76-28.69-12.36-43.5-14.83-.91-.15-1.69,1.18-.69,1.63Z"/><path d="M118.34,145.69c1.29,10.67,3,21.3,4.52,31.93,1.62,11.1,2.79,22.39,5.25,33.35.33,1.48,2.78,1.18,2.67-.36-.77-10.69-2.78-21.33-4.36-31.93-1.65-11.13-3.17-22.3-5.1-33.39-.29-1.67-3.19-1.3-3,.4Z"/><path d="M37.81,110.37a53.05,53.05,0,0,0-6,10.37c-1.5,3.21-3.44,6.74-3.63,10.31-.07,1.28,1.61,1.52,2.24.61,2-2.95,2.86-6.8,4.31-10.06s3.33-6.55,4.78-9.92c.43-1-.86-2.36-1.69-1.31Z"/><path d="M25,131.84c-14.59,25-13.67,56.9-14,84.85q-.25,24.78.4,49.55.33,12.39.89,24.76c.35,7.82-.2,16.61,1.74,24.21.51,2,3.12,1.33,3.34-.45.94-7.64-.58-16.07-.95-23.76q-.57-11.88-.93-23.77-.72-23.78-.59-47.57c.16-29.57.53-58.84,12.5-86.4.7-1.62-1.5-3-2.44-1.42Z"/><path d="M19.07,133.65c7.58,3,17.33,2.37,25.36,3.12q14.06,1.3,28.05,3.1,14.17,1.8,28.27,4.17,6.7,1.13,13.4,2.36c2.73.51,6.08,2,8.51.12a2.38,2.38,0,0,0,.83-3.16l-.24-.48a2.26,2.26,0,0,0-2.52-1l-.51.12a2,2,0,0,0-1.43,1.88v.35a1.76,1.76,0,0,0,2.63,1.52l.29-.19-2.36-.31-.1-.08,1.07-2.61c-1.39.8-6.26-.88-7.81-1.15l-5.76-1q-6.72-1.09-13.46-2.07-11.83-1.72-23.72-3.07Q57,133.84,44.43,132.92c-8-.59-17.58-2.43-25.36-.27a.53.53,0,0,0,0,1Z"/><path d="M120.13,31.7C113.55,20.13,103.37,6.63,89,5.27c-8.92-.85-18.67,2.56-27.18,4.82C54.51,12,45.42,13.51,39.41,18.52c-5.45,4.54-6.5,11.62-6.34,18.35.18,7.72.79,16.2,3.85,23.37a25.73,25.73,0,0,0,5.57,8.17,43.53,43.53,0,0,1,3.95,3.85c2.48,3.21,1.78,6.41,1.28,10.12-1.36,10.11-2.95,20.2-4.43,30.3-.36,2.49,3.45,3.55,3.81,1L50.9,87.2c.8-5.59,2.6-11.61-.92-16.59-2.09-3-5.28-4.9-7.38-7.86a28.29,28.29,0,0,1-4.26-10.89c-1.43-7-2.56-15.77-1-22.82C39.51,19.45,49,17.5,57.17,15.15c8.35-2.39,17-5,25.57-6.2,16.81-2.39,26.55,12.11,35.28,24,.91,1.24,2.9.17,2.11-1.23Z"/><path d="M108.47,18.71c-1.39,6.73-10.94,5.31-16.14,5.4-4.24.08-8.9-.35-13.06.68-8.06,2-7.32,11.8-6.63,18.44.17,1.6,2.78,2.32,3.08.42.79-5.13-1.35-13.12,4.49-15.46,2.09-.84,5.32-.45,7.56-.5l8.21-.2c6-.15,15-.39,15-8.44,0-1.41-2.21-1.79-2.51-.34Z"/><path d="M124.42,177.67c7.18,5.62,8.11,15.59,9.34,24,1.49,10.23,2.1,21.2,4.84,31.17a1.24,1.24,0,0,0,2.42-.32c-.4-11.6-3.39-23.64-5.29-35.09-1.34-8.06-3.43-16-10.46-20.88-.65-.45-1.49.62-.85,1.11Z"/><path d="M168.21,172c3.27,8.05,6.53,16.08,9.3,24.31,2.59,7.69,3.9,16.23,7.16,23.61.67,1.51,3.21.75,3.1-.84-.56-8.17-4.35-17-7.14-24.59a189.26,189.26,0,0,0-10.24-23.4c-.62-1.17-2.69-.35-2.18.91Z"/><path d="M143.15,233.78c6.81.73,14.34-.89,21-2.17,6.85-1.31,14-2.76,20.43-5.57,2.26-1,.59-4.31-1.61-3.83-6.72,1.48-13.22,3.79-20,5.18s-13.71,1.61-20.28,3.35c-1.79.48-1.23,2.86.41,3Z"/><path d="M26,196.81a79.08,79.08,0,0,1,10.94-16.1c4.07-4.56,9.19-10,15.34-11.55,7.18-1.78,12.5,4.27,16.83,9q7.08,7.78,14,15.7,27.5,31.26,53,64.17c1,1.24,2.83.6,3.55-.46a10.57,10.57,0,0,0,1.94-7.83c-.35-2.85-4.88-2.89-4.53,0a7.67,7.67,0,0,1-1.32,5.54l3.56-.45q-29.66-38.15-62-74.13c-7.62-8.48-16.51-20.4-29.33-14.65-11.38,5.11-20.21,17.89-25.5,28.72-1.12,2.29,2.24,4.31,3.45,2Z"/></svg>