<svg xmlns="http://www.w3.org/2000/svg" viewBox="0 0 434 201"><defs><style>.a{opacity:0.69;}.b{fill:#006837;}.c{fill:#22b573;}.d{fill:#ff0;}</style></defs><title>Design Thinking Case Study</title><g class="a"><path class="b" d="M128.26,50.54c7.19-5.2,1.93-16.55-.91-23.08l-11.44,8.83c6.24,5.38,8.32,21.07,19.22,17.86,5.61-1.66,7.36-8.55,8-13.63.53-4.13.89-7.67,2.41-11.58,2.65-6.78-7.5-12.32-12.13-7.07-3.06,3.47-4.15,7.25-4.74,11.74-.4,3-.13,7-2,9.49l4.49-3.46-.92.24,7.3,1.93c-2-1.78-3.25-5.38-4.65-7.73a29.24,29.24,0,0,0-6.65-8.1c-6.42-5.13-15.16,1.09-11.44,8.84,1.72,3.59,2.84,7.37,4.27,11.07,1.22,3.19,5.48,7.35,9.22,4.65Z"/></g><g class="a"><path class="b" d="M115.25,80.48A88.09,88.09,0,0,0,126.6,81.7c1.84.11,3.69.26,5.53.3l3.7,0c2,.23,2.28.11.83-.36-1.83-4.2-.37,4.18-.46.85,0,1.4,1.28,3.16,1.88,4.42a37.62,37.62,0,0,0,6,8.62c2.26,2.51,5.71,5.85,8.89,7,1.18.43,1.47,1.24.63-.16.64,1.07.78,3.18,1,4.37.63,3.9,1.38,5.28-2.2,6.43a84.58,84.58,0,0,1-19.38,4c-4.78.32-12.37.68-16.08-3.1-2.36-2.41-4.29-9.85-3.53-13.22.59-2.61,4.22-5.5,6-7.22.65-.63,2.19-1.46,2.62-2.22.81-1.44.82.08-.79-.53l-5-2.9.8.71-2.9-5c1.78,4.27-1.2,12.64-1.28,17.66-.1,7,1.37,15.75,8,19.63,7.79,4.56,15.31.35,20.22-6l13.31-17.23L133.9,95c3.3,7.85,1.13,16.21,7.55,23.08,6.64,7.1,18,7.76,24.9.75,10.13-10.23-5.64-26-15.8-15.8q4.06-3,7.16-.23h.16a10.52,10.52,0,0,0-.18-2c-.5-4-.6-8-2.17-11.76-2.8-6.7-12.91-12.45-18.73-5L128.9,94.27,125.26,99l-1.82,2.34c-.91,1.07-1,1.25-.44.55l5.67-1.53.85.06,4.95,2.89,1.18,2-.18-.45a25.15,25.15,0,0,0-.11-3.48,66,66,0,0,1,.63-7c.7-5.57,1.77-11.21-.11-16.63-4.25-12.23-18.65-10.69-27.22-4.45s-17,15.55-17.8,26.7c-.7,9.52,2.57,21.7,9,28.89,14.27,15.89,41.16,11.31,59,5.43,10.29-3.38,17-10.81,17.82-21.83.67-8.84-1.73-21.1-9.26-26.52-3.53-2.54-7.45-3.88-10.13-7.52s-3.84-8.14-7.18-11.5c-4.4-4.42-10.27-5.07-16.17-4.61a98.51,98.51,0,0,0-18.73,2.88c-7.18,2-8,13.81,0,15.38Z"/></g><g class="a"><path class="c" d="M82.5,149.21c29.22,10,62.44,3.9,92.23-.24,7.61-1.06,6-11.91,0-13.91-8.46-2.79-16.76-3.52-23.8,2.79-4.79,4.3-.93,12.42,5.14,12.42A49.29,49.29,0,0,1,169.14,152V137.9a166.87,166.87,0,0,1-16.29,5.52c-9.36,2.63-5.16,15.38,3.89,14.13a50.19,50.19,0,0,1,13.13.17l-2-14.41a118,118,0,0,1-14.29,3.8c-8.2,1.64-6.23,14.54,2,14.43a67.84,67.84,0,0,1,13.72,1.12l-1.75-13.44A38.48,38.48,0,0,1,156,153.09c-8.25,1.49-6.23,14.64,2,14.47l13.75-.27c9.48-.19,9.51-14.95,0-14.75l-13.75.29,1.95,14.47A51.35,51.35,0,0,0,175,161.92c5.34-2.85,4.49-12.26-1.76-13.45a87.65,87.65,0,0,0-17.63-1.62l1.95,14.43a119.42,119.42,0,0,0,14.29-3.82c8.26-2.77,6.07-13.41-1.95-14.41a63.82,63.82,0,0,0-17,.37l3.89,14.13A162.68,162.68,0,0,0,173,152c6.3-2.51,7.57-12.08,0-14.1a63.45,63.45,0,0,0-17-2.18l5.15,12.42c2.41-2.19,7.15,0,9.67.83V135.06c-14.48,2.12-29,4.2-43.63,5s-28.93,0-43.37-1.18c-6.18-.5-6.71,8.49-1.39,10.31Z"/></g><g class="a"><path class="d" d="M120.46,64.36c4.84.41,12.35,1.32,16.47-1.72,3.48-2.57,3.31-8.06-1.23-9.43-2.7-.81-5.45-.13-8.18.27-2.35.35-4.69.58-7.06.7-6.61.32-6.49,9.64,0,10.18Z"/></g><g class="a"><path class="d" d="M137.51,91.45c-2.14-8.59-20.89,0-18.8,8.42,1.27,5.09,8.79,4.25,12.69,5.51,1.8.58,4.49,1.49,5.75,3,5.58,6.5-3.48,8.29-6.66,8.59-1.59.15-11.55-1.53-11.72-1,.58-1.84-2.13-2.93-3.08-1.3l-.24.41a1.8,1.8,0,0,0,.27,2.12c3.27,3.84,12.35,3.78,16.88,3s10-3.3,9.82-8.64c-.14-5.16-5.85-8-10.15-9.3-2.77-.84-10.42-.5-10.38-4.58C122,92.73,133,89,136,92.31a.89.89,0,0,0,1.47-.86Z"/></g><g class="a"><path class="d" d="M123.73,82.15c.2,5.85,1.15,11.7,1.89,17.51.33,2.6.67,5.19,1,7.79l.63,4.86c.36,2.81.24,2.33,2.49,4.5a1.49,1.49,0,0,0-2.46,1.43l.09.38a1.61,1.61,0,0,0,1.52,1.17h.47a1.66,1.66,0,0,0,1.6-1.21c.81-5.1-1.25-11.33-2-16.4-1-6.75-1.73-13.65-3.36-20.29a1,1,0,0,0-1.88.26Z"/></g><path d="M120.36,50.87A36.72,36.72,0,0,0,118,40.61c-.84-2.43-4.71-8.51-2.16-10.44,2.06-1.55,4.8-.73,6.8-2.94a5.1,5.1,0,0,0,1.22-4.91l-2.35,1.37a21.27,21.27,0,0,1,5.43,9.85,1.42,1.42,0,0,0,2.74-.75,24.09,24.09,0,0,0-6.18-11.1,1.43,1.43,0,0,0-2.36,1.37c1.07,5.7-11.24,2.77-9.83,8.79.74,3.16,3.06,6.36,4.22,9.44,1.24,3.29,2.08,6.72,3.46,10,.29.68,1.42.32,1.38-.38Z"/><path d="M128.9,32.73q3.47-.79,6.91-1.64a.92.92,0,0,0,.64-1.13,9.51,9.51,0,0,1-.77-3.86c.06-.81,1.41-5.64,3.17-4.77a26.84,26.84,0,0,0,.9,4.17c1.66,2.6,4,1.88,6.43,3.09a4.67,4.67,0,0,1,2.44,4.3c-.14.94-1.89,2.21-2.51,3A23.05,23.05,0,0,0,143.36,40a16.71,16.71,0,0,0-1.79,9.87c.18,1.32,2,.79,2.11-.29.68-5.24,1.92-8.81,5.2-12.9,1.38-1.72,3-3.45,2.86-5.82A4.67,4.67,0,0,0,149.25,27a11.55,11.55,0,0,0-3-.88c-3.73-1-3.34-.34-5.25-4.77-1.14-2.65-2.17-4.16-4.91-1.06a9.73,9.73,0,0,0-2.27,5.83c0,.42.41,2.87.34,3-.67,1.37-4.33,1.69-5.69,2.08a.79.79,0,0,0,.42,1.52Z"/><path d="M117.71,52.88c7.71.19,15.52,1.61,23.19,1.51a.79.79,0,0,0,.21-1.54c-7.39-2-15.86-1.37-23.4-.72a.38.38,0,0,0,0,.75Z"/><path d="M117.21,52.79a2.88,2.88,0,0,0-1.62,4.15c1.55,3.24,6.7,2.66,9.56,2.74,3.26.1,23.87,2.75,19.35-6-.5-1-2.3-.58-2.15.58.56,4.35-10.7,2.93-12.58,2.93s-3.7,0-5.55,0l-2.77,0q-3,.51-3.65-3.41c.45-.38,0-1.24-.59-1Z"/><path d="M114.58,56.61c-1.43,1.56-3.48,4.61-2.23,6.71,2.07,3.45,11.21,2.23,14.15,2.11,3.34-.14,6.68-.26,10-.44,2.58-.14,6.29.39,8.68-.55,3.37-1.34,3.06-4.36,1.45-7.18-.74-1.31-2.66-.16-2,1.16l-.85,3.83-2.73.17-3.64.23c-3,.18-6.07.4-9.11.64-2.48.19-5,.46-7.45.51a23.39,23.39,0,0,1-2.9,0c-2.37.4-3.34-.54-2.91-2.84-.9-1.5-.68-2.55.66-3.17.8-.64-.42-1.91-1.14-1.13Z"/><path d="M111.39,63.88C107.22,77,95,85.13,89.55,97.49c-6.31,14.24,1.57,28.58,13.42,37,6.51,4.6,14.24,8.38,22.31,8.79,8.53.42,17.32-2.41,25.16-5.52,13.54-5.37,27.54-16.56,26.91-32.63C177,96.5,172,88.38,166.58,82c-5.81-6.83-14.24-11.47-18.61-19.47-.56-1-2.12-.11-1.56.91,3.26,6,8.71,10,13.64,14.44,5.82,5.27,10.93,11.85,13.76,19.23,6.06,15.84-5.36,30-19,36.73a75,75,0,0,1-23.8,7.43c-8.56,1-16.38-1.65-23.66-6-6.66-4-12.69-9.37-16-16.5a24.8,24.8,0,0,1,0-21.38c5.63-11.93,17.63-20.1,20.9-33.28a.43.43,0,0,0-.82-.23Z"/><path d="M140.59,91.73a10.21,10.21,0,0,0-11.11-6.64c-4.63.53-11.22,4.75-11.41,9.94-.21,5.84,9.1,6.47,13,8.35s11,6.12,3,9.29c-2.44,1-14,2.51-13.59-2.57.13-1.56-2.25-2.64-3.26-1.35-4,5.08,1.45,9.1,6.4,9.79,6.24.87,15.8.15,18.66-6.62,3-7-4.13-10.77-9.49-13.23-1.77-.8-3.56-1.54-5.4-2.18-2.24-.79-4.82-.47-3.36-3,3.09-5.43,10.58-4.49,14.09-.3a1.51,1.51,0,0,0,2.5-1.46Z"/><path d="M124.78,81c-.14,6.84,1,13.8,1.69,20.59.64,6.3.63,13.12,2.32,19.24.69,2.51,4.37,1.93,4.46-.61.25-6.73-1.47-13.91-2.34-20.59-.81-6.33-1.3-12.88-2.89-19.07a1.66,1.66,0,0,0-3.24.44Z"/><path d="M90.84,127.44a4.75,4.75,0,0,0,3.62.41c1.25-.3,1-2.43-.31-2.3a12.83,12.83,0,0,1-2.77-.11c-1.09-.13-1.4,1.5-.54,2Z"/><path d="M75.23,145.71c5.06-6.2,11.12-11.79,15.75-18.33.59-.83-.66-1.67-1.35-1-5.89,5.32-10.42,12.26-15.33,18.45-.52.65.39,1.58.93.92Z"/><path d="M76.05,146.19c16.71,1.93,34.25.84,51.06.81,17,0,34.09.45,51.06-.06a1.41,1.41,0,0,0,0-2.82c-17-.52-34.08,0-51.06-.07-16.81,0-34.34-1.11-51.06.81a.67.67,0,0,0,0,1.33Z"/><path d="M166.1,126.86c5.31,6.22,11.41,11.87,17.33,17.5a1.25,1.25,0,0,0,1.77-1.76,240.56,240.56,0,0,0-17.5-17.34,1.13,1.13,0,0,0-1.6,1.6Z"/><path d="M73.28,148.26c0,.91,0,1.82,0,2.73a1,1,0,0,0,2.08,0c0-.91,0-1.82,0-2.73a1.06,1.06,0,0,0-2.12,0Z"/><path d="M183,145.53c-.39,6.24-1.24,13.59.07,19.72a1,1,0,0,0,1.87,0c1.3-6.14.45-13.49.06-19.72a1,1,0,0,0-2,0Z"/><path d="M104.4,152.8c12.91,0,25.82.22,38.73.3q9.44.06,18.87.07c6,0,12.28.61,18.19-.36a1.18,1.18,0,0,0,0-2.26c-5.92-1-12.21-.38-18.19-.37q-9.44,0-18.87.07c-12.91.08-25.82.26-38.73.3a1.13,1.13,0,0,0,0,2.25Z"/><path d="M147.43,160.92c6.06.28,12.14.2,18.2.23,5.43,0,11.19.61,16.54-.39a.93.93,0,0,0,0-1.78c-5.36-1-11.1-.4-16.54-.38-6.06,0-12.14,0-18.2.23a1,1,0,0,0,0,2.09Z"/><path d="M151.87,167.17c5.69.06,11.38.48,17.08.22a1,1,0,0,0,0-2.06c-5.7-.26-11.39.16-17.08.22a.81.81,0,0,0,0,1.62Z"/><path d="M18.33,154.25a78.13,78.13,0,0,1,16.26,3.67c4.8,1.6,9.21,4.09,14,5.78,1,.37,1.45-1.08.69-1.64-8.55-6.33-20.61-8.35-30.91-9.6-1.14-.14-1.14,1.67,0,1.79Z"/><path d="M17.63,196c7.38,0,14.65-.52,22-.07s14.76,1.23,22.13,2c14.82,1.52,29.66,3.23,44.51,4.42,14.42,1.16,27.52-4.55,41.05-8.75,14.45-4.5,29-8.61,43.5-13a1.36,1.36,0,0,0-.72-2.63q-21.84,6.15-43.51,12.92c-6.84,2.13-13.62,4.5-20.48,6.56a57.33,57.33,0,0,1-22.56,2c-14.58-1.35-29.15-2.78-43.74-4.12-13.67-1.25-28.8-3.57-42.33-.21a.46.46,0,0,0,.12.89Z"/><path d="M49.45,163.61c7.33-3.43,14.26-8.48,22.14-10.64s15.43,1.24,23.26,2.14c1.38.16,1.56-2,.31-2.35-7.11-2.15-16-4.52-23.41-2.51-8.1,2.21-16.38,7.07-23.1,12a.79.79,0,0,0,.8,1.37Z"/><path d="M87.67,175a302,302,0,0,0,36.72.79c5.65-.19,11.84,0,17.4-1.1,3.13-.64,5.36-2.21,6.3-5.38.84-2.79.89-6.94-.85-9.43-2-2.84-6.15-3.37-9.27-3.78-11.72-1.56-23.33,1.1-35.09-1a1.17,1.17,0,0,0-.62,2.25c7.41,2.63,15.43,1.72,23.13,1.27a90.49,90.49,0,0,1,12.43-.18c3.83.3,8.05.15,8.46,6.14.22,3.28-1.11,5.84-4.17,6.86-4.37,1.44-9.27,1.26-13.86,1.49s-9,.4-13.53.47c-9,.14-18-.12-27-.38-1.32,0-1.27,1.9,0,2Z"/><path d="M142.31,161.26a17.4,17.4,0,0,0-6.7.49c-1.48.41-3.28.91-4.14,2.31-1.77,2.85.54,7.46,3.26,8.78.67.33,1.45-.52.84-1.08-2.07-1.89-5.55-6.21-1.51-8.19,2.44-1.19,5.58-1.51,8.25-1.71a.3.3,0,0,0,0-.6Z"/><path d="M135,162.61c-.19,2.83-.19,5.7-.34,8.55-.05,1.06,1.71,1.33,1.89.25a26,26,0,0,0,.09-9c-.18-1-1.58-.67-1.64.22Z"/><path d="M186.31,167.3a19.14,19.14,0,0,1,9,4.24c2.64,2.34,3.89,5.21,5.22,8.38.28.68,1.49.7,1.42-.2-.5-7.36-8.53-13.2-15.56-12.82-.22,0-.29.35-.05.4Z"/><path d="M188.77,182.33c2-.6,3.83-1.64,5.88-2.15s4.16-.45,6.22-.83c.58-.1.53-1,0-1.11-3.8-1-9.75.56-12.54,3.34a.45.45,0,0,0,.44.75Z"/><path d="M185.36,184.65a27.13,27.13,0,0,0,11.82-2.87c.56-.27.07-1.07-.48-.82a41.6,41.6,0,0,1-11.41,3.19c-.3,0-.22.51.07.5Z"/><path d="M201,177.26a25.68,25.68,0,0,0,5.64-1.08c.59-.22.57-1.29-.16-1.2a25.71,25.71,0,0,0-5.57,1.6c-.33.12-.32.73.09.68Z"/><path d="M185.22,161.56a12.74,12.74,0,0,1,6.23-1.15c2.25.21,3.9,1.38,5.92,2.19.42.17.9-.43.61-.8-2.84-3.71-9.57-3.6-13.19-1.25-.49.32-.18,1.27.43,1Z"/><path d="M188.37,165.85c2.89-1.27,7.55-2.36,10.72-1.57,3.86,1,5.15,7.37,6.32,10.57a.9.9,0,0,0,1.73-.47c-.6-3.42-2.7-10.74-6.57-11.88s-9.6.35-12.87,2.21c-.76.43-.09,1.48.67,1.14Z"/><path d="M164.5,172.25a15.25,15.25,0,0,0,.23,7c.3,1.16,1.9.63,1.74-.49a33.45,33.45,0,0,1-.18-6.25.91.91,0,0,0-1.79-.24Z"/><path d="M219.92,75.39c-4.07-3.52-9.51-3.12-13.34.6-3,2.88-6.54,9.31-2.53,12.7,5.27,4.45,16.1,1.72,20.24,8.14,3.59,5.58-6.62,4.87-9.13,4.84A20.65,20.65,0,0,1,203,98c-1.89-1.31-3.79,1.49-2.36,3.06,4.47,4.89,11.14,5.49,17.43,5.15,4.4-.24,12.12-.46,12.24-6.48.11-5.85-7.12-9.35-11.78-10.88-3-1-7.95-1-10.49-2.74-5.53-3.75,4.79-12.94,10.4-8.89,1.09.79,2.45-1,1.44-1.85Z"/><path d="M209.66,65.53c.42,7.86,1.46,15.7,2.34,23.52.8,7.09.64,15.32,2.93,22.09a2,2,0,0,0,3.95-.53c.63-7.54-1.66-16-2.64-23.52-1-7.34-1.79-14.74-3.18-22-.36-1.91-3.51-1.48-3.4.46Z"/><path d="M233.3,71.94q0,9.72.24,19.44c.15,5.86-.33,12.31,1.12,18,.59,2.31,3.59,1.53,3.85-.52.75-5.93-.47-12.48-.79-18.45-.33-6.15-.57-12.31-.76-18.47-.07-2.34-3.66-2.36-3.66,0Z"/><path d="M246.41,74.87c-.6,4.93-.68,9.92-1,14.87-.13,2.18,2.5,2.74,3.9,1.62s3.25-2.81,5.2-3.4q4.35-1.69,4.93,3.71c-.45,1.1-.94,2.18-1.45,3.25-1.68,3.54-3.89,6.84-5.45,10.42-.88,2,1.65,4.62,3.35,2.58,3.16-3.79,5.38-8.56,7.32-13.08,1.25-2.92,2-6-.05-8.73-4.71-6.29-12.59-1.86-17.08,2l3.9,1.61c-.08-4.95.07-9.93-.31-14.87a1.64,1.64,0,0,0-3.28,0Z"/><path d="M250.79,77.79a49.75,49.75,0,0,0,13.43-5.85,1.87,1.87,0,0,0-1.88-3.22,99.56,99.56,0,0,1-12.56,5.43c-2.29.76-1.34,4.33,1,3.64Z"/><path d="M269.18,103a16.15,16.15,0,0,0-1.3,5.88,1.75,1.75,0,0,0,3.24.87,16.34,16.34,0,0,0,2.06-5.65,2.08,2.08,0,0,0-4-1.1Z"/><path d="M282.34,74.68a18.86,18.86,0,0,0-2.77,21.18c3.22,6,11.85,9.06,16.84,3.29s2.49-17-.44-23c-2.33-4.84-10.6-9.6-13.75-2.67a1.91,1.91,0,0,0,3,2.3c4.89-4.18,7.5,4.83,8.17,7.92.84,3.94,2.18,11.29-2.32,13.23-5.37,2.32-8.55-4-9.07-8.37A16.26,16.26,0,0,1,285,76.77c1.14-1.59-1.4-3.53-2.7-2.09Z"/><path d="M306.29,72.05c-3.07,6.13-4.41,16.58-.34,22.65,3.63,5.42,10.49,4.52,13-1.2,3-6.79.92-16.78-3.42-22.59-2.83-3.8-9.22-5.76-11.41-.38-.58,1.42,1.21,2.19,2.27,1.74,7.39-3.12,11.68,14.74,8.27,19.15-5.11,6.6-6.72-4.81-6.78-7.56-.08-3.72.74-7.37,1.21-11,.19-1.49-2.16-2-2.8-.76Z"/><path d="M329.35,71.07C321.64,71.32,321,85.76,323,91c2.43,6.57,10.5,10.1,16,4.83,6.31-6,5.47-17.37,2.32-24.71-2.73-6.36-10.65-11.85-15.92-4.84-1.52,2,1.71,4.32,3.42,2.64,5.52-5.42,9.12,6.21,9.66,9.68.58,3.74.61,8.39-1.43,11.78-2.89,4.77-8.44,3.24-9.95-1.92-.55-1.9-.7-13.14,2.29-13.47,2.44-.27,2.58-4,0-3.92Z"/><path d="M353.14,94.25c-.84,2.13-1.71,4.23-2.37,6.42s2.92,4,4,1.68,1.88-4.57,2.75-6.9a2.26,2.26,0,1,0-4.36-1.2Z"/><path d="M372.18,73.09c-8.61-.35-10.25,11-9.36,17.57.93,6.89,7.7,12.31,14.28,8.18,6.35-4,7.14-14.44,4.34-20.78-2.7-6.11-11.07-9.75-16.2-4.2-2.07,2.23,1,5.07,3.27,3.26,8.36-6.64,11.57,11.71,7.05,16.53s-8.09-1.76-8.19-5.91c-.09-3.49.16-11.18,4.81-11.23a1.71,1.71,0,0,0,0-3.42Z"/><path d="M385.36,74.89c-2.36,6.59-1.45,14.35,3.32,19.7s11.8,2.81,14.68-3.1c3.17-6.54.45-14.93-5-19.46-4.21-3.53-12.7-3.73-13.71,3A1.8,1.8,0,0,0,388,76.42c5.72-8.42,16.84,8.27,9.81,15-4.2,4-7.78-2.06-8.85-5.65a16.45,16.45,0,0,1,.25-9.82c.77-2.46-3-3.43-3.82-1.06Z"/><path d="M410.31,73.62c-2.51,6.47-3.41,16.11,2.05,21.45,5.29,5.16,12.32,2.28,14.84-4s1.3-14.49-4-19.12a13.7,13.7,0,0,0-17.56-.52c-2,1.59.55,4.61,2.64,3.42C416.81,70,425.1,78,423.22,87c-.38,1.8-1.26,4.51-3,5.45-3.44,1.81-5.77-2.12-6.52-4.6-1.3-4.28-.69-8.95.56-13.15.76-2.55-3-3.46-3.91-1.08Z"/></svg>