<svg xmlns="http://www.w3.org/2000/svg" viewBox="0 0 305 228"><title>Design Thinking Case Study</title><path d="M28.68,42.62c.53,11.48,3.44,23.2,5.42,34.51,1.71,9.71,3.65,19.9,9.44,28.13,4.59,6.53,12,11.64,20.19,8.7,7.4-2.64,11.87-10.57,13.22-17.9a3.22,3.22,0,0,0-5.85-2.47c-2.82,4-6,11.61-11.39,12.55-7.53,1.31-12.37-10.48-14.13-15.87-5.15-15.73-5.35-32.8-10.45-48.52-1.1-3.38-6.63-3-6.45.87Z"/><path d="M21.78,85.64c6.72.74,14.58-3.08,20.23-6.43A50.14,50.14,0,0,0,57.74,64.57c2.23-3.21-2.91-7.24-5.46-4.21a61.86,61.86,0,0,1-14.56,13C32.26,76.76,26.07,78,20.5,80.91c-2.44,1.28-1,4.47,1.28,4.73Z"/><path d="M29.22,51.31C39,48.37,51,44.87,58.67,37.74c2-1.88-.11-5-2.56-4.4-4.78,1.06-9,3.39-13.44,5.4-5,2.27-10.06,4.38-15.15,6.39-3.74,1.48-2.34,7.4,1.7,6.18Z"/><path d="M102.85,41.43c-6.09-7.11-18.29-3.29-23.67,2.67C72,52,71.38,64.65,72.93,74.7,74.22,83.14,82.44,93.66,92,88c4.14-2.44,5.53-7.25,6.45-11.64,1.59-7.68,3-15.41,4.47-23.11l-5.87,1.55c7.1,7.58,13.9,15.74,21.59,22.73,3.28,3,7.46-1.44,4.78-4.78C116.9,64.68,109.16,57.4,102,49.86c-1.71-1.82-5.38-1.06-5.87,1.55-1.53,8.16-2.77,16.43-4.61,24.52-.91,4-3.15,8.72-7.87,5.67-3.54-2.29-4.18-7.15-4.48-11-.54-7-.33-15.17,4-21.06S94,42.88,100.53,45.41c2.43,1,3.7-2.37,2.32-4Z"/><path d="M133.44,27.44c-6.16,1.88-12.24,6.2-13.1,13.05-.73,5.85,2.86,10.6,7.73,13.46,5.61,3.29,12.47,3.57,17.93,7.07,3.47,2.22,5.86,5.83,2.24,9.28s-9.36,2.28-13.8,2.44c-3.71.14-4.71,5.68-.9,6.64,7.31,1.84,16.15,1.13,21.21-5.12,4.21-5.2,3.39-12.21-1.33-16.77-5-4.82-11.67-5.71-17.89-8-3.33-1.21-8-3.24-8.25-7.31-.28-4.57,4.94-7.58,8.47-9.27,3.09-1.48.92-6.48-2.31-5.5Z"/><path d="M154.29,33.51C161,36,167.7,38.34,174.43,40.69s13.37,5.22,20.24,6.77c3.67.83,6.51-4.7,2.71-6.42-6.43-2.92-13.44-4.71-20.15-6.88-7.07-2.28-14.14-4.6-21.26-6.71-3.95-1.17-5.4,4.66-1.68,6.06Z"/><path d="M188.92,17.68c-.44,11.33-.25,22.69.35,34q.43,8.25,1.14,16.48c.46,5.3.25,11.44,2.21,16.41,1.51,3.84,6.47,3.08,7-1,.67-5.25-.91-11.16-1.46-16.43q-.84-8.22-1.43-16.48c-.77-11-1.18-22-1.54-33-.13-4-6.09-4-6.25,0Z"/><path d="M63.84,151a90,90,0,0,0,20.94-5c6.2-2.32,13.7-4.91,18.55-9.54,2.52-2.41-.07-7.1-3.48-6-6.2,2-11.77,6.15-17.87,8.6a157.47,157.47,0,0,1-18.9,6.19c-3.06.8-2.54,6.09.76,5.68Z"/><path d="M76.77,147a172.16,172.16,0,0,0,7.69,26.7q2.12,5.65,4.51,11.2c1.73,4,3.14,9.19,6.63,12,1.89,1.53,5.33.72,5.2-2.15-.17-3.82-2.23-6.84-3.88-10.23Q93.7,177.85,90.86,171c-3.4-8.3-6.51-16.79-9.46-25.26A2.4,2.4,0,0,0,76.77,147Z"/><path d="M109.7,153.83c7.81,7.31,25.68,7.71,28.62-5,2.58-11.19-10.41-19.33-20-15-12.3,5.51-13.06,20.49-7.57,31.16,5.12,9.93,18.19,20.37,29.38,13,4-2.61.52-8.49-3.73-6.37-13.09,6.5-26.63-17.08-19.3-27.34,3.43-4.8,12.42-6.66,13.94,1,.71,3.63-2.34,5.71-5.47,6.55-4.48,1.21-8.71-.19-12.72-2.15-2.54-1.24-5.46,2-3.17,4.11Z"/><path d="M173,126.64c-5.07-5.37-13.11-4-18.39.39-6,5.08-8.24,13.55-7.05,21.14,2.57,16.46,22.08,24.85,36,15.85,3.91-2.54.45-8.55-3.66-6.28-8.85,4.89-21.12,1.95-24.56-8.22a17.89,17.89,0,0,1,.94-13.64c2.4-4.71,8.63-8.75,13.48-5,2.49,1.93,5.28-2.1,3.26-4.23Z"/><path d="M171.23,115.23c6.13,14.46,13.4,28.47,20.52,42.46a4,4,0,0,0,6.84,0c2.28-4.43,2.72-8.91,2.71-13.83,0-3.83-.58-10.11,2.85-12.9,4.6-3.74,9.55,2.77,11.58,6.29,2.46,4.26,4.23,8.83,8.29,11.81,3.2,2.35,6.61-2.07,5-5.05-4.76-9.11-12.72-25.78-25.81-21.7-5,1.57-8.07,6.36-9.26,11.25-1.61,6.55.77,14-2.25,20.13h6.84c-7.42-13.82-14.33-27.92-21.93-41.63-2-3.64-7-.44-5.43,3.17Z"/><path d="M253.89,79c-3.5,21.55-7.35,43.05-10.73,64.62l-4.92,31.42-2.61,16.68-1.23,7.86c-.22,1.41-.46,5-.88,5.66l3.86-3-.43.09,6,1.58,1,1.77-2.58,6.34.33-.21c4.25-2.64,2.94-8.21-1.29-9.89l-.38-.16a5.42,5.42,0,0,0-5.46,1.45c-2.06,2.44-2.94,5.63-1,8.51,1.21,1.82,3.26,3.37,5.58,3.2,5.21-.37,7.68-3.67,8.38-8.59.84-5.9,1.46-11.84,2.18-17.75l4.49-36.48c3-24,5.42-48,8.24-72,.56-4.8-7.72-6-8.5-1.15Z"/><path d="M224.37,115.91c8.7,5.15,17.44,10.15,25.75,15.92s15.85,12.51,24.23,18.08c5.49,3.64,10.87-4.25,6.77-8.78-6.8-7.51-15.8-13.56-24.23-19.12a188.6,188.6,0,0,0-27.13-15.33c-6.14-2.73-11.46,5.65-5.39,9.23Z"/></svg>