<svg xmlns="http://www.w3.org/2000/svg" viewBox="0 0 258 315"><defs><style>.a{opacity:0.28;}.b{fill:#880070;}</style></defs><title>Design Thinking Case Study</title><g class="a"><path class="b" d="M153.72,190q2,1.19,1.74-.27c1.12,2.47,4.15,3.76,6.69,3.84a87.22,87.22,0,0,0,11-.29c1.82-.17,3.63-.39,5.44-.63l2.32-.31c1.11,0,.8-.15-.92-.4,9.58,6.4,19.21-9.85,9.05-15.5-4.52-2.52-8.82-1.75-13.66-.73-5.05,1.06-10.16,1.84-15.25,2.65-2.68.42-4.63,3-5.41,5.41l-.18.54,2.77-3.6a5.13,5.13,0,0,1-3.55,1.38c-3.88.66-4,7.33,0,7.91Z"/></g><g class="a"><path class="b" d="M139.32,177.39c3.38-6.89,4.58-16.89,1.39-24-2.45-5.43-12.25-4.25-13.18,1.72-.53,3.39,0,6.49.06,9.89,0,3.05-.34,6.09-.28,9.13.12,6,9.07,9.24,12,3.25Z"/></g><g class="a"><path class="b" d="M131.09,186.07l.48,0L127,183.46c-.54-2.08-.76-1.92-.65.5a23,23,0,0,0,0,3.89c0,2,.12,3.89.17,5.84.11,4.22.3,8.44.51,12.66.45,8.76,0,17.73,2.14,26.28,1.6,6.46,12.57,7.11,13.72,0,1.72-10.54,0-21.56-1.19-32.13-.58-5.13-1.33-10.32-2.33-15.39-.83-4.2-1.85-8.09-6.34-9.45a5.27,5.27,0,0,0-5.16,1.37l-.33.35a5.16,5.16,0,0,0,3.6,8.69Z"/></g><g class="a"><path class="b" d="M43.61,211.83c-4.88,10.13-5.43,23.54-1.15,34,3.86,9.4,15.18,20.82,25.95,13.93,4.74-3,5.26-10.42,0-13.34s-8.91-3.82-10.67-10.14c-1.93-6.88.11-13.86-.7-20.78-.74-6.27-10-10.83-13.43-3.64Z"/></g><g class="a"><path class="b" d="M132.53,300.15c5.91-5.06,7-15.85,7.15-23.16.2-8.18-.73-17.78-7.62-23-3.64-2.75-9.07.24-10.14,4.13-1.72,6.26,1.43,13.25,1.5,19.71s-2.44,13-1.56,19.49c.71,5.19,7.5,5.54,10.67,2.81Z"/></g><path d="M91.92,97.88c-4.94,5.78-12.41,6-19.45,6.78a71.05,71.05,0,0,0-20.81,5.39c-5.77,2.5-9.61,5.76-11.6,11.85A154.65,154.65,0,0,0,34.43,146c-1.25,8.11-1.42,16.42-3.83,24.32-2.47,8.1-7,15.36-10.89,22.8A109.55,109.55,0,0,0,7,237.2c-.8,12.17,1.12,32.32,17.77,31.78,2.2-.07,2.21-3.43,0-3.43-22.24-.06-13.87-38.83-10.17-51.19C19.7,197.21,32,182.82,35.3,165.12c1.74-9.43,2.16-19,4.32-28.36,1-4.16,1.93-8.37,3.16-12.46,1.67-5.59,4.44-8.69,9.71-11.11,8.1-3.73,16.52-4.9,25.25-6.09,6.13-.83,12.45-2.3,15.79-8,.57-1-.84-2.15-1.61-1.24Z"/><path d="M38.33,272.87c8-5.3,17.1-8.32,25.63-12.64,5.39-2.73,13.61-7,11.87-14.37a1.44,1.44,0,0,0-2.75,0c-2.23,8.51-10.81,11.49-18.19,14.87-6.32,2.9-13,5.24-18.33,9.86-1.24,1.07.39,3.2,1.77,2.28Z"/><path d="M55.76,256c-11.22-7.7-12.46-20.77-12.41-33.35,0-3.55,0-7.46,3.21-9.8,1.9-1.39,4.55-1.73,6.79-2.33,3.53-.94,6.74-2.17,9.06-5.14,3-3.86,3.85-9.11,4.78-13.78,1.09-5.57,1.94-11.18,2.6-16.81.22-1.86.08-4.9,2.67-5.32,1.16-.19,3.41,1.12,4.43,1.65a19.46,19.46,0,0,1,6.75,5.77c4.47,6,4.66,13.79,1.37,20.39a2,2,0,0,0,2.64,2.64c2.39-1.22,5.08-2.56,7.86-2.44s7.72,3.45,4.68,6.91a2,2,0,0,0,.87,3.32q5.84,2.49,1.62,6.31a2.05,2.05,0,0,0,0,2.84c3.61,3.88,1,6.66.53,10.79-.56,4.68,2.85,9.21-3.31,11.44-7.81,2.83-17.34,0-24.81-2.42-2-.63-3.37,2.47-1.45,3.44A40.57,40.57,0,0,0,91.19,244c4.65.06,10.83-.13,14.47-3.5,4.34-4,.9-9.39,2.1-14.27s1.4-8.37-2.24-12.27v2.84a7.33,7.33,0,0,0-3.4-13l.88,3.32c3-3.47,2.34-8.48-1.16-11.46-4.73-4.05-11.3-1.68-16.14.85l2.64,2.64c5.83-12.1,1.13-26.93-11.68-32.12-4.25-1.72-8.52-2.05-9.86,3.11-1,4.06-1,8.62-1.64,12.78-.71,4.57-1.49,9.18-2.64,13.66-1.33,5.17-3.53,8.63-8.8,10.29-2.58.82-5.35,1.16-7.76,2.45-5.13,2.74-5.85,7.93-5.86,13.25,0,12.64,1.18,29.73,14.93,35.08,1.06.42,1.56-1.16.73-1.73Z"/><path d="M52.48,210.52c.1,8.81.45,18.19,2.67,26.79,1.72,6.65,8.39,9.88,14.24,12.59a1.29,1.29,0,0,0,1.31-2.23c-2.61-1.84-5.5-3.18-8.24-4.83-3.88-2.34-5-5.17-5.85-9.35a151.8,151.8,0,0,1-3.06-23,.54.54,0,0,0-1.07,0Z"/><path d="M110.13,130.59c1.88,37.21,15.79,72.83,29,107.27.77,2,4,1.12,3.24-.89-13.59-34.69-26.48-69.35-31.81-106.44,0-.23-.42-.18-.41.06Z"/><path d="M142.85,235c1.23-23.79,3.73-48.66,12.32-71.08,2-5.09,4.75-9.78,6.83-14.81a99.24,99.24,0,0,0,4.62-16c2.58-11.24,5-22.51,4.88-34.1a1.61,1.61,0,0,0-3.22,0c.13,12.21-2.58,24.11-5.34,35.93A81.81,81.81,0,0,1,157,152.48a106.87,106.87,0,0,0-6,13.82A198.82,198.82,0,0,0,141.51,235a.67.67,0,0,0,1.34,0Z"/><path d="M144.57,302.49c-2.39.27-4.76.47-7.15.61l1.22,1.23c1.19-16.12,6.76-33.35-2.56-48.11-.85-1.33-3-.1-2.12,1.24,9,14.3,3.38,31.27,2.23,46.87a1.23,1.23,0,0,0,1.23,1.22c2.39-.13,4.76-.33,7.15-.6,1.55-.18,1.56-2.63,0-2.46Z"/><path d="M170.12,102.43c10.09.25,18.2,5.94,27,10.12,7.25,3.44,14.81,6.17,22.24,9.19,8.72,3.53,16.37,7.37,21.68,15.45,4.85,7.37,5.76,15.17,5.56,23.78-.41,17.82-3.14,35.81.69,53.46,2.06,9.53,3.76,18.44,3.32,28.26s-2.2,19.3-4.1,28.82c-1,4.79-2,9.57-2.87,14.38-.5,2.67-.92,5.35-1.38,8-.67,3.87-2.22,6.1-6.35,7.36s-9.68.3-13.95.5a44.41,44.41,0,0,0-14.37,2.85c-1.45.57-.82,2.95.66,2.37a44.9,44.9,0,0,1,15.45-2.82c4.61-.14,9.78.43,14.3-.71,7.45-1.86,7.05-11.88,8.18-17.81,3.68-19.39,8.94-39.06,6.25-58.93-.68-5-2.2-9.81-3.15-14.78a99.34,99.34,0,0,1-1.59-17.89c-.08-10.42,1-20.8,1.31-31.21.26-8.12,0-15.65-3.64-23.06a36.38,36.38,0,0,0-15.5-16.14c-9.87-5-20.66-8.16-30.7-12.84-9.51-4.43-18.18-10.56-29-10.82a1.23,1.23,0,0,0,0,2.45Z"/><path d="M124.83,264.35c3.12,9.16,4.48,18.48,2.21,28-.41,1.74-2.09,4.61-.86,6.31s5.3,1.3,7.1,1.33c1.47,0,1.88-2.37.36-2.63-1.29-.22-3.32-.07-4-1.15-.82-1.23.29-3.31.56-4.73A47.69,47.69,0,0,0,131,282a43.32,43.32,0,0,0-4.21-18.46,1.09,1.09,0,0,0-2,.84Z"/><path d="M37.73,277.27c6.87,9.8,23.7,9.86,34.38,10.81a217,217,0,0,0,23.64.82c8.52-.17,17.43-1.84,25.82.11,2.06.48,2.93-2.68.87-3.16-6.67-1.54-13.29-.79-20.06-.44-7.25.37-14.52.38-21.77,0-13.41-.65-30.41-.66-41.43-9.29-.74-.58-2.1.18-1.45,1.12Z"/><path d="M79.38,252.7c8.12,2,16.23,4.21,24.26,6.61,6.13,1.84,14.21,6.41,20.66,4.9a1.13,1.13,0,0,0,0-2.16c-14.84-3.67-29.29-8.53-44.39-11.28-1.24-.22-1.79,1.61-.53,1.93Z"/><path d="M117,131.74c1.94,6.63,7.19,10.42,12.39,14.57,1.07.86,3.25,2.07,3.87,3.29,1.55,3-1.84,4.43-3.63,6.17a45,45,0,0,0-7.92,9.85c-.75,1.34,1.16,3,2.22,1.7,3.37-4.09,6.49-8.19,10.45-11.75,2-1.84,3.84-3.27,2.42-6.13s-5.73-5-8.27-6.8c-4.38-3-8.66-6.24-11.28-11a.14.14,0,0,0-.25.11Z"/><path d="M117.78,155.28a15,15,0,0,0,2.07,4.28c.87,1.52,1.76,3,2.74,4.5a1,1,0,0,0,1.77-1c-.94-1.62-2-3.18-3-4.73a14.16,14.16,0,0,0-2.84-3.58c-.38-.29-.81.19-.73.56Z"/><path d="M143,151.26c9.59-6.38,19.34-15.7,23.27-26.78.23-.64-.73-1.23-1.17-.68-3.72,4.7-5.92,10.19-10.09,14.67-4,4.28-8.66,7.68-12.9,11.65-.59.55.19,1.6.89,1.14Z"/><path d="M137.81,151c-.33,1.78,3.18,6.48,4,8.6,1.16,3.06,1.4,6.34,2.49,9.38a1.28,1.28,0,0,0,2.5-.34c.36-4.11-1.64-8.7-3.46-12.32-.93-1.85-3.12-6.88-5.73-6.82a.8.8,0,0,0-.74.57l-.11.37a.59.59,0,0,0,.4.71l.25.08a.33.33,0,0,0,.41-.23Z"/><path d="M146.46,168.52a30.08,30.08,0,0,0,6.16-4c.43-.38-.12-1-.6-.77a30.41,30.41,0,0,0-6,4.25c-.29.25.08.67.39.51Z"/><path d="M94.47,82.25c-.24-3.44-2.84-11.74-7.7-8.08-2,1.49-2.09,4-1.72,6.27.79,4.74,3.1,9.72,4.92,14.16a65.08,65.08,0,0,0,14.64,22c3.42,3.41,7,6.68,10.12,10.39s5.58,7.82,9.41,10.76a22.94,22.94,0,0,0,34.77-9c2-4.49,2-9.45,4.18-13.86,1.84-3.64,4.4-6.9,5.78-10.78,1.27-3.58,0-7.14,1.07-10.51,1-3.13,4.67-3.8,5.62-7.49s-.13-7.87-1-11.42-2-9.54-4.71-12.05c-3.94-3.66-6.08,3.55-6.22,6.43-.09,1.81,2.69,1.79,2.8,0,.05-.77.39-3.78,1.17-4.13s2.47,5,2.69,5.69c1.24,3.68,2.55,8,2.5,11.94,0,2.63-.52,4.2-2.77,5.76-1.11.77-2.32,1-3.18,2.16a6.06,6.06,0,0,0-.94,4.39c.18,2.77.94,4.92.08,7.71a25.33,25.33,0,0,1-2.31,4.81,72.22,72.22,0,0,0-4.53,8.22c-1.45,3.53-1.62,7.39-3,10.92a20,20,0,0,1-7.41,9.17,19.51,19.51,0,0,1-23.29-1.4c-3-2.58-5.21-6.05-7.74-9.11a90.51,90.51,0,0,0-7.7-8c-6-5.71-11.56-11.44-15.43-18.89A116.43,116.43,0,0,1,89.16,85.8c-.44-1.16-1.85-3.8-1.84-5q3.09-7.47,5.33-2.13A7,7,0,0,1,94,82.31c.05.27.49.21.48-.06Z"/><path d="M93.93,84a29,29,0,0,0,1.62-14.07C94.72,64,90.08,58.38,93.32,52.6c2.66-4.75,7.36-9.59,12.75-11s11.1-1,16.48-1.81c4.94-.79,9.06-3.09,13.77-4.27,5.21-1.3,10.57,2.26,13.84,6.09,7.06,8.23,7.28,19.72,11.39,29.39.6,1.42,2.67.2,2.07-1.21-4.55-10.71-4.53-23.36-13.56-31.77a18.85,18.85,0,0,0-10.55-5.11c-2.94-.35-3.76,0-6.27,1.25a38.65,38.65,0,0,1-10.52,3.18c-6,1-12.91.29-18.71,2.4-4.43,1.62-7.9,5-10.69,8.67-3.24,4.3-4.67,7.82-2.91,13.1,2.59,7.7,4.1,13.81,1.2,21.84-.52,1.46,1.8,2.09,2.32.64Z"/><path d="M88,72.53c-2.69-6.86-6-13.37-6.24-20.9-.24-8.33,3.73-14.65,9.79-20C96.79,27,102.49,22.83,108,18.49,114.41,13.4,121,7,129.82,7.83c7.59.68,14.23,5.47,20.11,10,5.59,4.26,11.94,8.41,16.74,13.56,5.43,5.82,7.17,14.34,8.11,22a81.48,81.48,0,0,1-.87,25c-.39,2.11,2.84,3,3.24.89,2.88-15.12,3.47-36.48-7-49.09-5.32-6.37-13.22-11.33-19.86-16.24-6.3-4.65-13.69-9.29-21.8-9.32-7.86,0-13.81,4.86-19.65,9.5-7.19,5.72-15,11.1-21.56,17.6-11.35,11.35-10.16,29.09-.69,41.43.48.63,1.79.31,1.44-.6Z"/><path d="M78.15,157.58c-.19,3.78-.6,7-4,9.12a1.4,1.4,0,0,0,1.08,2.55c5.11-1.1,5.64-7.48,5.57-11.67a1.31,1.31,0,0,0-2.61,0Z"/><path d="M141.83,255.66c7.87-.08,15.42,2.44,23.26,2.74a73.88,73.88,0,0,0,22.54-2.51c1.14-.33,1-2.24-.3-2.15-7.79.6-15.3,2.72-23.21,2.42-7.53-.28-14.73-2.36-22.29-1.55-.66.07-.7,1.06,0,1Z"/><path d="M194.57,253.49c5.8,0,3.72-14,3.31-17a124.61,124.61,0,0,1-1.25-17.68c0-6.16,1-12.41.62-18.55-.07-1.15-1.88-1.55-2.13-.28-1.64,8.19-1.48,17.32-1,25.65.21,3.89.75,7.69,1.33,11.54.67,4.48,2.25,12-1.08,15.77a.35.35,0,0,0,.24.59Z"/><path d="M146.51,306.86c9.77.53,19.55.89,29.34.86,9,0,18.82.51,27.66-1.43,1.27-.28.87-2-.28-2.13-9.29-.77-19,.59-28.36.64s-18.92-.2-28.36-.83c-1.86-.12-1.86,2.79,0,2.89Z"/><path d="M125.85,164.26c1.1,4.39,2.08,9.08,3.87,13.26.2.47.84.1.77-.33-.74-4.44-2.46-8.88-3.9-13.14a.38.38,0,0,0-.74.21Z"/><path d="M142,164a40.72,40.72,0,0,0-2.85,7.2c-1,2.68-2,5.35-2.75,8.11-.19.69.9,1.22,1.21.51,1.1-2.53,1.9-5.18,2.77-7.79a43,43,0,0,0,2.36-7.83c.06-.41-.56-.51-.74-.2Z"/><path d="M130.36,178.75c-.74,2.83-.65,6-.78,8.9q-.22,4.88-.26,9.77c0,6.19-.2,12.6.74,18.74.11.72,1.22.51,1.23-.17.14-6.18-.47-12.38-.48-18.57,0-2.93,0-5.87.12-8.8.09-3.2.6-6.59.22-9.76-.05-.42-.66-.58-.79-.11Z"/><path d="M134.24,178.43c1.5,6,3.13,12,4.3,18.13,1.21,6.36,2,12.76,2.63,19.2.11,1,1.67,1,1.59,0a141.89,141.89,0,0,0-7.45-37.62.55.55,0,0,0-1.07.29Z"/><path d="M130.38,179.41a33.18,33.18,0,0,0,5,1.16c.53.07.78-.83.28-1a32.76,32.76,0,0,0-4.95-1.48.71.71,0,0,0-.37,1.36Z"/><path d="M34.05,271.66c-6.12-1.76-12.64-3.91-19-4.63-.68-.07-.69.9-.15,1.11a69.66,69.66,0,0,0,9.35,2.51c3.14.76,6.28,1.54,9.44,2.2a.62.62,0,0,0,.33-1.19Z"/><path d="M152.72,179.17q4,0,8,0c2.36,0,4.85.24,7.16-.31a.64.64,0,0,0,0-1.22,31.73,31.73,0,0,0-7.16-.15q-4,.07-8,.18a.75.75,0,0,0,0,1.5Z"/><path d="M157.44,178.83c-.11,5-.39,10-.27,15a.8.8,0,0,0,1.6,0c.25-5,.1-10,.12-15a.73.73,0,0,0-1.45,0Z"/><path d="M165.68,181c-.74,3.33-1.52,7.57,1.33,10.15,1.91,1.75,5.2,2.22,6.89-.08,1.81-2.45.7-6-1.13-8.11a8.48,8.48,0,0,0-8.37-2.79c-.79.22-.67,1.57.2,1.48,3.84-.38,9.38,2.45,8.38,7.15-.63,2.92-3.91,2.39-5.37.49-1.69-2.19-1-5.41-.48-7.89.19-.94-1.24-1.35-1.45-.4Z"/><path d="M178.47,191.53a68.25,68.25,0,0,1,2-13.49l-1.37.18,5.34,10.16a.79.79,0,0,0,1.34,0q3.26-4.32,6.52-8.65l-1.45-.19c.83,4.53.65,9,1.16,13.52.08.7,1.21,1,1.36.18.8-4.55-.09-9.63-1-14.12-.15-.75-1.08-.69-1.45-.19l-6.49,8.67h1.34l-5.38-10.14a.76.76,0,0,0-1.37.18,53,53,0,0,0-1.82,13.89.63.63,0,0,0,1.25,0Z"/></svg>