<svg xmlns="http://www.w3.org/2000/svg" viewBox="0 0 451 247"><defs><style>.a{opacity:0.69;}.b{fill:#006837;}.c{fill:#22b573;}.d{fill:#ff0;}</style></defs><title>Design Thinking Case Study</title><path d="M277.29,208.78a7.71,7.71,0,0,0-10.22-.36c-2.66,2-6.22,7.37-3.48,10.52,1.28,1.48,3.66,1.88,5.45,2.4,3.25.94,6.81,1.69,9.63,3.66q2.86,1.38,1.91,4.74l-1.8.29c-1.54.49-3.93.26-5.54.21a17.69,17.69,0,0,1-10.3-3.3c-1.54-1.11-3.06,1.22-1.93,2.51,3.79,4.31,9.61,4.77,15,4.54,3.5-.15,9.09-.39,9.28-5.05s-5.21-7.51-8.82-8.91c-2.53-1-7.1-1.12-9.16-2.71-4.31-3.31,4.29-10.45,8.78-7,.88.67,2-.79,1.18-1.53Z"/><path d="M269.12,200.54c.22,6.51.86,13,1.41,19.5.51,5.88.38,12.26,1.91,18,.5,1.87,3.11,1.36,3.24-.44.46-6.35-1-13.16-1.66-19.49-.61-6-1.18-12-2.11-17.92-.24-1.59-2.84-1.21-2.79.37Z"/><path d="M288.35,206.32c-.26,9.89-1.59,21,.29,30.69.37,1.94,2.95,1.21,3.15-.42.61-4.94-.1-10.16-.23-15.13s-.2-10.09-.22-15.14a1.5,1.5,0,0,0-3,0Z"/><path d="M312.93,232.41a13.28,13.28,0,0,0-1.18,4.78,1.44,1.44,0,0,0,2.65.72,13.41,13.41,0,0,0,1.81-4.6c.57-2.15-2.51-2.91-3.28-.9Z"/><path d="M324.32,209.53a15.43,15.43,0,0,0-2.68,17.3c2.52,4.9,9.56,7.69,13.73,3s2.39-13.82.09-18.89c-1.84-4.05-8.48-8-11.2-2.41a1.56,1.56,0,0,0,2.44,1.89c4.09-3.32,6,4.25,6.5,6.74.61,3.29,1.49,9.29-2.25,10.76-4.49,1.76-6.88-3.61-7.21-7.13a13.37,13.37,0,0,1,2.8-9.54c1-1.29-1.13-2.85-2.22-1.71Z"/><path d="M344,207.91c-2.58,4.82-3.86,13-1.05,18.08,2.41,4.34,8.17,4.91,10.65.37,2.91-5.32,1.51-12.7-1.18-17.83-1.83-3.49-7.56-7.17-10-2.21-.45.89.31,2.27,1.43,1.86,6.82-2.55,8.3,10.83,7,14.91-.84,2.63-3.52,2.64-5,.19-.71-1.19-.67-2.85-.74-4.2-.16-3.48.64-6.81,1.17-10.23.19-1.27-1.54-2.27-2.25-.94Z"/><path d="M297.56,212.9c-2.58,4.82-3.86,13-1.05,18.08,2.42,4.34,8.17,4.91,10.65.37,2.91-5.32,1.51-12.7-1.18-17.83-1.83-3.49-7.55-7.17-10-2.21-.44.89.32,2.27,1.43,1.86,6.82-2.55,8.3,10.82,7,14.91-.84,2.63-3.52,2.64-5,.19-.71-1.19-.67-2.85-.73-4.2-.17-3.48.63-6.81,1.16-10.23.2-1.27-1.53-2.27-2.25-.94Z"/><path d="M362.89,207.59c-6.12.44-7.1,11.2-5.76,15.76,1.63,5.53,8,9,12.87,4.93,5.56-4.65,5.2-14.35,2.69-20.44-2-4.89-8.11-10-12.66-4.58a1.78,1.78,0,0,0,2.52,2.52l5.39,1.31a9.24,9.24,0,0,1,1.06,2.19,18.53,18.53,0,0,1,1.08,3.87,16.21,16.21,0,0,1-.78,9.25c-1.92,4.23-7.38,4.25-8.64-.67-.49-1.92-.36-10.53,2.66-11,1.78-.27,1.37-3.27-.43-3.15Z"/><path d="M382.07,226.71c-.79,1.87-1.63,3.72-2.27,5.65s2.36,3.19,3.27,1.38,1.63-3.72,2.39-5.6-2.57-3.36-3.39-1.43Z"/><path d="M397.93,210.2c-7-.48-8.62,8.83-8,14.24.63,5.67,6.1,10.2,11.57,6.93,5.26-3.15,6.1-11.71,3.93-16.94s-8.86-8.14-13.18-3.72c-1.44,1.47.52,4.3,2.29,3,7.11-5.33,9,7.72,6.74,12-.93,1.79-3,3.47-5.19,2.33-1.67-.88-2.23-3-2.36-4.76-.22-2.9.11-10.31,4.22-10.24,1.82,0,1.78-2.68,0-2.8Z"/><path d="M408.71,212c-2.08,5.34-1.48,11.74,2.32,16.2s9.63,2.49,12.09-2.3c2.72-5.28.65-12.22-3.69-16-3.41-3-10.3-3.25-11.27,2.23a1.47,1.47,0,0,0,2.68,1.13c4.85-6.73,13.64,7.26,7.65,12.58-3.54,3.15-6.32-1.95-7.1-4.92a13.6,13.6,0,0,1,.45-8c.69-2-2.38-2.77-3.13-.86Z"/><path d="M429.17,211.52c-2.2,5.27-3.11,13.12,1.26,17.61,4.12,4.24,9.87,2.15,12.12-2.77s1.62-11.3-2.13-15.29-10.28-5.1-14.7-1.71c-1.78,1.36-.29,4.2,1.8,3.08,7.12-3.78,13.71,3.08,11.92,10.34-.35,1.42-1.12,3.74-2.64,4.37-2.93,1.2-4.59-1.84-5.2-4-1-3.51-.34-7.37.77-10.75.69-2.09-2.4-2.8-3.2-.89Z"/><path d="M26.12,209.44c-4.06-3.52-9.5-3.12-13.33.6-3,2.88-6.55,9.32-2.53,12.7,5.27,4.46,16.1,1.72,20.23,8.14,3.6,5.58-6.61,4.87-9.13,4.84a20.69,20.69,0,0,1-12.12-3.65c-1.88-1.3-3.78,1.5-2.35,3.06,4.47,4.89,11.14,5.49,17.43,5.15,4.4-.24,12.12-.46,12.24-6.48.11-5.85-7.13-9.34-11.78-10.88-3-1-8-1-10.5-2.74-5.52-3.75,4.79-12.94,10.41-8.88,1.08.78,2.45-1,1.43-1.86Z"/><path d="M15.86,199.59c.42,7.85,1.46,15.7,2.35,23.51.8,7.09.64,15.33,2.92,22.09a2,2,0,0,0,4-.53c.63-7.54-1.66-16-2.64-23.52-.95-7.34-1.79-14.74-3.18-22-.36-1.92-3.51-1.49-3.41.46Z"/><path d="M39.62,208.93c-.6,4.92-.68,9.92-1,14.87-.14,2.17,2.49,2.74,3.9,1.61s3.25-2.81,5.2-3.4c2.89-1.12,4.54.11,4.93,3.72-.45,1.09-.94,2.17-1.46,3.24-1.67,3.54-3.88,6.84-5.44,10.42-.88,2,1.65,4.62,3.35,2.59,3.16-3.8,5.38-8.57,7.32-13.09,1.25-2.92,2-6-.06-8.73-4.7-6.29-12.59-1.86-17.07,2l3.9,1.62c-.08-5,.07-9.93-.31-14.87a1.64,1.64,0,0,0-3.28,0Z"/><path d="M44,211.84A49.75,49.75,0,0,0,57.43,206a1.86,1.86,0,0,0-1.88-3.21A101,101,0,0,1,43,208.2c-2.29.76-1.34,4.33,1,3.64Z"/><path d="M62.38,237a16.35,16.35,0,0,0-1.29,5.88,1.75,1.75,0,0,0,3.23.87,16.28,16.28,0,0,0,2.07-5.65,2.08,2.08,0,0,0-4-1.1Z"/><path d="M75.55,208.73a18.86,18.86,0,0,0-2.77,21.18c3.22,6,11.85,9.07,16.84,3.29s2.49-17-.44-23c-2.33-4.85-10.6-9.61-13.75-2.67a1.91,1.91,0,0,0,3,2.3c4.89-4.19,7.5,4.83,8.17,7.91.84,3.94,2.18,11.29-2.32,13.24-5.37,2.31-8.55-4-9.08-8.38a16.33,16.33,0,0,1,3.07-11.75c1.14-1.59-1.4-3.53-2.7-2.09Z"/><path d="M99.5,206.1c-3.07,6.14-4.41,16.59-.35,22.65,3.63,5.42,10.5,4.53,13-1.2,3-6.79.92-16.78-3.42-22.59-2.83-3.79-9.22-5.75-11.41-.38-.58,1.42,1.21,2.2,2.27,1.75,7.39-3.12,11.68,14.73,8.26,19.14-5.1,6.6-6.71-4.81-6.77-7.55-.08-3.73.74-7.38,1.21-11.06.19-1.49-2.16-2-2.8-.76Z"/><path d="M122.56,205.13c-7.72.24-8.33,14.69-6.4,19.92,2.43,6.58,10.51,10.11,16,4.83,6.31-6,5.47-17.37,2.32-24.71-2.73-6.36-10.65-11.85-15.92-4.84-1.52,2,1.7,4.33,3.42,2.64,5.51-5.42,9.11,6.21,9.65,9.68.59,3.74.62,8.39-1.42,11.78-2.89,4.77-8.44,3.24-10-1.92-.55-1.9-.7-13.14,2.29-13.47,2.44-.27,2.58-4,0-3.91Z"/><path d="M146.34,228.3c-.83,2.13-1.7,4.24-2.37,6.43s2.93,4,4,1.68,1.88-4.58,2.75-6.91a2.29,2.29,0,0,0-1.58-2.78,2.32,2.32,0,0,0-2.79,1.58Z"/><path d="M165.39,207.14c-8.62-.34-10.25,11-9.36,17.58.93,6.89,7.7,12.3,14.28,8.17,6.35-4,7.14-14.44,4.34-20.77-2.7-6.11-11.07-9.75-16.2-4.21-2.07,2.23,1,5.08,3.26,3.26,8.37-6.63,11.58,11.71,7,16.53s-8.08-1.76-8.19-5.91c-.08-3.48.16-11.17,4.82-11.22a1.72,1.72,0,0,0,0-3.43Z"/><path d="M178.57,209c-2.36,6.58-1.45,14.34,3.31,19.7s11.81,2.81,14.69-3.11c3.17-6.54.45-14.92-5-19.46-4.21-3.53-12.69-3.73-13.7,3a1.81,1.81,0,0,0,3.28,1.39c5.71-8.43,16.84,8.26,9.81,15-4.2,4-7.78-2.05-8.85-5.65a16.45,16.45,0,0,1,.25-9.82c.77-2.46-3-3.43-3.82-1.05Z"/><path d="M203.52,207.67c-2.51,6.47-3.41,16.12,2,21.45,5.29,5.16,12.32,2.28,14.84-4s1.29-14.49-4-19.11a13.7,13.7,0,0,0-17.56-.53c-2,1.6.55,4.61,2.64,3.43,8.54-4.85,16.84,3.13,15,12.11-.38,1.8-1.26,4.51-3.05,5.45-3.43,1.81-5.76-2.11-6.51-4.6-1.3-4.28-.7-9,.56-13.15.76-2.55-3-3.46-3.91-1.08Z"/><g class="a"><path class="b" d="M165.94,36.49c7.19-5.21,1.94-16.56-.9-23.09l-11.45,8.83c6.24,5.39,8.33,21.08,19.23,17.86,5.6-1.65,7.35-8.55,8-13.63.52-4.13.88-7.67,2.41-11.58,2.64-6.77-7.5-12.31-12.14-7.06-3.06,3.46-4.15,7.24-4.74,11.74-.39,3-.13,7-2,9.48l4.5-3.46-.93.24,7.31,1.93c-2-1.78-3.26-5.38-4.65-7.73a29.34,29.34,0,0,0-6.65-8.09c-6.43-5.14-15.17,1.08-11.45,8.83,1.73,3.6,2.85,7.37,4.27,11.08,1.23,3.18,5.49,7.35,9.22,4.65Z"/></g><g class="a"><path class="b" d="M152.93,66.42a84.69,84.69,0,0,0,11.35,1.22c1.84.12,3.69.26,5.54.3l3.69,0q3,.36.83-.36c-1.82-4.19-.37,4.19-.46.86,0,1.39,1.28,3.16,1.89,4.41a37.06,37.06,0,0,0,6,8.63c2.25,2.51,5.7,5.84,8.89,7,1.17.42,1.46,1.23.62-.16.65,1.07.78,3.17,1,4.36.62,3.91,1.37,5.29-2.2,6.43a84,84,0,0,1-19.39,4c-4.77.33-12.37.68-16.07-3.1-2.36-2.4-4.29-9.85-3.54-13.21.59-2.62,4.23-5.51,6-7.23.65-.62,2.2-1.46,2.62-2.21.81-1.45.82.07-.78-.54l-5-2.9.81.72-2.9-5c1.77,4.27-1.21,12.64-1.28,17.66-.11,7,1.36,15.75,8,19.64,7.8,4.55,15.32.34,20.23-6l13.3-17.23L171.59,81c3.29,7.86,1.12,16.21,7.55,23.09,6.63,7.09,18,7.76,24.9.74,10.12-10.23-5.64-26-15.8-15.8q4-3,7.16-.22h.16a11.65,11.65,0,0,0-.19-2c-.5-4-.59-8-2.17-11.76-2.79-6.7-12.91-12.44-18.73-4.94l-7.88,10.16L163,84.9l-1.82,2.35c-.91,1.06-1.06,1.24-.44.54l5.67-1.53.84.06,5,2.89,1.18,2-.19-.45a22.37,22.37,0,0,0-.11-3.48,63.75,63.75,0,0,1,.64-7c.7-5.56,1.76-11.2-.12-16.62-4.24-12.23-18.64-10.69-27.22-4.46s-17,15.55-17.8,26.7c-.7,9.53,2.58,21.71,9,28.89,14.26,15.89,41.15,11.32,59,5.44,10.29-3.39,17-10.81,17.82-21.83.67-8.85-1.74-21.11-9.26-26.52-3.53-2.55-7.46-3.89-10.13-7.53s-3.84-8.14-7.19-11.5c-4.4-4.42-10.26-5.07-16.16-4.6a97,97,0,0,0-18.74,2.88c-7.18,2-8,13.81,0,15.37Z"/></g><g class="a"><path class="c" d="M120.18,135.15c29.23,10,62.45,3.9,92.23-.24,7.61-1.06,6.05-11.9,0-13.9-8.45-2.8-16.76-3.52-23.8,2.79-4.78,4.29-.92,12.42,5.15,12.42A48.93,48.93,0,0,1,206.83,138V123.84a163.55,163.55,0,0,1-16.3,5.52c-9.35,2.64-5.16,15.38,3.9,14.13a50.12,50.12,0,0,1,13.12.18l-2-14.42a117.48,117.48,0,0,1-14.29,3.8c-8.2,1.64-6.22,14.54,1.95,14.44A67.94,67.94,0,0,1,207,148.61l-1.76-13.45A38.4,38.4,0,0,1,193.65,139c-8.24,1.48-6.23,14.63,2,14.47l13.75-.28c9.48-.19,9.51-14.95,0-14.75l-13.75.29,2,14.47a51.33,51.33,0,0,0,15.09-5.37c5.33-2.85,4.49-12.27-1.76-13.45a87.76,87.76,0,0,0-17.64-1.63l2,14.43a116.24,116.24,0,0,0,14.29-3.82c8.25-2.77,6.07-13.41-2-14.41a63.84,63.84,0,0,0-17,.37l3.9,14.13A164.36,164.36,0,0,0,210.72,138c6.29-2.51,7.56-12.09,0-14.11a63.5,63.5,0,0,0-17-2.17l5.14,12.42c2.41-2.19,7.16,0,9.68.82V121c-14.49,2.12-29,4.2-43.63,5s-28.94,0-43.37-1.18c-6.19-.5-6.72,8.49-1.4,10.31Z"/></g><g class="a"><path class="d" d="M158.15,50.31c4.83.4,12.34,1.32,16.47-1.73,3.48-2.57,3.3-8.06-1.24-9.42-2.7-.81-5.45-.14-8.18.26-2.34.35-4.68.58-7,.7-6.61.32-6.49,9.64,0,10.19Z"/></g><g class="a"><path class="d" d="M175.19,77.4c-2.13-8.59-20.89,0-18.79,8.42,1.26,5.08,8.79,4.24,12.68,5.5,1.81.59,4.49,1.49,5.75,3,5.58,6.5-3.48,8.28-6.65,8.58-1.59.15-11.56-1.53-11.72-1a1.7,1.7,0,0,0-3.09-1.3l-.24.41a1.8,1.8,0,0,0,.27,2.11c3.27,3.85,12.36,3.79,16.89,3s10-3.29,9.82-8.64c-.14-5.16-5.86-8-10.15-9.3-2.77-.84-10.43-.5-10.38-4.57.06-4.91,11.06-8.63,14.15-5.33a.88.88,0,0,0,1.46-.85Z"/></g><g class="a"><path class="d" d="M161.41,68.09c.2,5.86,1.15,11.71,1.89,17.52.33,2.59.67,5.19,1,7.78l.62,4.86c.37,2.81.24,2.33,2.49,4.51a1.47,1.47,0,0,0-2.45,1.42l.08.39a1.6,1.6,0,0,0,1.53,1.16h.47a1.66,1.66,0,0,0,1.59-1.21c.81-5.09-1.24-11.33-2-16.4-1-6.75-1.73-13.65-3.35-20.28a1,1,0,0,0-1.89.25Z"/></g><path d="M158.05,36.82a37.16,37.16,0,0,0-2.38-10.27c-.84-2.42-4.71-8.51-2.15-10.43,2-1.55,4.79-.73,6.79-3a5.1,5.1,0,0,0,1.23-4.91l-2.36,1.37a21.36,21.36,0,0,1,5.44,9.86c.44,1.77,3.19,1,2.74-.76a24.11,24.11,0,0,0-6.19-11.09A1.42,1.42,0,0,0,158.82,9c1.07,5.7-11.25,2.77-9.84,8.78.74,3.17,3.07,6.37,4.22,9.44,1.24,3.3,2.09,6.72,3.46,10,.3.69,1.42.33,1.39-.37Z"/><path d="M166.58,18.67q3.46-.78,6.91-1.64a.92.92,0,0,0,.64-1.13,9.5,9.5,0,0,1-.76-3.86c0-.8,1.4-5.64,3.17-4.77a26.4,26.4,0,0,0,.89,4.17c1.66,2.6,4,1.89,6.44,3.1a4.63,4.63,0,0,1,2.43,4.29c-.14.94-1.88,2.22-2.51,3a23.37,23.37,0,0,0-2.74,4.09,16.65,16.65,0,0,0-1.8,9.87c.19,1.32,2,.8,2.12-.28.67-5.24,1.91-8.81,5.19-12.91,1.38-1.71,3-3.45,2.87-5.82a4.69,4.69,0,0,0-2.49-3.84,11.51,11.51,0,0,0-3-.88c-3.73-1-3.33-.34-5.25-4.78-1.14-2.64-2.16-4.16-4.9-1.06A9.67,9.67,0,0,0,171.52,12c0,.43.41,2.88.33,3-.66,1.37-4.33,1.68-5.69,2.07a.79.79,0,0,0,.42,1.52Z"/><path d="M155.4,38.83c7.71.18,15.51,1.6,23.19,1.5a.78.78,0,0,0,.2-1.53c-7.38-2-15.86-1.37-23.39-.72a.38.38,0,0,0,0,.75Z"/><path d="M154.89,38.74a2.88,2.88,0,0,0-1.62,4.14c1.55,3.24,6.7,2.66,9.56,2.75,3.27.09,23.87,2.74,19.36-6-.5-1-2.31-.57-2.16.58.56,4.36-10.7,2.94-12.57,2.93s-3.7,0-5.55,0l-2.78,0c-2,.33-3.18-.8-3.64-3.41.44-.39,0-1.24-.6-1Z"/><path d="M152.27,42.55c-1.43,1.57-3.49,4.61-2.23,6.71,2.07,3.45,11.21,2.23,14.15,2.11,3.34-.13,6.67-.26,10-.44,2.59-.13,6.3.4,8.68-.55,3.37-1.33,3.06-4.36,1.45-7.18-.74-1.3-2.66-.15-2,1.17l-.86,3.83-2.73.16-3.64.23c-3,.19-6.07.41-9.1.64-2.48.19-5,.46-7.46.51a23.2,23.2,0,0,1-2.89-.05c-2.38.41-3.35-.54-2.91-2.83q-1.35-2.25.66-3.17c.79-.65-.43-1.92-1.14-1.14Z"/><path d="M149.08,49.83c-4.17,13.09-16.38,21.24-21.85,33.6-6.3,14.25,1.58,28.59,13.42,37,6.51,4.6,14.24,8.38,22.32,8.78,8.52.42,17.32-2.4,25.15-5.51C201.66,118.28,215.66,107.09,215,91c-.33-8.58-5.35-16.71-10.77-23.08-5.8-6.82-14.24-11.47-18.61-19.46-.56-1-2.12-.11-1.56.91,3.26,6,8.71,10,13.64,14.43,5.82,5.27,10.93,11.85,13.76,19.24,6.06,15.84-5.35,30-19,36.73a75.44,75.44,0,0,1-23.8,7.42c-8.56,1-16.39-1.65-23.67-6-6.65-4-12.69-9.38-16-16.51a24.81,24.81,0,0,1,0-21.37c5.64-11.94,17.64-20.1,20.91-33.29a.42.42,0,0,0-.82-.22Z"/><path d="M178.28,77.68A10.2,10.2,0,0,0,167.16,71c-4.62.53-11.21,4.74-11.4,9.94-.21,5.84,9.09,6.47,12.94,8.34s11,6.12,3,9.29c-2.45,1-14,2.51-13.59-2.56.13-1.57-2.26-2.65-3.26-1.36-4,5.08,1.44,9.1,6.39,9.79,6.24.88,15.81.16,18.67-6.62,3-7-4.14-10.77-9.5-13.22-1.76-.81-3.56-1.55-5.39-2.19-2.24-.78-4.83-.46-3.37-3,3.1-5.43,10.58-4.49,14.09-.3a1.51,1.51,0,0,0,2.51-1.45Z"/><path d="M162.46,66.94c-.14,6.84,1,13.8,1.69,20.6.65,6.3.64,13.12,2.32,19.23.69,2.52,4.37,1.94,4.47-.6.25-6.74-1.48-13.91-2.34-20.6-.82-6.32-1.3-12.88-2.89-19.07a1.66,1.66,0,0,0-3.25.44Z"/><path d="M128.52,113.38a4.8,4.8,0,0,0,3.62.42c1.26-.31,1-2.44-.31-2.31a13.52,13.52,0,0,1-2.77-.1c-1.09-.13-1.4,1.5-.54,2Z"/><path d="M112.91,131.66c5.06-6.21,11.13-11.8,15.75-18.34.59-.83-.66-1.66-1.35-1-5.88,5.32-10.41,12.26-15.33,18.45-.52.65.39,1.59.93.93Z"/><path d="M113.73,132.14c16.72,1.93,34.25.84,51.06.81,17,0,34.09.45,51.06-.07a1.41,1.41,0,0,0,0-2.81c-17-.52-34.08,0-51.06-.07-16.81,0-34.34-1.12-51.06.81a.67.67,0,0,0,0,1.33Z"/><path d="M203.78,112.81c5.31,6.21,11.41,11.87,17.34,17.5a1.25,1.25,0,0,0,1.76-1.77c-5.63-5.92-11.28-12-17.5-17.33a1.13,1.13,0,0,0-1.6,1.6Z"/><path d="M111,134.21c0,.91,0,1.82,0,2.73a1,1,0,0,0,2.08,0c0-.91,0-1.82,0-2.73a1.07,1.07,0,0,0-2.13,0Z"/><path d="M220.66,131.47c-.39,6.24-1.24,13.59.06,19.73a1,1,0,0,0,1.87,0c1.31-6.14.46-13.49.07-19.73a1,1,0,0,0-2,0Z"/><path d="M142.08,138.75c12.91,0,25.82.21,38.73.3q9.44.06,18.87.07c6,0,12.28.6,18.19-.37a1.18,1.18,0,0,0,0-2.26c-5.91-1-12.2-.38-18.19-.37q-9.44,0-18.87.08c-12.91.08-25.82.26-38.73.3a1.13,1.13,0,0,0,0,2.25Z"/><path d="M185.11,146.86c6.06.29,12.15.21,18.21.23,5.43,0,11.18.61,16.53-.38a.93.93,0,0,0,0-1.78c-5.35-1-11.1-.41-16.53-.39-6.07,0-12.15,0-18.21.23a1,1,0,0,0,0,2.09Z"/><path d="M189.55,153.12c5.7,0,11.38.48,17.08.22a1,1,0,0,0,0-2.06c-5.7-.27-11.38.16-17.08.21a.82.82,0,0,0,0,1.63Z"/><path d="M56,140.2a78,78,0,0,1,16.25,3.66c4.81,1.6,9.22,4.1,14,5.78,1,.37,1.44-1.08.69-1.64-8.55-6.33-20.61-8.35-30.91-9.6-1.14-.14-1.15,1.68,0,1.8Z"/><path d="M55.32,181.91c7.37,0,14.64-.52,22-.07s14.76,1.23,22.12,2c14.83,1.52,29.66,3.23,44.52,4.42,14.42,1.15,27.51-4.56,41-8.76,14.45-4.49,29-8.61,43.51-12.94a1.37,1.37,0,0,0-.73-2.64Q206,170.08,184.3,176.84c-6.84,2.12-13.61,4.49-20.47,6.56a57.53,57.53,0,0,1-22.56,1.95c-14.59-1.34-29.16-2.78-43.74-4.11C83.85,180,68.73,177.67,55.2,181a.46.46,0,0,0,.12.89Z"/><path d="M87.14,149.56c7.32-3.43,14.26-8.49,22.13-10.64s15.43,1.24,23.26,2.13c1.38.16,1.56-2,.32-2.34-7.11-2.15-16-4.53-23.42-2.51-8.09,2.21-16.38,7.06-23.1,12a.8.8,0,0,0,.81,1.38Z"/><path d="M125.35,161a300,300,0,0,0,36.72.78c5.66-.19,11.85,0,17.4-1.1,3.14-.64,5.36-2.2,6.31-5.37.83-2.79.88-6.95-.85-9.44-2-2.83-6.15-3.37-9.27-3.78-11.72-1.55-23.33,1.1-35.1-1a1.16,1.16,0,0,0-.62,2.24c7.42,2.64,15.44,1.73,23.14,1.27a88.77,88.77,0,0,1,12.42-.17c3.84.3,8.05.15,8.46,6.13.23,3.28-1.1,5.85-4.16,6.86-4.37,1.45-9.27,1.27-13.86,1.5s-9,.39-13.53.46c-9,.15-18-.12-27.06-.38-1.31,0-1.27,1.9,0,2Z"/><path d="M180,147.21a17.22,17.22,0,0,0-6.7.48c-1.48.41-3.27.92-4.14,2.31-1.77,2.85.55,7.47,3.27,8.79.66.32,1.44-.52.83-1.08-2.06-1.9-5.54-6.22-1.5-8.2,2.44-1.19,5.57-1.5,8.24-1.71a.3.3,0,0,0,0-.59Z"/><path d="M172.63,148.55c-.19,2.84-.18,5.71-.33,8.55-.06,1.06,1.7,1.33,1.88.25a26.27,26.27,0,0,0,.1-9c-.19-1-1.59-.67-1.65.22Z"/><path d="M224,153.24a19.09,19.09,0,0,1,9,4.25c2.63,2.34,3.88,5.2,5.21,8.37.29.68,1.49.71,1.43-.19-.5-7.37-8.54-13.21-15.56-12.83-.22,0-.29.36-.06.4Z"/><path d="M226.45,168.28c2-.6,3.83-1.64,5.89-2.15s4.15-.46,6.22-.84a.58.58,0,0,0,0-1.11c-3.8-1-9.75.56-12.55,3.34a.46.46,0,0,0,.44.76Z"/><path d="M223,170.6a27.36,27.36,0,0,0,11.83-2.88c.55-.26.07-1.07-.48-.82A41.32,41.32,0,0,1,223,170.09c-.29,0-.21.51.07.51Z"/><path d="M238.73,163.2a25,25,0,0,0,5.63-1.08c.6-.21.57-1.29-.16-1.19a24.93,24.93,0,0,0-5.57,1.6c-.33.12-.32.72.1.67Z"/><path d="M222.91,147.51a12.82,12.82,0,0,1,6.22-1.16c2.25.22,3.9,1.38,5.92,2.19a.55.55,0,0,0,.62-.8c-2.85-3.71-9.57-3.6-13.19-1.24-.5.32-.19,1.26.43,1Z"/><path d="M226.06,151.8c2.89-1.28,7.55-2.37,10.72-1.57,3.86,1,5.15,7.36,6.32,10.57a.9.9,0,0,0,1.73-.48c-.61-3.41-2.71-10.74-6.58-11.88s-9.6.35-12.86,2.21c-.77.43-.1,1.48.67,1.15Z"/><path d="M202.18,158.19a15.39,15.39,0,0,0,.23,7c.3,1.16,1.9.64,1.75-.48a32,32,0,0,1-.18-6.26.92.92,0,0,0-1.8-.24Z"/><path d="M234.3,217a83.39,83.39,0,0,1,14.65-.48c1.35.08,1.35-2,0-2.11a83.39,83.39,0,0,0-14.65.48c-1.33.16-1.35,2.27,0,2.11Z"/><path d="M240.12,208.53l.85,13.82c.08,1.35,2.19,1.36,2.11,0l-.85-13.82c-.08-1.35-2.19-1.36-2.11,0Z"/></svg>