<svg xmlns="http://www.w3.org/2000/svg" viewBox="0 0 415 155"><defs><style>.a{opacity:0.69;}.b{fill:#006837;}.c{fill:none;stroke:#000;stroke-miterlimit:10;stroke-width:3px;}</style></defs><title>Design Thinking Case Study</title><g class="a"><path class="b" d="M72.93,65.79c5.91,3.34,13,8,14.3,15.26,1.2,6.54-3.94,12.69-9.66,15.17-13.76,6-26.57-8.62-29.68-20.67-1.88-7.27-1-15.27,4.93-20.42,5.62-4.87,13.52-6.6,20.79-6.51A40,40,0,0,1,109.83,72.7c5.86,13.65,4,30.27-9.13,38.81s-30.42,12.16-45.76,9.16c-14.33-2.81-27.2-11.13-34.35-24s-6-29.13.34-42.29c7.17-14.95,20-28.13,36.17-32.89,15.35-4.5,31.81-.09,41.84,12.55,6.16,7.76,19.94-2.72,13.84-10.68C99.62,6.13,78-1.11,56.87,3.11s-39.5,20-49.62,38.56c-10.38,19.09-12.95,42.15-3,61.94,9.62,19.12,29.41,31.67,50.28,34.59,21.48,3,48.25-2.69,63.54-19.13,15.13-16.26,14.16-41.91,2.6-59.92a56,56,0,0,0-57.1-24.62c-10.26,1.9-20.4,7.37-26.1,16.34-5.9,9.28-5.86,21.39-2.2,31.48,7.2,19.85,30.72,36.74,51,23.32C94.9,100,100.6,89.93,98.13,79.5,95.6,68.76,85.81,62,76,58.51c-4.3-1.52-7,5.1-3.07,7.28Z"/></g><path d="M78.58,60.73c-5-1.87-11.59-2.29-16.1,1.13-2.93,2.22-5.24,6.47-3.28,10.06,2.23,4.1,9.22,3.81,13.13,5.1,1.83.61,4.36,1.12,5.82,2.34C82.49,83,80.8,86,76.87,87.05c-4.34,1.16-11.5.76-13.92-3.78a1.42,1.42,0,0,0-2.59,1.09c2.44,8.88,24.32,9.36,24.63-.8.18-5.87-7.43-8.12-11.83-9.55a56.68,56.68,0,0,0-5.72-1.52c-3.08-.64-6.74-1.41-5-5.36,2.84-6.58,10.21-4.49,15.92-4.47a1,1,0,0,0,.26-1.93Z"/><path d="M69.82,54.57c-1.46.27-1.9,1.16-1.33,2.66l.05,3c0,2,.07,3.93.11,5.89.11,4.26.25,8.52.37,12.78.11,3.93.18,7.86.34,11.79.07,1.83-.23,3,1.25,4.1a1.54,1.54,0,0,0,2.1-.55l.15-.3A1.42,1.42,0,0,0,72.37,92l-.19-.14c-.94-.69-2.18.45-1.9,1.46l.07.24,1-1.69-.33.05,1.73.71c-.68-1.43-.23-4.27-.32-5.93-.09-2-.19-3.93-.29-5.9L71.5,69c-.2-3.93-.38-7.87-.69-11.79-.1-1.32.06-2.67-1-3.61a1,1,0,0,0-1.52.19l-.2.33a.89.89,0,0,0,.52,1.29l.23.08a.77.77,0,0,0,.94-.94Z"/><circle class="c" cx="69.58" cy="74.96" r="35.5"/><path d="M16,20.42a19.73,19.73,0,0,1,3.78,4.71,1.5,1.5,0,0,0,2.59-1.52,22.89,22.89,0,0,0-4.24-5.31c-1.42-1.31-3.55.81-2.13,2.12Z"/><path d="M30.08,35.16q3.38,3.42,6.42,7.13c1.22,1.5,3.33-.63,2.12-2.12q-3-3.72-6.42-7.13c-1.36-1.38-3.48.74-2.12,2.12Z"/><path d="M20.4,18,35,18.48c1.93.06,1.93-2.94,0-3L20.4,15c-1.93-.06-1.93,2.94,0,3Z"/><path d="M36.32,19.47,40,40.54c.34,1.9,3.23,1.1,2.9-.8L39.22,18.67c-.33-1.9-3.23-1.09-2.9.8Z"/><path d="M98.41,114A117.83,117.83,0,0,1,97,133.34c-.29,1.89,2.6,2.7,2.9.8A123.21,123.21,0,0,0,101.41,114a1.5,1.5,0,0,0-3,0Z"/><path d="M98.62,134.21a189.24,189.24,0,0,0,19.35.15c1.92-.08,1.93-3.08,0-3a192.15,192.15,0,0,1-19.35-.15c-1.92-.12-1.92,2.88,0,3Z"/><path d="M114.71,128.38a20.38,20.38,0,0,1,3.37,2,1.51,1.51,0,0,0,2-.54,1.53,1.53,0,0,0-.54-2,20,20,0,0,0-3.37-2,1.5,1.5,0,1,0-1.51,2.59Z"/><path d="M101.54,114.89a25,25,0,0,1,3.4,3.58,1.55,1.55,0,0,0,2,.54,1.53,1.53,0,0,0,.54-2.06,28.86,28.86,0,0,0-3.86-4.18c-1.45-1.27-3.58.84-2.13,2.12Z"/><path d="M16.22,97.15a2,2,0,0,0,2-2,2,2,0,0,0-2-2,2,2,0,0,0,0,3.92Z"/><path d="M55.5,14.14a1.7,1.7,0,0,0,0-3.4,1.7,1.7,0,0,0,0,3.4Z"/><path d="M62.64,3.69a2.17,2.17,0,0,0-1.31,0,1.8,1.8,0,0,0,0,3.45,2.25,2.25,0,0,0,1.31,0,1.82,1.82,0,0,0,0-3.48Z"/><path d="M63.46,20l0-.16a2.11,2.11,0,1,0-4.07,0l0,.16a2.08,2.08,0,0,0,2,1.53,2.11,2.11,0,0,0,2-1.53Z"/><path d="M124.43,54.92l-.15-.05,1.3,1,0-.07a2.4,2.4,0,0,0-2.63-1.07l-.16,0a2.31,2.31,0,0,0-1.67,2.2,2.34,2.34,0,0,0,1.67,2.2l.16,0a2.38,2.38,0,0,0,2.63-1.07l0-.07-1.3,1,.15,0A2.18,2.18,0,0,0,126,57a2.23,2.23,0,0,0-1.56-2Z"/><path d="M75.83,134.71c3,0,3-4.71,0-4.71s-3,4.71,0,4.71Z"/><path d="M76.18,145.9c2.54,0,2.54-3.94,0-3.94s-2.53,3.94,0,3.94Z"/><path d="M82.85,140.94a1.92,1.92,0,0,0,0-3.84,1.92,1.92,0,0,0,0,3.84Z"/><path d="M21.08,104c7.65,15.86,23.66,24.47,40.27,28.12,1.88.42,2.69-2.48.8-2.89-15.92-3.5-31.14-11.51-38.48-26.74-.83-1.74-3.42-.22-2.59,1.51Z"/><path d="M13.78,74.51c1.41-14.27,6-28.32,15.56-39.25,1.27-1.45-.85-3.58-2.12-2.12C17.11,44.72,12.27,59.39,10.78,74.51c-.19,1.92,2.81,1.91,3,0Z"/><path d="M108.7,117.51a46.23,46.23,0,0,0,17.55-35.57c0-1.93-3-1.93-3,0a43.36,43.36,0,0,1-16.67,33.44c-1.52,1.2.62,3.31,2.12,2.13Z"/><path d="M76,21c16.83.72,32.18,11.42,37.66,27.51.62,1.82,3.52,1,2.9-.8C110.59,30.35,94.18,18.81,76,18,74,18,74,21,76,21Z"/><path d="M65.62,142.74c-13.48-2.83-27.68-5.74-38.91-14.21C16.47,120.81,8.82,109.34,4.86,97.21c-7.63-23.4-2.85-55.42,17.76-71,1.52-1.15,0-3.75-1.51-2.59C-.19,39.71-5.86,71.9,1.48,96.45a68.57,68.57,0,0,0,22,33.4c11.78,9.47,26.84,12.75,41.3,15.78,1.89.4,2.69-2.49.8-2.89Z"/><path d="M74.89,6.22c26.31,1.73,49.43,19.5,58.91,44a66.36,66.36,0,0,1,3,37.84c-3,14.42-8.75,28.84-20.26,38.56-1.48,1.24.65,3.36,2.12,2.12,11.88-10,17.89-25,21-39.88a69.54,69.54,0,0,0-3.52-40.7C126,23,102.14,5,74.89,3.22c-1.93-.13-1.92,2.87,0,3Z"/><path d="M253.42,49.39c-.61,4.93-.68,9.92-1,14.87-.14,2.18,2.49,2.74,3.89,1.62,1.55-1.24,3.26-2.81,5.21-3.41,2.89-1.12,4.54.12,4.92,3.72-.44,1.1-.93,2.18-1.45,3.24-1.68,3.55-3.88,6.85-5.45,10.43-.87,2,1.66,4.62,3.35,2.58,3.16-3.79,5.39-8.56,7.33-13.08,1.25-2.92,2-6-.06-8.73-4.7-6.3-12.59-1.86-17.08,2l3.9,1.61c-.07-5,.08-9.93-.3-14.87a1.64,1.64,0,0,0-3.28,0Z"/><path d="M257.79,52.31a49.92,49.92,0,0,0,13.43-5.85,1.87,1.87,0,0,0-1.88-3.22,100.26,100.26,0,0,1-12.55,5.43c-2.29.75-1.34,4.33,1,3.64Z"/><path d="M202.92,48.8c-4.06-3.52-9.5-3.12-13.33.6-3,2.88-6.55,9.31-2.54,12.7,5.28,4.45,16.1,1.72,20.24,8.14,3.6,5.58-6.62,4.87-9.13,4.84A20.65,20.65,0,0,1,186,71.43c-1.88-1.31-3.78,1.49-2.35,3.06,4.47,4.89,11.14,5.49,17.43,5.15,4.4-.24,12.12-.46,12.24-6.48.11-5.85-7.13-9.35-11.78-10.88-3-1-8-1-10.5-2.74-5.52-3.75,4.79-12.94,10.41-8.89,1.08.79,2.45-1,1.43-1.85Z"/><path d="M192.66,38.94c.42,7.86,1.46,15.7,2.35,23.52.8,7.09.64,15.32,2.92,22.09a2,2,0,0,0,4-.53c.63-7.54-1.66-16-2.64-23.52-1-7.34-1.79-14.74-3.18-22-.37-1.91-3.51-1.48-3.41.46Z"/><path d="M281.34,52.09a18.88,18.88,0,0,0-2.77,21.18c3.22,6,11.86,9.06,16.85,3.29s2.48-17-.44-23c-2.34-4.84-10.6-9.6-13.75-2.67a1.91,1.91,0,0,0,3,2.3c4.89-4.18,7.5,4.83,8.16,7.92.85,3.94,2.19,11.29-2.31,13.23-5.37,2.32-8.55-4-9.08-8.37a16.26,16.26,0,0,1,3.07-11.75c1.14-1.59-1.4-3.53-2.71-2.09Z"/><path d="M308.36,48.48c-7.72.25-8.33,14.69-6.4,19.93,2.43,6.57,10.5,10.1,16,4.83,6.31-6,5.47-17.37,2.32-24.72-2.73-6.35-10.65-11.84-15.93-4.83-1.52,2,1.71,4.32,3.43,2.64,5.51-5.42,9.11,6.21,9.65,9.67.59,3.75.62,8.4-1.43,11.79-2.88,4.77-8.43,3.24-9.94-1.92-.56-1.9-.7-13.14,2.29-13.47,2.44-.27,2.57-4,0-3.92Z"/><path d="M332.14,71.66c-.83,2.13-1.71,4.23-2.37,6.42s2.92,4,4,1.68,1.88-4.57,2.74-6.9a2.27,2.27,0,0,0-1.58-2.78,2.32,2.32,0,0,0-2.78,1.58Z"/><path d="M245.39,74.86c-.83,2.13-1.71,4.23-2.37,6.42s2.92,4,4,1.68,1.88-4.57,2.74-6.9a2.27,2.27,0,0,0-1.58-2.78,2.32,2.32,0,0,0-2.78,1.58Z"/><path d="M351.18,50.5c-8.61-.35-10.25,11-9.35,17.57.92,6.89,7.7,12.31,14.28,8.18,6.35-4,7.14-14.44,4.34-20.78-2.71-6.11-11.07-9.75-16.2-4.2-2.07,2.23,1,5.07,3.26,3.26,8.37-6.64,11.58,11.71,7.05,16.52s-8.08-1.76-8.19-5.9c-.09-3.49.16-11.18,4.81-11.23a1.71,1.71,0,0,0,0-3.42Z"/><path d="M364.37,52.3c-2.36,6.59-1.45,14.35,3.31,19.7s11.81,2.81,14.69-3.1c3.17-6.54.45-14.93-5-19.46-4.21-3.53-12.69-3.73-13.7,3A1.8,1.8,0,0,0,367,53.83c5.72-8.42,16.85,8.27,9.82,15-4.2,4-7.78-2.06-8.85-5.65a16.45,16.45,0,0,1,.25-9.82c.77-2.46-3-3.43-3.82-1.06Z"/><path d="M389.32,51c-2.51,6.47-3.41,16.11,2.05,21.45,5.29,5.16,12.31,2.28,14.84-4s1.29-14.49-4-19.12a13.71,13.71,0,0,0-17.57-.52c-2,1.59.55,4.61,2.65,3.42,8.54-4.85,16.84,3.14,15,12.12-.38,1.8-1.26,4.51-3.05,5.45-3.43,1.81-5.76-2.12-6.51-4.6-1.3-4.28-.7-9,.56-13.15.76-2.55-3-3.46-3.91-1.08Z"/><path d="M216.3,57.31c-.16-4.34,2.9-8.36,7.57-7.86s6.25,4.69,6.58,8.78c.67,8.29-3.85,12.35-10.39,16.4-2.17,1.34-1,4.11,1.19,4.41a54.44,54.44,0,0,0,17.14,0c2.53-.47,1.91-4.47-.6-4.44-5.58.07-11,.35-16.54-.34l1.2,4.42c5.19-3.29,10.61-7.06,12.14-13.39,1.17-4.79.7-11.61-2.35-15.68-6.59-8.77-19.93-2.88-18.85,7.66.19,1.82,3,1.91,2.91,0Z"/></svg>