<svg xmlns="http://www.w3.org/2000/svg" viewBox="0 0 458 83"><defs><style>.a{fill:#00a14b;}</style></defs><title>Design Thinking Case Study</title><path class="a" d="M15.22,27.11a61.77,61.77,0,0,1,10-.33c3.29.18,6.71,1.21,10,.81,2.69-.33,4.74-4.35,1.58-5.82-6.48-3-15.47-1.32-22.26,0-2.94.59-2.33,5.62.71,5.3Z"/><path class="a" d="M4.1,23.58c.1,6.08.69,12.14.24,18.22-.27,3.72,4.36,4.79,6.74,2.79a9.72,9.72,0,0,1,9.28-2c3.2,1,7.78,5.22,5.16,8.86-3.82,5.32-13.22,3.2-18.27,2-3-.71-6.29,3.5-3.37,5.78C12.57,66,35.33,63.6,34.67,49.18c-.29-6.2-5.26-11.69-10.84-13.85C17.34,32.82,10.64,34.61,5.5,39l6.73,2.79c-.21-6.5-.62-12.8-3-18.92-1-2.62-5.23-2.47-5.18.7Z"/><path class="a" d="M40.78,21.88a7.14,7.14,0,0,0,.87,11.26c3.19,2,7.78,1,10.24-1.73a8.06,8.06,0,0,0-.33-11.06c-2.77-2.91-9-4.91-11.42-.51a2.79,2.79,0,0,0,1,3.79,10.16,10.16,0,0,0,3.31.92l.19,0a4.74,4.74,0,0,1,.57.16,2.41,2.41,0,0,1,.72.38c-.39-.27.37.34.45.43-.41-.47.42,1,.19.32l.1.37c-.05-.35-.06-.3,0,.17.06-.42,0-.41-.06,0,.14-.32.15-.37,0-.14s-.11.19.09-.08a4.25,4.25,0,0,1-.48.47c.54-.45-.3.14-.38.18-.38.19-.4.21-.06,0a4.77,4.77,0,0,1-.65.17c.63-.11-.1-.05-.34-.05.42.05.42,0,0-.06l.25.12q-.51-.32-.09,0c.1.21,0,.11-.18-.31a2,2,0,0,1,.44-1.42c2-2.65-2.18-5.49-4.42-3.41Z"/><path class="a" d="M59,20.54c-3.54,4.48-4.55,11-6.24,16.36-2,6.35-4.46,12.76-5.79,19.29a3.64,3.64,0,0,0,7,1.93c2.26-5.93,3.54-12.33,5.17-18.47,1.44-5.4,4.34-11.89,3.75-17.5-.18-1.7-2.54-3.35-3.9-1.61Z"/><path class="a" d="M66.52,44.35c-4.19,3-2.62,8.94,1.07,11.63a8,8,0,0,0,11.56-2.71,9.47,9.47,0,0,0-2.44-12.38c-3.61-2.64-10-3-13,.85a3.37,3.37,0,0,0-.51,3.9,3.26,3.26,0,0,0,3.64,1.49c1.52-.53,3.3-1.35,4.9-.73A1.92,1.92,0,0,1,73.06,49c-.27.92-.88,1.69-1.62,1.3-1-.54-1.11-1.75-.88-2.81.47-2.13-2-4.6-4-3.11Z"/><path class="a" d="M243.83,23.34c-3.74,2.3-5,7.53-1.85,10.93,2.54,2.71,6.87,2.91,10,1.16a8,8,0,0,0,3-10.59c-1.81-3.69-8-7.67-11.43-3.66a2.84,2.84,0,0,0,.56,4.36c1.33,1,3.22,1,4.12,2.23a1.51,1.51,0,0,1,.35,1l-.1.33q.21-.55-.09,0l.15-.24c-.31.29-.32.31,0,.06-.08,0-1,.47-.33.21a4.92,4.92,0,0,1-1,.27c.75-.12-.25,0-.37-.05.77.2-.18-.07-.31-.14.35.15.35.13,0-.07l.21.15c.19-.33-.25,1,0-.11.11-.61,0-.91.53-1.39,2.39-2.14-.7-6.09-3.41-4.42Z"/><path class="a" d="M261.45,26c-4.5,3.82-7,10.91-9.78,16-3,5.59-6.42,11.1-8.88,17-1.64,3.92,4.54,6.14,6.64,2.8,3.54-5.64,6.17-12,9.1-18,2.49-5.07,6.3-10.52,6.82-16.21.19-2.15-2.55-2.77-3.9-1.61Z"/><path class="a" d="M264.06,50.72c-4.33,2-3.51,8.1-1,11.12a7.94,7.94,0,0,0,12-.05,9.47,9.47,0,0,0,0-12.86c-3.43-3.55-9.44-4.42-13.26-1.14-2,1.7-.49,5.87,2.28,5.5,1.62-.22,3.57-.69,5.07.2a2,2,0,0,1,.89,2.78c-1.3,2.58-3.08.09-2.26-1.78a2.78,2.78,0,0,0-3.77-3.77Z"/><path class="a" d="M177.45,27.75c2.84-2,6.7-4.16,9.34-.48,3.12,4.34-1.52,7.94-4.78,10.25-2.88,2-2.29,7.78,2,7.4,2.85-.26,6.76-.93,9.1,1.16a5.8,5.8,0,0,1,1,7.13c-3.5,5.8-10.13,2.47-13.74-1.06-3-2.93-7.23.75-5.55,4.28,5.11,10.78,21.09,10.65,26.64.32a13.87,13.87,0,0,0-1.12-14.6C196.44,36.78,190.11,36.33,184,37l2,7.39c7-5.15,13.29-13.36,6.82-21.76-4.75-6.17-15.83-6.52-19.59.94-1.25,2.5,1.5,6.13,4.2,4.2Z"/><path class="a" d="M210.93,26.09c-5.68,8-10.1,18.44-4,27.56C212.15,61.38,223.41,62,230.2,56c15.68-13.68-2.17-41.15-20.88-31.7-4.55,2.3-.56,8.65,3.92,6.71,10.92-4.73,20.69,12.29,11.15,19.39-4.71,3.51-10.6,1.66-12.66-3.75-2.33-6.14.83-12.62,4.26-17.65,2.14-3.13-2.91-6-5.06-2.95Z"/><path class="a" d="M412.28,8c-6.11,7.77-11.37,17.71-5.94,27.37,4.65,8.29,15.9,9.64,23.19,4.06,16.79-12.84-.09-41.24-19.32-32.69-4,1.77-1.14,8.65,3,7.1,11.17-4.19,21.32,12,11.23,19.48a8.08,8.08,0,0,1-12.68-3.94c-2.21-6.35,1.4-12.9,5.13-17.83,2-2.63-2.55-6.17-4.6-3.55Z"/><path class="a" d="M382.55,16.28A73,73,0,0,1,395.78,8l-5.94-3.42c-.45,6.21-.6,12.45-.86,18.67-.25,5.78-1.19,12-.06,17.71.75,3.78,6.4,3.47,7.34,0,1.52-5.59.93-12,1.08-17.71.15-6.22.43-12.45.4-18.67a4,4,0,0,0-5.95-3.41A46.32,46.32,0,0,0,379,11.62c-2,2.37.7,6.86,3.59,4.66Z"/><path class="a" d="M381.71,46.2a60.77,60.77,0,0,1,11.37-1.64c3.43-.14,6.93.19,10.29-.53,3.52-.75,3.49-6.31,0-7.08-7.23-1.6-16.36,1.15-23.39,3-4,1.06-2.33,7.19,1.73,6.26Z"/><path class="a" d="M370.53,57a49.33,49.33,0,0,1,9.25,6.23c1.43,1.17,3.47-.74,2.08-2.08a38.11,38.11,0,0,0-9.93-6.55c-1.6-.77-3,1.6-1.4,2.4Z"/><path class="a" d="M381.06,54.13c-1.13,8.8-2.43,17.57-3.56,26.37-.25,1.93,2.82,1.93,3.05,0,1-8.79,1.86-17.59,2.89-26.37.17-1.52-2.19-1.49-2.38,0Z"/><path class="a" d="M390,63.9c3.1,3.6,9.28,2.21,10.91-2.21,1.84-5-3.44-8.64-7.92-7-5.45,2-6.94,9.84-5.35,14.8s7.64,8.49,12.26,5.1a1.57,1.57,0,0,0-1.58-2.7c-6.7,3.57-9.15-5.86-7.35-10.6.87-2.3,5-6.22,7-2.66,1.15,2-.91,3.78-2.49,4.29a5.75,5.75,0,0,1-4.33-.55A1,1,0,0,0,390,63.9Z"/><path class="a" d="M414.13,63.27a4.26,4.26,0,0,0-3.54-6.19c-4.47-.35-6.56,4.44-6.64,8.15-.07,2.91,1,7.63,4.85,7.15,4.49-.56,6.5-7.75,7-11.38l-2.79.37c1.89,4.25,2.7,8.76,4.38,13.05.55,1.41,2.95,1.38,2.85-.39-.26-4.83-2.57-9.87-4.59-14.21-.52-1.12-2.62-.92-2.8.37-.24,1.79-3,11.47-5.57,8.1-.85-1.12-.56-3.85-.29-5.06a5.17,5.17,0,0,1,1.26-2.51c1.34-1.3,4.9-.83,4,1.77a1,1,0,0,0,1.85.78Z"/><path class="a" d="M421.59,62.38c.67,4.78,1.93,9.52,3,14.24.37,1.66,3.23,1.33,3-.41-.68-5.9-1.28-13,5.54-15.27,1.46-.49,1.33-3-.38-2.84-9,.75-9.1,11.94-8.19,18.52l3-.82c-1.13-4.68-2.07-9.49-3.55-14.08a1.24,1.24,0,0,0-2.38.66Z"/><path class="a" d="M445,57.66c-3.73-3.32-9.28.26-8.5,5,.48,3,2.83,3.73,5,5.18s3.25,4,1.32,6.18c-1.79,2-4.57,1.25-6.28-.47-1.14-1.16-3.26.36-2.31,1.78,2.92,4.31,9.82,4.25,12.12-.7a7.44,7.44,0,0,0-.85-7.61,8.81,8.81,0,0,0-2.8-2.16c-1.07-.6-3.86-1.61-3.28-3.36l2.46-2.41a6.15,6.15,0,0,1,2,.42,1.14,1.14,0,0,0,1.1-1.88Z"/></svg>